<?xml version="1.0" encoding="UTF-8"?>
<svg width="18px" height="18px" viewBox="0 0 18 18" version="1.1" xmlns="http://www.w3.org/2000/svg" xmlns:xlink="http://www.w3.org/1999/xlink">
    <title>Icon_International</title>
    <g id="mWeb" stroke="none" stroke-width="1" fill="none" fill-rule="evenodd">
        <g id="Porter-Service---Icon-Library" transform="translate(-150.000000, -176.000000)" fill="#222222" fill-rule="nonzero">
            <g id="Group" transform="translate(150.250000, 176.250000)">
                <path d="M8.75,0 C13.5824977,0 17.5,3.91749813 17.5,8.75 C17.5,13.5824912 13.5824924,17.5 8.75,17.5 C3.91750762,17.5 0,13.5824912 0,8.75 C0,3.91749813 3.91750233,0 8.75,0 Z M8.75,1.5 C4.74592909,1.5 1.5,4.74592561 1.5,8.75 C1.5,12.7540641 4.74593485,16 8.75,16 C12.7540651,16 16,12.7540641 16,8.75 C16,4.74592561 12.7540709,1.5 8.75,1.5 Z" id="Path"></path>
                <path d="M10.5262827,0.323102267 C10.924395,0.208736636 11.3398404,0.438758733 11.454206,0.836871 C11.5113888,1.03592713 11.4824747,1.23931656 11.3895009,1.40723765 L11.364,1.44494829 L11.3667359,1.50877891 C11.3738992,1.65993113 11.399046,1.87040561 11.4429319,2.13483689 L11.4715181,2.29992755 C11.5131901,2.53164478 11.5667268,2.60056507 11.7527614,2.7168936 C11.7848428,2.73695427 11.8179642,2.75675143 11.8997166,2.80532754 C12.5829065,3.21456996 12.8772813,3.72482631 12.7310413,4.66034016 C12.5587895,5.76226683 11.9909408,6.08795304 10.9136729,6.16377863 C10.6322258,6.18358882 10.5237566,6.1959095 10.4001342,6.2266789 C10.2604548,6.26144486 10.1524901,6.3145588 10.0530254,6.40105335 C9.95512832,6.4861847 9.93683051,6.70570521 10.0277955,7.43097386 C10.0351109,7.48932324 10.0351109,7.48932324 10.0424749,7.54897643 C10.2043899,8.87034757 10.0546637,9.62500688 9.09588951,10.160266 C8.75888274,10.3483931 8.39714551,10.4293614 8.02356792,10.4103257 C7.4209675,10.3796201 6.95390886,10.157561 6.16942257,9.6521487 C5.47028977,9.20172612 5.26052197,9.11190696 5.25019732,9.11753431 C5.13419782,9.18075608 5.05446586,9.42530141 4.99347083,10.1024832 L4.9899043,10.1423962 C4.98811981,10.1624072 4.98704519,10.1745882 4.98382132,10.2111313 C4.89142302,11.2578686 4.79201042,11.6760273 4.32893181,12.0983202 C3.60563148,12.7579348 2.56178522,12.7579348 1.27085674,12.2402719 C0.886401869,12.0861053 0.699716317,11.6494664 0.853882885,11.2650115 C1.00804945,10.8805567 1.4446884,10.6938711 1.82914326,10.8480377 C2.64375078,11.1746956 3.11564852,11.1746956 3.31819614,10.9899821 C3.37922715,10.9343264 3.43477534,10.7006743 3.48963144,10.0792352 C3.49449212,10.0241356 3.49449212,10.0241356 3.49951876,9.96792022 C3.60566221,8.78948936 3.79755664,8.20093134 4.5323513,7.80045531 C5.2922489,7.3862807 5.67919509,7.55196476 6.98180932,8.39118567 C7.54668815,8.75511393 7.85050525,8.89956121 8.09990152,8.91226922 C8.1964537,8.91718904 8.27802939,8.89892981 8.36472802,8.85053208 C8.60301511,8.71750249 8.64717069,8.49494691 8.55361085,7.73141538 C8.54666315,7.67513283 8.54666315,7.67513283 8.53945618,7.61764502 C8.38305739,6.370669 8.42846195,5.82594622 9.0687346,5.26916482 C9.35659539,5.01884095 9.67829464,4.86057887 10.0378404,4.77108858 C10.2744218,4.7122039 10.4397342,4.69342657 10.8083531,4.66748061 C11.2711535,4.63490552 11.2114482,4.66914913 11.2490389,4.42867413 C11.2921591,4.15282932 11.3248552,4.2095032 11.1289032,4.09212462 C11.0528739,4.04702896 11.0044686,4.01809636 10.9574833,3.98871621 C10.4376449,3.66365819 10.1189166,3.25334466 9.99520801,2.56546186 C9.73253821,1.10527112 9.73253821,0.551121088 10.5262827,0.323102267 Z" id="Path"></path>
                <path d="M11.6674344,9.91872711 C12.9969919,9.221577 14.5835198,9.92258661 16.4478547,11.7757549 C16.7416264,12.067767 16.7430528,12.5426386 16.4510407,12.8364102 C16.1590286,13.1301819 15.684157,13.1316084 15.3903853,12.8395963 C13.9428781,11.4007591 12.9270869,10.9519303 12.3639983,11.2471844 C12.0647012,11.4041158 11.9170997,11.5431124 11.8545245,11.671083 C11.8058116,11.7707042 11.7957877,11.8759478 11.8081583,12.1772242 C11.8255776,12.6014547 11.8160702,12.7909683 11.7128017,13.0697625 C11.5882524,13.4059271 11.4235643,13.6184703 11.1488958,13.8719278 C11.0167586,13.9938608 10.9722967,14.0346541 10.9590576,14.0471185 C10.9590977,14.0488554 10.9604876,14.0485532 10.9487303,14.0608668 C10.8270105,14.188346 10.7428577,14.3287747 10.6633917,14.578277 C10.55104,14.9310465 10.7201091,15.3778174 11.2947939,15.9659645 C11.5842768,16.2622288 11.5787795,16.7370707 11.2825152,17.0265536 C10.986251,17.3160366 10.5114091,17.3105392 10.2219261,17.014275 C9.29730224,16.0679912 8.92664806,15.0885248 9.23413094,14.1230698 C9.38350191,13.6540742 9.58628728,13.3156889 9.86384631,13.0249967 C9.9110385,12.9755716 9.95847403,12.9292769 10.0136073,12.8779318 C10.0788499,12.8178502 10.0788499,12.8178502 10.1316548,12.7695573 C10.2481045,12.6621003 10.2789432,12.6223005 10.3062178,12.548685 C10.309964,12.5385713 10.3127329,12.5202714 10.3139689,12.4854871 L10.3142325,12.3914806 C10.3135294,12.3511796 10.3119805,12.3010935 10.3094212,12.2387636 C10.287316,11.7004095 10.3155836,11.4036209 10.5069971,11.0121673 C10.7211854,10.5741378 11.1027684,10.2148004 11.6674344,9.91872711 Z" id="Path"></path>
            </g>
        </g>
    </g>
</svg>