<?xml version="1.0" encoding="UTF-8"?>
<svg width="18px" height="18px" viewBox="0 0 18 18" version="1.1" xmlns="http://www.w3.org/2000/svg" xmlns:xlink="http://www.w3.org/1999/xlink">
    <title>Icon_Domestic</title>
    <g id="mWeb" stroke="none" stroke-width="1" fill="none" fill-rule="evenodd">
        <g id="Porter-Service---Icon-Library" transform="translate(-176.000000, -175.000000)" fill="#222222" fill-rule="nonzero">
            <g id="Icon_Domestic" transform="translate(176.250000, 175.250000)">
                <path d="M8.75,0 C13.5824977,0 17.5,3.91749813 17.5,8.75 C17.5,9.71560553 17.343589,10.6446793 17.0547208,11.5132677 C16.845035,10.806556 16.4685889,10.1541259 15.949602,9.6184165 C15.9825985,9.33228189 16,9.04317311 16,8.75 C16,4.74592561 12.7540709,1.5 8.75,1.5 C4.74592909,1.5 1.5,4.74592561 1.5,8.75 C1.5,12.7540641 4.74593485,16 8.75,16 C8.92305705,16 9.09469792,15.9939366 9.26472175,15.9820107 C9.50230929,16.3646153 9.77765667,16.7452646 10.0829943,17.1233791 C10.1491302,17.2052214 10.2161064,17.2862994 10.2839108,17.3666006 C9.78607165,17.4540443 9.2734026,17.5 8.75,17.5 C3.91750762,17.5 0,13.5824912 0,8.75 C0,3.91749813 3.91750233,0 8.75,0 Z M15.4552456,11.5123216 C15.6487972,11.929414 15.7514309,12.3903354 15.75,12.8621192 C15.75,13.4216228 15.574466,13.9939617 15.3177665,14.5315955 C14.3933718,15.5808512 13.2222346,16.4063945 11.895044,16.9177694 C11.6700087,16.6813176 11.4554732,16.4352601 11.25,16.1809903 C11.1266085,16.0281884 10.999054,15.8619336 10.8728303,15.6849935 C12.8949918,15.065864 14.5412439,13.5875547 15.3854501,11.6756959 Z" id="Combined-Shape"></path>
                <path d="M12.7499854,17.75 C12.2086764,17.2712667 11.7069304,16.7464344 11.2500004,16.1809903 C10.5642823,15.3318321 9.75000038,14.067204 9.75000038,12.8621192 C9.7493926,11.6035104 10.4803881,10.4685641 11.6018773,9.9868888 C12.7233666,9.50521347 14.0142923,9.77175237 14.8722602,10.6621285 C15.4364534,11.2445008 15.7525035,12.0366845 15.7499851,12.8621192 C15.7499851,14.067204 14.9356884,15.3318321 14.2499776,16.1809903 C13.7930388,16.746433 13.2912929,17.2712651 12.7499854,17.75 L12.7499854,17.75 Z M12.7499854,11.5290608 C12.0399086,11.5290608 11.4642777,12.1258914 11.4642777,12.8621192 C11.4642777,13.598347 12.0399086,14.1951776 12.7499854,14.1951776 C13.4600621,14.1951776 14.035693,13.598347 14.035693,12.8621192 C14.035693,12.1258914 13.4600621,11.5290608 12.7499854,11.5290608 L12.7499854,11.5290608 Z" id="Shape"></path>
                <path d="M10.5262827,0.323102267 C10.924395,0.208736636 11.3398404,0.438758733 11.454206,0.836871 C11.5113888,1.03592713 11.4824747,1.23931656 11.3895009,1.40723765 L11.364,1.44494829 L11.3667359,1.50877891 C11.3738992,1.65993113 11.399046,1.87040561 11.4429319,2.13483689 L11.4715181,2.29992755 C11.5131901,2.53164478 11.5667268,2.60056507 11.7527614,2.7168936 C11.7848428,2.73695427 11.8179642,2.75675143 11.8997166,2.80532754 C12.5829065,3.21456996 12.8772813,3.72482631 12.7310413,4.66034016 C12.5587895,5.76226683 11.9909408,6.08795304 10.9136729,6.16377863 C10.6322258,6.18358882 10.5237566,6.1959095 10.4001342,6.2266789 C10.2604548,6.26144486 10.1524901,6.3145588 10.0530254,6.40105335 C9.95512832,6.4861847 9.93683051,6.70570521 10.0277955,7.43097386 C10.0351109,7.48932324 10.0351109,7.48932324 10.0424749,7.54897643 C10.2043899,8.87034757 10.0546637,9.62500688 9.09588951,10.160266 C8.75888274,10.3483931 8.39714551,10.4293614 8.02356792,10.4103257 C7.4209675,10.3796201 6.95390886,10.157561 6.16942257,9.6521487 C5.47028977,9.20172612 5.26052197,9.11190696 5.25019732,9.11753431 C5.13419782,9.18075608 5.05446586,9.42530141 4.99347083,10.1024832 L4.9899043,10.1423962 C4.98811981,10.1624072 4.98704519,10.1745882 4.98382132,10.2111313 C4.89142302,11.2578686 4.79201042,11.6760273 4.32893181,12.0983202 C3.60563148,12.7579348 2.56178522,12.7579348 1.27085674,12.2402719 C0.886401869,12.0861053 0.699716317,11.6494664 0.853882885,11.2650115 C1.00804945,10.8805567 1.4446884,10.6938711 1.82914326,10.8480377 C2.64375078,11.1746956 3.11564852,11.1746956 3.31819614,10.9899821 C3.37922715,10.9343264 3.43477534,10.7006743 3.48963144,10.0792352 C3.49449212,10.0241356 3.49449212,10.0241356 3.49951876,9.96792022 C3.60566221,8.78948936 3.79755664,8.20093134 4.5323513,7.80045531 C5.2922489,7.3862807 5.67919509,7.55196476 6.98180932,8.39118567 C7.54668815,8.75511393 7.85050525,8.89956121 8.09990152,8.91226922 C8.1964537,8.91718904 8.27802939,8.89892981 8.36472802,8.85053208 C8.60301511,8.71750249 8.64717069,8.49494691 8.55361085,7.73141538 C8.54666315,7.67513283 8.54666315,7.67513283 8.53945618,7.61764502 C8.38305739,6.370669 8.42846195,5.82594622 9.0687346,5.26916482 C9.35659539,5.01884095 9.67829464,4.86057887 10.0378404,4.77108858 C10.2744218,4.7122039 10.4397342,4.69342657 10.8083531,4.66748061 C11.2711535,4.63490552 11.2114482,4.66914913 11.2490389,4.42867413 C11.2921591,4.15282932 11.3248552,4.2095032 11.1289032,4.09212462 C11.0528739,4.04702896 11.0044686,4.01809636 10.9574833,3.98871621 C10.4376449,3.66365819 10.1189166,3.25334466 9.99520801,2.56546186 C9.73253821,1.10527112 9.73253821,0.551121088 10.5262827,0.323102267 Z" id="Path"></path>
            </g>
        </g>
    </g>
</svg>