<?xml version="1.0" encoding="UTF-8"?>
<svg width="19px" height="16px" viewBox="0 0 19 16" version="1.1" xmlns="http://www.w3.org/2000/svg" xmlns:xlink="http://www.w3.org/1999/xlink">
    <title>Icon_Departure</title>
    <g id="mWeb" stroke="none" stroke-width="1" fill="none" fill-rule="evenodd">
        <g id="Porter-Service---Icon-Library" transform="translate(-109.000000, -97.000000)" fill="#222222" fill-rule="nonzero">
            <g id="Icon_Departure" transform="translate(109.249516, 97.249982)">
                <path d="M16.9463171,13.7241843 C17.3605306,13.7241843 17.6963171,14.0599707 17.6963171,14.4741843 C17.6963171,14.8883978 17.3605306,15.2241843 16.9463171,15.2241843 L1.94631707,15.2241843 C1.53210351,15.2241843 1.19631707,14.8883978 1.19631707,14.4741843 C1.19631707,14.0599707 1.53210351,13.7241843 1.94631707,13.7241843 L16.9463171,13.7241843 Z M6.72209009,0.0256034309 C6.98211931,-0.0441145474 7.25956785,0.0308829073 7.44906025,0.222111622 L11.8714837,4.68501759 L15.4763967,3.71973259 L15.4623853,3.72363235 C16.3026009,3.48097459 17.2083589,3.71119484 17.8307302,4.32560431 C18.4531014,4.94001377 18.6949637,5.84273276 18.4631434,6.68600276 C18.2313231,7.52927277 17.5619961,8.1815 16.7271299,8.38778674 L4.65296327,11.6236201 C4.37851231,11.6971719 4.08606235,11.609316 3.8975821,11.3966934 L0.189248763,7.21336002 C-0.180571805,6.79616918 0.0179043301,6.1356416 0.556427511,5.991391 L2.97059418,5.34472434 C3.16267372,5.29327327 3.36732378,5.32020811 3.53954936,5.41960687 L5.31248374,6.44201759 L6.46548374,6.13301759 L3.8580429,1.78313182 C3.62018362,1.38633958 3.79632694,0.880578829 4.20799107,0.707050094 L4.30709009,0.673103431 L6.72209009,0.0256034309 Z M6.69048374,1.58701759 L5.65548374,1.86401759 L8.26375792,6.2152367 C8.50165232,6.61208752 8.32541913,7.11791891 7.91366076,7.29138186 L7.81453997,7.32531085 L5.40037331,7.97197752 C5.20829376,8.02342858 5.00364371,7.99649374 4.83141813,7.89709498 L3.05848374,6.87301759 L2.11648374,7.12601759 L4.71148374,10.0540176 L16.3529571,6.93527784 C16.6347326,6.86560478 16.8643334,6.66748268 16.9762384,6.40475889 L17.0168007,6.28839392 C17.1047326,5.96853288 17.0129917,5.62612223 16.7769198,5.39307036 C16.540848,5.1600185 16.1972846,5.07269357 15.8785821,5.16473617 L15.8645708,5.16863593 L11.8395708,6.24696926 C11.5795781,6.31662361 11.3021965,6.24161549 11.1127406,6.05042356 L6.69048374,1.58701759 Z" id="Shape"></path>
            </g>
        </g>
    </g>
</svg>