<?xml version="1.0" encoding="UTF-8"?>
<svg width="14px" height="18px" viewBox="0 0 14 18" version="1.1" xmlns="http://www.w3.org/2000/svg" xmlns:xlink="http://www.w3.org/1999/xlink">
    <title>Icon_Round_Trip</title>
    <g id="mWeb" stroke="none" stroke-width="1" fill="none" fill-rule="evenodd">
        <g id="Porter-Service---Icon-Library" transform="translate(-155.000000, -95.000000)" fill="#222222" fill-rule="nonzero">
            <g id="round-trip" transform="translate(156.000000, 96.000000)">
                <path d="M9.65,3.43242499 L7.228,0.950424993 C7.11927054,0.8421693 7.06172604,0.692771607 7.06974018,0.539549012 C7.07775431,0.386326417 7.15057034,0.243747083 7.27,0.147424993 C7.52576204,-0.0635341587 7.89979851,-0.0462376747 8.135,0.187424993 L11.471,3.60542499 C11.6105069,3.74843031 11.6869172,3.94135859 11.6831591,4.14110484 C11.6794009,4.34085109 11.5957874,4.53076858 11.451,4.66842499 L8.118,7.83042499 C7.87471111,8.0549875 7.50090869,8.05887677 7.253,7.83942499 C7.13764104,7.73828194 7.07075002,7.59284405 7.06903274,7.43943395 C7.06731546,7.28602386 7.13093406,7.13912504 7.244,7.03542499 L9.85,4.56342499 C9.82081005,4.56704182 9.79141177,4.56871218 9.762,4.56842499 L0.61,4.56842499 C0.275,4.56842499 0,4.31442499 0,4.00042499 C0,3.68642499 0.274,3.43242499 0.612,3.43242499 L9.65,3.43242499 Z M2.35,11.432425 L11.388,11.432425 C11.726,11.432425 12,11.686425 12,12.000425 C12,12.314425 11.726,12.568425 11.388,12.568425 L2.24,12.568425 C2.21058823,12.5687122 2.18118995,12.5670418 2.152,12.563425 L4.757,15.033425 C4.87027898,15.1372837 4.93393849,15.2844893 4.93202952,15.4381614 C4.93012054,15.5918335 4.86282397,15.7374123 4.747,15.838425 C4.499246,16.0572734 4.12614139,16.0533869 3.883,15.829425 L0.549,12.670425 C0.403904807,12.5327341 0.320093367,12.3426036 0.316334098,12.1426104 C0.312574828,11.9426173 0.389181823,11.7494714 0.529,11.606425 L3.865,8.18842499 C4.10020149,7.95476233 4.47423796,7.93746584 4.73,8.14842499 C4.98,8.35942499 4.999,8.71842499 4.772,8.95142499 L2.35,11.432425 Z" id="Shape"></path>
                <path d="M3.75928266,8.08201144 C4.04918218,7.79400861 4.51020387,7.77268969 4.82674738,8.0337954 C5.14315891,8.30084673 5.1672958,8.76063467 4.87933459,9.05620708 L2.706,11.282 L11.388,11.282425 C11.7716676,11.282425 12.0922363,11.5501747 12.143,11.9024052 L12.15,12.000425 C12.15,12.3997807 11.8065465,12.718425 11.388,12.718425 L2.533,12.718 L4.85836912,14.9228614 C4.97416541,15.0290281 5.049384,15.1706429 5.07359069,15.3235778 L5.08201794,15.4400246 C5.0795787,15.6363834 4.99358863,15.8224007 4.84630496,15.9508462 C4.54093375,16.2205896 4.08106063,16.2157993 3.77983015,15.9383102 L0.445746553,12.7792309 C0.27151578,12.6138913 0.170874733,12.3855819 0.16636059,12.1454295 C0.161846447,11.9052771 0.253836373,11.6733468 0.421654151,11.5016544 L3.75928266,8.08201144 Z M4.63455455,8.26414087 C4.43827205,8.10224199 4.15122081,8.11551604 3.97234585,8.29319555 L0.636269511,11.7112737 C0.524527273,11.8255959 0.463303209,11.9799575 0.466202027,12.1397914 C0.469312001,12.2996253 0.536293835,12.451577 0.65216985,12.5615398 L3.98462527,15.7190968 C4.17122215,15.8909746 4.45755825,15.8939573 4.64840866,15.7253774 C4.7320593,15.6524238 4.78066239,15.5472836 4.78204109,15.4362982 C4.78341979,15.3253128 4.73744348,15.2189976 4.65379195,15.142274 L2.04879195,12.672274 L1.7178516,12.3584841 L2.17044494,12.4145634 C2.19303082,12.4173619 2.21577791,12.4186544 2.24,12.418425 L11.388,12.418425 C11.6456774,12.418425 11.85,12.2288616 11.85,12.000425 C11.85,11.7719884 11.6456774,11.582425 11.388,11.582425 L1.99394223,11.582425 L2.24266541,11.3276429 L4.66455965,8.84675135 C4.83055803,8.67636535 4.81700228,8.4181393 4.63455455,8.26414087 Z M7.17455455,0.0317091115 C7.48979613,-0.228310308 7.95081782,-0.206991386 8.24234585,0.0826544397 L11.5783712,3.50068046 C11.7458915,3.67240171 11.8376453,3.90407061 11.8331325,4.14392655 C11.8286197,4.38378248 11.7282164,4.61183601 11.5542377,4.7772458 L8.21973911,7.94064819 C7.91987141,8.21743453 7.4591382,8.22222829 7.15411141,7.95221261 C7.0067083,7.82297427 6.92123644,7.63713696 6.91904214,7.44111295 C6.91684784,7.24508895 6.99813827,7.05738489 7.14076883,6.92659795 L9.468,4.718 L0.61,4.71842499 C0.228450758,4.71842499 -0.0922026514,4.4501301 -0.142995239,4.09830845 L-0.15,4.00042499 C-0.15,3.60106925 0.19345354,3.28242499 0.612,3.28242499 L9.293,3.282 L7.12216582,1.05672234 C7.01102015,0.946060965 6.94173241,0.801754577 6.92370616,0.64821685 L6.91994494,0.531714143 C6.93018522,0.335929716 7.02322791,0.153745011 7.17455455,0.0317091115 Z M8.02928266,0.293838549 C7.84877919,0.114516036 7.56172795,0.10124199 7.36416751,0.264183201 C7.27791276,0.333749155 7.22532341,0.436723119 7.21953542,0.547383882 C7.21374744,0.658044644 7.25530735,0.765942978 7.33535569,0.845664525 L9.75735569,3.32766452 L10.0059576,3.58242499 L0.612,3.58242499 C0.354322616,3.58242499 0.15,3.77198841 0.15,4.00042499 C0.15,4.22829436 0.35470269,4.41842499 0.61,4.41842499 L9.76346457,4.41843214 C9.78622209,4.41865435 9.80896918,4.4173619 9.83155506,4.41456336 L10.2839864,4.35850414 L9.95323117,4.67225203 L7.34538859,7.14597071 C7.26372986,7.22086518 7.21778309,7.32695878 7.21902334,7.43775496 C7.2202636,7.54855113 7.26857379,7.65358961 7.35242368,7.72710878 C7.54267918,7.89552526 7.82955081,7.89254046 8.01476226,7.72160418 L11.3476448,4.55971571 C11.4633585,4.44970115 11.5301821,4.2979197 11.5332914,4.13828314 C11.5361891,3.97864658 11.4751222,3.82445892 11.3636542,3.71019555 L8.02928266,0.293838549 Z" id="Shape"></path>
            </g>
        </g>
    </g>
</svg>