<?xml version="1.0" encoding="UTF-8"?>
<svg width="18px" height="16px" viewBox="0 0 18 16" version="1.1" xmlns="http://www.w3.org/2000/svg" xmlns:xlink="http://www.w3.org/1999/xlink">
    <title>Icon_Arrival</title>
    <defs>
        <rect id="path-1" x="0" y="0" width="17.5" height="15.22"></rect>
    </defs>
    <g id="Seller-Dashboard" stroke="none" stroke-width="1" fill="none" fill-rule="evenodd">
        <g id="Icon_Arrival">
            <mask id="mask-2" fill="white">
                <use xlink:href="#path-1"></use>
            </mask>
            <g id="path-1"></g>
            <g id="Group-50" mask="url(#mask-2)">
                <g transform="translate(-1.988658, -2.543551)" id="Group">
                    <path d="M8.35550974,3.601442 C8.61553896,3.53172402 8.8929875,3.60672148 9.0824799,3.79795019 L13.5049034,8.26085617 L17.1098164,7.29557117 L17.095805,7.29947092 C17.9360206,7.05681316 18.8417786,7.28703341 19.4641498,7.90144288 C20.0865211,8.51585235 20.3283834,9.41857133 20.0965631,10.2618414 C19.8647428,11.1051114 19.1954158,11.7573386 18.3605496,11.9636253 L6.28638292,15.1994587 C6.01193196,15.2730105 5.719482,15.1851546 5.53100175,14.9725319 L1.82266841,10.7891986 C1.45284785,10.3720078 1.65132398,9.71148018 2.18984716,9.56722958 L4.60401383,8.92056291 C4.79609337,8.86911185 5.00074343,8.89604668 5.17296901,8.99544545 L6.94590339,10.0178562 L8.09890339,9.70885617 L5.49146255,5.35897039 C5.25360327,4.96217815 5.42974659,4.4564174 5.84141072,4.28288867 L5.94050974,4.248942 L8.35550974,3.601442 Z M8.32390339,5.16285617 L7.28890339,5.43985617 L9.89717757,9.79107528 C10.135072,10.1879261 9.95883878,10.6937575 9.54708041,10.8672204 L9.44795962,10.9011494 L7.03379296,11.5478161 C6.84171341,11.5992672 6.63706336,11.5723323 6.46483778,11.4729336 L4.69190339,10.4488562 L3.74990339,10.7018562 L6.34490339,13.6298562 L17.9863768,10.5111164 C18.2681523,10.4414434 18.4977531,10.2433213 18.609658,9.98059748 L18.6502204,9.86423248 C18.7381522,9.54437145 18.6464114,9.2019608 18.4103395,8.96890893 C18.1742676,8.73585707 17.8307043,8.64853215 17.5120018,8.74057474 L17.4979905,8.7444745 L13.4729905,9.82280788 C13.2129978,9.89246218 12.9356162,9.81745408 12.7461602,9.62626214 L8.32390339,5.16285617 Z" id="Path" fill="#222222" fill-rule="nonzero" transform="translate(10.908245, 9.400443) rotate(27.000000) translate(-10.908245, -9.400443) "></path>
                    <path d="M18.5797073,16.3001395 C18.9939209,16.3001395 19.3297073,16.6359259 19.3297073,17.0501395 C19.3297073,17.4643531 18.9939209,17.8001395 18.5797073,17.8001395 L3.57970728,17.8001395 C3.16549372,17.8001395 2.82970728,17.4643531 2.82970728,17.0501395 C2.82970728,16.6359259 3.16549372,16.3001395 3.57970728,16.3001395 L18.5797073,16.3001395 Z" id="Path" fill="#222222" fill-rule="nonzero"></path>
                </g>
            </g>
        </g>
    </g>
</svg>