<?xml version="1.0" encoding="UTF-8"?>
<svg width="14px" height="14px" viewBox="0 0 14 14" version="1.1" xmlns="http://www.w3.org/2000/svg" xmlns:xlink="http://www.w3.org/1999/xlink">
    <title>Group 8</title>
    <defs>
        <polygon id="path-1" points="0 0 14 0 14 13.9996 0 13.9996"></polygon>
    </defs>
    <g id="Flight-Booking" stroke="none" stroke-width="1" fill="none" fill-rule="evenodd">
        <g id="1-Payments--home-Rewards-unchecked--one-way" transform="translate(-329.000000, -674.000000)">
            <g id="Group-8" transform="translate(329.000000, 674.000000)">
                <g id="Group-3">
                    <mask id="mask-2" fill="white">
                        <use xlink:href="#path-1"></use>
                    </mask>
                    <g id="Clip-2"></g>
                    <path d="M7.052,1.0086 L7,1.0086 C3.696,1.0086 1.009,3.6966 1.009,6.9996 C1.009,7.5076 1.079,8.0296 1.218,8.5516 C1.916,11.1666 4.293,12.9916 7,12.9916 C10.303,12.9916 12.991,10.3036 12.991,6.9996 C12.991,3.8036 10.495,1.1806 7.309,1.0296 C7.193,1.0106 7.116,1.0086 7.052,1.0086 M7,13.9996 C3.837,13.9996 1.058,11.8666 0.244,8.8116 C0.082,8.2046 0,7.5956 0,6.9996 C0,3.1396 3.14,-0.0004 7,-0.0004 C7.138,-0.0004 7.294,0.0036 7.432,0.0306 C11.083,0.1986 14,3.2646 14,6.9996 C14,10.8596 10.86,13.9996 7,13.9996" id="Fill-1" fill="#222222" mask="url(#mask-2)"></path>
                </g>
                <path d="M6.9998,10.9633 C6.7208,10.9633 6.4958,10.7373 6.4958,10.4593 L6.4958,5.7203 C6.4958,5.4423 6.7208,5.2163 6.9998,5.2163 C7.2788,5.2163 7.5038,5.4423 7.5038,5.7203 L7.5038,10.4593 C7.5038,10.7373 7.2788,10.9633 6.9998,10.9633" id="Fill-4" fill="#222222"></path>
                <path d="M6.9998,4.6521 C6.5818,4.6521 6.2358,4.3051 6.2358,3.8881 C6.2358,3.4701 6.5818,3.1231 6.9998,3.1231 C7.4178,3.1231 7.7638,3.4701 7.7638,3.8881 C7.7638,4.3051 7.4178,4.6521 6.9998,4.6521" id="Fill-6" fill="#222222"></path>
            </g>
        </g>
    </g>
</svg>