<svg width="18" height="18" xmlns="http://www.w3.org/2000/svg">
    <g fill="#333" >
        <path d="M6.825 17.46a.66.66 0 0 1-.468-.194L.478 11.387a.662.662 0 1 1 .937-.937l5.878 5.879a.662.662 0 0 1-.468 1.131z"/>
        <path d="M.947 11.581a.662.662 0 0 1-.469-1.13L10.462.467a.662.662 0 1 1 .936.937l-9.983 9.983a.66.66 0 0 1-.468.194z"/>
        <path d="M16.736 1.598H10.93a.662.662 0 1 1 0-1.325h5.806a.662.662 0 0 1 0 1.325zM6.825 17.46a.662.662 0 0 1-.469-1.13l9.912-9.911a.662.662 0 1 1 .936.936l-9.91 9.911a.66.66 0 0 1-.469.194z"/>
        <path d="M16.736 7.55a.662.662 0 0 1-.662-.663V.935a.662.662 0 1 1 1.325 0v5.952a.662.662 0 0 1-.663.662zM12.784 7.025a1.963 1.963 0 0 1-1.96-1.96c0-1.082.879-1.961 1.96-1.961 1.082 0 1.961.88 1.961 1.96 0 1.082-.88 1.961-1.96 1.961zm0-2.597a.637.637 0 1 0 .002 1.274.637.637 0 0 0-.002-1.274z"/>
    </g>
</svg>
