<?xml version="1.0" encoding="UTF-8"?>
<svg width="20px" height="20px" viewBox="0 0 20 20" version="1.1" xmlns="http://www.w3.org/2000/svg" xmlns:xlink="http://www.w3.org/1999/xlink">
    <title>Cart gradient</title>
    <defs>
        <linearGradient x1="0%" y1="35.7304525%" x2="100%" y2="35.7304525%" id="linearGradient-1">
            <stop stop-color="#1C84A6" offset="0%"></stop>
            <stop stop-color="#386BB2" offset="25.2712057%"></stop>
            <stop stop-color="#7356A3" offset="49.4423174%"></stop>
            <stop stop-color="#903B94" offset="71.6984241%"></stop>
            <stop stop-color="#C54961" offset="100%"></stop>
        </linearGradient>
    </defs>
    <g id="Cart-gradient" stroke="none" stroke-width="1" fill="none" fill-rule="evenodd">
        <path d="M8.36332469,16.05 C9.4467713,16.05 10.3335198,16.9367485 10.3335198,18.0201951 C10.3335198,19.1066748 9.46007626,19.9903902 8.37954921,19.9903902 C7.29610261,19.9903902 6.40935411,19.1036417 6.40935411,18.0201951 C6.40935411,16.9337155 7.28279765,16.05 8.36332469,16.05 Z M16.1411313,16.05 C17.2245779,16.05 18.1113264,16.9367485 18.1113264,18.0201951 C18.1113264,19.0943862 17.2372457,19.9662031 16.1411313,19.9903902 C15.0576847,19.9903902 14.1709362,19.1036417 14.1709362,18.0201951 C14.1709362,16.9367485 15.0576847,16.05 16.1411313,16.05 Z M2.68574191,0.000263039825 L2.84372813,0.00760979235 C3.51726035,0.0683150029 4.10475741,0.487517425 4.38486545,1.11701538 L4.38486545,1.11701538 L4.44313736,1.26562635 L7.26607222,10.6610412 L7.29530726,10.7299259 C7.33954793,10.8093806 7.42250244,10.8702737 7.49360259,10.8868451 L7.49360259,10.8868451 L7.560465,10.8968081 L16.018697,10.8991078 L16.096982,10.8930896 C16.1919735,10.876047 16.2790159,10.8167979 16.3200197,10.7528738 L16.3200197,10.7528738 L16.351871,10.693956 L17.9857258,4.98481333 L18.0056047,4.91594858 C18.0211428,4.83224242 18.0002853,4.74435015 17.9415712,4.66575581 C17.8925515,4.59622473 17.8226882,4.5519707 17.7564595,4.53965313 L17.7564595,4.53965313 L17.6864243,4.53208791 L7.3824618,4.53073105 L7.26453329,4.52204743 C6.77490286,4.45441104 6.4003745,4.02967133 6.4003745,3.53215407 C6.4003745,3.02879259 6.78437172,2.59861809 7.29932344,2.53843476 L7.29932344,2.53843476 L7.41267498,2.53260756 L17.6779312,2.53319581 L17.8554042,2.54058152 C18.5412398,2.59616785 19.1725514,2.95363339 19.5774434,3.52064907 C19.9710617,4.09602724 20.0988778,4.80930073 19.9220345,5.478341 L19.9220345,5.478341 L19.8675852,5.65379193 L18.2386849,11.353986 L18.1736438,11.5171121 C17.8234116,12.3069007 17.0687073,12.8449478 16.2043728,12.9099521 L16.2043728,12.9099521 L16.0324502,12.9160855 L7.57475815,12.915731 L7.39907749,12.9085683 C6.53644894,12.8399856 5.78052522,12.2983087 5.44013795,11.4942804 L5.44013795,11.4942804 L5.37891642,11.3321107 L2.56808033,1.99775469 L0.981437978,1.99772493 L0.861634628,1.98870634 C0.456364733,1.93154522 0.121309309,1.62704222 0.0232571187,1.21194075 L0.0232571187,1.21194075 L0.00311631011,1.08313076 L0,0.967981424 L0.00904429786,0.85215194 C0.0724536654,0.413733576 0.435637225,0.0595216841 0.898678191,0.0054549055 L0.898678191,0.0054549055 L0.998398508,0 L2.68574191,0.000263039825 Z" id="Combined-Shape" fill="url(#linearGradient-1)" fill-rule="nonzero"></path>
    </g>
</svg>