<?xml version="1.0" encoding="UTF-8"?>
<svg width="20px" height="20px" viewBox="0 0 20 20" version="1.1" xmlns="http://www.w3.org/2000/svg" xmlns:xlink="http://www.w3.org/1999/xlink">
    <title>Home gradient</title>
    <defs>
        <linearGradient x1="0%" y1="35.7304525%" x2="100%" y2="35.7304525%" id="linearGradient-1">
            <stop stop-color="#1C84A6" offset="0%"></stop>
            <stop stop-color="#386BB2" offset="25.2712057%"></stop>
            <stop stop-color="#7356A3" offset="49.4423174%"></stop>
            <stop stop-color="#903B94" offset="71.6984241%"></stop>
            <stop stop-color="#C54961" offset="100%"></stop>
        </linearGradient>
    </defs>
    <g id="Home-gradient" stroke="none" stroke-width="1" fill="none" fill-rule="evenodd">
        <g id="home-copy" transform="translate(1.000000, 0.000000)" fill="url(#linearGradient-1)" fill-rule="nonzero">
            <path d="M7.598483,0.500590673 C8.34489401,-0.128337095 9.42388136,-0.164738751 10.2113982,0.391945435 L10.3554896,0.503274082 L17.2209546,6.33687779 C17.6382097,6.69783339 17.8955814,7.19847353 17.9428832,7.73335532 L17.9508013,7.91277282 L17.9508013,17.8657761 C17.9508013,18.9478278 17.1130869,19.838966 16.0233627,19.9502085 L15.8660367,19.9607313 L12.5840092,19.9997364 C11.4605851,20.0172912 10.5260343,19.1559363 10.4468926,18.0646047 L10.4414653,17.9144222 L10.4414653,13.9643545 C10.4414653,13.9251173 10.4175852,13.891833 10.3812573,13.8776431 L10.3412037,13.8703048 L7.62939183,13.8703048 C7.58603581,13.8703048 7.55131665,13.8937799 7.53666682,13.9275883 L7.52913019,13.9643545 L7.52913019,17.8560468 C7.52913019,18.9599767 6.66245112,19.8599505 5.56365162,19.9361223 L5.41243616,19.9413449 L2.12659115,19.9413449 C1.00812326,19.9413449 0.0926980368,19.0894839 0.0152106212,18.0061319 L0.00989761058,17.8570255 L0,7.91277282 C0,7.3732209 0.214610916,6.85327306 0.590789114,6.46802661 L0.72329201,6.34373284 L7.598483,0.500590673 Z M8.94091926,1.99584055 L8.91059433,2.01261161 L2.06597519,7.82702724 L2.03531876,7.85848965 L2.02139692,7.88489302 L2.0164319,7.91179415 L2.02632951,17.8560468 C2.02632951,17.895284 2.05020967,17.9285683 2.08653751,17.9427582 L2.12659115,17.9500964 L5.41243616,17.9500964 C5.45579218,17.9500964 5.49051134,17.9266214 5.50516117,17.892813 L5.5126978,17.8560468 L5.5126978,13.9643545 C5.5126978,12.8604246 6.37937687,11.9604508 7.47817636,11.884279 L7.62939183,11.8790563 L10.3412037,11.8790563 C11.459794,11.8790563 12.3751074,12.7310333 12.4525853,13.815141 L12.4578977,13.9643545 L12.4578977,17.9144222 C12.4578977,17.9517582 12.4839118,17.9865842 12.5187657,18.0013283 L12.55593,18.0087277 L15.8210106,17.9700848 C15.8687756,17.9685453 15.9086571,17.9401858 15.9256126,17.9039439 L15.9343689,17.8657761 L15.9343689,7.91277282 C15.9343689,7.89638157 15.9283967,7.87816487 15.9179167,7.86221249 L15.8989988,7.84049341 L9.04346303,2.01536706 C9.02416811,1.9991091 8.99983443,1.99093636 8.97588273,1.99057004 L8.94091926,1.99584055 Z" id="Path"></path>
        </g>
    </g>
</svg>