<?xml version="1.0" encoding="UTF-8"?>
<svg width="20px" height="20px" viewBox="0 0 20 20" version="1.1" xmlns="http://www.w3.org/2000/svg" xmlns:xlink="http://www.w3.org/1999/xlink">
    <title>Modify</title>
    <g id="Modify" stroke="none" stroke-width="1" fill="none" fill-rule="evenodd">
        <path d="M15.8041549,0.629886293 C15.0446272,-0.0861185858 13.9081006,-0.197964571 13.0402853,0.326473855 L12.8900622,0.42563338 L12.7452247,0.537837591 L1.21324224,12.112393 C0.980712352,12.3477351 0.802395835,12.6293639 0.688749393,12.9357433 L0.62840559,13.1223687 L0.584084527,13.3139005 L0.555259658,13.515528 L0.00432949585,18.8774066 C-0.0237221945,19.1835083 0.085576313,19.486254 0.302084933,19.7027424 C0.434558607,19.8346149 0.599415801,19.9269477 0.775677993,19.9711927 L0.909685285,19.9952265 L1.03306333,20.0016198 L1.1245841,20.002677 L6.46781462,19.5139936 C6.86221711,19.4745627 7.23850545,19.3340187 7.55901901,19.1096363 L7.71445354,18.9905386 L7.86370391,18.8543923 L19.3956101,7.28098998 C20.1463849,6.48497808 20.1975171,5.26840567 19.5500221,4.4166991 L19.4356377,4.27826107 L19.3107448,4.14931218 L15.8041549,0.629886293 Z M10.1147508,6.30711867 L10.1859882,6.33683163 L13.676476,9.88174314 L13.6466991,10.1704143 L6.41416977,17.3947565 L6.2861958,17.4482968 L2.25653968,17.8257558 L2.14651487,17.7161659 L2.51833172,13.6385917 L2.58355017,13.5143317 L9.89750091,6.30644157 L10.1147508,6.30711867 Z M14.3054909,2.03596891 L14.3776823,2.06568033 L17.906624,5.64973584 L17.8748788,5.93980677 L15.2398682,8.47727636 L14.9524095,8.44619439 L11.487561,4.92774195 L11.514753,4.64096217 L14.0861967,2.03735672 L14.3054909,2.03596891 Z" id="Shape" fill="#222222" fill-rule="nonzero"></path>
    </g>
</svg>