<?xml version="1.0" encoding="UTF-8"?>
<svg height="20px" version="1.1" viewBox="0 0 20 20" width="20px"
    xmlns="http://www.w3.org/2000/svg">
    <title>More</title>
    <g fill="none" fill-rule="evenodd" id="More" stroke="none" stroke-width="1">
        <path
            d="M2.38095238,7.6 C3.69591607,7.6 4.76190476,8.66598869 4.76190476,9.98095238 C4.76190476,11.2959161 3.69591607,12.3619048 2.38095238,12.3619048 C1.06598869,12.3619048 0,11.2959161 0,9.98095238 C0,8.66598869 1.06598869,7.6 2.38095238,7.6 Z M10,7.6 C11.3149637,7.6 12.3809524,8.66598869 12.3809524,9.98095238 C12.3809524,11.2959161 11.3149637,12.3619048 10,12.3619048 C8.68503631,12.3619048 7.61904762,11.2959161 7.61904762,9.98095238 C7.61904762,8.66598869 8.68503631,7.6 10,7.6 Z M17.6190476,7.6 C18.9340113,7.6 20,8.66598869 20,9.98095238 C20,11.2959161 18.9340113,12.3619048 17.6190476,12.3619048 C16.3040839,12.3619048 15.2380952,11.2959161 15.2380952,9.98095238 C15.2380952,8.66598869 16.3040839,7.6 17.6190476,7.6 Z"
            fill="#000000" fill-rule="nonzero" id="Combined-Shape"></path>
    </g>
</svg>