<?xml version="1.0" encoding="UTF-8"?>
<svg width="20px" height="20px" viewBox="0 0 20 20" version="1.1" xmlns="http://www.w3.org/2000/svg" xmlns:xlink="http://www.w3.org/1999/xlink">
    <title>More gradient</title>
    <defs>
        <linearGradient x1="0%" y1="35.7304525%" x2="100%" y2="35.7304525%" id="linearGradient-1">
            <stop stop-color="#1C84A6" offset="0%"></stop>
            <stop stop-color="#386BB2" offset="25.2712057%"></stop>
            <stop stop-color="#7356A3" offset="49.4423174%"></stop>
            <stop stop-color="#903B94" offset="71.6984241%"></stop>
            <stop stop-color="#C54961" offset="100%"></stop>
        </linearGradient>
    </defs>
    <g id="More-gradient" stroke="none" stroke-width="1" fill="none" fill-rule="evenodd">
        <path d="M2.38095238,7.5 C3.69591607,7.5 4.76190476,8.56598869 4.76190476,9.88095238 C4.76190476,11.1959161 3.69591607,12.2619048 2.38095238,12.2619048 C1.06598869,12.2619048 0,11.1959161 0,9.88095238 C0,8.56598869 1.06598869,7.5 2.38095238,7.5 Z M10,7.5 C11.3149637,7.5 12.3809524,8.56598869 12.3809524,9.88095238 C12.3809524,11.1959161 11.3149637,12.2619048 10,12.2619048 C8.68503631,12.2619048 7.61904762,11.1959161 7.61904762,9.88095238 C7.61904762,8.56598869 8.68503631,7.5 10,7.5 Z M17.6190476,7.5 C18.9340113,7.5 20,8.56598869 20,9.88095238 C20,11.1959161 18.9340113,12.2619048 17.6190476,12.2619048 C16.3040839,12.2619048 15.2380952,11.1959161 15.2380952,9.88095238 C15.2380952,8.56598869 16.3040839,7.5 17.6190476,7.5 Z" id="Combined-Shape" fill="url(#linearGradient-1)" fill-rule="nonzero"></path>
    </g>
</svg>