<?xml version="1.0" encoding="UTF-8"?>
<svg width="20px" height="20px" viewBox="0 0 20 20" version="1.1" xmlns="http://www.w3.org/2000/svg" xmlns:xlink="http://www.w3.org/1999/xlink">
    <title>My Orders gradient</title>
    <defs>
        <linearGradient x1="0%" y1="35.7304525%" x2="100%" y2="35.7304525%" id="linearGradient-1">
            <stop stop-color="#1C84A6" offset="0%"></stop>
            <stop stop-color="#386BB2" offset="25.2712057%"></stop>
            <stop stop-color="#7356A3" offset="49.4423174%"></stop>
            <stop stop-color="#903B94" offset="71.6984241%"></stop>
            <stop stop-color="#C54961" offset="100%"></stop>
        </linearGradient>
    </defs>
    <g id="My-Orders-gradient" stroke="none" stroke-width="1" fill="none" fill-rule="evenodd">
        <path d="M15.9144047,0 C17.0636182,0 18.005477,0.919272944 18.0913617,2.08210649 L18.0976564,2.23510614 L18.0976564,19.0180966 C18.0976564,19.3443493 17.9435312,19.6447313 17.6893041,19.81914 C17.5352156,19.9383809 17.3425607,19.9976664 17.140757,19.9976664 C17.0352162,19.9976664 16.9452666,19.9870309 16.8629077,19.9614346 L13.5659222,18.623525 L10.4058415,19.9310791 C10.2529,19.9924475 10.0884963,20.0129037 9.92722066,19.9921654 L9.80707836,19.9688833 L9.68947684,19.9301269 L6.53075857,18.623525 L3.31439796,19.9308838 C3.09194585,20.020698 2.84224063,20.0204413 2.6244098,19.9374701 L2.51842432,19.8891257 L2.41939368,19.8271999 C2.18728381,19.6675399 2.04026793,19.4176024 2.00714067,19.1390489 L2,19.0180966 L2,2.24491502 C2,1.05828058 2.89909148,0.0842926265 4.03394485,0.00518709287 L4.18325171,0 L15.9144047,0 Z M15.9144047,1.94933061 L4.19275831,1.94933061 C4.06525333,1.94933061 3.95836293,2.04082552 3.93042496,2.16850632 L3.92330542,2.23510614 L3.92293823,17.5659578 L6.18587288,16.6491174 C6.26230818,16.6228289 6.34126869,16.6039008 6.41816381,16.5942031 L6.53138363,16.5868129 C6.6369244,16.5868129 6.72687402,16.5974484 6.80981388,16.6232827 L6.89073499,16.6543524 L10.0478526,17.9591309 L13.2047142,16.6454685 C13.3895659,16.5669329 13.5988823,16.5538436 13.7975116,16.6054296 L13.9151255,16.644136 L16.1834987,17.5874213 L16.1838576,2.23510614 C16.1838576,2.09689975 16.0951822,1.98566107 15.9761692,1.95669913 L15.9144047,1.94933061 Z M13.3179127,10.014359 C13.8516369,10.014359 14.2843187,10.4567398 14.2843187,10.9939287 C14.2843187,11.4908905 13.9129618,11.9095523 13.438595,11.9668256 L13.3274193,11.9734985 L6.78806202,11.9734985 C6.26184874,11.9734985 5.83116261,11.5291183 5.83116261,10.9939287 C5.83116261,10.496967 6.20251953,10.0783052 6.67688632,10.0210319 L6.78806202,10.014359 L13.3179127,10.014359 Z M13.3179127,6 C13.8544553,6 14.2843187,6.43546713 14.2843187,6.97956974 C14.2843187,7.47653148 13.9129618,7.89519329 13.438595,7.9524666 L13.3274193,7.95913949 L6.78806202,7.95913949 C6.26184874,7.95913949 5.83116261,7.5147593 5.83116261,6.97956974 C5.83116261,6.48260801 6.20251953,6.0639462 6.67688632,6.00667289 L6.78806202,6 L13.3179127,6 Z" id="Orders" fill="url(#linearGradient-1)" fill-rule="nonzero"></path>
    </g>
</svg>