<?xml version="1.0" encoding="UTF-8"?>
<svg width="20px" height="20px" viewBox="0 0 20 20" version="1.1" xmlns="http://www.w3.org/2000/svg" xmlns:xlink="http://www.w3.org/1999/xlink">
    <title>Services</title>
    <g id="Services" stroke="none" stroke-width="1" fill="none" fill-rule="evenodd">
        <path d="M8.05868819,11 L8.16886702,11.0066923 L8.27775448,11.0270847 C8.70300668,11.1311178 9,11.4992499 9,11.9348322 L9,11.9348322 L9,19.0614459 L8.99310979,19.1711711 L8.97222333,19.2794995 C8.86592074,19.7029357 8.49229642,20.0029385 8.05868819,20.0029385 L8.05868819,20.0029385 L2.24627511,20.0029385 L2.09546331,19.9977846 L1.94312415,19.9819073 C0.837743031,19.8290996 0,18.8852313 0,17.7560101 L0,17.7560101 L0,11.9414926 L0.00689021104,11.8317674 L0.0277766687,11.723439 C0.134079259,11.3000028 0.507703581,11 0.941311809,11 L0.941311809,11 L8.05868819,11 Z M19.0586882,11 C19.4922964,11 19.8659207,11.3000028 19.9722233,11.723439 L19.9931098,11.8317674 L20,11.9414926 L20,17.7560101 C20,18.8852313 19.162257,19.8290996 18.0568759,19.9819073 L17.9045367,19.9977846 L17.7537249,20.0029385 L11.9413118,20.0029385 C11.5077036,20.0029385 11.1340793,19.7029357 11.0277767,19.2794995 L11.0068902,19.1711711 L11,19.0614459 L11,11.9348322 C11,11.4992499 11.2969933,11.1311178 11.7222455,11.0270847 L11.831133,11.0066923 L11.9413118,11 L19.0586882,11 Z M7,13.0029385 L2,13.0029385 L2.00154188,17.6380872 L2.0075746,17.7115478 L2.02540799,17.7775498 C2.07557666,17.9050789 2.2093398,18.0020662 2.36519338,18.0020662 L2.36519338,18.0020662 L7,18.0029385 L7,13.0029385 Z M18,13.0029385 L13,13.0029385 L13,18.0029385 L17.6348066,18.0020662 C17.7906602,18.0020662 17.9244233,17.9050789 17.974592,17.7775498 L17.9924254,17.7115478 L17.9984581,17.6380872 L18,13.0029385 Z M8.05868819,3.19744231e-14 C8.49229642,3.19744231e-14 8.86592074,0.300002812 8.97222333,0.723438978 L8.99310979,0.831767366 L9,0.941492601 L9,8.06810626 C9,8.50368857 8.70300668,8.87182067 8.27775448,8.97585376 L8.16886702,8.99624617 L8.05868819,9.00293848 L0.941311809,9.00293848 C0.507703581,9.00293848 0.134079259,8.70293567 0.0277766687,8.2794995 L0.00689021104,8.17117111 L0,8.06144588 L0,2.24692837 C0,1.11770721 0.837743031,0.173838885 1.94312415,0.0210311394 L2.09546331,0.00515387222 L2.24627511,3.19744231e-14 L8.05868819,3.19744231e-14 Z M17.7537249,3.19744231e-14 L17.9045367,0.00515387222 L18.0568759,0.0210311394 C19.162257,0.173838885 20,1.11770721 20,2.24692837 L20,2.24692837 L20,8.06144588 L19.9931098,8.17117111 L19.9722233,8.2794995 C19.8659207,8.70293567 19.4922964,9.00293848 19.0586882,9.00293848 L19.0586882,9.00293848 L11.9413118,9.00293848 L11.831133,8.99624617 L11.7222455,8.97585376 C11.2969933,8.87182067 11,8.50368857 11,8.06810626 L11,8.06810626 L11,0.941492601 L11.0068902,0.831767366 L11.0277767,0.723438978 C11.1340793,0.300002812 11.5077036,3.19744231e-14 11.9413118,3.19744231e-14 L11.9413118,3.19744231e-14 L17.7537249,3.19744231e-14 Z M7,2 L2.36519338,2.00087226 C2.2093398,2.00087226 2.07557666,2.09785962 2.02540799,2.22538865 L2.0075746,2.29139068 L2.00154188,2.36485129 L2,7 L7,7 L7,2 Z M17.6348066,2.00087226 L13,2 L13,7 L18,7 L17.9984581,2.36485129 L17.9924254,2.29139068 L17.974592,2.22538865 C17.9244233,2.09785962 17.7906602,2.00087226 17.6348066,2.00087226 L17.6348066,2.00087226 Z" id="Combined-Shape" fill="#000000" fill-rule="nonzero"></path>
    </g>
</svg>