<?xml version="1.0" encoding="UTF-8"?>
<svg width="20px" height="20px" viewBox="0 0 20 20" version="1.1" xmlns="http://www.w3.org/2000/svg" xmlns:xlink="http://www.w3.org/1999/xlink">
    <title>Services gradient</title>
    <defs>
        <linearGradient x1="0%" y1="35.7304525%" x2="100%" y2="35.7304525%" id="linearGradient-1">
            <stop stop-color="#1C84A6" offset="0%"></stop>
            <stop stop-color="#386BB2" offset="25.2712057%"></stop>
            <stop stop-color="#7356A3" offset="49.4423174%"></stop>
            <stop stop-color="#903B94" offset="71.6984241%"></stop>
            <stop stop-color="#C54961" offset="100%"></stop>
        </linearGradient>
    </defs>
    <g id="Services-gradient" stroke="none" stroke-width="1" fill="none" fill-rule="evenodd">
        <path d="M7.61098329,11.5 L7.71504107,11.5063205 L7.81787923,11.52558 C8.21950631,11.6238335 8.5,11.9715138 8.5,12.3828971 L8.5,12.3828971 L8.5,19.1135878 L8.49349258,19.2172172 L8.47376648,19.3195273 C8.37336959,19.7194392 8.02050217,20.0027752 7.61098329,20.0027752 L7.61098329,20.0027752 L2.12148205,20.0027752 L1.97904868,19.9979077 L1.83517281,19.9829125 C0.791201751,19.8385941 0,18.9471629 0,17.8806762 L0,17.8806762 L0,12.3891875 L0.00650742154,12.2855581 L0.0262335205,12.1832479 C0.126630411,11.783336 0.479497826,11.5 0.889016709,11.5 L0.889016709,11.5 L7.61098329,11.5 Z M19.1109833,11.5 C19.5205022,11.5 19.8733696,11.783336 19.9737665,12.1832479 L19.9934926,12.2855581 L20,12.3891875 L20,17.8806762 C20,18.9471629 19.2087982,19.8385941 18.1648272,19.9829125 L18.0209513,19.9979077 L17.8785179,20.0027752 L12.3890167,20.0027752 C11.9794978,20.0027752 11.6266304,19.7194392 11.5262335,19.3195273 L11.5065074,19.2172172 L11.5,19.1135878 L11.5,12.3828971 C11.5,11.9715138 11.7804937,11.6238335 12.1821208,11.52558 L12.2849589,11.5063205 L12.3890167,11.5 L19.1109833,11.5 Z M6.5,13.5027752 L2,13.5027752 L2.00145622,17.6590172 L2.00715379,17.7283967 L2.02399644,17.790732 C2.07137796,17.9111761 2.19770982,18.0027752 2.34490486,18.0027752 L2.34490486,18.0027752 L6.5,18.003599 L6.5,13.5027752 Z M18,13.5027752 L13.5,13.5027752 L13.5,18.003599 L17.6550951,18.0027752 C17.8022902,18.0027752 17.928622,17.9111761 17.9760036,17.790732 L17.9928462,17.7283967 L17.9985438,17.6590172 L18,13.5027752 Z M17.8785179,-3.19744231e-14 L18.0209513,0.00486754599 L18.1648272,0.0198627427 C19.2087982,0.164181169 20,1.05561237 20,2.12209902 L20,2.12209902 L20,7.61358777 L19.9934926,7.71721716 L19.9737665,7.8195273 C19.8733696,8.21943924 19.5205022,8.50277523 19.1109833,8.50277523 L19.1109833,8.50277523 L12.3890167,8.50277523 L12.2849589,8.49645472 L12.1821208,8.47719522 C11.7804937,8.37894174 11.5,8.03126143 11.5,7.61987814 L11.5,7.61987814 L11.5,0.889187457 L11.5065074,0.785558068 L11.5262335,0.683247923 C11.6266304,0.283335989 11.9794978,-3.19744231e-14 12.3890167,-3.19744231e-14 L12.3890167,-3.19744231e-14 L17.8785179,-3.19744231e-14 Z M7.61098329,-3.19744231e-14 C8.02050217,-3.19744231e-14 8.37336959,0.283335989 8.47376648,0.683247923 L8.49349258,0.785558068 L8.5,0.889187457 L8.5,7.61987814 C8.5,8.03126143 8.21950631,8.37894174 7.81787923,8.47719522 L7.71504107,8.49645472 L7.61098329,8.50277523 L0.889016709,8.50277523 C0.479497826,8.50277523 0.126630411,8.21943924 0.0262335205,7.8195273 L0.00650742154,7.71721716 L0,7.61358777 L0,2.12209902 C0,1.05561237 0.791201751,0.164181169 1.83517281,0.0198627427 L1.97904868,0.00486754599 L2.12148205,-3.19744231e-14 L7.61098329,-3.19744231e-14 Z M17.6550951,2 L13.5,1.9991762 L13.5,6.5 L18,6.5 L17.9985438,2.34375798 L17.9928462,2.27437851 L17.9760036,2.21204326 C17.928622,2.09159917 17.8022902,2 17.6550951,2 L17.6550951,2 Z M6.5,1.9991762 L2.34490486,2 C2.19770982,2 2.07137796,2.09159917 2.02399644,2.21204326 L2.00715379,2.27437851 L2.00145622,2.34375798 L2,6.5 L6.5,6.5 L6.5,1.9991762 Z" id="Combined-Shape" fill="url(#linearGradient-1)" fill-rule="nonzero"></path>
    </g>
</svg>