<?xml version="1.0" encoding="UTF-8"?>
<svg width="85px" height="29px" viewBox="0 0 85 29" version="1.1" xmlns="http://www.w3.org/2000/svg" xmlns:xlink="http://www.w3.org/1999/xlink">
    <title>Group 7</title>
    <defs>
        <path d="M35.5386455,0.194580815 L35.6000422,0.19543162 C36.7618368,0.227691536 37.64975,1.17331709 37.64975,2.34352519 L37.64975,2.34352519 L37.64975,24.9379335 L37.6494117,25.0022357 C37.6420755,25.680195 37.5116532,26.106954 36.892852,26.5281436 L36.892852,26.5281436 L36.8574485,26.5538224 C35.7832515,27.325872 32.5882457,29 28.7715644,29 L28.7715644,29 L28.6109394,28.9990108 C23.331295,28.93378 20.1311014,25.6480197 19.6949346,20.8036945 L19.6949346,20.8036945 L19.6856003,20.687673 C19.5767008,19.2591715 19.5798122,16.5499287 19.6949346,15.1531729 L19.6949346,15.1531729 L19.7089031,15.0056761 C20.1946488,10.1569461 23.132977,7.16000363 28.2135497,7.16000363 L28.2135497,7.16000363 L28.3503471,7.16093838 C30.2213595,7.18639401 32.1460838,7.72789401 33.4277605,8.31015832 L33.4277605,8.31015832 L33.4277605,2.34352519 C33.4277605,1.15278713 34.3850785,0.194580815 35.5386455,0.194580815 L35.5386455,0.194580815 Z M48.8664608,7.16000363 L49.0187703,7.16070698 C54.0255786,7.20715109 57.1071661,9.55596254 57.1071661,14.877206 L57.1071661,14.877206 L57.1071661,25.2202622 L57.1066982,25.2866862 C57.0969396,25.9646063 56.9317575,26.3827016 56.3529023,26.7703276 L56.3529023,26.7703276 L56.3140878,26.7963295 C55.1670966,27.5582921 52.1637557,29 48.0693909,29 L48.0693909,29 L47.9065844,28.9991065 C42.5611693,28.9402008 39.9085901,25.975624 39.9085901,22.1170601 L39.9085901,22.1170601 L39.9093437,22.0134324 C39.9590957,18.5970018 42.4742747,15.5151327 47.9901449,15.5151327 L47.9901449,15.5151327 L48.1957255,15.516103 C49.9600139,15.5329041 51.2829798,15.7674484 53.0482785,16.184868 L53.0482785,16.184868 L53.0482785,14.877206 L53.0478749,14.7956374 C53.0214925,12.1465889 51.7000544,11.0176176 48.6291618,11.0176176 L48.6291618,11.0176176 L48.4853244,11.0188422 C46.9044974,11.0456262 45.3733743,11.5065989 44.2901692,11.8904892 L44.2901692,11.8904892 L44.2195053,11.912371 C42.5079954,12.4253075 41.3813363,11.518222 41.3813363,10.301376 L41.3813363,10.301376 L41.3818184,10.2559608 C41.3960295,9.58749722 41.7274381,8.81761378 42.7768122,8.34701241 C43.9308183,7.79244612 46.4421041,7.16000363 48.8664608,7.16000363 L48.8664608,7.16000363 Z M8.94821183,7.16000363 L9.10046311,7.16070698 C14.1053803,7.20715109 17.1882586,9.55596254 17.1882586,14.877206 L17.1882586,14.877206 L17.1882586,25.2202622 L17.1877877,25.2866862 C17.1779657,25.9646063 17.0117867,26.3827016 16.4339948,26.7703276 L16.4339948,26.7703276 L16.39513,26.7963295 C15.2467364,27.5582921 12.247006,29 8.14938587,29 L8.14938587,29 L7.99205643,28.9991649 C2.82558119,28.9441095 0.17320628,26.1729886 0,22.5031506 L0,22.5031506 L0,21.7599265 L0.00573913651,21.6606106 C0.218503927,18.3871578 2.74684837,15.5151327 8.07321312,15.5151327 L8.07321312,15.5151327 L8.27894137,15.516103 C10.0443142,15.5329041 11.3633813,15.7674484 13.1278344,16.184868 L13.1278344,16.184868 L13.1278344,14.877206 L13.1274319,14.7956374 C13.101123,12.1465889 11.7832978,11.0176176 8.70805915,11.0176176 L8.70805915,11.0176176 L8.5646249,11.0188422 C6.98798359,11.0456262 5.45296892,11.5065989 4.37104222,11.8904892 L4.37104222,11.8904892 L4.30030087,11.912371 C2.58696936,12.4253075 1.4630874,11.518222 1.4630874,10.301376 L1.4630874,10.301376 L1.46356793,10.2559608 C1.47773289,9.58749722 1.80811602,8.81761378 2.85856327,8.34701241 C4.01520356,7.79244612 6.52122093,7.16000363 8.94821183,7.16000363 L8.94821183,7.16000363 Z M82.6489623,7.51998911 L82.708574,7.52083779 C83.837693,7.55301779 84.7629206,8.4963388 84.7629206,9.66805601 L84.7629206,9.66805601 L84.7629206,26.6904771 L84.762103,26.7520353 C84.7311001,27.9175193 83.8219037,28.8440282 82.6489623,28.8440282 L82.6489623,28.8440282 L82.5914046,28.8431764 C81.5000058,28.810879 80.5387359,27.8641346 80.5387359,26.6904771 L80.5387359,26.6904771 L80.5387359,9.66805601 C80.5387359,8.47578236 81.4536869,7.51998911 82.6489623,7.51998911 L82.6489623,7.51998911 Z M69.0050412,7.16000363 L69.1772955,7.16090898 C74.833748,7.2206401 77.7236372,10.2337904 77.7236372,15.5526449 L77.7236372,15.5526449 L77.7236372,26.6071167 L77.7228591,26.668686 C77.6933425,27.8343783 76.8268911,28.7608872 75.6123132,28.7608872 L75.6123132,28.7608872 L75.5547816,28.7600354 C74.4639458,28.7277378 73.5069161,27.7809897 73.5069161,26.6071167 L73.5069161,26.6071167 L73.5069161,15.7513938 L73.5062718,15.6564632 C73.4638062,12.5418189 71.3282923,11.2139534 68.8816721,11.2139534 L68.8816721,11.2139534 L68.7649389,11.2146194 C66.8599546,11.2363031 65.0418765,11.7838756 64.1497423,12.3320802 L64.1497423,12.3320802 L64.1497423,26.6071167 L64.1489267,26.668686 C64.117998,27.8343783 63.2109849,28.7608872 62.041711,28.7608872 L62.041711,28.7608872 L61.9849377,28.7600639 C60.8894912,28.7283009 59.9246795,27.7813388 59.9246795,26.6071167 L59.9246795,26.6071167 L59.9246795,10.9737437 L59.9253586,10.8994385 C59.9398764,10.1192839 60.1881942,9.73291628 60.7671895,9.34448588 C61.9185614,8.47380803 64.8256382,7.16000363 69.0050412,7.16000363 L69.0050412,7.16000363 Z M48.228322,18.9691067 L48.1438902,18.9695441 C45.7595428,18.9943192 44.0495775,20.0706328 44.0495775,21.9599915 C44.0495775,24.1058647 45.6042039,25.2994546 48.4294004,25.2994546 L48.4294004,25.2994546 L48.5516457,25.2988468 C51.222244,25.2722163 52.6532051,24.3777684 53.0482785,24.0661588 L53.0482785,24.0661588 L53.0482785,19.6469587 L52.855395,19.5993499 C51.1999945,19.1936834 49.9557822,18.9691067 48.228322,18.9691067 L48.228322,18.9691067 Z M8.31073159,18.9691067 L8.22633054,18.9695441 C5.84285588,18.9943192 4.13396279,20.0706328 4.13396279,21.9599915 C4.13396279,24.1058647 5.68397932,25.2994546 8.50741971,25.2994546 L8.50741971,25.2994546 L8.62966948,25.2988468 C11.3004637,25.2722163 12.7379508,24.3777684 13.1278344,24.0661588 L13.1278344,24.0661588 L13.1278344,19.6469587 L12.9354017,19.5993499 C11.2835942,19.1936834 10.035021,18.9691067 8.31073159,18.9691067 L8.31073159,18.9691067 Z M28.5314117,11.2139534 L28.4383972,11.2144359 C25.4781397,11.2453103 24.072852,12.757526 23.9109971,15.6300824 L23.9109971,15.6300824 L23.9045485,15.7227005 C23.8305139,16.8362251 23.7993783,19.0833008 23.9109971,20.2853242 C24.1540035,23.3461879 25.782827,24.9379335 28.8503714,24.9379335 L28.8503714,24.9379335 L28.9442137,24.9371147 C30.6393145,24.907753 32.6456139,24.0949441 33.4277605,23.5052308 L33.4277605,23.5052308 L33.4277605,12.450101 L33.381157,12.4215879 C32.5219013,11.9050211 30.5677085,11.2139534 28.5314117,11.2139534 L28.5314117,11.2139534 Z M82.6489623,0 L82.7124178,0.000803385573 C83.9980914,0.0334102035 85,1.05465109 85,2.34791259 L85,2.34791259 L84.9991954,2.41122121 C84.9665389,3.69523784 83.9437467,4.7756757 82.6489623,4.7756757 L82.6489623,4.7756757 L82.5830498,4.77483573 C81.227072,4.74019304 80.259509,3.63870407 80.259509,2.34791259 C80.259509,1.03345008 81.2585354,0 82.6489623,0 L82.6489623,0 Z" id="path-1"></path>
        <linearGradient x1="-10.0451284%" y1="47.7211281%" x2="100.683182%" y2="28.2231237%" id="linearGradient-3">
            <stop stop-color="#00FF7D" offset="0%"></stop>
            <stop stop-color="#037FFE" offset="36%"></stop>
            <stop stop-color="#2679FA" offset="38%"></stop>
            <stop stop-color="#A909A0" offset="70%"></stop>
            <stop stop-color="#FF4400" offset="92%"></stop>
            <stop stop-color="#FF4400" offset="100%"></stop>
        </linearGradient>
    </defs>
    <g id="Airport" stroke="none" stroke-width="1" fill="none" fill-rule="evenodd">
        <g id="Group-5">
            <mask id="mask-2" fill="white">
                <use xlink:href="#path-1"></use>
            </mask>
            <g id="Clip-4"></g>
            <polygon id="Fill-3" fill="url(#linearGradient-3)" mask="url(#mask-2)" points="-27.0400065 105.640272 119.000922 105.640272 119.000922 -40.3019206 -27.0400065 -40.3019206"></polygon>
        </g>
    </g>
</svg>