<svg id="Layer_1" xmlns="http://www.w3.org/2000/svg" viewBox="0 0 20 19.01">
  <g id="Page-1">
    <path id="Call-Copy" d="M4,0A2.56,2.56,0,0,1,5.38.4l.17.12L5.7.65,7.63,2.44a2.18,2.18,0,0,1,.59,2.9l-.1.13L8,5.61,6.89,6.74l.19.35A11.5,11.5,0,0,0,8.85,9.5l.3.31.32.3a11.83,11.83,0,0,0,3.2,2.19l.39.17,1.1-1.13a2,2,0,0,1,2.68-.28l.15.11.15.11.17.15,1.93,1.79a2.33,2.33,0,0,1,.34,3l-.1.14-.15.16-1.72,1.77a2.52,2.52,0,0,1-1.87.67,8.39,8.39,0,0,1-3.2-.8A23.74,23.74,0,0,1,6,13.77l-.49-.47C1.33,9.28-.95,4.66.38,2.74l.08-.11.11-.12L2.29.74A2.48,2.48,0,0,1,3.59,0l.18,0Zm.06,2H4l-.1,0,0,0-.07.06L2,3.87c-.21.22.11,1.46.82,2.8a21.92,21.92,0,0,0,4.5,5.67,21.76,21.76,0,0,0,6,4.07,5.73,5.73,0,0,0,2.72.62l.06,0,0,0,1.73-1.77a.4.4,0,0,0,.08-.43l0-.06-.06-.07-2-1.87-.12-.11,0,0-.07.06-1.1,1.14a2,2,0,0,1-2.19.46A13.91,13.91,0,0,1,8.1,11.55a13.37,13.37,0,0,1-3-4,1.9,1.9,0,0,1,.14-1.9l.1-.13.12-.14,1.1-1.13s0-.12-.13-.25L6.35,4l-.09-.09L4.33,2.08A.35.35,0,0,0,4.12,2Z"/>
  </g>
</svg>
