<?xml version="1.0" encoding="UTF-8"?>
<svg width="20px" height="20px" viewBox="0 0 20 20" version="1.1" xmlns="http://www.w3.org/2000/svg">
    <title>Cancel</title>
    <g id="Page-1" stroke="none" stroke-width="1" fill="none" fill-rule="evenodd">
        <g id="Cancel" fill="#000000">
            <g id="highlight_off_black_24dp-(1)">
                <path d="M10,0 C15.53,0 20,4.47 20,10 C20,15.53 15.53,20 10,20 C4.47,20 0,15.53 0,10 C0,4.47 4.47,0 10,0 Z M10,2 C5.59,2 2,5.59 2,10 C2,14.41 5.59,18 10,18 C14.41,18 18,14.41 18,10 C18,5.59 14.41,2 10,2 Z M6.705,6.705 C7.09436075,6.31563925 7.72563925,6.31563925 8.115,6.705 L8.115,6.705 L10,8.59 L11.885,6.705 C12.2743607,6.31563925 12.9056393,6.31563925 13.295,6.705 C13.6843607,7.09436075 13.6843607,7.72563925 13.295,8.115 L13.295,8.115 L11.41,10 L13.295,11.885 C13.6843607,12.2743607 13.6843607,12.9056393 13.295,13.295 C12.9056393,13.6843607 12.2743607,13.6843607 11.885,13.295 L11.885,13.295 L10,11.41 L8.115,13.295 C7.72563925,13.6843607 7.09436075,13.6843607 6.705,13.295 C6.31563925,12.9056393 6.31563925,12.2743607 6.705,11.885 L6.705,11.885 L8.59,10 L6.705,8.115 C6.31563925,7.72563925 6.31563925,7.09436075 6.705,6.705 Z" id="Cancel"> </path>
            </g>
        </g>
    </g>
</svg>