<?xml version="1.0" encoding="UTF-8"?>
<svg width="20px" height="20px" viewBox="0 0 20 20" version="1.1" xmlns="http://www.w3.org/2000/svg" xmlns:xlink="http://www.w3.org/1999/xlink">
    <title>clock</title>
    <g id="clock" stroke="none" stroke-width="1" fill="none" fill-rule="evenodd">
        <path d="M10,0 C15.5187333,0 20,4.48126673 20,10 C20,15.5153814 15.5122627,20 10,20 C9.21339044,20 8.42867417,19.9041183 7.65452744,19.7183221 C3.15122503,18.6504249 0,14.6504543 0,10 C0,8.95820695 0.159523276,7.94029653 0.47345765,6.96811356 C1.81257115,2.79974523 5.63985174,0 10,0 Z M10,1.96153563 C6.49793868,1.96153563 3.41996217,4.21398025 2.34229519,7.57093837 C2.08757745,8.34452559 1.96153563,9.15309578 1.96153563,10 C1.96153563,13.742044 4.49104898,16.9518326 8.12365531,17.8099498 C8.73295014,17.9622735 9.36152503,18.0384644 10.0098249,18.0384644 C14.4353378,18.0384644 18.0384644,14.4323844 18.0384644,10 C18.0384644,5.56613827 14.4338617,1.96153563 10,1.96153563 Z M9.75437821,3.90047405 C10.253507,3.90047405 10.6713444,4.28265934 10.7284888,4.76762851 L10.735146,4.88124186 L10.7346341,9.21560976 L14.9419104,9.21572962 C15.4086023,9.21572962 15.7958151,9.5392401 15.896923,9.97200335 L15.9161199,10.0823463 L15.9226783,10.1964974 C15.9226783,10.6956262 15.540493,11.1134636 15.0555238,11.1706081 L14.9419104,11.1772652 L9.75437821,11.1772652 C9.2552494,11.1772652 8.83741205,10.79508 8.78026757,10.3101108 L8.77361039,10.1964974 L8.77361039,4.88124186 C8.77361039,4.34371853 9.21685487,3.90047405 9.75437821,3.90047405 Z" id="Shape" fill="#000000" fill-rule="nonzero"></path>
    </g>
</svg>