<?xml version="1.0" encoding="UTF-8"?>
<svg width="20px" height="20px" viewBox="0 0 20 20" version="1.1" xmlns="http://www.w3.org/2000/svg">
    <title>Location</title>
    <g id="Page-1" stroke="none" stroke-width="1" fill="none" fill-rule="evenodd">
        <g id="Location" fill="#000000">
            <path d="M13.8275863,-2.47993004 L1.76955466,10.8390734 C1.31875871,11.3369683 1.2308295,12.0655267 1.54977984,12.6566225 L1.62343946,12.7795583 C1.96413095,13.2940208 2.57744324,13.5676818 3.1951767,13.4668862 L10.176,12.331 L15.6813226,17.2943025 C16.1702152,17.732842 16.8755114,17.8245888 17.4578613,17.5264122 C18.0427954,17.2269091 18.3814469,16.5967815 18.3101548,15.9436304 L16.57281,-1.57166661 C16.5120593,-2.19262883 16.0912684,-2.7215192 15.4979262,-2.91909913 C14.9031995,-3.11714008 14.2482009,-2.94461695 13.8275863,-2.47993004 Z M14.675,-0.436 L16.214,15.082 L10.8037141,10.2037408 L4.049,11.301 L14.675,-0.436 Z" transform="translate(9.839544, 7.349937) rotate(27.000000) translate(-9.839544, -7.349937) "> </path>
        </g>
    </g>
</svg>