<?xml version="1.0" encoding="UTF-8"?>
<svg width="20px" height="20px" viewBox="0 0 20 20" version="1.1" xmlns="http://www.w3.org/2000/svg" xmlns:xlink="http://www.w3.org/1999/xlink">
    <title>Map</title>
    <g id="Map" stroke="none" stroke-width="1" fill="none" fill-rule="evenodd">
        <path d="M10,0.1 C12.1227294,0.1 14.1584945,0.954929859 15.6587999,2.47628399 C17.1578819,3.99632005 18,6.05746556 18,8.2061282 C18,12.7796201 13.9888783,19.2103645 10.5652638,19.8476449 L10.3824441,19.8761992 L10.1987926,19.8937143 L10.0000717,19.9 C6.47224302,19.9 2,13.0940891 2,8.2061282 C2,6.05733206 2.84208483,3.99627613 4.34120014,2.47628399 C5.8416075,0.954904097 7.87730596,0.1 10,0.1 Z M10.0911079,2.08886567 L9.83376033,2.09628138 C8.33112139,2.1662158 6.9071846,2.80272959 5.84215264,3.88258533 C4.71125428,5.02942533 4.07475465,6.58455423 4.07257264,8.20630993 C4.07257264,11.9646638 7.76049827,17.9094368 10.0981094,17.9094368 C10.9787625,17.9094368 12.1029084,17.0547919 13.1961871,15.6200789 L13.3685135,15.3887648 L13.6486668,14.9899662 C13.7713115,14.8089825 13.8917673,14.6226235 14.0093441,14.4320058 L14.1834638,14.1430248 L14.4364409,13.6976561 C15.4821106,11.789535 16.1236466,9.76006353 16.1236466,8.20701357 C16.1214507,6.58466196 15.4850131,5.02950814 14.3540873,3.88260687 C13.4178048,2.93323708 12.2016433,2.3243177 10.9016322,2.14583925 L10.6218464,2.11421504 L10.3577715,2.09667101 L10.0911079,2.08886567 Z M10,6.06 L10.1463384,6.06528835 L10.3003084,6.08209973 C10.7166868,6.1447474 11.1093501,6.34293859 11.4121872,6.64523413 C11.7879384,7.02040151 11.9994075,7.52943388 12,8.06035894 C12,8.59108295 11.7887443,9.10027933 11.4128526,9.47559958 C11.0379513,9.84982042 10.5297811,10.06 10,10.06 C9.4701991,10.06 8.96203651,9.84981853 8.58710544,9.47555797 C8.2112128,9.10022915 8,8.59101008 8,8.05994126 C8,7.52891328 8.21125693,7.01961838 8.58711085,6.64443663 C8.96204359,6.27018447 9.47021172,6.06 10,6.06 Z" id="Combined-Shape" fill="#000000" fill-rule="nonzero"></path>
    </g>
</svg>