<?xml version="1.0" encoding="UTF-8"?>
<svg width="20px" height="20px" viewBox="0 0 20 20" version="1.1" xmlns="http://www.w3.org/2000/svg" xmlns:xlink="http://www.w3.org/1999/xlink">
    <title>Lock</title>
    <g id="Lock" stroke="none" stroke-width="1" fill="none" fill-rule="evenodd">
        <path d="M10.0308932,0 C12.6024323,0 14.7025487,2.03061533 14.8141901,4.57479378 L14.8188581,4.78796494 L14.8179104,6.6199005 L14.8308458,6.63283582 L15.7228327,6.63362319 L15.8756261,6.63998085 C16.8276822,6.7179379 17.5828413,7.48520169 17.6559771,8.42824793 L17.6617863,8.57853589 L17.6617863,18.0610464 L17.6553046,18.2138397 C17.5773476,19.1658958 16.8100838,19.921055 15.8670376,19.9941908 L15.7167496,20 L4.33895362,20 L4.18616025,19.9935183 C3.23410415,19.9155613 2.47894501,19.1482975 2.40580924,18.2052512 L2.4,18.0549633 L2.4,8.57245279 L2.40648168,8.41965942 C2.48443873,7.46760333 3.25170252,6.71244419 4.19474876,6.63930841 L4.34503672,6.63349917 L5.23084577,6.63283582 L5.24278607,6.62089552 L5.242966,4.78460669 L5.24785617,4.5690125 C5.36285664,2.01925557 7.46950798,0 10.0308932,0 Z M15.6547264,8.6278607 L4.40597015,8.6278607 L4.39402985,8.639801 L4.39402985,17.9930348 L4.40597015,18.0049751 L15.6547264,18.0049751 L15.6666667,17.9930348 L15.6666667,8.639801 L15.6547264,8.6278607 Z M10.0308932,11.1727079 C11.2106844,11.1727079 12.1749348,12.1369583 12.1749348,13.3167496 C12.1749348,14.4965409 11.2106844,15.4607913 10.0308932,15.4607913 C8.85110187,15.4607913 7.88685146,14.4965409 7.88685146,13.3167496 C7.88685146,12.1369583 8.85110187,11.1727079 10.0308932,11.1727079 Z M10.0308932,1.99478796 C8.54252788,1.99478796 7.33053738,3.15165382 7.24280196,4.61750524 L7.23771618,4.78796494 L7.23681592,6.62089552 L7.24875622,6.63283582 L12.8119403,6.63283582 L12.8238806,6.62089552 L12.8241319,4.79225837 L12.8193342,4.62337885 C12.7342208,3.1488645 11.5152988,1.99478796 10.0308932,1.99478796 Z" fill="#000000" fill-rule="nonzero"></path>
    </g>
</svg>