<?xml version="1.0" encoding="UTF-8"?>
<svg width="20px" height="20px" viewBox="0 0 20 20" version="1.1" xmlns="http://www.w3.org/2000/svg">
    <title>Reschedule</title>
    <g id="Page-1" stroke="none" stroke-width="1" fill="none" fill-rule="evenodd">
        <g id="Reschedule" fill="#000000">
            <path d="M16.5093542,2.6914735 L16.6923373,2.86690662 L18.0866776,1.44545606 C18.2191707,1.31061603 18.4003996,1.26023918 18.5699895,1.31793518 C18.6827242,1.37809567 18.8429468,1.56315102 18.8691104,1.69688702 L19.9931157,7.09175269 C20.0214035,7.23541562 19.9616284,7.43856165 19.8740139,7.52787965 C19.7604059,7.6437018 19.6210057,7.68105566 19.4529052,7.64687794 L14.1674829,6.50268106 C14.0110674,6.47063886 13.8341719,6.33033819 13.7257601,6.14579665 C13.7200583,6.04265767 13.7645932,5.85200114 13.8747984,5.73965319 L15.2751865,4.31203723 L15.0840513,4.13264903 C12.0130221,1.25036325 7.22096317,1.3411857 4.24138438,4.37869667 C1.19504992,7.53336711 1.19504992,12.6065199 4.24138438,15.7120844 C7.33863118,18.8204018 12.3234154,18.8204018 15.3724502,15.7120844 C16.4278078,14.6358871 17.1487992,13.2486692 17.4824013,11.7104695 L17.5479387,11.3786027 C17.6237004,10.8021032 18.1350183,10.42299 18.6450062,10.5343809 C19.1989549,10.6105845 19.5535132,11.1235494 19.47549,11.6797704 C19.1589772,13.7068098 18.2098795,15.5702202 16.7379466,17.0707719 C14.8726884,18.9722965 12.3885505,20 9.80666655,20 C7.22473634,20 4.74069779,18.9723506 2.87538645,17.0707719 C1.01413866,15.2195025 0,12.7139732 0,9.9976763 C0,7.32841196 1.01475023,4.82139343 2.87538997,2.92457713 C6.61127658,-0.884095888 12.6754787,-0.984212315 16.5093542,2.6914735 Z"> </path>
        </g>
    </g>
</svg>
