<?xml version="1.0" encoding="UTF-8"?>
<svg width="20px" height="20px" viewBox="0 0 20 20" version="1.1" xmlns="http://www.w3.org/2000/svg" xmlns:xlink="http://www.w3.org/1999/xlink">
    <title>Calendar</title>
    <g id="Calendar" stroke="none" stroke-width="1" fill="none" fill-rule="evenodd">
        <path d="M15.2356733,0 C15.7488888,0 16.1793233,0.405831507 16.2344336,0.91403004 L16.2403916,1.02438598 L16.2397989,1.97984891 L16.9726446,1.98004579 L17.1491768,1.98560528 C18.6906308,2.08062692 19.9191687,3.34598277 19.9962623,4.88998393 L20,5.06932377 L20,16.901402 L19.9943123,17.0816638 C19.9011674,18.6518257 18.6576646,19.9041389 17.1275054,19.994749 L16.9497256,20 L3.02704537,20 L2.85129246,19.9942688 C1.31839105,19.8987385 0.0937473585,18.6284076 0.00513575625,17.0736447 L0,16.8930373 L0,5.06394039 L0.00559387929,4.88494025 C0.0988832719,3.32692953 1.34282897,2.07488453 2.87505341,1.9719638 L3.05307881,1.96523597 L3.77329984,1.96473556 L3.77442644,1.00570196 L3.7831077,0.886653731 C3.85106574,0.386826839 4.27897008,0 4.77851406,0 C5.29172953,0 5.72216406,0.405831507 5.77727437,0.91403004 L5.78323236,1.02438598 L5.78236789,1.96473556 L14.2307308,1.96473556 L14.2315857,1.00570196 L14.240267,0.886653731 C14.308225,0.386826839 14.7361293,0 15.2356733,0 Z M18.0040306,9.13148636 L2.02317385,9.13148636 L2.02351334,16.8795789 L2.0291614,17.0025504 C2.07795528,17.5012875 2.45399353,17.8876203 2.92929623,17.944105 L3.05005799,17.9512285 L16.9499615,17.951591 L17.0707007,17.9457765 C17.5576675,17.8956248 17.9414957,17.5050243 17.9976647,17.0169469 L18.0047508,16.8930373 L18.0040306,9.13148636 Z M3.77329984,4.02821168 L3.06389593,4.02834109 L2.94265417,4.03405249 C2.45308009,4.08331783 2.07216744,4.46529709 2.01646238,4.94923652 L2.00943659,5.07221201 L2.00906806,7.08312359 L17.9899249,7.08312359 L17.9907042,5.08627738 L17.9849595,4.96615835 C17.9352343,4.47933874 17.5486859,4.09247075 17.0709242,4.03583319 L16.9497256,4.02868686 L16.2256931,4.02821168 L16.2253571,4.78290926 L16.2166759,4.90195749 C16.1487178,5.40178439 15.7208135,5.78861123 15.2212695,5.78861123 C14.7080541,5.78861123 14.2776195,5.38277972 14.2225092,4.87458119 L14.2165512,4.76422525 L14.2156175,4.02821168 L5.78236789,4.02821168 L5.78260169,4.78290926 L5.77392043,4.90195749 C5.70596239,5.40178439 5.27805804,5.78861123 4.77851406,5.78861123 C4.26529859,5.78861123 3.83486406,5.38277972 3.77975375,4.87458119 L3.77379577,4.76422525 L3.77329984,4.02821168 Z" fill="#000000" fill-rule="nonzero"></path>
    </g>
</svg>