<?xml version="1.0" encoding="UTF-8"?>
<svg width="20px" height="20px" viewBox="0 0 20 20" version="1.1" xmlns="http://www.w3.org/2000/svg" xmlns:xlink="http://www.w3.org/1999/xlink">
    <title>Cashback</title>
    <g id="Cashback" stroke="none" stroke-width="1" fill="none" fill-rule="evenodd">
        <path d="M10,0 C15.5133335,0 20,4.48520481 20,9.99680471 C20,15.5115935 15.5101446,20 9.99296344,20 C4.48348876,19.9932505 0,15.5053688 0,9.99680471 C0,4.48520492 4.48666676,0 10,0 Z M9.99360706,2.00938408 C5.58982117,2.00938408 2.00970751,5.59096053 2.00970751,9.99680471 C2.00970751,14.4025471 5.59611256,17.9906168 9.99928565,17.9906168 C14.4098042,17.9846181 17.9902929,14.4028693 17.9902929,9.99680471 C17.9902929,5.59134572 14.4041736,2.00938408 9.99360706,2.00938408 Z M12.9919892,4.79962801 C13.5442506,4.79962801 13.996843,5.25212655 13.996843,5.80432005 C13.996843,6.22729433 13.7330787,6.59510697 13.3376017,6.74055573 L13.2265779,6.77458479 L13.1104017,6.79587211 L12.9981485,6.802621 L11.8326733,6.80000003 L11.8973477,6.93241532 L11.9313356,7.00872703 L11.9950733,7.16506892 L12.077695,7.40299963 L12.1514852,7.67524755 L12.9919892,7.67557023 C13.2706783,7.67557023 13.5310155,7.79222733 13.7197803,7.99362104 L13.7961424,8.08502752 L13.8628095,8.18625154 L13.9219597,8.30659447 L13.963292,8.4265141 L13.9899375,8.56769902 L13.996843,8.68026227 C13.996843,9.10293203 13.7296274,9.47442306 13.3325529,9.62185548 L13.2211435,9.65637926 L13.1045457,9.6780523 L12.9915938,9.68495402 L12.1326733,9.68217825 L12.0916315,9.83245334 C11.7368513,10.9861913 10.889066,11.892855 9.81434174,12.2809119 L9.61023646,12.3475289 L9.41293775,12.3989257 L9.28019805,12.4247525 L11.988691,15.2815094 C12.1647711,15.470103 12.258018,15.7152215 12.2569466,15.9699706 L12.2484979,16.0979306 L12.2240105,16.2261931 L12.1837837,16.3490521 L12.1256029,16.4716145 L12.0356074,16.6024091 L11.9439024,16.7016202 C11.7525456,16.8801597 11.5100383,16.9770656 11.2530554,16.9770656 C11.1202892,16.9770656 10.990364,16.9508555 10.8652124,16.8978079 L10.7417237,16.8357913 L10.6249171,16.756185 L10.5262171,16.6657954 L6.26533615,12.1619737 L6.20707892,12.0892048 L6.16013901,12.0160471 C6.11771907,11.9567806 6.09253992,11.9100209 6.06210012,11.8310377 L6.04082215,11.7571615 L6.02715251,11.6818104 L6.02479877,11.6530394 L6.00763234,11.5584485 L6.00378812,11.4655058 L6.01199081,11.3634176 L6.03114976,11.2784671 L6.04012387,11.2668703 L6.05350698,11.1858155 L6.08202263,11.1002805 L6.12780294,11.0090178 L6.22768154,10.8605019 L6.28933555,10.78945 L6.38854244,10.704771 L6.45109187,10.6681466 L6.50829131,10.6305248 L6.66551439,10.5481991 L6.75307695,10.5227945 L6.92181972,10.4874931 L7.00801119,10.4812116 L8.66383417,10.4812116 C9.17890912,10.4812116 9.66244093,10.1976239 9.95879502,9.73431947 L9.98415845,9.68910895 L7.00161805,9.69134529 C6.72292898,9.69134529 6.46259174,9.57468818 6.27382695,9.37329448 L6.19746491,9.281888 L6.1307978,9.18066398 L6.07164756,9.06032105 L6.03031523,8.94040142 L6.0036698,8.79921649 L5.9967643,8.68665325 C5.9967643,8.26398349 6.26397988,7.89249245 6.66105432,7.74506004 L6.7724638,7.71053626 L6.88904659,7.68886416 L7.00153165,7.68196122 L10.0227723,7.68019805 L9.98070965,7.60288266 C9.84067419,7.37212155 9.65649362,7.18083815 9.44627056,7.04469945 L9.31715644,6.96975893 L9.18266105,6.90880514 L9.0428243,6.86165921 L8.91304145,6.83205707 L8.78938088,6.81484652 L8.65744103,6.80901209 L7.00161805,6.80901209 C6.4493567,6.80901209 5.9967643,6.35651355 5.9967643,5.80432005 C5.9967643,5.38165029 6.26397988,5.01015925 6.66105432,4.86272684 L6.7724638,4.82820306 L6.88905003,4.80653074 L7.00161805,4.79962801 L12.9919892,4.79962801 Z" id="Cashbacks-and-offers" fill="#000000" fill-rule="nonzero"></path>
    </g>
</svg>