<?xml version="1.0" encoding="UTF-8"?>
<svg width="20px" height="20px" viewBox="0 0 20 20" version="1.1" xmlns="http://www.w3.org/2000/svg" xmlns:xlink="http://www.w3.org/1999/xlink">
    <title>Copy</title>
    <g id="Copy" stroke="none" stroke-width="1" fill="none" fill-rule="evenodd">
        <g id="Group-34" fill="#222222" fill-rule="nonzero">
            <g id="Group-33">
                <path d="M17,5 C18.6568542,5 20,6.34314575 20,8 L20,17 C20,18.6568542 18.6568542,20 17,20 L8,20 C6.34314575,20 5,18.6568542 5,17 L5,15 L3,15 C1.34314575,15 0,13.6568542 0,12 L0,3 C0,1.34314575 1.34314575,0 3,0 L12,0 C13.6568542,0 15,1.34314575 15,3 L15,4.999 L17,5 Z M17,7 L8,7 C7.48716416,7 7.06449284,7.38604019 7.00672773,7.88337887 L7,8 L7,17 C7,17.5128358 7.38604019,17.9355072 7.88337887,17.9932723 L8,18 L17,18 C17.5128358,18 17.9355072,17.6139598 17.9932723,17.1166211 L18,17 L18,8 C18,7.48716416 17.6139598,7.06449284 17.1166211,7.00672773 L17,7 Z M13,3 C13,2.48716416 12.6139598,2.06449284 12.1166211,2.00672773 L12,2 L3,2 C2.48716416,2 2.06449284,2.38604019 2.00672773,2.88337887 L2,3 L2,12 C2,12.5128358 2.38604019,12.9355072 2.88337887,12.9932723 L3,13 L5,12.999 L5,8 C5,6.34314575 6.34314575,5 8,5 L13,4.999 L13,3 Z" id="Combined-Shape"></path>
            </g>
        </g>
    </g>
</svg>