<?xml version="1.0" encoding="UTF-8"?>
<svg width="20px" height="20px" viewBox="0 0 20 20" version="1.1" xmlns="http://www.w3.org/2000/svg" xmlns:xlink="http://www.w3.org/1999/xlink">
    <title>Offer - Filled</title>
    <defs>
        <linearGradient x1="15.5530044%" y1="9.88161215%" x2="89.3500953%" y2="92.7142303%" id="linearGradient-1">
            <stop stop-color="#F3846D" offset="0%"></stop>
            <stop stop-color="#DF5F44" offset="100%"></stop>
        </linearGradient>
    </defs>
    <g id="Offer---Filled" stroke="none" stroke-width="1" fill="none" fill-rule="evenodd">
        <path d="M12.087513,0.766842643 L12.2338267,0.901142924 L12.9695656,1.6372644 C13.1685343,1.83634002 13.4234384,1.95837322 13.7019374,1.98917708 L13.8430034,1.99691088 L14.8321722,1.99691088 C16.5351775,1.99691088 17.9098386,3.31356962 18.0026179,4.99273375 L18.0076099,5.17398787 L18.0076099,6.163688 C18.0076099,6.44945614 18.1011247,6.71677376 18.2740663,6.93361988 L18.3670908,7.03768874 L19.0735679,7.74454528 C20.2627247,8.93434079 20.3067675,10.8330905 19.2056964,12.1015654 L19.0735679,12.2450546 L18.3670908,12.9519111 C18.1681111,13.1509977 18.0461311,13.4060664 18.0153404,13.6847513 L18.0076099,13.8259119 L18.0076099,14.8437853 C18.0076099,16.5476412 16.691658,17.9230386 15.0133357,18.0158676 L14.8321722,18.0208623 L13.8148452,18.0208623 C13.5292694,18.0208623 13.262127,18.1144165 13.0454136,18.2874398 L12.9414074,18.3805088 L12.2327648,19.0894795 C11.6138933,19.6790446 10.8195123,20 9.97160994,20 C9.19038027,20 8.45774452,19.7276555 7.88793062,19.2289368 L7.73664956,19.0873446 L7.03017249,18.3804881 C6.83120374,18.1814124 6.57629965,18.0593792 6.29780067,18.0285754 L6.15673466,18.0208416 L5.16756583,18.0208416 C3.46456058,18.0208416 2.08989941,16.7041828 1.99712016,15.0250187 L1.99212813,14.8437646 L1.99212813,13.8258912 C1.99212813,13.540123 1.89861339,13.2728054 1.72567176,13.0559593 L1.63264727,12.9518904 L0.926170191,12.2450339 C-0.262986597,11.0552384 -0.307029441,9.15648868 0.794041659,7.88801379 L0.926170191,7.74452458 L1.63264727,7.03766804 C1.83162695,6.83858148 1.95360699,6.58351276 1.98439762,6.3048279 L1.99212813,6.1636673 L1.99212813,5.17396717 C1.99212813,3.47011122 3.30808004,2.0947139 4.9864024,2.0018849 L5.16756583,1.99689018 L6.18489282,1.99689018 C6.47046864,1.99689018 6.73761106,1.90333601 6.95432448,1.73031262 L7.05833065,1.6372437 L7.76480772,0.930387165 C8.94785772,-0.253298274 10.8415952,-0.307208852 12.087513,0.766842643 Z M13.5016611,11.60592 C12.9708137,11.1061117 12.1619719,11.1061117 11.6340508,11.6033216 C11.5120513,11.7253015 11.4161667,11.877236 11.3497841,12.0431663 C11.2861086,12.2023225 11.2561894,12.3596268 11.2561894,12.5414569 C11.2561894,12.7232838 11.2861079,12.8805823 11.3497841,13.0397475 C11.4157598,13.2052304 11.5118551,13.3574105 11.6313741,13.4769937 C11.7506953,13.5963844 11.902558,13.6923266 12.0684123,13.7587502 C12.181216,13.8039294 12.3128498,13.8340304 12.4407215,13.8462573 L12.4407215,13.8462573 L12.5665327,13.8524225 L12.6951788,13.8459573 C12.8242794,13.8331441 12.9513206,13.8016389 13.0454965,13.7546078 C13.2016448,13.692749 13.353753,13.5965959 13.4732758,13.4770089 C13.6138356,13.3366246 13.7247372,13.186024 13.7832511,13.0397626 C13.8434447,12.8893091 13.8768457,12.70536 13.8768457,12.541472 C13.8768457,12.1879298 13.7447619,11.8491514 13.5016611,11.60592 Z M13.0223381,6.63483764 C12.6566446,6.32865643 12.1024657,6.3562151 11.7443953,6.71447783 L11.7443953,6.71447783 L6.74248713,11.7190726 L6.65986328,11.8055953 C6.35690919,12.1685361 6.38445047,12.7229099 6.74248713,13.0811389 C6.93509631,13.2736109 7.16401685,13.3717701 7.42334933,13.3717701 C7.67239693,13.3717701 7.88572962,13.3105195 8.03976742,13.1752089 L8.03976742,13.1752089 L13.1061664,8.07629473 L13.1887372,7.98982527 L13.2636694,7.88553854 C13.463486,7.5599785 13.4384801,7.12818422 13.1885418,6.80789702 L13.1885418,6.80789702 L13.1096121,6.71833761 Z M8.24547162,6.37518164 C7.71462425,5.87537337 6.90578247,5.87537337 6.37786134,6.37258324 C6.25586191,6.49456314 6.15997731,6.64649767 6.09359466,6.8124279 C6.0299192,6.97158414 6,7.12888843 6,7.31071849 C6,7.49254543 6.02991849,7.64984397 6.09359466,7.80900908 C6.15957032,7.97449203 6.25566567,8.12667216 6.37518465,8.24625533 C6.49450586,8.36564597 6.64636859,8.46158825 6.81222282,8.52801178 C6.9250266,8.57319098 7.05666038,8.60329207 7.18453208,8.61551891 L7.18453208,8.61551891 L7.31034327,8.62168412 L7.4291915,8.61747034 C7.58344046,8.60623024 7.71825183,8.57248984 7.80271073,8.51608826 C7.94545536,8.46201063 8.09756359,8.36585748 8.21708638,8.24627048 C8.35764614,8.10588618 8.46854777,7.95528558 8.52706161,7.80902423 C8.58725525,7.65857077 8.62065627,7.47462159 8.62065627,7.31073364 C8.62065627,6.95719143 8.48857243,6.61841303 8.24547162,6.37518164 Z" fill="url(#linearGradient-1)"></path>
    </g>
</svg>