<?xml version="1.0" encoding="UTF-8"?>
<svg width="20px" height="20px" viewBox="0 0 20 20" version="1.1" xmlns="http://www.w3.org/2000/svg" xmlns:xlink="http://www.w3.org/1999/xlink">
    <title>Verified</title>
    <g id="Verified" stroke="none" stroke-width="1" fill="none" fill-rule="evenodd">
        <g fill="#000000" fill-rule="nonzero" id="Combined-Shape">
            <path d="M10,0 C7.34797927,0 4.80445824,1.05353792 2.92886903,2.92884141 C1.05353792,4.80445824 0,7.34797927 0,10 C0,12.6520207 1.05353792,15.1955418 2.92884141,17.071131 C4.80445824,18.9464621 7.34797927,20 10,20 C12.6520207,20 15.1955418,18.9464621 17.071131,17.0711586 C18.9464621,15.1955418 20,12.6520207 20,10 C20,7.34797927 18.9464621,4.80445824 17.0711586,2.92886903 C15.1955418,1.05353792 12.6520207,0 10,0 Z M10,2.05128205 C12.1080918,2.05128205 14.1298089,2.88873097 15.6205722,4.37941857 C17.1112761,5.87004675 17.9487179,7.89181511 17.9487179,10 C17.9487179,12.1080918 17.111269,14.1298089 15.6205814,15.6205722 C14.1299532,17.1112761 12.1081849,17.9487179 10,17.9487179 C7.89190815,17.9487179 5.87019107,17.111269 4.37942777,15.6205814 C2.88872389,14.1299532 2.05128205,12.1081849 2.05128205,10 C2.05128205,7.89190815 2.88873097,5.87019107 4.37941857,4.37942777 C5.87004675,2.88872389 7.89181511,2.05128205 10,2.05128205 Z M14.1128947,6.44010852 C13.8017224,6.35670839 13.4722426,6.42414669 13.2203444,6.61654615 L13.1174174,6.70657831 L8.71752754,11.1199184 L6.88296522,9.27104924 C6.62224873,9.01059569 6.24271392,8.90889723 5.88708319,9.00422093 C5.53115292,9.09956044 5.25343169,9.37728491 5.15807921,9.73325181 C5.07467909,10.0444241 5.14211739,10.3739039 5.33470236,10.6259874 L5.42482591,10.7290056 L7.98805822,13.292242 C8.18197311,13.4843087 8.44397515,13.5913539 8.71944194,13.5898045 C8.94653261,13.5910927 9.16632084,13.5169785 9.34498823,13.3815847 L9.44698361,13.2931082 L14.5750973,8.16499452 C14.8355508,7.90427803 14.9372493,7.52474322 14.8419256,7.1691125 C14.7571794,6.85273003 14.5283265,6.59814236 14.228534,6.47851073 L14.1128947,6.44010852 Z"></path>
        </g>
    </g>
</svg>