<?xml version="1.0" encoding="UTF-8"?>
<svg xmlns:xlink="http://www.w3.org/1999/xlink" height="163px" version="1.1" viewBox="0 0 626 163"
    width="626px" xmlns="http://www.w3.org/2000/svg">
    <title>Adani One Alpha White</title>
    <defs>
        <path
            d="M66.7489005,0 L67.8828795,0.00524684485 C105.160089,0.351707343 128.14223,17.8730201 128.14223,57.5305897 L128.14223,57.5305897 L128.14223,134.714294 L128.14056,135.060537 C128.090122,140.209003 126.882445,143.337875 122.501308,146.311523 L122.501308,146.311523 L122.245657,146.481313 C116.699902,150.137913 105.283305,155.974179 89.5919287,159.613845 L89.5919287,159.613845 L88.78206,159.807082 L88.78206,159.807082 L87.9669349,159.994312 L87.9669349,92.7047482 L87.959985,92.3041665 C87.9136546,90.9570666 87.6357103,89.4917149 87.1269042,87.9088636 L87.1269042,87.9088636 L86.9805388,87.4774321 C86.4202454,85.9087011 85.6001976,84.4847456 84.5227088,83.1970823 L84.5227088,83.1970823 L84.2217591,82.8515733 C83.096883,81.6018263 81.7367905,80.5403225 80.1453378,79.6647482 L80.1453378,79.6647482 L79.8153287,79.4920639 C78.1475389,78.6560222 76.2133884,78.2309889 74.0038022,78.2309889 L74.0038022,78.2309889 L73.5488756,78.2380032 C71.1256687,78.312816 68.7517109,78.9859741 66.4345147,80.2524693 L66.4345147,80.2524693 L31.7739865,99.7684152 L31.3899732,100.006173 C29.8742235,100.974801 28.6019406,102.154805 27.5668243,103.55406 L27.5668243,103.55406 L27.2931343,103.935323 C26.3130846,105.341719 25.5913171,106.84101 25.1278317,108.437052 L25.1278317,108.437052 L25.0084364,108.87259 C24.5963601,110.47143 24.4671043,112.090952 24.6222113,113.736554 L24.6222113,113.736554 L24.6722385,114.183305 C24.8831078,115.817531 25.3960775,117.40906 26.2211732,118.950952 L26.2211732,118.950952 L26.4148071,119.305684 C28.3155986,122.692151 31.057207,124.842982 34.6314926,125.766314 L34.6314926,125.766314 L35.0276685,125.862773 C36.0830225,126.105454 37.12945,126.231794 38.166811,126.241513 L38.5553962,126.239691 C40.8843536,126.195949 43.1673232,125.561635 45.4027088,124.333557 L45.4027088,124.333557 L60.2058722,115.924238 L60.2058722,163 L59.1917095,162.988 C57.1706583,162.949591 55.1930072,162.825643 53.2543428,162.632549 L53.2543428,162.632549 L52.2277128,162.552195 C18.514442,159.729245 1.18648581,139.987053 0,114.343299 L0,114.343299 L0,108.914638 L0.0423737233,108.173455 C1.61501071,83.7440379 20.4559593,62.3074509 60.1898526,62.3074509 L60.1898526,62.3074509 L61.3746849,62.3117403 C74.6997909,62.4088961 84.5901058,64.1540023 97.8770946,67.2955713 L97.8770946,67.2955713 L97.8770946,57.5305897 L97.8741519,56.9294045 C97.6798184,37.2042706 87.8485296,28.7532801 64.9256634,28.7532801 L64.9256634,28.7532801 L64.1684365,28.7578847 C52.3108257,28.9015714 40.7392785,32.3801678 32.6120147,35.2712776 L32.6120147,35.2712776 L32.220666,35.3941833 C29.7507189,36.1516833 27.4445751,36.5130777 25.3303362,36.53812 L24.9981078,36.5392876 C16.29164,36.496887 10.9284091,30.6939713 10.9284091,23.4257432 L10.9284091,23.4257432 L10.9304785,23.1667408 C11.0108003,18.1463991 13.446957,12.3913227 21.3131511,8.85586609 C29.9487469,4.71278256 48.6286671,0 66.7489005,0 L66.7489005,0 Z M310.298735,59.8284091 L310.876996,59.832021 C318.161823,59.9235218 323.933387,61.7535148 328.191689,65.3201474 L328.191689,65.3201474 L328.47355,65.5619824 C332.655004,69.2351373 334.745731,74.9616296 334.745731,82.7405221 L334.745731,82.7405221 L334.745731,113.446198 L334.740987,113.770929 C334.71253,114.725407 334.556098,115.502521 334.273151,116.104459 L334.273151,116.104459 L334.170276,116.304533 C333.836876,116.903029 333.280533,117.485955 332.501978,118.051849 L332.501978,118.051849 L332.278452,118.192042 C331.434988,118.713501 330.328895,119.316567 328.95863,120.001241 L328.95863,120.001241 L328.543105,120.204949 C327.133697,120.882181 325.481091,121.541585 323.586038,122.186923 L323.586038,122.186923 L323.009652,122.377049 C321.065772,123.001045 318.89592,123.527477 316.499343,123.957095 L316.499343,123.957095 L315.774259,124.080347 C313.339664,124.471511 310.728444,124.665964 307.936837,124.665964 L307.936837,124.665964 L307.272068,124.661218 C303.530844,124.607433 300.228267,124.096543 297.366867,123.131081 L297.366867,123.131081 L296.837179,122.946214 C294.040551,121.93736 291.697912,120.562164 289.807592,118.819791 L289.807592,118.819791 L289.437108,118.469346 C287.613337,116.698587 286.219439,114.649862 285.262015,112.324822 L285.262015,112.324822 L285.075809,111.857114 C284.174923,109.506012 283.72613,106.966372 283.72613,104.234896 L283.72613,104.234896 L283.732431,103.716833 C283.791237,101.306556 284.261654,98.999138 285.142869,96.7937654 L285.142869,96.7937654 L285.326071,96.3543231 C286.272008,94.1732375 287.666903,92.233983 289.513231,90.5340848 L289.513231,90.5340848 L289.865733,90.2186674 C291.774078,88.5570153 294.135785,87.2246123 296.95336,86.2247973 L296.95336,86.2247973 L297.430496,86.0613252 C300.322863,85.1070019 303.747064,84.6298403 307.700547,84.6298403 L307.700547,84.6298403 L308.445683,84.6342341 C310.908367,84.6635263 313.159973,84.8392791 315.199748,85.1614926 L315.199748,85.1614926 L315.818012,85.261356 C317.900004,85.6057981 320.193148,86.065784 322.69895,86.6383047 L322.69895,86.6383047 L322.69895,82.7405221 L322.695299,82.3290206 C322.627164,78.5251037 321.605125,75.7505316 319.629183,74.0007985 L319.629183,74.0007985 L319.420006,73.8227902 C317.356154,72.1311767 314.079774,71.2844656 309.590866,71.2844656 L309.590866,71.2844656 L308.927371,71.291338 C306.724059,71.3371418 304.60402,71.6117763 302.564244,72.1114803 L302.564244,72.1114803 L301.959385,72.2626794 C299.96767,72.7700487 298.220733,73.3110431 296.71707,73.8826536 L296.71707,73.8826536 L296.394956,73.9859053 C295.54308,74.2475596 294.747959,74.3997464 294.00974,74.4424654 L293.735576,74.4533538 L293.735576,74.4533538 L293.466748,74.4539796 C292.313392,74.4344556 291.310394,74.1258687 290.458391,73.5282187 L290.458391,73.5282187 L290.227918,73.3603502 C288.805728,72.2803 288.095491,70.8794687 288.095491,69.1578563 L288.095491,69.1578563 L288.102814,68.8787648 C288.151635,67.9465766 288.444556,66.9956578 288.981579,66.0290172 L288.981579,66.0290172 L289.106079,65.8187319 C289.717677,64.8484842 290.757691,64.0333686 292.228563,63.3717568 L292.228563,63.3717568 L292.508621,63.2356507 C294.229303,62.4219099 296.675967,61.6602884 299.84691,60.9507862 C303.193016,60.2028686 306.67629,59.8284091 310.298735,59.8284091 L310.298735,59.8284091 Z M191.962537,59.8284091 L192.540874,59.832021 C199.826626,59.9235218 205.598165,61.7535148 209.855491,65.3201474 L209.855491,65.3201474 L210.137352,65.5619824 C214.318806,69.2351373 216.409533,74.9616296 216.409533,82.7405221 L216.409533,82.7405221 L216.409533,113.446198 L216.404789,113.770929 C216.376332,114.725407 216.2199,115.502521 215.936953,116.104459 L215.936953,116.104459 L215.834321,116.304533 C215.501489,116.903029 214.944335,117.485955 214.16578,118.051849 L214.16578,118.051849 L213.942466,118.192042 C213.099639,118.713501 211.992781,119.316567 210.623434,120.001241 L210.623434,120.001241 L210.207885,120.204949 C208.798326,120.882181 207.144893,121.541585 205.24984,122.186923 L205.24984,122.186923 L204.673703,122.377049 C202.730567,123.001045 200.560632,123.527477 198.163145,123.957095 L198.163145,123.957095 L197.438062,124.080347 C195.003475,124.471511 192.392337,124.665964 189.60164,124.665964 L189.60164,124.665964 L188.936714,124.661218 C185.194649,124.607433 181.892125,124.096543 179.031671,123.131081 L179.031671,123.131081 L178.501816,122.946214 C175.704353,121.93736 173.361714,120.562164 171.471394,118.819791 L171.471394,118.819791 L171.100921,118.469346 C169.277257,116.698587 167.88418,114.649862 166.925817,112.324822 L166.925817,112.324822 L166.739776,111.857114 C165.839605,109.506012 165.389932,106.966372 165.389932,104.234896 L165.389932,104.234896 L165.396233,103.716833 C165.455039,101.306556 165.925456,98.999138 166.806671,96.7937654 L166.806671,96.7937654 L166.989884,96.3543231 C167.935927,94.1732375 169.331644,92.233983 171.177033,90.5340848 L171.177033,90.5340848 L171.529545,90.2186674 C173.437991,88.5570153 175.80053,87.2246123 178.617162,86.2247973 L178.617162,86.2247973 L179.09444,86.0613252 C181.987566,85.1070019 185.410919,84.6298403 189.36535,84.6298403 L189.36535,84.6298403 L190.110261,84.6342341 C192.572343,84.6635263 194.824776,84.8392791 196.864552,85.1614926 L196.864552,85.1614926 L197.482793,85.261356 C199.564633,85.6057981 201.85695,86.065784 204.362752,86.6383047 L204.362752,86.6383047 L204.362752,82.7405221 L204.359102,82.3290206 C204.290966,78.5251037 203.268927,75.7505316 201.292985,74.0007985 L201.292985,74.0007985 L201.083812,73.8227902 C199.020021,72.1311767 195.744544,71.2844656 191.254668,71.2844656 L191.254668,71.2844656 L190.591174,71.291338 C188.387861,71.3371418 186.267822,71.6117763 184.228047,72.1114803 L184.228047,72.1114803 L183.623188,72.2626794 C181.631481,72.7700487 179.884626,73.3110431 178.381873,73.8826536 L178.381873,73.8826536 L178.059645,73.9859053 C177.207488,74.2475596 176.41229,74.3997464 175.674051,74.4424654 L175.399881,74.4533538 L175.399881,74.4533538 L175.131051,74.4539796 C173.977692,74.4344556 172.974739,74.1258687 172.122193,73.5282187 L172.122193,73.5282187 L171.89172,73.3603502 C170.46953,72.2803 169.759294,70.8794687 169.759294,69.1578563 L169.759294,69.1578563 L169.766639,68.8787648 C169.815602,67.9465766 170.109268,66.9956578 170.645381,66.0290172 L170.645381,66.0290172 L170.770068,65.8187319 C171.382481,64.8484842 172.422495,64.0333686 173.893366,63.3717568 L173.893366,63.3717568 L174.173416,63.2356507 C175.894004,62.4219099 178.339769,61.6602884 181.510713,60.9507862 C184.856818,60.2028686 188.340092,59.8284091 191.962537,59.8284091 L191.962537,59.8284091 Z M270.499902,39.1600491 L270.816255,39.1663987 C272.486017,39.2341227 273.876456,39.8435348 274.988409,40.9912961 L274.988409,40.9912961 L275.190758,41.2099005 C276.237197,42.392039 276.759582,43.8341961 276.759582,45.5388759 L276.759582,45.5388759 L276.759582,112.620184 L276.754466,112.980595 C276.727185,113.922041 276.59082,114.706411 276.346075,115.336517 L276.346075,115.336517 L276.270043,115.51271 C275.965782,116.155898 275.381224,116.767606 274.514828,117.34398 L274.514828,117.34398 L274.326574,117.473709 C273.546972,118.002309 272.448369,118.647195 271.031554,119.411517 L271.031554,119.411517 L270.56253,119.658777 C269.130682,120.398909 267.475891,121.124119 265.598888,121.831486 L265.598888,121.831486 L264.965016,122.06433 C263.040579,122.752216 260.910636,123.344243 258.572267,123.83895 L258.572267,123.83895 L257.860718,123.982105 C255.479058,124.436758 252.999156,124.665964 250.423268,124.665964 L250.423268,124.665964 L249.757952,124.660504 C246.010529,124.598613 242.649062,124.010605 239.676081,122.894791 L239.676081,122.894791 L239.124505,122.681404 C236.205612,121.517229 233.652278,119.935219 231.467009,117.933704 L231.467009,117.933704 L231.062207,117.554116 C228.93054,115.505746 227.235228,113.07486 225.976271,110.257285 L225.976271,110.257285 L225.730931,109.692827 C224.534373,106.852001 223.789964,103.733155 223.495227,100.337113 L223.495227,100.337113 L223.469605,99.987573 C223.403263,99.0320302 223.35283,97.8889981 223.319011,96.5584767 L223.319011,96.5584767 L223.292306,95.4296854 C223.269638,94.2932598 223.258937,93.1340249 223.258937,91.9528256 L223.258937,91.9528256 L223.261244,91.0150509 C223.267428,89.7742324 223.286171,88.5714767 223.319011,87.4052457 L223.319011,87.4052457 L223.334262,86.867586 C223.372139,85.6323203 223.426017,84.5319702 223.495227,83.5665356 L223.495227,83.5665356 L223.547279,83.0005157 C224.252309,75.8707037 226.694101,70.2523017 230.877285,66.1471622 L230.877285,66.1471622 L231.179322,65.8567729 C235.445864,61.8391077 241.309481,59.8284091 248.769238,59.8284091 L248.769238,59.8284091 L249.477025,59.8357932 C252.069197,59.8899429 254.627927,60.2419165 257.155528,60.8917138 L257.155528,60.8917138 L257.784187,61.0567023 C260.270948,61.7222654 262.423222,62.4550936 264.240221,63.2536118 L264.240221,63.2536118 L264.240221,45.5388759 L264.246551,45.2223243 C264.314073,43.55045 264.921822,42.140942 266.071468,40.9912961 C267.291966,39.7717998 268.767776,39.1600491 270.499902,39.1600491 L270.499902,39.1600491 Z M478.060878,59.828309 C481.847524,59.828309 485.359834,60.4010117 488.594803,61.5414109 C491.828771,62.6838127 494.650233,64.297793 497.057186,66.383352 C499.463138,68.4699122 501.395509,70.970981 502.856302,73.8825534 C504.316093,76.7961284 505.165135,80.0240891 505.401424,83.5674367 C505.478519,84.7478851 505.538593,86.0675043 505.578642,87.5232905 C505.61769,88.9810792 505.637714,90.4578913 505.637714,91.9517242 C505.637714,93.4485608 505.61769,94.9453974 505.578642,96.4402316 C505.538593,97.9370682 505.478519,99.2747095 505.401424,100.455158 C505.165135,103.921411 504.316093,107.128346 502.856302,110.080969 C501.395509,113.03259 499.463138,115.592732 497.057186,117.757388 C494.650233,119.924046 491.828771,121.616122 488.594803,122.835619 C485.359834,124.055115 481.847524,124.665864 478.060878,124.665864 C474.352327,124.665864 470.879066,124.055115 467.644096,122.835619 C464.409127,121.616122 461.589668,119.924046 459.183716,117.757388 C456.776762,115.592732 454.823365,113.03259 453.324526,110.080969 C451.823685,107.128346 450.956621,103.921411 450.720331,100.455158 C450.641234,99.2747095 450.582162,97.9370682 450.544115,96.4402316 C450.503064,94.9453974 450.484041,93.4485608 450.484041,91.9517242 C450.484041,90.4578913 450.503064,88.9810792 450.544115,87.5232905 C450.582162,86.0675043 450.641234,84.7478851 450.720331,83.5674367 C450.956621,80.0240891 451.823685,76.7961284 453.324526,73.8825534 C454.823365,70.970981 456.776762,68.4699122 459.183716,66.383352 C461.589668,64.297793 464.409127,62.6838127 467.644096,61.5414109 C470.879066,60.4010117 474.352327,59.828309 478.060878,59.828309 Z M600.11704,59.8284091 C604.052869,59.8284091 607.635265,60.459183 610.864227,61.7187285 C614.091186,62.978274 616.846567,64.770473 619.13137,67.0923219 C621.41317,69.415172 623.185345,72.210602 624.445891,75.4776106 C625.704436,78.7456204 626.335209,82.3470393 626.335209,86.2828686 L626.335209,89.5899263 C626.335209,91.7956327 625.72446,93.6058538 624.504964,95.0225921 C623.283465,96.4403317 621.375123,97.1492015 618.776936,97.1492015 L585.353926,97.1492015 L585.353926,98.5659398 C585.353926,103.289736 586.789687,106.912181 589.665216,109.431271 C592.53774,111.951364 596.297353,113.209908 600.943053,113.209908 C603.069663,113.209908 605.29239,112.955596 607.616241,112.442967 C609.93809,111.931339 612.240916,111.243495 614.524718,110.37543 C615.784264,109.903851 616.94669,109.726634 618.008993,109.844779 C619.072298,109.962924 619.976407,110.278311 620.725326,110.788937 C621.473244,111.302568 622.042943,111.951364 622.438428,112.738329 C622.83091,113.526296 623.028152,114.353311 623.028152,115.218372 C623.028152,116.162531 622.83091,117.089668 622.438428,117.993778 C622.042943,118.899889 621.177881,119.746929 619.839239,120.532893 C618.815983,121.163667 617.575461,121.734367 616.119675,122.244994 C614.661886,122.757623 613.087955,123.190154 611.395879,123.544588 C609.7018,123.899023 607.929626,124.17336 606.080357,124.370602 C604.230087,124.566843 602.437888,124.665964 600.707765,124.665964 C596.61274,124.665964 592.931223,124.03519 589.665216,122.776646 C586.396205,121.518102 583.582752,119.764951 581.220854,117.521198 C578.858956,115.277445 576.98766,112.602162 575.610971,109.490344 C574.232279,106.380528 573.426291,102.976351 573.188999,99.2748096 C573.109902,98.172457 573.051831,96.9529607 573.012783,95.613317 C572.971733,94.2756757 572.953711,92.9560565 572.953711,91.6564619 C572.953711,90.3578686 572.971733,89.0993243 573.012783,87.8778256 C573.051831,86.6583292 573.109902,85.575 573.188999,84.6298403 C573.503385,80.8502027 574.370449,77.4260012 575.788189,74.3552334 C577.204927,71.2844656 579.095246,68.6682555 581.457144,66.5015971 C583.819042,64.336941 586.594448,62.6839128 589.783361,61.5405098 C592.971272,60.4011118 596.415498,59.8284091 600.11704,59.8284091 Z M540.121526,59.8281087 C548.703055,59.8281087 555.159978,61.9747426 559.490291,66.2650068 C563.819603,70.5572733 565.986262,76.7168311 565.986262,84.7476849 L565.986262,117.57997 C565.986262,119.392193 565.395537,120.907052 564.214087,122.126549 C563.033639,123.349049 561.536802,123.957795 559.726581,123.957795 C558.073553,123.957795 556.615764,123.349049 555.35722,122.126549 C554.096673,120.907052 553.467902,119.392193 553.467902,117.57997 L553.467902,85.3384097 C553.467902,82.9765117 553.092441,80.9500252 552.345525,79.2559466 C551.596606,77.5638704 550.592373,76.1671566 549.333829,75.0638028 C548.073283,73.9624515 546.617496,73.1554613 544.964468,72.6428323 C543.310439,72.1312045 541.578313,71.87489 539.768092,71.87489 C536.854517,71.87489 534.117158,72.2103016 531.55902,72.8791222 C528.99988,73.5489441 527.051489,74.3158851 525.713848,75.1819478 L525.713848,117.57997 C525.713848,119.392193 525.123123,120.907052 523.941673,122.126549 C522.761225,123.349049 521.264388,123.957795 519.454167,123.957795 C517.801139,123.957795 516.34335,123.349049 515.084806,122.126549 C513.824259,120.907052 513.194486,119.392193 513.194486,117.57997 L513.194486,71.1660203 C513.194486,69.907476 513.390727,68.943293 513.785211,68.2734711 C514.178694,67.6046505 514.807466,66.9548532 515.675531,66.3240792 C516.540592,65.6953077 517.721041,65.0064625 519.217877,64.2575436 C520.712711,63.5096259 522.484886,62.8017574 524.532398,62.1319355 C526.578909,61.4641161 528.920783,60.911438 531.55902,60.477906 C534.196256,60.0463765 537.051759,59.8281087 540.121526,59.8281087 Z M370.530639,59.8284091 L371.08729,59.8314525 C379.391856,59.9227541 385.662227,62.0683096 389.898403,66.2653071 L389.898403,66.2653071 L390.190234,66.56079 C394.325125,70.837564 396.395375,76.8996509 396.395375,84.7479853 L396.395375,84.7479853 L396.395375,117.58027 L396.389233,117.896988 C396.323723,119.569691 395.734211,120.979088 394.6232,122.126849 L394.6232,122.126849 L394.411436,122.336204 C393.264568,123.418745 391.83843,123.957095 390.134693,123.957095 L390.134693,123.957095 L389.84501,123.950784 C388.310849,123.883468 386.949844,123.277437 385.765332,122.126849 L385.765332,122.126849 L385.54944,121.908577 C384.432988,120.728105 383.876014,119.285892 383.876014,117.58027 L383.876014,117.58027 L383.876014,85.3387101 L383.871021,84.8708017 C383.824426,82.7080912 383.451693,80.837387 382.753636,79.2562469 L382.753636,79.2562469 L382.576278,78.87101 C381.848721,77.3510276 380.903751,76.0825836 379.742942,75.0641032 L379.742942,75.0641032 L379.423717,74.7946876 C378.238235,73.8294563 376.887856,73.1130426 375.37258,72.6431327 L375.37258,72.6431327 L374.874271,72.4973047 C373.372155,72.0828052 371.805403,71.8751904 370.176204,71.8751904 L370.176204,71.8751904 L369.50697,71.8811595 C366.842563,71.9289013 364.328567,72.2628969 361.968133,72.8784214 L361.968133,72.8784214 L361.49544,73.0051628 C359.167708,73.6446193 357.375998,74.3703144 356.121959,75.1822482 L356.121959,75.1822482 L356.121959,117.58027 L356.115827,117.896988 C356.050418,119.569691 355.461738,120.979088 354.349785,122.126849 L354.349785,122.126849 L354.138197,122.336204 C352.992265,123.418745 351.566959,123.957095 349.862279,123.957095 L349.862279,123.957095 L349.572596,123.950784 C348.038435,123.883468 346.67743,123.277437 345.492918,122.126849 L345.492918,122.126849 L345.277016,121.908577 C344.160459,120.728105 343.602598,119.285892 343.602598,117.58027 L343.602598,117.58027 L343.602598,71.1663206 L343.606688,70.857798 C343.636689,69.7489704 343.831796,68.8868571 344.194324,68.2737715 L344.194324,68.2737715 L344.333907,68.0515359 C344.729487,67.4607863 345.312029,66.8850676 346.083643,66.3243796 L346.083643,66.3243796 L346.327412,66.1514063 C347.166119,65.5698588 348.26623,64.9385883 349.62699,64.2568428 L349.62699,64.2568428 L350.083732,64.0339372 C351.478832,63.368723 353.097849,62.7349754 354.941511,62.1312346 L354.941511,62.1312346 L355.506952,61.9520057 C357.416101,61.3642522 359.568825,60.8732365 361.968133,60.4782064 C364.604367,60.0466769 367.459871,59.8284091 370.530639,59.8284091 L370.530639,59.8284091 Z M412.337936,60.6554238 L412.640622,60.6617634 C414.240922,60.7293831 415.616783,61.3379083 416.767371,62.4856695 L416.767371,62.4856695 L416.976257,62.7042836 C418.056607,63.8865199 418.597617,65.329453 418.597617,67.0322482 L418.597617,67.0322482 L418.597617,117.58027 L418.591475,117.896988 C418.525965,119.569691 417.936453,120.979088 416.825442,122.126849 L416.825442,122.126849 L416.613678,122.336204 C415.466813,123.418745 414.040731,123.957095 412.337936,123.957095 L412.337936,123.957095 L412.048096,123.950784 C410.513202,123.883468 409.153028,123.277437 407.967574,122.126849 L407.967574,122.126849 L407.751682,121.908577 C406.63523,120.728105 406.078256,119.285892 406.078256,117.58027 L406.078256,117.58027 L406.078256,67.0322482 L406.084387,66.7160195 C406.149793,65.0457103 406.738418,63.6353154 407.849429,62.4856695 C409.030878,61.2661732 410.525713,60.6554238 412.337936,60.6554238 L412.337936,60.6554238 Z M308.409416,94.9044472 L307.940609,94.9088022 C304.529711,94.9726764 301.713374,95.739167 299.492475,97.208274 L299.492475,97.208274 L299.239061,97.3814906 C297.084331,98.9058768 296.009201,101.032819 296.009201,103.762316 L296.009201,103.762316 L296.013416,104.105433 C296.089277,107.166945 297.189292,109.511727 299.315258,111.143372 C301.518962,112.837451 304.747924,113.682488 308.99914,113.682488 L308.99914,113.682488 L309.505975,113.679932 C313.354011,113.640746 316.334891,113.150835 318.447733,112.206677 L318.447733,112.206677 L318.772387,112.060968 C320.791146,111.150318 322.099714,110.470947 322.69895,110.021996 L322.69895,110.021996 L322.69895,96.9119103 L321.926582,96.7273659 C319.630745,96.1859996 317.526303,95.7550909 315.613256,95.4360995 L315.613256,95.4360995 L315.076098,95.3511828 C313.085418,95.0533591 310.862677,94.9044472 308.409416,94.9044472 L308.409416,94.9044472 Z M190.073219,94.9044472 L189.604411,94.9088022 C186.193515,94.9726764 183.37722,95.739167 181.157279,97.208274 L181.157279,97.208274 L180.903857,97.3814906 C178.748989,98.9058768 177.672002,101.032819 177.672002,103.762316 L177.672002,103.762316 L177.676221,104.105433 C177.752148,107.166945 178.853095,109.511727 180.97906,111.143372 C183.182764,112.837451 186.411726,113.682488 190.663943,113.682488 L190.663943,113.682488 L191.170659,113.679932 C195.017813,113.640746 197.998693,113.150835 200.111536,112.206677 L200.111536,112.206677 L200.436189,112.060968 C202.454948,111.150318 203.763517,110.470947 204.362752,110.021996 L204.362752,110.021996 L204.362752,96.9119103 L203.590655,96.7273659 C201.295548,96.1859996 199.191106,95.7550909 197.278059,95.4360995 L197.278059,95.4360995 L196.740652,95.3511828 C194.749067,95.0533591 192.525561,94.9044472 190.073219,94.9044472 L190.073219,94.9044472 Z M249.714398,71.8751904 L249.269355,71.8788649 C245.004086,71.9499054 241.806328,73.0510332 239.676081,75.1822482 L239.676081,75.1822482 L239.443529,75.4225389 C237.384522,77.6218053 236.242439,80.8105469 236.014588,84.9842752 L236.014588,84.9842752 L235.988964,85.2549063 C235.922611,85.9978645 235.87208,86.9110838 235.837371,87.9959705 L235.837371,87.9959705 L235.810823,88.9186652 C235.788436,89.8486813 235.778299,90.8006619 235.778299,91.7746069 L235.778299,91.7746069 L235.781756,92.7413869 C235.788749,93.7009705 235.806583,94.6388713 235.837371,95.5542445 L235.837371,95.5542445 L235.855332,96.0691737 C235.893705,97.0819148 235.946791,97.9920928 236.014588,98.8022297 C236.723458,108.013532 241.604447,112.620184 250.659558,112.620184 L250.659558,112.620184 L251.201389,112.61178 C252.289966,112.578153 253.408073,112.443539 254.556339,112.206677 L254.556339,112.206677 L255.222332,112.062764 C256.326789,111.811692 257.403666,111.504649 258.454122,111.143372 L258.454122,111.143372 L258.985105,110.957039 C260.0303,110.581622 260.974929,110.189917 261.820252,109.785706 L261.820252,109.785706 L262.180651,109.608201 C263.002218,109.194215 263.688294,108.781474 264.240221,108.367967 L264.240221,108.367967 L264.240221,75.536683 L264.023733,75.4053278 C262.759778,74.6598819 260.863578,73.8957808 258.335977,73.1147113 L258.335977,73.1147113 L257.759269,72.9438376 C255.247182,72.2308717 252.565825,71.8751904 249.714398,71.8751904 L249.714398,71.8751904 Z M478.001805,71.8750903 C473.591394,71.8750903 470.10812,73.1146112 467.549981,75.5956554 C464.990841,78.0756984 463.553077,81.2846357 463.238691,85.220465 C463.159594,86.1646235 463.100521,87.2279281 463.062475,88.4083765 C463.021424,89.5898262 463.003402,90.8113249 463.003402,92.0698692 C463.003402,93.3304158 463.021424,94.570938 463.062475,95.7904343 C463.100521,97.011933 463.159594,98.0542119 463.238691,98.9202746 C463.632174,103.094396 465.12901,106.419476 467.727198,108.899519 C470.325386,111.379562 473.750589,112.620084 478.001805,112.620084 C482.254023,112.620084 485.697248,111.379562 488.335485,108.899519 C490.972721,106.419476 492.487579,103.094396 492.883064,98.9202746 C492.960159,98.0542119 493.001209,97.011933 493.001209,95.7904343 L493.001209,92.0698692 C493.001209,90.8113249 492.980184,89.5898262 492.942137,88.4083765 C492.901087,87.2279281 492.883064,86.1646235 492.883064,85.220465 C492.646775,81.2846357 491.229035,78.0756984 488.630847,75.5956554 C486.032659,73.1146112 482.490313,71.8750903 478.001805,71.8750903 Z M600.11704,70.9300307 C595.076856,70.9300307 591.318244,72.4068428 588.838201,75.3584644 C586.358158,78.3110872 585.195732,82.2679423 585.353926,87.2280283 L612.753545,87.2280283 C613.54051,87.2280283 614.012089,86.7554484 614.171284,85.8112899 C614.484669,81.3227826 613.362292,77.7213636 610.805154,75.0050307 C608.245013,72.2876966 604.682642,70.9300307 600.11704,70.9300307 Z M412.337936,38.3340356 L412.662779,38.3402373 C414.48716,38.4105214 416.032803,39.0781709 417.298022,40.3414988 L417.298022,40.3414988 L417.514778,40.5678324 C418.708021,41.8667839 419.305485,43.4444728 419.305485,45.302586 L419.305485,45.302586 L419.299284,45.6280967 C419.228999,47.4581599 418.56135,49.0417851 417.298022,50.3798157 L417.298022,50.3798157 L417.083887,50.5977704 C415.783405,51.8701069 414.200853,52.5054238 412.337936,52.5054238 L412.337936,52.5054238 L412.017448,52.499541 C410.112291,52.428945 408.526944,51.7229374 407.259705,50.3798157 L407.259705,50.3798157 L407.042651,50.1411431 C405.84792,48.774216 405.252242,47.1616448 405.252242,45.302586 L405.252242,45.302586 L405.258426,44.9775943 C405.328518,43.1524663 405.994486,41.6076635 407.259705,40.3414988 C408.597346,39.0038575 410.289423,38.3340356 412.337936,38.3340356 L412.337936,38.3340356 Z M567.181028,26.4594656 C568.302404,26.4594656 569.360702,26.6456941 570.35292,27.0201536 C571.345137,27.3936118 572.223214,27.9312715 572.982146,28.6311302 C573.741077,29.3319902 574.336808,30.1860381 574.769338,31.189269 C575.199867,32.1945025 575.416132,33.3278931 575.416132,34.589441 C575.416132,35.8740172 575.205874,37.0244287 574.784357,38.0416769 C574.36284,39.0569226 573.772115,39.9159767 573.01018,40.6168366 C572.249246,41.3176966 571.347139,41.8553563 570.305862,42.2288145 C569.262582,42.603274 568.121181,42.7895025 566.880659,42.7895025 L561.118589,42.7895025 L561.118589,49.3075 C561.118589,49.8221314 560.934363,50.271683 560.563908,50.657156 C560.193454,51.0416278 559.752913,51.2348649 559.244289,51.2348649 C558.734664,51.2348649 558.300131,51.0416278 557.942692,50.657156 C557.583251,50.271683 557.404031,49.8221314 557.404031,49.3075 L557.404031,29.1577764 C557.404031,28.4098587 557.637318,27.7730774 558.105893,27.2474324 C558.572465,26.7217875 559.249295,26.4594656 560.137385,26.4594656 L567.181028,26.4594656 Z M598.16094,26.3532353 C598.697598,26.3532353 599.14715,26.540465 599.509595,26.9139232 C599.872039,27.2883827 600.053262,27.7439416 600.053262,28.2816014 L600.053262,49.3073999 C600.053262,49.8450596 599.872039,50.3006186 599.509595,50.6740768 C599.14715,51.0485362 598.697598,51.2347647 598.16094,51.2347647 C597.645307,51.2347647 597.201763,51.0425289 596.829306,50.6570559 C596.455848,50.2715829 596.268618,49.8220313 596.268618,49.3073999 L596.268618,40.6167365 L583.827353,40.6167365 L583.827353,49.3073999 C583.827353,49.8450596 583.647131,50.3006186 583.284687,50.6740768 C582.922242,51.0485362 582.47269,51.2347647 581.936032,51.2347647 C581.4214,51.2347647 580.977856,51.0485362 580.602396,50.6740768 C580.228937,50.3006186 580.042709,49.8450596 580.042709,49.3073999 L580.042709,28.2816014 C580.042709,27.7439416 580.228937,27.2883827 580.602396,26.9139232 C580.977856,26.540465 581.4214,26.3532353 581.936032,26.3532353 C582.47269,26.3532353 582.922242,26.5414662 583.284687,26.9169269 C583.647131,27.2913864 583.827353,27.7489478 583.827353,28.2876087 L583.827353,37.0423507 L596.268618,37.0423507 L596.268618,28.2876087 C596.268618,27.7489478 596.455848,27.2913864 596.829306,26.9169269 C597.201763,26.5414662 597.645307,26.3532353 598.16094,26.3532353 Z M522.606535,26.0737924 C523.492622,26.0737924 524.298611,26.3180921 525.023501,26.8096953 C525.746388,27.3002973 526.296062,28.0592285 526.670521,29.0874902 L533.644078,48.5713968 C533.714164,48.7816548 533.748206,48.992914 533.748206,49.2021708 C533.748206,49.6697445 533.585006,50.1132887 533.258605,50.5338047 C532.932205,50.9553219 532.476646,51.1645786 531.890927,51.1645786 C531.49444,51.1645786 531.138003,51.0604509 530.822616,50.8501929 C530.50823,50.6389337 530.27995,50.3355614 530.139778,49.9380737 L527.82694,43.3850332 L517.314041,43.3850332 L515.001203,49.9731167 C514.861031,50.3475762 514.627745,50.6389337 514.299342,50.8501929 C513.972942,51.0604509 513.622512,51.1645786 513.249053,51.1645786 C512.664336,51.1645786 512.214784,50.9663354 511.899397,50.5688477 C511.585012,50.1723612 511.425816,49.7398305 511.425816,49.2722568 C511.425816,49.0159423 511.461861,48.7816548 511.531947,48.5713968 L518.539545,29.0874902 C518.890976,28.0592285 519.427635,27.3002973 520.152524,26.8096953 C520.876412,26.3180921 521.694416,26.0737924 522.606535,26.0737924 Z M615.192037,26.0737924 C616.079125,26.0737924 616.885114,26.3180921 617.610004,26.8096953 C618.332891,27.3002973 618.882565,28.0592285 619.257025,29.0874902 L626.230581,48.5713968 C626.300667,48.7816548 626.334709,48.992914 626.334709,49.2021708 C626.334709,49.6697445 626.171509,50.1132887 625.845108,50.5338047 C625.518708,50.9553219 625.062147,51.1645786 624.47743,51.1645786 C624.080943,51.1645786 623.724506,51.0604509 623.409119,50.8501929 C623.094733,50.6389337 622.866453,50.3355614 622.726281,49.9380737 L620.413443,43.3850332 L609.900544,43.3850332 L607.587706,49.9731167 C607.447534,50.3475762 607.214248,50.6389337 606.885845,50.8501929 C606.559445,51.0604509 606.209015,51.1645786 605.835557,51.1645786 C605.250839,51.1645786 604.801287,50.9663354 604.4859,50.5688477 C604.171515,50.1723612 604.012319,49.7398305 604.012319,49.2722568 C604.012319,49.0159423 604.048364,48.7816548 604.11845,48.5713968 L611.126048,29.0874902 C611.477479,28.0592285 612.014138,27.3002973 612.739027,26.8096953 C613.462915,26.3180921 614.280919,26.0737924 615.192037,26.0737924 Z M539.638333,26.3532353 C540.174991,26.3532353 540.624543,26.540465 540.986988,26.9139232 C541.349432,27.2883827 541.529654,27.7439416 541.529654,28.2816014 L541.529654,47.380035 L552.147682,47.380035 C552.638284,47.380035 553.076822,47.5612574 553.462295,47.9227009 C553.848769,48.2851456 554.041005,48.7246849 554.041005,49.2373139 C554.041005,49.7749736 553.858781,50.219519 553.496337,50.5689478 C553.133892,50.920379 552.68434,51.0945928 552.147682,51.0945928 L540.268106,51.0945928 C539.450102,51.0945928 538.826337,50.850293 538.393806,50.3586898 C537.961275,49.8680878 537.74501,49.2723569 537.74501,48.5714969 L537.74501,28.2816014 C537.74501,27.7439416 537.931238,27.2883827 538.304697,26.9139232 C538.680157,26.540465 539.123701,26.3532353 539.638333,26.3532353 Z M522.606535,29.9285221 C522.231074,29.9285221 521.985773,30.1027359 521.86863,30.4541671 L518.505503,39.9508194 L526.635479,39.9508194 L523.306394,30.4541671 C523.18925,30.1027359 522.955964,29.9285221 522.606535,29.9285221 Z M615.192037,29.9285221 C614.817577,29.9285221 614.572276,30.1027359 614.455133,30.4541671 L611.092006,39.9508194 L619.22098,39.9508194 L615.892897,30.4541671 C615.775753,30.1027359 615.542467,29.9285221 615.192037,29.9285221 Z M566.955751,30.1740233 L561.118589,30.1740233 L561.118589,39.0749447 L566.815579,39.0749447 C568.526679,39.0749447 569.757189,38.6604361 570.507109,37.8304177 C571.257029,37.0014005 571.631488,35.9330897 571.631488,34.624484 C571.631488,33.2928501 571.257029,32.2175307 570.507109,31.4005283 C569.757189,30.5825246 568.573736,30.1740233 566.955751,30.1740233 Z"
            id="path-1"></path>
    </defs>
    <g fill="none" fill-rule="evenodd" id="Adani-One-Alpha-White" stroke="none" stroke-width="1">
        <g id="Group" transform="translate(-0.000000, 0.000000)">
            <g id="Group-3">
                <mask fill="white" id="mask-2">
                    <use xlink:href="#path-1"></use>
                </mask>
                <use fill="#FFFFFE" id="Combined-Shape" xlink:href="#path-1"></use>
            </g>
            <g id="Group-6" transform="translate(165.389932, 38.334036)"></g>
            <g id="Group-23" transform="translate(450.484041, 26.073792)"></g>
        </g>
    </g>
</svg>