<?xml version="1.0" encoding="UTF-8"?>
<svg width="293px" height="211px" viewBox="0 0 293 211" version="1.1" xmlns="http://www.w3.org/2000/svg" xmlns:xlink="http://www.w3.org/1999/xlink">
    <title>Group</title>
    <g id="Page-1" stroke="none" stroke-width="1" fill="none" fill-rule="evenodd">
        <g id="Group" fill-rule="nonzero">
            <path d="M228.84,156.96 C226.08,162.45 225.65,169 227.69,174.79 C231.35,185.21 242.58,194.07 239.87,204.77 C239.49,206.25 238.86,207.61 238.05,208.86 L53.62,208.86 C49.47,204.43 45.64,198.23 44.94,190.87 C44.06,181.59 43.57,171.55 48.72,163.68 C52.39,158.08 58.43,154.47 63.79,150.35 C69.15,146.23 74.28,140.82 74.73,134.21 C75.16,127.7 70.91,121.75 66.02,117.27 C61.13,112.79 55.39,109.1 51.34,103.89 C42.87,92.99 43.72,77.07 50.75,65.24 C57.78,53.4 69.97,45.21 82.81,39.63 C99.32,32.44 117.89,28.95 135.74,31.94 C153.58,34.93 170.53,44.88 179.7,60.03 C185.82,70.15 188.8,82.71 198.45,89.8 C209.63,98.01 226.12,96.06 237.54,103.96 C247.62,110.94 251.15,125.5 245.31,136.11 C241.05,143.87 232.82,149.07 228.84,156.98 L228.84,156.96 Z" id="Path" fill="#C6D5FF"></path>
            <path d="M146.26,207.67 C227.04,207.67 292.52,208.24 292.52,208.95 C292.52,209.66 227.04,210.23 146.26,210.23 C65.48,210.23 0,209.65 0,208.94 C0,208.23 65.48,207.66 146.26,207.66 L146.26,207.67 Z" id="Path" fill="#63648A"></path>
            <path d="M188.55,24.4 C190.89,16 194.65,7.81 198.52,0 L199.79,1.76 L193.81,15.07 C192.33,18.36 190.83,21.69 188.56,24.5" id="Path" fill="#018AC1"></path>
            <path d="M227.85,53.04 C232.3,49.15 236.3,44.74 239.74,39.94 C240.38,41.25 241.03,42.71 240.6,44.1 C240.26,45.19 239.33,45.97 238.43,46.67 C236.17,48.45 233.87,50.17 231.53,51.83 C230.39,52.64 228.99,53.47 227.69,52.95" id="Path" fill="#E94849"></path>
            <path d="M247.31,105.39 C248.24,101.51 251,98.27 254.24,95.96 C257.48,93.64 261.22,92.13 264.92,90.65 L263.94,94.82 C257.81,96.92 252.14,100.37 247.47,104.87" id="Path" fill="#00B095"></path>
            <path d="M65.22,58.53 C56.46,47.6 44.48,39.29 31.18,34.9 C30.85,32.21 32.71,29.55 35.19,28.45 C37.67,27.35 40.6,27.62 43.1,28.67 C45.6,29.72 47.74,31.46 49.73,33.31 C57.32,40.36 63.23,49.2 66.84,58.91" id="Path" fill="#00B095"></path>
            <path d="M117.13,41.7 C115.51,36.91 112.75,31.74 108.96,28.39 C108.55,28.03 108.09,27.56 108.21,27.03 C108.32,26.53 108.87,26.29 109.36,26.13 L113.8,24.61 C115.38,30.21 116.51,35.94 117.19,41.72" id="Path" fill="#ECAD23"></path>
            <path d="M47.04,131.53 C42.09,122.04 31.71,115.53 21,115.54 C20.7,113.68 22.41,111.97 24.26,111.62 C26.11,111.27 27.99,111.94 29.71,112.71 C37.59,116.29 45.26,122.79 47.59,131.13 L47.04,131.52 L47.04,131.53 Z" id="Path" fill="#018AC1"></path>
            <path d="M248.96,168.47 C249.84,167.21 251.72,167.01 253.13,167.62 C254.54,168.23 255.57,169.46 256.49,170.7 C259.72,175.05 262.19,179.97 263.75,185.16 C267.84,183.62 269.82,180.42 270.65,178.64 C271,177.88 270.99,176.99 270.65,176.23 C270.08,174.95 264.11,162.44 254.2,163.63 C251.39,163.97 248.71,166 248.11,168.76" id="Path" fill="#E8AC22"></path>
            <path d="M154.55,25.1 C156.24,22.61 160.61,22.76 162.12,25.36 C163.63,27.96 161.62,31.83 158.62,32.07 C155.62,32.31 153,28.82 154.07,26.01" id="Path" fill="#E94849"></path>
            <path d="M24.39,69.81 C26.68,70.61 25.63,74.93 23.23,74.59 C20.83,74.25 21.02,69.81 23.44,69.67" id="Path" fill="#00B095"></path>
            <path d="M46.37,175.94 C44.07,173.57 39.4,174.53 38.22,177.61 C37.04,180.69 39.89,184.52 43.18,184.29 C46.47,184.06 48.74,179.85 47.14,176.97" id="Path" fill="#8A008F"></path>
            <path d="M283.6,55.11 C283.76,57.9 287.06,60 289.66,58.97 C292.25,57.94 293.22,54.15 291.43,52.01 C289.64,49.87 285.74,50.14 284.27,52.51" id="Path" fill="#E8AC22"></path>
            <path d="M79.16,91.93 L113.61,195.96 L128.3,204.73 L136.35,187.48 L151.06,198.59 L157.38,180.94 L171.84,190.42 L179.01,173.97 L193.32,182.47 L200.22,166.4 L215.14,174.47 L176.31,60.29 C174.69,55.54 169.51,53.03 164.78,54.7 L83.28,83.52 C79.84,84.74 78.01,88.48 79.15,91.94 L79.16,91.93 Z" id="Path" fill="#FFAF27"></path>
            <path d="M86.56,81.2 L104.93,189.23 L118.13,200.12 L128.69,184.28 L141.56,197.48 L150.47,180.98 L163.34,192.53 L172.91,177.35 L185.78,187.91 L195.02,173.06 L208.55,183.29 L187.38,64.56 C186.5,59.62 181.75,56.35 176.82,57.29 L91.91,73.49 C88.33,74.17 85.95,77.6 86.56,81.2 Z" id="Path" fill="#5898E7"></path>
            <path d="M120.63,105.89 C120.63,102.4 121.74,99.52 123.97,97.26 C126.19,95 129.05,93.86 132.54,93.86 C136.03,93.86 138.95,95 141.15,97.28 C143.35,99.56 144.45,102.51 144.45,106.13 L144.45,108.97 C144.45,112.49 143.34,115.36 141.11,117.58 C138.89,119.8 136.06,120.92 132.62,120.92 C129.18,120.92 126.29,119.81 124.03,117.58 C121.77,115.36 120.63,112.39 120.63,108.69 L120.63,105.89 L120.63,105.89 Z M126.14,108.95 C126.14,111.03 126.73,112.75 127.9,114.1 C129.07,115.45 130.64,116.12 132.61,116.12 C134.58,116.12 136.03,115.47 137.18,114.16 C138.34,112.85 138.92,111.06 138.92,108.79 L138.92,105.87 C138.92,103.79 138.35,102.07 137.2,100.7 C136.05,99.34 134.5,98.66 132.53,98.66 C130.56,98.66 129,99.34 127.86,100.7 C126.71,102.06 126.14,103.84 126.14,106.03 L126.14,108.95 L126.14,108.95 Z M132.19,147.16 L132.19,147.16 C131.03,146.43 130.68,144.91 131.41,143.75 L157.19,102.49 C157.92,101.33 159.45,100.98 160.61,101.71 L160.61,101.71 C161.77,102.44 162.12,103.96 161.39,105.12 L135.61,146.39 C134.88,147.55 133.35,147.9 132.19,147.17 L132.19,147.16 Z M148.96,138.61 C148.96,135.12 150.07,132.25 152.3,130 C154.52,127.75 157.38,126.62 160.87,126.62 C164.36,126.62 167.22,127.74 169.46,129.98 C171.7,132.22 172.82,135.19 172.82,138.89 L172.82,141.73 C172.82,145.22 171.71,148.09 169.48,150.34 C167.26,152.59 164.41,153.72 160.95,153.72 C157.49,153.72 154.62,152.61 152.36,150.38 C150.1,148.16 148.96,145.19 148.96,141.49 L148.96,138.61 L148.96,138.61 Z M154.47,141.71 C154.47,143.82 155.06,145.55 156.23,146.9 C157.4,148.25 158.97,148.92 160.94,148.92 C162.91,148.92 164.39,148.26 165.53,146.94 C166.68,145.62 167.25,143.82 167.25,141.55 L167.25,138.59 C167.25,136.48 166.67,134.76 165.51,133.42 C164.35,132.08 162.8,131.42 160.86,131.42 C158.92,131.42 157.43,132.08 156.25,133.4 C155.06,134.72 154.47,136.5 154.47,138.75 L154.47,141.71 L154.47,141.71 Z" id="Shape" fill="#FFFFFF"></path>
        </g>
    </g>
</svg>