<svg id="Group_3" data-name="Group 3" xmlns="http://www.w3.org/2000/svg" xmlns:xlink="http://www.w3.org/1999/xlink" width="246.611" height="246.611" viewBox="0 0 246.611 246.611">
  <defs>
    <clipPath id="clip-path">
      <rect id="Rectangle_3" data-name="Rectangle 3" width="246.611" height="246.611" fill="none"/>
    </clipPath>
  </defs>
  <g id="Group_2" data-name="Group 2" clip-path="url(#clip-path)">
    <path id="Path_1" data-name="Path 1" d="M246.611,123.306A123.305,123.305,0,1,1,123.306,0a123.3,123.3,0,0,1,123.3,123.3" fill="#ffde50"/>
    <path id="Path_2" data-name="Path 2" d="M126.566,245.563c-66.3,0-120.044-55.407-120.044-123.756,0-50.554,29.419-94,71.558-113.21A123.3,123.3,0,1,0,246.61,123.305c0-.247-.017-.49-.018-.737-.4,68-53.975,123-120.026,123" fill="#f0cd02"/>
    <path id="Path_3" data-name="Path 3" d="M32.6,206.811,206.81,32.6A123.6,123.6,0,0,0,186.3,17.312L17.311,186.3A123.757,123.757,0,0,0,32.6,206.811" fill="#feea94"/>
    <path id="Path_4" data-name="Path 4" d="M76.811,237.513l160.7-160.7A123.116,123.116,0,0,0,221.5,48.748L48.748,221.5a123.116,123.116,0,0,0,28.063,16.013" fill="#feea94"/>
    <path id="Path_5" data-name="Path 5" d="M219.64,123.306a96.335,96.335,0,1,1-96.335-96.335,96.335,96.335,0,0,1,96.335,96.335" fill="#ffbd02"/>
    <path id="Path_6" data-name="Path 6" d="M190.6,54.4,54.4,190.6A96.315,96.315,0,1,0,190.6,54.4" fill="#fba302"/>
    <path id="Path_7" data-name="Path 7" d="M152.447,73.912a44.888,44.888,0,0,0-19.95-9.27V45.785a6.165,6.165,0,1,0-12.33,0V63.26c-.731-.02-1.466-.035-2.214-.035q-2.6,0-5.17.14V45.785a6.165,6.165,0,1,0-12.331,0v19.1c-.744.146-1.483.3-2.218.462a66.034,66.034,0,0,0-14.515,4.628,14.8,14.8,0,0,0-7.16,6.006,14.484,14.484,0,0,0-1.965,7.054,12.111,12.111,0,0,0,5.489,10.238,12.434,12.434,0,0,0,7.289,2.189,21.05,21.05,0,0,0,6.6-1.188c.037-.012.073-.025.107-.038a90.3,90.3,0,0,1,10.376-3.142,51.35,51.35,0,0,1,12.206-1.433c7.768,0,13.339,1.441,16.556,4.284,3.113,2.758,4.694,7.449,4.694,13.941V111.6c-3.814-.819-7.353-1.488-10.559-1.995A91.635,91.635,0,0,0,113.2,108.6a61.851,61.851,0,0,0-20.58,3.076,42.044,42.044,0,0,0-14.55,8.452,34.028,34.028,0,0,0-8.684,12.449A39.215,39.215,0,0,0,66.6,147.21a41.281,41.281,0,0,0,3.016,15.846,36.045,36.045,0,0,0,8.994,12.853,40.876,40.876,0,0,0,14.808,8.468,51.931,51.931,0,0,0,7.035,1.81v14.639a6.165,6.165,0,0,0,12.331,0V187.315c.285,0,.561.014.849.014q3.345,0,6.535-.2v13.7a6.165,6.165,0,0,0,12.33,0v-15.36a88.012,88.012,0,0,0,10.646-2.82A81.878,81.878,0,0,0,153.32,178.5c2.8-1.4,5.069-2.648,6.727-3.7q.07-.046.141-.1a12.328,12.328,0,0,0,4.106-4.612,14.027,14.027,0,0,0,1.125-6.028V107.882c0-15.33-4.364-26.759-12.972-33.97M137.908,156.3c-1.051.6-2.9,1.545-6.159,3-3.659,1.635-9.1,2.464-16.173,2.464-7.13,0-12.53-1.373-16.051-4.079-3.353-2.574-4.983-6.282-4.983-11.338a10.873,10.873,0,0,1,5.147-9.71c3.775-2.5,8.756-3.761,14.808-3.761a78.429,78.429,0,0,1,12.732.935c3.222.538,6.806,1.264,10.679,2.165Z" fill="#f68e01"/>
    <path id="Path_8" data-name="Path 8" d="M159.518,73.912a44.888,44.888,0,0,0-19.95-9.27V45.785a6.165,6.165,0,1,0-12.331,0V63.26c-.731-.02-1.466-.035-2.213-.035q-2.6,0-5.171.14V45.785a6.165,6.165,0,1,0-12.33,0v19.1c-.744.146-1.484.3-2.219.462a66.034,66.034,0,0,0-14.515,4.628,14.8,14.8,0,0,0-7.16,6.006,14.484,14.484,0,0,0-1.965,7.054,12.109,12.109,0,0,0,5.49,10.238,12.431,12.431,0,0,0,7.288,2.189,21.05,21.05,0,0,0,6.6-1.188l.107-.038a90.236,90.236,0,0,1,10.376-3.142,51.342,51.342,0,0,1,12.2-1.433c7.769,0,13.339,1.441,16.556,4.284,3.114,2.758,4.694,7.449,4.694,13.941V111.6c-3.813-.819-7.353-1.488-10.559-1.995A91.626,91.626,0,0,0,120.27,108.6a61.859,61.859,0,0,0-20.58,3.076,42.053,42.053,0,0,0-14.55,8.452,34.037,34.037,0,0,0-8.683,12.449,39.215,39.215,0,0,0-2.788,14.63,41.281,41.281,0,0,0,3.016,15.846,36.035,36.035,0,0,0,9,12.853,40.867,40.867,0,0,0,14.808,8.468,51.931,51.931,0,0,0,7.035,1.81v14.639a6.165,6.165,0,0,0,12.33,0V187.315c.285,0,.562.014.849.014q3.345,0,6.535-.2v13.7a6.165,6.165,0,0,0,12.331,0v-15.36a88.111,88.111,0,0,0,10.646-2.82,81.941,81.941,0,0,0,10.177-4.142c2.8-1.4,5.068-2.648,6.726-3.7q.072-.046.141-.1a12.331,12.331,0,0,0,4.107-4.612,14.042,14.042,0,0,0,1.125-6.028V107.882c0-15.33-4.364-26.759-12.972-33.97M144.978,156.3c-1.051.6-2.9,1.545-6.158,3-3.659,1.635-9.1,2.464-16.173,2.464-7.131,0-12.531-1.373-16.052-4.079-3.353-2.574-4.982-6.282-4.982-11.338a10.871,10.871,0,0,1,5.147-9.71c3.774-2.5,8.755-3.761,14.807-3.761a78.42,78.42,0,0,1,12.732.935c3.222.538,6.806,1.264,10.679,2.165Z" fill="#feea94"/>
    <path id="Path_9" data-name="Path 9" d="M134,27.575c42.729,8.606,75.031,48.181,75.031,95.73S176.73,210.43,134,219.035a96.325,96.325,0,0,0,0-191.46" fill="#f68e01"/>
  </g>
</svg>
