<?xml version="1.0" encoding="UTF-8"?>
<svg width="20px" height="20px" viewBox="0 0 20 20" version="1.1" xmlns="http://www.w3.org/2000/svg" xmlns:xlink="http://www.w3.org/1999/xlink">
    <title>Group 20 Copy</title>
    <defs>
        <polygon id="path-1" points="0 0 17.5025085 0 17.5025085 16.360057 0 16.360057"></polygon>
        <polygon id="path-3" points="0 0 7.45190489 0 7.45190489 4.15533144 0 4.15533144"></polygon>
        <polygon id="path-5" points="0 0 2.95696374 0 2.95696374 5.53960449 0 5.53960449"></polygon>
        <polygon id="path-7" points="0 4.87011065 5.95445214 9.5473251 9.35672515 4.67721445 3.402273 0"></polygon>
    </defs>
    <g id="new-user" stroke="none" stroke-width="1" fill="none" fill-rule="evenodd">
        <g id="1_loyalty_new-user" transform="translate(-13.000000, -385.000000)">
            <g id="Group-20-Copy" transform="translate(23.000000, 394.804348) scale(-1, 1) translate(-23.000000, -394.804348) translate(13.000000, 385.137681)">
                <g id="Group-16">
                    <g id="Group-3" transform="translate(0.000000, 2.972751)">
                        <mask id="mask-2" fill="white">
                            <use xlink:href="#path-1"></use>
                        </mask>
                        <g id="Clip-2"></g>
                        <path d="M7.45154185,2.79904906 C11.3502203,5.01883875 15.1048797,9.23948979 15.8215859,12.2057892 L15.8215859,12.2057892 C16.5382921,15.1738831 13.9493392,15.7822167 10.0506608,13.562427 C6.15198238,11.3426373 2.39732294,7.12198629 1.68061674,4.1538924 C0.963910539,1.18579852 3.55286344,0.579259378 7.45154185,2.79904906 M0.145543883,3.27997359 C1.01982379,6.89767448 5.5809895,12.0245452 10.3336157,14.7306429 L10.3183667,14.6696301 L10.3336157,14.7306429 C15.0845476,17.4349461 18.2309387,16.6974089 17.3566588,13.079708 C16.4823789,9.46200711 11.9212131,4.33693084 7.16858692,1.63083315 C2.41765503,-1.07526454 -0.728736022,-0.337727306 0.145543883,3.27997359" id="Fill-1" fill="#FFE65A" mask="url(#mask-2)"></path>
                    </g>
                    <g id="Group-6" transform="translate(10.050152, 15.178002)">
                        <mask id="mask-4" fill="white">
                            <use xlink:href="#path-3"></use>
                        </mask>
                        <g id="Clip-5"></g>
                        <path d="M0.282954931,2.52485375 L0,1.35663783 C3.89867841,3.57642752 6.48932565,2.96988838 5.77092511,0 L7.30599797,0.873918817 C8.18027787,4.4934142 5.03558116,5.23095144 0.282954931,2.52485375" id="Fill-4" fill="#F4EF89" mask="url(#mask-4)"></path>
                    </g>
                    <path d="M10.0508302,16.5346397 C6.15215181,14.31485 2.39749238,10.094199 1.68078617,7.12610511 C0.964079973,4.15980572 3.55303287,3.55147209 7.45171128,5.77126177 C11.3503897,7.99105146 15.1050491,12.2117025 15.8217553,15.1780019 C16.5384615,18.1478903 13.9495086,18.7544294 10.0508302,16.5346397" id="Fill-7" fill="#F9BF05"></path>
                    <path d="M10.6033548,16.1385948 C6.70467638,13.9188051 2.95001694,9.69815406 2.23331074,6.73006018 C2.00118604,5.77359461 2.11640122,5.0629748 2.50609963,4.61255668 C1.69620468,4.95889411 1.36241952,5.8094845 1.68095561,7.12664346 C2.39766181,10.0947373 6.15232125,14.3153884 10.0509997,16.5351781 C12.6907828,18.03717 14.7290749,18.2435368 15.5474415,17.2978382 C14.5325313,17.7321059 12.7704168,17.373207 10.6033548,16.1385948" id="Fill-9" fill="#D4A205"></path>
                    <g id="Group-13" transform="translate(17.043036, 13.079341)">
                        <mask id="mask-6" fill="white">
                            <use xlink:href="#path-5"></use>
                        </mask>
                        <g id="Clip-12"></g>
                        <path d="M0,5.53960449 L2.49915283,2.56612712 C2.96001355,2.01701181 3.0904778,1.15385996 2.8126059,0 L0.313453067,2.97347737 C0.593019315,4.12913182 0.462555066,4.99048918 0,5.53960449" id="Fill-11" fill="#FFC72E" mask="url(#mask-6)"></path>
                    </g>
                    <path d="M0.459166384,3.68749477 C2.2246696,1.58434723 7.16706201,4.38196414 9.62216198,6.22311548 C12.5957303,8.45008315 16.5079634,12.5379416 17.3568282,16.0533563 L19.8542867,13.0780844 C18.5445612,7.6515331 9.478143,-0.186818837 4.66960352,0.00339757892 C4.66790918,0.00339757892 4.66621484,0.00339757892 4.6645205,0.00339757892 C4.65943748,0.00339757892 4.65435446,0.00339757892 4.64927143,0.00339757892 C3.99864453,0.0339039853 3.36496103,0.22770939 2.95831921,0.714017397 L0.459166384,3.68749477 Z" id="Fill-14" fill="#FFA50A"></path>
                </g>
                <g id="Group-19" transform="translate(4.678363, 5.967078)">
                    <mask id="mask-8" fill="white">
                        <use xlink:href="#path-7"></use>
                    </mask>
                    <g id="Clip-18"></g>
                </g>
            </g>
        </g>
    </g>
</svg>