<svg xmlns="http://www.w3.org/2000/svg" width="480.217" height="526.93" viewBox="0 0 480.217 526.93">
  <g id="Group_2" data-name="Group 2" transform="translate(-0.001 -0.001)">
    <g id="Group_3" data-name="Group 3">
      <path id="Path_1" data-name="Path 1" d="M465.8,207.6a5.266,5.266,0,1,1,0-7.445,5.263,5.263,0,0,1,0,7.445m-19.858-19.858a5.268,5.268,0,1,1,0-7.45,5.269,5.269,0,0,1,0,7.45m-19.863-19.863a5.268,5.268,0,1,1,0-7.45,5.269,5.269,0,0,1,0,7.45m-19.863-19.863a5.265,5.265,0,1,1,0-7.445,5.263,5.263,0,0,1,0,7.445m-19.858-19.863a5.266,5.266,0,1,1,0-7.445,5.269,5.269,0,0,1,0,7.445M366.5,108.3a5.268,5.268,0,1,1,0-7.45,5.269,5.269,0,0,1,0,7.45M346.635,88.435a5.268,5.268,0,1,1,0-7.45,5.269,5.269,0,0,1,0,7.45M326.776,68.572a5.266,5.266,0,1,1,0-7.445,5.265,5.265,0,0,1,0,7.445M306.913,48.714a5.268,5.268,0,1,1,0-7.45,5.269,5.269,0,0,1,0,7.45M287.051,28.851a5.266,5.266,0,1,1,0-7.45,5.269,5.269,0,0,1,0,7.45M267.192,8.988a5.266,5.266,0,1,1,0-7.445,5.273,5.273,0,0,1,0,7.445M465.808,247.329a5.269,5.269,0,1,1,0-7.45,5.275,5.275,0,0,1,0,7.45m-19.863-19.863a5.268,5.268,0,1,1,0-7.45,5.269,5.269,0,0,1,0,7.45M426.082,207.6a5.266,5.266,0,1,1,0-7.445,5.269,5.269,0,0,1,0,7.445M406.219,187.74a5.265,5.265,0,1,1,0-7.445,5.263,5.263,0,0,1,0,7.445m-19.858-19.858a5.268,5.268,0,1,1,0-7.45,5.269,5.269,0,0,1,0,7.45M366.5,148.019a5.268,5.268,0,1,1,0-7.45,5.269,5.269,0,0,1,0,7.45m-19.863-19.863a5.266,5.266,0,1,1,0-7.445,5.269,5.269,0,0,1,0,7.445M326.776,108.3a5.268,5.268,0,1,1,0-7.45,5.269,5.269,0,0,1,0,7.45M306.913,88.435a5.268,5.268,0,1,1,0-7.45,5.269,5.269,0,0,1,0,7.45M287.051,68.572a5.265,5.265,0,1,1,0-7.445,5.269,5.269,0,0,1,0,7.445M267.192,48.714a5.268,5.268,0,1,1,0-7.45,5.269,5.269,0,0,1,0,7.45M247.329,28.851a5.268,5.268,0,1,1,0-7.445,5.269,5.269,0,0,1,0,7.445M465.8,287.051a5.268,5.268,0,1,1,0-7.45,5.263,5.263,0,0,1,0,7.45m-19.858-19.863a5.266,5.266,0,1,1,0-7.445,5.269,5.269,0,0,1,0,7.445m-19.863-19.863a5.266,5.266,0,1,1,0-7.445,5.265,5.265,0,0,1,0,7.445m-19.863-19.858a5.266,5.266,0,1,1,0-7.45,5.263,5.263,0,0,1,0,7.45M386.361,207.6a5.268,5.268,0,1,1,0-7.445,5.269,5.269,0,0,1,0,7.445M366.5,187.74a5.266,5.266,0,1,1,0-7.445,5.265,5.265,0,0,1,0,7.445m-19.863-19.858a5.268,5.268,0,1,1,0-7.45,5.269,5.269,0,0,1,0,7.45m-19.858-19.863a5.268,5.268,0,1,1,0-7.445,5.269,5.269,0,0,1,0,7.445m-19.863-19.858a5.268,5.268,0,1,1,0-7.45,5.269,5.269,0,0,1,0,7.45M287.051,108.3a5.266,5.266,0,1,1,0-7.45,5.263,5.263,0,0,1,0,7.45M267.192,88.435a5.266,5.266,0,1,1,0-7.445,5.269,5.269,0,0,1,0,7.445M247.329,68.572a5.266,5.266,0,1,1,0-7.445,5.265,5.265,0,0,1,0,7.445M227.466,48.714a5.268,5.268,0,1,1,0-7.45,5.269,5.269,0,0,1,0,7.45M465.8,326.772a5.265,5.265,0,1,1,0-7.445,5.259,5.259,0,0,1,0,7.445m-19.858-19.858a5.268,5.268,0,1,1,0-7.45,5.269,5.269,0,0,1,0,7.45m-19.863-19.863a5.268,5.268,0,1,1,0-7.45,5.269,5.269,0,0,1,0,7.45m-19.863-19.863a5.265,5.265,0,1,1,0-7.445,5.263,5.263,0,0,1,0,7.445m-19.858-19.858a5.268,5.268,0,1,1,0-7.45,5.269,5.269,0,0,1,0,7.45M366.5,227.466a5.268,5.268,0,1,1,0-7.45,5.269,5.269,0,0,1,0,7.45M346.635,207.6a5.266,5.266,0,1,1,0-7.445,5.269,5.269,0,0,1,0,7.445m-19.858-19.858a5.268,5.268,0,1,1,0-7.45,5.269,5.269,0,0,1,0,7.45m-19.863-19.863a5.268,5.268,0,1,1,0-7.45,5.269,5.269,0,0,1,0,7.45m-19.863-19.863a5.268,5.268,0,1,1,0-7.445,5.269,5.269,0,0,1,0,7.445m-19.863-19.863a5.265,5.265,0,1,1,0-7.445,5.255,5.255,0,0,1,0,7.445M247.329,108.3a5.268,5.268,0,1,1,0-7.45,5.269,5.269,0,0,1,0,7.45M227.466,88.435a5.268,5.268,0,1,1,0-7.45,5.269,5.269,0,0,1,0,7.45M207.6,68.572a5.265,5.265,0,1,1,0-7.445,5.259,5.259,0,0,1,0,7.445M445.945,346.635a5.268,5.268,0,1,1,0-7.45,5.269,5.269,0,0,1,0,7.45m-19.863-19.863a5.266,5.266,0,1,1,0-7.445,5.269,5.269,0,0,1,0,7.445m-19.863-19.858a5.266,5.266,0,1,1,0-7.45,5.263,5.263,0,0,1,0,7.45m-19.858-19.863a5.268,5.268,0,1,1,0-7.45,5.269,5.269,0,0,1,0,7.45M366.5,267.188a5.266,5.266,0,1,1,0-7.445,5.269,5.269,0,0,1,0,7.445m-19.863-19.858a5.268,5.268,0,1,1,0-7.45,5.269,5.269,0,0,1,0,7.45m-19.858-19.863a5.268,5.268,0,1,1,0-7.45,5.269,5.269,0,0,1,0,7.45M306.913,207.6a5.266,5.266,0,1,1,0-7.45,5.269,5.269,0,0,1,0,7.45M287.051,187.74a5.265,5.265,0,1,1,0-7.445,5.259,5.259,0,0,1,0,7.445m-19.858-19.858a5.268,5.268,0,1,1,0-7.45,5.269,5.269,0,0,1,0,7.45m-19.863-19.863a5.268,5.268,0,1,1,0-7.45,5.269,5.269,0,0,1,0,7.45m-19.863-19.863a5.266,5.266,0,1,1,0-7.445,5.265,5.265,0,0,1,0,7.445M207.608,108.3a5.268,5.268,0,1,1,0-7.45,5.269,5.269,0,0,1,0,7.45M187.745,88.435a5.268,5.268,0,1,1,0-7.445,5.269,5.269,0,0,1,0,7.445M426.082,366.5a5.268,5.268,0,1,1,0-7.45,5.269,5.269,0,0,1,0,7.45m-19.863-19.863a5.266,5.266,0,1,1,0-7.45,5.263,5.263,0,0,1,0,7.45m-19.858-19.863a5.266,5.266,0,1,1,0-7.445,5.269,5.269,0,0,1,0,7.445M366.5,306.913a5.268,5.268,0,1,1,0-7.45,5.269,5.269,0,0,1,0,7.45m-19.863-19.863a5.268,5.268,0,1,1,0-7.45,5.269,5.269,0,0,1,0,7.45m-19.858-19.863a5.266,5.266,0,1,1,0-7.445,5.265,5.265,0,0,1,0,7.445m-19.863-19.863a5.266,5.266,0,1,1,0-7.445,5.265,5.265,0,0,1,0,7.445m-19.863-19.858a5.266,5.266,0,1,1,0-7.45,5.269,5.269,0,0,1,0,7.45M267.192,207.6a5.268,5.268,0,1,1,0-7.445,5.269,5.269,0,0,1,0,7.445m-19.863-19.858a5.268,5.268,0,1,1,0-7.45,5.269,5.269,0,0,1,0,7.45m-19.863-19.863a5.268,5.268,0,1,1,0-7.45,5.269,5.269,0,0,1,0,7.45m-19.858-19.863a5.266,5.266,0,1,1,0-7.445,5.269,5.269,0,0,1,0,7.445m-19.863-19.858a5.268,5.268,0,1,1,0-7.45,5.269,5.269,0,0,1,0,7.45M167.882,108.3a5.268,5.268,0,1,1,0-7.45,5.269,5.269,0,0,1,0,7.45M406.219,386.356a5.265,5.265,0,1,1,0-7.445,5.255,5.255,0,0,1,0,7.445M386.361,366.5a5.268,5.268,0,1,1,0-7.45,5.269,5.269,0,0,1,0,7.45M366.5,346.635a5.268,5.268,0,1,1,0-7.45,5.269,5.269,0,0,1,0,7.45m-19.863-19.863a5.266,5.266,0,1,1,0-7.445,5.269,5.269,0,0,1,0,7.445m-19.858-19.858a5.268,5.268,0,1,1,0-7.45,5.269,5.269,0,0,1,0,7.45m-19.863-19.863a5.268,5.268,0,1,1,0-7.45,5.269,5.269,0,0,1,0,7.45m-19.863-19.863a5.265,5.265,0,1,1,0-7.445,5.263,5.263,0,0,1,0,7.445m-19.858-19.858a5.268,5.268,0,1,1,0-7.45,5.269,5.269,0,0,1,0,7.45m-19.863-19.863a5.268,5.268,0,1,1,0-7.45,5.269,5.269,0,0,1,0,7.45M227.466,207.6a5.266,5.266,0,1,1,0-7.445,5.269,5.269,0,0,1,0,7.445m-19.858-19.858a5.268,5.268,0,1,1,0-7.45,5.265,5.265,0,0,1,0,7.45m-19.863-19.863a5.268,5.268,0,1,1,0-7.45,5.269,5.269,0,0,1,0,7.45m-19.863-19.863a5.265,5.265,0,1,1,0-7.45,5.269,5.269,0,0,1,0,7.45m-19.858-19.863a5.266,5.266,0,1,1,0-7.445,5.265,5.265,0,0,1,0,7.445M386.361,406.219a5.268,5.268,0,1,1,0-7.45,5.269,5.269,0,0,1,0,7.45M366.5,386.356a5.266,5.266,0,1,1,0-7.445,5.269,5.269,0,0,1,0,7.445M346.635,366.5a5.268,5.268,0,1,1,0-7.45,5.263,5.263,0,0,1,0,7.45m-19.858-19.863a5.268,5.268,0,1,1,0-7.45,5.269,5.269,0,0,1,0,7.45m-19.863-19.863a5.266,5.266,0,1,1,0-7.445,5.269,5.269,0,0,1,0,7.445m-19.863-19.858a5.266,5.266,0,1,1,0-7.45,5.263,5.263,0,0,1,0,7.45m-19.858-19.863a5.268,5.268,0,1,1,0-7.45,5.269,5.269,0,0,1,0,7.45m-19.863-19.863a5.266,5.266,0,1,1,0-7.445,5.269,5.269,0,0,1,0,7.445m-19.863-19.858a5.268,5.268,0,1,1,0-7.45,5.269,5.269,0,0,1,0,7.45M207.6,227.466a5.266,5.266,0,1,1,0-7.45,5.263,5.263,0,0,1,0,7.45M187.745,207.6a5.266,5.266,0,1,1,0-7.45,5.269,5.269,0,0,1,0,7.45m-19.863-19.858a5.268,5.268,0,1,1,0-7.45,5.269,5.269,0,0,1,0,7.45m-19.863-19.863a5.266,5.266,0,1,1,0-7.45,5.263,5.263,0,0,1,0,7.45m-19.858-19.863a5.266,5.266,0,1,1,0-7.445,5.269,5.269,0,0,1,0,7.445M366.5,426.082a5.268,5.268,0,1,1,0-7.45,5.269,5.269,0,0,1,0,7.45m-19.863-19.863a5.268,5.268,0,1,1,0-7.45,5.269,5.269,0,0,1,0,7.45m-19.863-19.863a5.265,5.265,0,1,1,0-7.445,5.263,5.263,0,0,1,0,7.445M306.913,366.5a5.268,5.268,0,1,1,0-7.45,5.269,5.269,0,0,1,0,7.45m-19.863-19.863a5.268,5.268,0,1,1,0-7.45,5.263,5.263,0,0,1,0,7.45m-19.863-19.863a5.265,5.265,0,1,1,0-7.445,5.259,5.259,0,0,1,0,7.445m-19.858-19.858a5.268,5.268,0,1,1,0-7.45,5.269,5.269,0,0,1,0,7.45m-19.863-19.863a5.268,5.268,0,1,1,0-7.45,5.269,5.269,0,0,1,0,7.45M207.6,267.188a5.265,5.265,0,1,1,0-7.445,5.263,5.263,0,0,1,0,7.445m-19.858-19.858a5.268,5.268,0,1,1,0-7.45,5.269,5.269,0,0,1,0,7.45m-19.863-19.863a5.268,5.268,0,1,1,0-7.45,5.269,5.269,0,0,1,0,7.45M148.019,207.6a5.265,5.265,0,1,1,0-7.445,5.263,5.263,0,0,1,0,7.445m-19.858-19.858a5.268,5.268,0,1,1,0-7.45,5.269,5.269,0,0,1,0,7.45M108.3,167.882a5.268,5.268,0,1,1,0-7.45,5.269,5.269,0,0,1,0,7.45M346.635,445.945a5.268,5.268,0,1,1,0-7.45,5.265,5.265,0,0,1,0,7.45m-19.858-19.863a5.268,5.268,0,1,1,0-7.45,5.269,5.269,0,0,1,0,7.45m-19.863-19.863a5.266,5.266,0,1,1,0-7.45,5.269,5.269,0,0,1,0,7.45m-19.863-19.858a5.266,5.266,0,1,1,0-7.45,5.272,5.272,0,0,1,0,7.45M267.192,366.5a5.268,5.268,0,1,1,0-7.45,5.269,5.269,0,0,1,0,7.45m-19.863-19.863a5.268,5.268,0,1,1,0-7.45,5.269,5.269,0,0,1,0,7.45m-19.863-19.863a5.266,5.266,0,1,1,0-7.445,5.269,5.269,0,0,1,0,7.445m-19.858-19.858a5.268,5.268,0,1,1,0-7.45,5.269,5.269,0,0,1,0,7.45m-19.863-19.863a5.268,5.268,0,1,1,0-7.45,5.269,5.269,0,0,1,0,7.45m-19.863-19.863a5.266,5.266,0,1,1,0-7.445,5.263,5.263,0,0,1,0,7.445m-19.858-19.858a5.268,5.268,0,1,1,0-7.45,5.269,5.269,0,0,1,0,7.45m-19.863-19.863a5.268,5.268,0,1,1,0-7.45,5.269,5.269,0,0,1,0,7.45M108.3,207.6a5.266,5.266,0,1,1,0-7.45,5.269,5.269,0,0,1,0,7.45M88.435,187.745a5.266,5.266,0,1,1,0-7.45,5.263,5.263,0,0,1,0,7.45M326.776,465.8a5.266,5.266,0,1,1,0-7.45,5.269,5.269,0,0,1,0,7.45m-19.863-19.858a5.268,5.268,0,1,1,0-7.45,5.273,5.273,0,0,1,0,7.45m-19.863-19.863a5.268,5.268,0,1,1,0-7.45,5.263,5.263,0,0,1,0,7.45m-19.858-19.863a5.266,5.266,0,1,1,0-7.45,5.269,5.269,0,0,1,0,7.45m-19.863-19.863a5.266,5.266,0,1,1,0-7.445,5.269,5.269,0,0,1,0,7.445M227.466,366.5a5.268,5.268,0,1,1,0-7.45,5.269,5.269,0,0,1,0,7.45M207.6,346.635a5.266,5.266,0,1,1,0-7.45,5.263,5.263,0,0,1,0,7.45m-19.858-19.863a5.266,5.266,0,1,1,0-7.445,5.269,5.269,0,0,1,0,7.445m-19.863-19.858a5.268,5.268,0,1,1,0-7.45,5.269,5.269,0,0,1,0,7.45m-19.863-19.863a5.266,5.266,0,1,1,0-7.45,5.263,5.263,0,0,1,0,7.45m-19.858-19.863a5.266,5.266,0,1,1,0-7.445,5.269,5.269,0,0,1,0,7.445M108.3,247.329a5.268,5.268,0,1,1,0-7.45,5.269,5.269,0,0,1,0,7.45M88.435,227.466a5.266,5.266,0,1,1,0-7.45,5.263,5.263,0,0,1,0,7.45M68.577,207.6a5.266,5.266,0,1,1,0-7.445,5.269,5.269,0,0,1,0,7.445M306.913,485.666a5.268,5.268,0,1,1,0-7.45,5.269,5.269,0,0,1,0,7.45M287.051,465.8a5.266,5.266,0,1,1,0-7.45,5.263,5.263,0,0,1,0,7.45M267.192,445.94a5.266,5.266,0,1,1,0-7.445,5.265,5.265,0,0,1,0,7.445m-19.863-19.858a5.268,5.268,0,1,1,0-7.45,5.269,5.269,0,0,1,0,7.45m-19.863-19.863a5.268,5.268,0,1,1,0-7.45,5.269,5.269,0,0,1,0,7.45m-19.858-19.858a5.268,5.268,0,1,1,0-7.45,5.265,5.265,0,0,1,0,7.45M187.745,366.5a5.268,5.268,0,1,1,0-7.45,5.269,5.269,0,0,1,0,7.45m-19.863-19.863a5.265,5.265,0,1,1,0-7.45,5.269,5.269,0,0,1,0,7.45m-19.858-19.858a5.268,5.268,0,1,1,0-7.45,5.273,5.273,0,0,1,0,7.45m-19.863-19.863a5.268,5.268,0,1,1,0-7.45,5.269,5.269,0,0,1,0,7.45M108.3,287.051a5.268,5.268,0,1,1,0-7.45,5.269,5.269,0,0,1,0,7.45M88.435,267.188a5.265,5.265,0,1,1,0-7.445,5.263,5.263,0,0,1,0,7.445M68.577,247.329a5.268,5.268,0,1,1,0-7.45,5.269,5.269,0,0,1,0,7.45M48.714,227.466a5.268,5.268,0,1,1,0-7.45,5.269,5.269,0,0,1,0,7.45M287.051,505.529a5.266,5.266,0,1,1,0-7.45,5.259,5.259,0,0,1,0,7.45m-19.858-19.863a5.268,5.268,0,1,1,0-7.45,5.269,5.269,0,0,1,0,7.45M247.329,465.8a5.266,5.266,0,1,1,0-7.45,5.269,5.269,0,0,1,0,7.45m-19.863-19.858a5.268,5.268,0,1,1,0-7.45,5.269,5.269,0,0,1,0,7.45M207.6,426.082a5.266,5.266,0,1,1,0-7.45,5.263,5.263,0,0,1,0,7.45m-19.858-19.863a5.266,5.266,0,1,1,0-7.45,5.269,5.269,0,0,1,0,7.45m-19.863-19.863a5.266,5.266,0,1,1,0-7.445,5.269,5.269,0,0,1,0,7.445M148.019,366.5a5.266,5.266,0,1,1,0-7.45,5.263,5.263,0,0,1,0,7.45m-19.858-19.863a5.268,5.268,0,1,1,0-7.45,5.269,5.269,0,0,1,0,7.45M108.3,326.772a5.266,5.266,0,1,1,0-7.445,5.269,5.269,0,0,1,0,7.445M88.435,306.913a5.266,5.266,0,1,1,0-7.45,5.263,5.263,0,0,1,0,7.45M68.577,287.051a5.268,5.268,0,1,1,0-7.45,5.269,5.269,0,0,1,0,7.45M48.714,267.188a5.266,5.266,0,1,1,0-7.445,5.269,5.269,0,0,1,0,7.445M28.851,247.329a5.266,5.266,0,1,1,0-7.45,5.263,5.263,0,0,1,0,7.45M267.188,525.387a5.265,5.265,0,1,1,0-7.45,5.263,5.263,0,0,1,0,7.45m-19.858-19.858a5.268,5.268,0,1,1,0-7.45,5.269,5.269,0,0,1,0,7.45m-19.863-19.863a5.268,5.268,0,1,1,0-7.45,5.269,5.269,0,0,1,0,7.45M207.6,465.8a5.265,5.265,0,1,1,0-7.445,5.263,5.263,0,0,1,0,7.445M187.745,445.94a5.266,5.266,0,1,1,0-7.445,5.269,5.269,0,0,1,0,7.445m-19.863-19.858a5.268,5.268,0,1,1,0-7.45,5.263,5.263,0,0,1,0,7.45m-19.863-19.863a5.266,5.266,0,1,1,0-7.45,5.263,5.263,0,0,1,0,7.45m-19.858-19.863a5.266,5.266,0,1,1,0-7.445,5.269,5.269,0,0,1,0,7.445M108.3,366.5a5.268,5.268,0,1,1,0-7.45,5.269,5.269,0,0,1,0,7.45M88.435,346.635a5.266,5.266,0,1,1,0-7.45,5.263,5.263,0,0,1,0,7.45M68.577,326.772a5.266,5.266,0,1,1,0-7.445,5.265,5.265,0,0,1,0,7.445M48.714,306.913a5.268,5.268,0,1,1,0-7.45,5.269,5.269,0,0,1,0,7.45M28.851,287.051a5.265,5.265,0,1,1,0-7.45,5.263,5.263,0,0,1,0,7.45M8.992,267.188a5.266,5.266,0,1,1,0-7.445,5.269,5.269,0,0,1,0,7.445m471.225,31.024v9.955a5.267,5.267,0,0,1-2-8.7,5.218,5.218,0,0,1,2-1.252m0-39.726v9.959a5.272,5.272,0,0,1,0-9.959m0-39.721v9.955a5.267,5.267,0,0,1,0-9.955" transform="translate(0.001 0.001)" fill="#6347a0" fill-rule="evenodd"/>
    </g>
  </g>
</svg>
