<?xml version="1.0" encoding="UTF-8"?>
<svg width="21px" height="19px" viewBox="0 0 21 19" version="1.1" xmlns="http://www.w3.org/2000/svg" xmlns:xlink="http://www.w3.org/1999/xlink">
    <title>Group 20 Copy 9</title>
    <defs>
        <polygon id="path-1" points="0 0 17.5025085 0 17.5025085 15.2317772 0 15.2317772"></polygon>
        <polygon id="path-3" points="0 0 7.45190489 0 7.45190489 3.86875686 0 3.86875686"></polygon>
        <polygon id="path-5" points="0 0 2.95696374 0 2.95696374 5.1575628 0 5.1575628"></polygon>
        <polygon id="path-7" points="0 4.08081686 5.35900693 8 8.42105263 3.91918314 3.0620457 0"></polygon>
    </defs>
    <g id="new-user" stroke="none" stroke-width="1" fill="none" fill-rule="evenodd">
        <g id="1_loyalty_new-user" transform="translate(-328.000000, -491.000000)">
            <g id="Group-20-Copy" transform="translate(328.927995, 491.775362)">
                <g id="Group-16">
                    <g id="Group-3" transform="translate(0.000000, 2.767734)">
                        <mask id="mask-2" fill="white">
                            <use xlink:href="#path-1"></use>
                        </mask>
                        <g id="Clip-2"></g>
                        <path d="M7.45154185,2.6060112 C11.3502203,4.67271194 15.1048797,8.6022836 15.8215859,11.3640106 L15.8215859,11.3640106 C16.5382921,14.1274084 13.9493392,14.693788 10.0506608,12.6270872 C6.15198238,10.5603865 2.39732294,6.63081482 1.68061674,3.86741707 C0.963910539,1.10401931 3.55286344,0.539310456 7.45154185,2.6060112 M0.145543883,3.05376851 C1.01982379,6.42197279 5.5809895,11.1952663 10.3336157,13.7147365 L10.3183667,13.6579315 L10.3336157,13.7147365 C15.0845476,16.2325361 18.2309387,15.5458635 17.3566588,12.1776592 C16.4823789,8.80945489 11.9212131,4.03783216 7.16858692,1.5183619 C2.41765503,-1.00110837 -0.728736022,-0.314435768 0.145543883,3.05376851" id="Fill-1" fill="#FFE65A" mask="url(#mask-2)"></path>
                    </g>
                    <g id="Group-6" transform="translate(10.050152, 14.131243)">
                        <mask id="mask-4" fill="white">
                            <use xlink:href="#path-3"></use>
                        </mask>
                        <g id="Clip-5"></g>
                        <path d="M0.282954931,2.3507259 L0,1.2630766 C3.89867841,3.32977735 6.48932565,2.76506849 5.77092511,0 L7.30599797,0.813648554 C8.18027787,4.18352357 5.03558116,4.87019617 0.282954931,2.3507259" id="Fill-4" fill="#F4EF89" mask="url(#mask-4)"></path>
                    </g>
                    <path d="M10.0508302,15.3943197 C6.15215181,13.327619 2.39749238,9.39804734 1.68078617,6.63464959 C0.964079973,3.87292257 3.55303287,3.30654298 7.45171128,5.37324372 C11.3503897,7.43994446 15.1050491,11.3695161 15.8217553,14.1312431 C16.5384615,16.8963116 13.9495086,17.4610205 10.0508302,15.3943197" id="Fill-7" fill="#F9BF05"></path>
                    <path d="M10.6033548,15.0255883 C6.70467638,12.9588875 2.95001694,9.02931585 2.23331074,6.2659181 C2.00118604,5.37541567 2.11640122,4.71380412 2.50609963,4.29444932 C1.69620468,4.61690142 1.36241952,5.4088304 1.68095561,6.63515081 C2.39766181,9.39854856 6.15232125,13.3281202 10.0509997,15.394821 C12.6907828,16.7932272 14.7290749,16.9853619 15.5474415,16.1048839 C14.5325313,16.509202 12.7704168,16.1750548 10.6033548,15.0255883" id="Fill-9" fill="#D4A205"></path>
                    <g id="Group-13" transform="translate(17.043036, 12.177317)">
                        <mask id="mask-6" fill="white">
                            <use xlink:href="#path-5"></use>
                        </mask>
                        <g id="Clip-12"></g>
                        <path d="M0,5.1575628 L2.49915283,2.38915284 C2.96001355,1.87790754 3.0904778,1.07428341 2.8126059,0 L0.313453067,2.76840997 C0.593019315,3.84436411 0.462555066,4.64631751 0,5.1575628" id="Fill-11" fill="#FFC72E" mask="url(#mask-6)"></path>
                    </g>
                    <path d="M0.459166384,3.43318478 C2.2246696,1.4750819 7.16706201,4.07975971 9.62216198,5.79393511 C12.5957303,7.86731879 16.5079634,11.673256 17.3568282,14.9462283 L19.8542867,12.1761476 C18.5445612,7.12384116 9.478143,-0.173934779 4.66960352,0.00316326314 C4.66790918,0.00316326314 4.66621484,0.00316326314 4.6645205,0.00316326314 C4.65943748,0.00316326314 4.65435446,0.00316326314 4.64927143,0.00316326314 C3.99864453,0.0315657794 3.36496103,0.212005294 2.95831921,0.664774818 L0.459166384,3.43318478 Z" id="Fill-14" fill="#FFA50A"></path>
                </g>
                <g id="Group-19" transform="translate(4.210526, 5.000000)">
                    <mask id="mask-8" fill="white">
                        <use xlink:href="#path-7"></use>
                    </mask>
                    <g id="Clip-18"></g>
                </g>
            </g>
        </g>
    </g>
</svg>