<svg height="241.236" viewBox="0 0 241.236 241.236" width="241.236"
    xmlns="http://www.w3.org/2000/svg">
  <defs>
    <clipPath id="clip-path">
      <rect data-name="Rectangle 1" fill="none" height="241.236" id="Rectangle_1" width="241.236" />
    </clipPath>
  </defs>
  <g data-name="Group 2" id="Group_2" transform="translate(0 0)">
    <g clip-path="url(#clip-path)" data-name="Group 1" id="Group_1" transform="translate(0 0)">
      <path
          d="M241.236,120.618A120.618,120.618,0,1,1,120.618,0,120.616,120.616,0,0,1,241.236,120.618"
          data-name="Path 1" fill="#ffde50" id="Path_1" transform="translate(0 -0.004)" />
      <path
          d="M123.816,232.58c-64.855,0-117.431-54.2-117.431-121.064,0-49.455,28.779-91.948,70-110.743A120.618,120.618,0,1,0,241.247,112.984c0-.239-.022-.479-.022-.718-.4,66.509-52.794,120.314-117.41,120.314"
          data-name="Path 2" fill="#f0cd02" id="Path_2" transform="translate(0 7.63)" />
      <path
          d="M16.512,186.933l170.41-170.41A120.285,120.285,0,0,0,166.866,1.557L1.557,166.877a121.124,121.124,0,0,0,14.955,20.056"
          data-name="Path 3" fill="#feea94" id="Path_3" transform="translate(15.377 15.373)" />
      <path
          d="M31.836,189.042,189.042,31.836A120.55,120.55,0,0,0,173.369,4.384L4.384,173.38a120.686,120.686,0,0,0,27.452,15.662"
          data-name="Path 4" fill="#feea94" id="Path_4" transform="translate(43.298 43.293)" />
      <path d="M190.9,96.658A94.238,94.238,0,1,1,96.669,2.426,94.232,94.232,0,0,1,190.9,96.658"
          data-name="Path 5" fill="#ffbd02" id="Path_5" transform="translate(23.96 23.956)" />
      <path d="M138.127,4.892,4.892,138.127A94.218,94.218,0,1,0,138.127,4.892" data-name="Path 6"
          fill="#fba302" id="Path_6" transform="translate(48.315 48.31)" />
      <path
          d="M12.052,2.48C53.85,10.9,85.445,49.607,85.445,96.125s-31.6,85.227-73.393,93.645a94.226,94.226,0,0,0,0-187.29"
          data-name="Path 7" fill="#f68e01" id="Path_7" transform="translate(119.029 24.489)" />
      <path
          d="M16.709,24q-5.123,0-7.787-2.86a9.657,9.657,0,0,1-2.665-6.809,9.211,9.211,0,0,1,2.567-6.5q2.561-2.757,7.885-2.763H89.678q5.123,0,7.8,2.86a9.647,9.647,0,0,1,2.654,6.809,9.359,9.359,0,0,1-2.556,6.406c-1.718,1.9-4.34,2.86-7.9,2.86H80.8q-6.509,0-10.55-.2t-4.438-.2a.4.4,0,0,1-.1.294.4.4,0,0,0-.1.294,28.447,28.447,0,0,1,6.406,4.731,23.618,23.618,0,0,1,5.036,7.3H89.678q5.123,0,7.8,2.86A9.666,9.666,0,0,1,100.13,45.9,9.359,9.359,0,0,1,97.574,52.3c-1.718,1.9-4.34,2.86-7.9,2.86H79.422a36.751,36.751,0,0,1-4.633,14.988,35.315,35.315,0,0,1-8.777,10.061A39.723,39.723,0,0,1,55.07,86.227a60.884,60.884,0,0,1-10.746,2.86l36.283,33.129a23.512,23.512,0,0,1,3.557,4.633,12.033,12.033,0,0,1-1.979,14.5,12.917,12.917,0,0,1-9.267,3.35,13.843,13.843,0,0,1-7.787-2.262,47.609,47.609,0,0,1-6.417-5.036l-42-39.437a50.694,50.694,0,0,1-6.308-7.1,12.516,12.516,0,0,1-2.567-7.494q0-5.71,3.448-8.875a12.816,12.816,0,0,1,8.973-3.154H21.44a58,58,0,0,0,9.669-.794,32.086,32.086,0,0,0,8.679-2.665,22.517,22.517,0,0,0,6.9-5.025,19.172,19.172,0,0,0,4.34-7.69H16.709q-5.123,0-7.787-2.86A9.657,9.657,0,0,1,6.257,45.5a9.211,9.211,0,0,1,2.567-6.5q2.561-2.757,7.885-2.763H50.045Q44.319,24.009,24.594,24Z"
          data-name="Path 8" fill="#f68e01" id="Path_8" transform="translate(61.796 50.049)" />
      <path
          d="M17.465,24q-5.123,0-7.787-2.86a9.657,9.657,0,0,1-2.665-6.809,9.211,9.211,0,0,1,2.567-6.5q2.561-2.757,7.885-2.763H90.434q5.123,0,7.8,2.86a9.647,9.647,0,0,1,2.654,6.809,9.359,9.359,0,0,1-2.556,6.406c-1.718,1.9-4.34,2.86-7.9,2.86H81.559q-6.509,0-10.55-.2t-4.438-.2a.4.4,0,0,1-.1.294.4.4,0,0,0-.1.294,28.446,28.446,0,0,1,6.406,4.731,23.617,23.617,0,0,1,5.036,7.3H90.434q5.123,0,7.8,2.86a9.666,9.666,0,0,1,2.654,6.809A9.359,9.359,0,0,1,98.33,52.3c-1.718,1.9-4.34,2.86-7.9,2.86H80.178a36.751,36.751,0,0,1-4.633,14.988,35.315,35.315,0,0,1-8.777,10.061,39.723,39.723,0,0,1-10.942,6.015,60.884,60.884,0,0,1-10.746,2.86l36.283,33.129a23.512,23.512,0,0,1,3.557,4.633,12.033,12.033,0,0,1-1.979,14.5,12.917,12.917,0,0,1-9.267,3.35,13.843,13.843,0,0,1-7.787-2.262,47.609,47.609,0,0,1-6.417-5.036l-42-39.437a50.7,50.7,0,0,1-6.308-7.1A12.516,12.516,0,0,1,8.59,83.367q0-5.71,3.448-8.875a12.816,12.816,0,0,1,8.973-3.154H22.2a58,58,0,0,0,9.669-.794,32.085,32.085,0,0,0,8.679-2.665,22.517,22.517,0,0,0,6.9-5.025,19.172,19.172,0,0,0,4.34-7.69H17.465q-5.123,0-7.787-2.86A9.657,9.657,0,0,1,7.013,45.5a9.211,9.211,0,0,1,2.567-6.5q2.561-2.757,7.885-2.763H50.8Q45.075,24.009,25.35,24Z"
          data-name="Path 9" fill="#feea94" id="Path_9" transform="translate(69.263 50.049)" />
    </g>
  </g>
</svg>
