<?xml version="1.0" encoding="UTF-8"?>
<svg width="562px" height="150px" viewBox="0 0 562 150" version="1.1" xmlns="http://www.w3.org/2000/svg" xmlns:xlink="http://www.w3.org/1999/xlink">
    <title>Group 55</title>
    <g id="form-" stroke="none" stroke-width="1" fill="none" fill-rule="evenodd">
        <g id="Group-55">
            <path d="M41.527,51.386 C47.801,51.386 52.357,49.993 55.195,47.203 C58.034,44.416 59.453,40.582 59.453,35.701 C59.453,30.723 58.034,26.865 55.195,24.124 C52.357,21.386 47.95,20.017 41.975,20.017 L20.465,20.017 L20.465,51.386 L41.527,51.386 Z M20.465,71.104 L20.465,95.452 C20.465,98.343 19.469,100.83 17.477,102.921 C15.484,105.013 13.095,106.058 10.308,106.058 C7.518,106.058 5.102,105.013 3.062,102.921 C1.021,100.83 -1.42108547e-14,98.343 -1.42108547e-14,95.452 L-1.42108547e-14,13.294 C-1.42108547e-14,9.612 1.144,6.474 3.436,3.884 C5.725,1.295 9.113,0 13.594,0 L43.32,0 C48.197,0 52.854,0.798 57.287,2.39 C61.717,3.985 65.626,6.3 69.012,9.336 C72.397,12.375 75.063,16.11 77.005,20.54 C78.946,24.972 79.917,29.976 79.917,35.552 C79.917,41.229 78.97,46.258 77.079,50.639 C75.187,55.023 72.546,58.731 69.162,61.768 C65.776,64.807 61.768,67.122 57.137,68.714 C52.506,70.308 47.451,71.104 41.975,71.104 L20.465,71.104 Z" id="Fill-1" fill="#8E278F"></path>
            <path d="M128.9643,25.6933 C135.1373,27.3873 138.2263,30.8233 138.2263,36.0003 C138.2263,36.9963 138.0253,38.0423 137.6283,39.1363 C137.2293,40.2343 136.6323,41.2543 135.8353,42.1993 C135.0383,43.1473 134.0663,43.9173 132.9223,44.5143 C131.7773,45.1123 130.4073,45.4103 128.8153,45.4103 C127.1203,45.4103 125.4023,45.1633 123.6623,44.6643 C121.9173,44.1673 119.9013,43.9683 117.6123,44.0663 C115.1213,44.1673 113.2053,44.9393 111.8603,46.3823 C110.5163,47.8263 109.8443,50.2913 109.8443,53.7763 L109.8443,96.0493 C109.8443,98.9403 108.8963,101.3533 107.0053,103.2953 C105.1133,105.2363 102.7233,106.2083 99.8363,106.2083 C97.0473,106.2083 94.6823,105.2363 92.7403,103.2953 C90.7993,101.3533 89.8273,98.9403 89.8273,96.0493 L89.8273,50.0413 C89.8273,42.2743 92.0423,36.0753 96.4753,31.4443 C100.9053,26.8133 107.4543,24.4983 116.1183,24.4983 C118.6063,24.4983 120.9963,24.5983 123.2883,24.7963 C125.5783,24.9973 127.4713,25.2963 128.9643,25.6933" id="Fill-3" fill="#8E278F"></path>
            <path d="M177.2398,89.6273 C181.4218,89.6273 184.6828,89.1033 187.0238,88.0583 C189.3618,87.0123 190.9308,86.2433 191.7288,85.7423 L191.7288,72.2993 C189.1388,71.5033 186.7248,70.9053 184.4838,70.5063 C182.2438,70.1103 179.6778,69.9093 176.7908,69.9093 C172.7068,69.9093 169.5208,70.8053 167.2308,72.5973 C164.9388,74.3903 163.7958,76.7313 163.7958,79.6183 C163.7958,82.9043 164.9908,85.3953 167.3808,87.0873 C169.7708,88.7813 173.0568,89.6273 177.2398,89.6273 L177.2398,89.6273 Z M210.9988,91.4193 C210.9988,93.1143 210.7488,94.4813 210.2518,95.5273 C209.7528,96.5723 208.8078,97.5443 207.4138,98.4403 C206.3168,99.1383 204.8488,99.9603 203.0078,100.9053 C201.1638,101.8523 198.9228,102.7493 196.2858,103.5933 C193.6458,104.4413 190.6318,105.1623 187.2478,105.7593 C183.8608,106.3563 180.0778,106.6563 175.8948,106.6563 C170.5168,106.6563 165.8348,105.9583 161.8528,104.5653 C157.8688,103.1713 154.5828,101.2783 151.9948,98.8883 C149.4038,96.4983 147.4868,93.7113 146.2438,90.5233 C144.9978,87.3373 144.3768,83.9503 144.3768,80.3653 C144.3768,77.1793 144.9488,74.1173 146.0938,71.1793 C147.2378,68.2423 149.0568,65.6513 151.5458,63.4113 C154.0348,61.1703 157.2218,59.3773 161.1068,58.0333 C164.9908,56.6893 169.6708,56.0163 175.1478,56.0163 C178.4348,56.0163 181.2958,56.2173 183.7368,56.6143 C186.1768,57.0133 188.8388,57.5613 191.7288,58.2573 L191.7288,54.2243 C191.7288,50.3403 190.6828,47.4273 188.5918,45.4853 C186.5018,43.5443 182.8158,42.5723 177.5378,42.5723 C174.9468,42.5723 172.3848,42.8483 169.8448,43.3943 C167.3058,43.9423 165.0888,44.5143 163.1978,45.1123 C161.1068,45.8103 159.2138,46.0833 157.5218,45.9343 C155.8278,45.7843 154.3838,45.3363 153.1888,44.5893 C151.9948,43.8423 151.0728,42.8223 150.4258,41.5273 C149.7768,40.2343 149.4548,38.8383 149.4548,37.3443 C149.4548,35.6533 149.9028,33.9833 150.7998,32.3403 C151.6958,30.6973 153.4368,29.3303 156.0278,28.2323 C158.1188,27.3363 161.1558,26.4913 165.1398,25.6933 C169.1218,24.8973 173.4048,24.4983 177.9858,24.4983 C188.5408,24.4983 196.6828,26.9143 202.4098,31.7423 C208.1348,36.5743 210.9988,44.2673 210.9988,54.8213 L210.9988,91.4193 Z" id="Fill-5" fill="#8E278F"></path>
            <path d="M290.3943,95.9011 C290.3943,98.7901 289.4463,101.2291 287.5563,103.2201 C285.6633,105.2141 283.2733,106.2081 280.3853,106.2081 C277.6973,106.2081 275.3563,105.2141 273.3643,103.2201 C271.3723,101.2291 270.3783,98.7901 270.3783,95.9011 L270.3783,58.1081 C270.3783,53.2301 268.9323,49.6681 266.0453,47.4271 C263.1563,45.1871 259.7713,44.0671 255.8883,44.0671 C252.9003,44.0671 250.0623,44.4401 247.3733,45.1871 C244.6843,45.9341 242.6423,46.7551 241.2483,47.6521 L241.2483,95.9011 C241.2483,98.7901 240.3013,101.2291 238.4103,103.2201 C236.5173,105.2141 234.1283,106.2081 231.2403,106.2081 C228.5513,106.2081 226.2103,105.2141 224.2193,103.2201 C222.2263,101.2291 221.2323,98.7901 221.2323,95.9011 L221.2323,40.0331 C221.2323,38.1421 221.5053,36.6731 222.0543,35.6261 C222.6003,34.5811 223.5213,33.6101 224.8173,32.7141 C226.0123,31.9181 227.5803,31.0481 229.5233,30.0991 C231.4643,29.1541 233.7543,28.2581 236.3943,27.4111 C239.0313,26.5651 242.0453,25.8681 245.4313,25.3191 C248.8153,24.7741 252.5013,24.4981 256.4853,24.4981 C267.7373,24.4981 276.2023,27.3131 281.8803,32.9381 C287.5563,38.5651 290.3943,46.6571 290.3943,57.2121 L290.3943,95.9011 Z" id="Fill-7" fill="#8E278F"></path>
            <path d="M332.3834,89.6273 C336.5654,89.6273 339.8264,89.1033 342.1674,88.0583 C344.5054,87.0123 346.0744,86.2433 346.8724,85.7423 L346.8724,72.2993 C344.2824,71.5033 341.8684,70.9053 339.6274,70.5063 C337.3874,70.1103 334.8214,69.9093 331.9344,69.9093 C327.8504,69.9093 324.6644,70.8053 322.3744,72.5973 C320.0824,74.3903 318.9394,76.7313 318.9394,79.6183 C318.9394,82.9043 320.1344,85.3953 322.5244,87.0873 C324.9144,88.7813 328.2004,89.6273 332.3834,89.6273 L332.3834,89.6273 Z M366.1424,91.4193 C366.1424,93.1143 365.8924,94.4813 365.3954,95.5273 C364.8964,96.5723 363.9514,97.5443 362.5574,98.4403 C361.4604,99.1383 359.9924,99.9603 358.1514,100.9053 C356.3074,101.8523 354.0664,102.7493 351.4294,103.5933 C348.7894,104.4413 345.7754,105.1623 342.3914,105.7593 C339.0044,106.3563 335.2214,106.6563 331.0384,106.6563 C325.6604,106.6563 320.9784,105.9583 316.9964,104.5653 C313.0124,103.1713 309.7264,101.2783 307.1384,98.8883 C304.5474,96.4983 302.6304,93.7113 301.3874,90.5233 C300.1414,87.3373 299.5204,83.9503 299.5204,80.3653 C299.5204,77.1793 300.0924,74.1173 301.2374,71.1793 C302.3814,68.2423 304.2004,65.6513 306.6894,63.4113 C309.1784,61.1703 312.3654,59.3773 316.2504,58.0333 C320.1344,56.6893 324.8144,56.0163 330.2914,56.0163 C333.5784,56.0163 336.4394,56.2173 338.8804,56.6143 C341.3204,57.0133 343.9824,57.5613 346.8724,58.2573 L346.8724,54.2243 C346.8724,50.3403 345.8264,47.4273 343.7354,45.4853 C341.6454,43.5443 337.9594,42.5723 332.6814,42.5723 C330.0904,42.5723 327.5284,42.8483 324.9884,43.3943 C322.4494,43.9423 320.2324,44.5143 318.3414,45.1123 C316.2504,45.8103 314.3574,46.0833 312.6654,45.9343 C310.9714,45.7843 309.5274,45.3363 308.3324,44.5893 C307.1384,43.8423 306.2164,42.8223 305.5694,41.5273 C304.9204,40.2343 304.5984,38.8383 304.5984,37.3443 C304.5984,35.6533 305.0464,33.9833 305.9434,32.3403 C306.8394,30.6973 308.5804,29.3303 311.1714,28.2323 C313.2624,27.3363 316.2994,26.4913 320.2834,25.6933 C324.2654,24.8973 328.5484,24.4983 333.1294,24.4983 C343.6844,24.4983 351.8264,26.9143 357.5534,31.7423 C363.2784,36.5743 366.1424,44.2673 366.1424,54.8213 L366.1424,91.4193 Z" id="Fill-9" fill="#8E278F"></path>
            <path d="M408.1109,89.6273 C412.2929,89.6273 415.5539,89.1033 417.8949,88.0583 C420.2329,87.0123 421.8019,86.2433 422.5999,85.7423 L422.5999,72.2993 C420.0099,71.5033 417.5959,70.9053 415.3549,70.5063 C413.1149,70.1103 410.5489,69.9093 407.6619,69.9093 C403.5779,69.9093 400.3919,70.8053 398.1019,72.5973 C395.8099,74.3903 394.6669,76.7313 394.6669,79.6183 C394.6669,82.9043 395.8619,85.3953 398.2519,87.0873 C400.6419,88.7813 403.9279,89.6273 408.1109,89.6273 L408.1109,89.6273 Z M441.8699,91.4193 C441.8699,93.1143 441.6199,94.4813 441.1229,95.5273 C440.6239,96.5723 439.6789,97.5443 438.2849,98.4403 C437.1879,99.1383 435.7199,99.9603 433.8789,100.9053 C432.0349,101.8523 429.7939,102.7493 427.1569,103.5933 C424.5169,104.4413 421.5029,105.1623 418.1189,105.7593 C414.7319,106.3563 410.9489,106.6563 406.7659,106.6563 C401.3879,106.6563 396.7059,105.9583 392.7239,104.5653 C388.7399,103.1713 385.4539,101.2783 382.8659,98.8883 C380.2749,96.4983 378.3579,93.7113 377.1149,90.5233 C375.8689,87.3373 375.2479,83.9503 375.2479,80.3653 C375.2479,77.1793 375.8199,74.1173 376.9649,71.1793 C378.1089,68.2423 379.9279,65.6513 382.4169,63.4113 C384.9059,61.1703 388.0929,59.3773 391.9779,58.0333 C395.8619,56.6893 400.5419,56.0163 406.0189,56.0163 C409.3059,56.0163 412.1669,56.2173 414.6079,56.6143 C417.0479,57.0133 419.7099,57.5613 422.5999,58.2573 L422.5999,54.2243 C422.5999,50.3403 421.5539,47.4273 419.4629,45.4853 C417.3729,43.5443 413.6869,42.5723 408.4089,42.5723 C405.8179,42.5723 403.2559,42.8483 400.7159,43.3943 C398.1769,43.9423 395.9599,44.5143 394.0689,45.1123 C391.9779,45.8103 390.0849,46.0833 388.3929,45.9343 C386.6989,45.7843 385.2549,45.3363 384.0599,44.5893 C382.8659,43.8423 381.9439,42.8223 381.2969,41.5273 C380.6479,40.2343 380.3259,38.8383 380.3259,37.3443 C380.3259,35.6533 380.7739,33.9833 381.6709,32.3403 C382.5669,30.6973 384.3079,29.3303 386.8989,28.2323 C388.9899,27.3363 392.0269,26.4913 396.0109,25.6933 C399.9929,24.8973 404.2759,24.4983 408.8569,24.4983 C419.4119,24.4983 427.5539,26.9143 433.2809,31.7423 C439.0059,36.5743 441.8699,44.2673 441.8699,54.8213 L441.8699,91.4193 Z" id="Fill-11" fill="#8E278F"></path>
            <path d="M540.1499,57.4176 C540.1499,52.6376 539.0789,49.1786 536.9379,47.0356 C534.7959,44.8956 531.8329,43.8246 528.0499,43.8246 C524.5629,43.8246 521.8509,44.3236 519.9089,45.3176 C517.9669,46.3156 516.6979,47.0126 516.0999,47.4096 L516.0999,95.6586 C516.0999,98.5486 515.1519,100.9866 513.2619,102.9786 C511.3689,104.9716 508.9789,105.9656 506.0919,105.9656 C503.4029,105.9656 501.0619,104.9716 499.0709,102.9786 C497.0779,100.9866 496.0829,98.5486 496.0829,95.6586 L496.0829,57.2676 C496.0829,52.4886 495.0119,49.0526 492.8719,46.9606 C490.7289,44.8696 487.7669,43.8246 483.9829,43.8246 C480.4959,43.8246 477.7839,44.3236 475.8429,45.3176 C473.9009,46.3156 472.6309,47.0126 472.0329,47.4096 L472.0329,95.6586 C472.0329,98.5486 471.0859,100.9866 469.1949,102.9786 C467.3019,104.9716 464.9129,105.9656 462.0249,105.9656 C459.3359,105.9656 456.9949,104.9716 455.0039,102.9786 C453.0109,100.9866 452.0169,98.5486 452.0169,95.6586 L452.0169,40.0896 C452.0169,38.2966 452.3159,36.8786 452.9129,35.8326 C453.5099,34.7866 454.5049,33.7666 455.8999,32.7706 C458.7879,30.5806 462.5479,28.6126 467.1789,26.8696 C471.8099,25.1286 477.1119,24.2556 483.0869,24.2556 C492.2479,24.2556 499.5179,27.0936 504.8959,32.7706 C508.0819,30.1826 511.7169,28.1156 515.8009,26.5716 C519.8829,25.0286 524.3149,24.2556 529.0959,24.2556 C540.0499,24.2556 547.9659,27.0936 552.8469,32.7706 C557.7249,38.4466 560.1659,46.5126 560.1659,56.9696 L560.1659,95.6586 C560.1659,98.5486 559.1959,100.9866 557.2539,102.9786 C555.3109,104.9716 552.8959,105.9656 550.0089,105.9656 C547.4179,105.9656 545.1279,104.9716 543.1379,102.9786 C541.1439,100.9866 540.1499,98.5486 540.1499,95.6586 L540.1499,57.4176 Z" id="Fill-13" fill="#8E278F"></path>
            <path d="M217.4132,149.2228 C217.1592,149.5978 216.7552,149.7848 216.2002,149.7848 C215.8132,149.7848 215.4872,149.6758 215.2212,149.4588 C214.9552,149.2408 214.7982,148.9518 214.7512,148.5888 L211.7792,127.2498 C211.7312,127.0098 211.6102,126.8878 211.4172,126.8878 C211.2232,126.8878 211.0792,126.9958 210.9822,127.2138 L206.2732,146.8868 C206.0562,147.8048 205.6872,148.4928 205.1672,148.9518 C204.6482,149.4108 204.0132,149.6398 203.2652,149.6398 C202.4922,149.6398 201.8472,149.4108 201.3272,148.9518 C200.8082,148.4928 200.4392,147.8048 200.2222,146.8868 L195.5122,127.2138 C195.4162,126.9958 195.2832,126.8878 195.1142,126.8878 C194.9922,126.8878 194.9022,126.9308 194.8422,127.0148 C194.7812,127.0998 194.7402,127.1778 194.7152,127.2498 L191.7442,148.5888 C191.6962,148.9518 191.5452,149.2408 191.2912,149.4588 C191.0382,149.6758 190.7172,149.7848 190.3322,149.7848 C189.7762,149.7848 189.3712,149.5978 189.1182,149.2228 C188.8642,148.8488 188.7742,148.4208 188.8462,147.9378 L191.9632,126.7788 C192.1072,125.7648 192.4752,125.0348 193.0672,124.5878 C193.6582,124.1408 194.3402,123.9178 195.1142,123.9178 C195.8872,123.9178 196.5512,124.1348 197.1072,124.5698 C197.6622,125.0038 198.0362,125.6448 198.2302,126.4898 L202.9042,146.4518 C202.9272,146.5238 202.9702,146.6028 203.0292,146.6878 C203.0902,146.7718 203.1812,146.8148 203.3022,146.8148 C203.4232,146.8148 203.5132,146.7718 203.5742,146.6878 C203.6342,146.6028 203.6762,146.5238 203.7002,146.4518 L208.2652,126.4898 C208.4582,125.6448 208.8392,125.0038 209.4062,124.5698 C209.9742,124.1348 210.6442,123.9178 211.4172,123.9178 C212.1902,123.9178 212.8662,124.1408 213.4462,124.5878 C214.0262,125.0348 214.3882,125.7648 214.5322,126.7788 L217.6842,147.9008 C217.7572,148.4088 217.6672,148.8488 217.4132,149.2228" id="Fill-15" fill="#231F20"></path>
            <path d="M233.5643,138.8798 C233.8293,138.8798 233.9863,138.7348 234.0353,138.4448 C234.0833,137.6248 234.0053,136.8758 233.8003,136.1988 C233.5933,135.5228 233.2733,134.9428 232.8393,134.4598 C232.4043,133.9778 231.8733,133.6028 231.2453,133.3368 C230.6173,133.0718 229.9173,132.9388 229.1443,132.9388 C227.3563,132.9388 226.0293,133.4758 225.1583,134.5498 C224.2893,135.6258 223.8783,137.0678 223.9273,138.8798 L233.5643,138.8798 Z M236.8973,139.2428 C236.8973,139.8708 236.7283,140.3778 236.3903,140.7638 C236.0513,141.1508 235.5073,141.3428 234.7593,141.3428 L223.9273,141.3428 L223.9273,141.9228 C223.9273,143.6378 224.4283,144.9538 225.4303,145.8718 C226.4333,146.7898 227.7303,147.2488 229.3243,147.2488 C229.9783,147.2488 230.6713,147.1648 231.4083,146.9948 C232.1443,146.8268 232.9233,146.5968 233.7453,146.3068 C234.0583,146.1858 234.3483,146.1378 234.6143,146.1628 C234.8803,146.1858 235.1033,146.2588 235.2853,146.3798 C235.4663,146.5008 235.6053,146.6568 235.7013,146.8498 C235.7983,147.0438 235.8473,147.2488 235.8473,147.4658 C235.8473,147.7078 235.7923,147.9378 235.6833,148.1548 C235.5743,148.3718 235.3623,148.5768 235.0503,148.7698 C234.7593,148.9398 234.3903,149.0958 233.9443,149.2408 C233.4973,149.3868 233.0133,149.5068 232.4953,149.6038 C231.9763,149.6998 231.4383,149.7778 230.8833,149.8388 C230.3273,149.8988 229.7963,149.9298 229.2893,149.9298 C228.0333,149.9298 226.9103,149.7428 225.9203,149.3678 C224.9293,148.9948 224.0843,148.4628 223.3833,147.7738 C222.6833,147.0858 222.1393,146.2648 221.7523,145.3108 C221.3673,144.3568 221.1373,143.2998 221.0653,142.1398 C221.0163,141.4408 220.9983,140.6788 221.0103,139.8578 C221.0223,139.0368 221.0523,138.3488 221.1013,137.7938 C221.1973,136.6338 221.4633,135.5888 221.8983,134.6588 C222.3323,133.7298 222.9003,132.9388 223.6013,132.2868 C224.3013,131.6338 225.1163,131.1398 226.0463,130.8008 C226.9763,130.4628 227.9963,130.2938 229.1073,130.2938 C230.2903,130.2938 231.3663,130.4878 232.3323,130.8728 C233.2983,131.2598 234.1193,131.8038 234.7963,132.5038 C235.4723,133.2048 235.9913,134.0308 236.3533,134.9858 C236.7163,135.9388 236.8973,136.9958 236.8973,138.1548 L236.8973,139.2428 Z" id="Fill-17" fill="#231F20"></path>
            <path d="M252.965,138.8798 C253.23,138.8798 253.387,138.7348 253.436,138.4448 C253.484,137.6248 253.406,136.8758 253.201,136.1988 C252.994,135.5228 252.674,134.9428 252.24,134.4598 C251.805,133.9778 251.274,133.6028 250.646,133.3368 C250.018,133.0718 249.318,132.9388 248.545,132.9388 C246.757,132.9388 245.43,133.4758 244.559,134.5498 C243.69,135.6258 243.279,137.0678 243.328,138.8798 L252.965,138.8798 Z M256.298,139.2428 C256.298,139.8708 256.129,140.3778 255.791,140.7638 C255.452,141.1508 254.908,141.3428 254.16,141.3428 L243.328,141.3428 L243.328,141.9228 C243.328,143.6378 243.829,144.9538 244.831,145.8718 C245.834,146.7898 247.131,147.2488 248.725,147.2488 C249.379,147.2488 250.072,147.1648 250.809,146.9948 C251.545,146.8268 252.324,146.5968 253.146,146.3068 C253.459,146.1858 253.749,146.1378 254.015,146.1628 C254.281,146.1858 254.504,146.2588 254.686,146.3798 C254.867,146.5008 255.006,146.6568 255.102,146.8498 C255.199,147.0438 255.248,147.2488 255.248,147.4658 C255.248,147.7078 255.193,147.9378 255.084,148.1548 C254.975,148.3718 254.763,148.5768 254.451,148.7698 C254.16,148.9398 253.791,149.0958 253.345,149.2408 C252.898,149.3868 252.414,149.5068 251.896,149.6038 C251.377,149.6998 250.839,149.7778 250.284,149.8388 C249.728,149.8988 249.197,149.9298 248.69,149.9298 C247.434,149.9298 246.311,149.7428 245.321,149.3678 C244.33,148.9948 243.485,148.4628 242.784,147.7738 C242.084,147.0858 241.54,146.2648 241.153,145.3108 C240.768,144.3568 240.538,143.2998 240.466,142.1398 C240.417,141.4408 240.399,140.6788 240.411,139.8578 C240.423,139.0368 240.453,138.3488 240.502,137.7938 C240.598,136.6338 240.864,135.5888 241.299,134.6588 C241.733,133.7298 242.301,132.9388 243.002,132.2868 C243.702,131.6338 244.517,131.1398 245.447,130.8008 C246.377,130.4628 247.397,130.2938 248.508,130.2938 C249.691,130.2938 250.767,130.4878 251.733,130.8728 C252.699,131.2598 253.52,131.8038 254.197,132.5038 C254.873,133.2048 255.392,134.0308 255.754,134.9858 C256.117,135.9388 256.298,136.9958 256.298,138.1548 L256.298,139.2428 Z" id="Fill-19" fill="#231F20"></path>
            <path d="M269.4091,149.3144 C268.9241,149.5074 268.3581,149.6584 267.7061,149.7674 C267.0531,149.8764 266.3771,149.9294 265.6771,149.9294 C264.7111,149.9294 263.8761,149.7784 263.1711,149.4764 C262.4671,149.1754 261.8821,148.7594 261.4181,148.2264 C260.9531,147.6954 260.6111,147.0624 260.3921,146.3244 C260.1711,145.5884 260.0611,144.7974 260.0611,143.9514 L260.0611,128.1924 C260.0611,127.7824 260.2011,127.4324 260.4831,127.1414 C260.7641,126.8524 261.1131,126.7074 261.5281,126.7074 C261.9441,126.7074 262.2981,126.8524 262.5911,127.1414 C262.8841,127.4324 263.0321,127.7824 263.0321,128.1924 L263.0321,131.1624 L268.5031,131.1624 C268.8651,131.1624 269.1841,131.2894 269.4631,131.5434 C269.7401,131.7974 269.8791,132.1174 269.8791,132.5044 C269.8791,132.8894 269.7401,133.2094 269.4631,133.4634 C269.1841,133.7174 268.8651,133.8444 268.5031,133.8444 L263.0321,133.8444 L263.0321,144.0604 C263.0321,144.9784 263.2491,145.7324 263.6841,146.3244 C264.1181,146.9174 264.8311,147.2124 265.8211,147.2124 C266.3521,147.2124 266.8601,147.1344 267.3441,146.9764 C267.8261,146.8204 268.2851,146.6814 268.7211,146.5604 C269.3241,146.4154 269.7891,146.4884 270.1151,146.7774 C270.4401,147.0674 270.6041,147.4414 270.6041,147.9004 C270.6041,148.5774 270.2051,149.0484 269.4091,149.3144" id="Fill-21" fill="#231F20"></path>
            <path d="M288.4813,147.2856 C289.2043,147.2856 289.8473,147.2306 290.4123,147.1216 C290.9793,147.0136 291.4533,146.8866 291.8383,146.7416 C292.2243,146.5976 292.5363,146.4456 292.7773,146.2886 C293.0173,146.1316 293.1733,146.0176 293.2453,145.9436 L293.2453,141.1996 C292.3313,140.9576 291.4953,140.7636 290.7373,140.6196 C289.9793,140.4736 289.1443,140.4016 288.2303,140.4016 C287.0023,140.4016 285.9683,140.6856 285.1253,141.2526 C284.2833,141.8206 283.8623,142.6356 283.8623,143.6976 C283.8623,144.8576 284.2413,145.7446 285.0003,146.3616 C285.7563,146.9766 286.9173,147.2856 288.4813,147.2856 L288.4813,147.2856 Z M296.1453,146.7056 C296.1453,146.9716 296.1023,147.2006 296.0183,147.3946 C295.9323,147.5876 295.7703,147.7556 295.5283,147.9006 C295.2863,148.0946 294.9303,148.3066 294.4593,148.5346 C293.9893,148.7646 293.4323,148.9826 292.7933,149.1876 C292.1533,149.3926 291.4343,149.5666 290.6373,149.7126 C289.8403,149.8576 289.0073,149.9296 288.1383,149.9296 C285.7473,149.9296 283.9403,149.3556 282.7223,148.2086 C281.5013,147.0626 280.8923,145.5826 280.8923,143.7716 C280.8923,142.9736 281.0423,142.2196 281.3453,141.5066 C281.6463,140.7936 282.0993,140.1726 282.7033,139.6406 C283.3063,139.1096 284.0623,138.6866 284.9683,138.3736 C285.8743,138.0596 286.9423,137.9016 288.1733,137.9016 C289.0433,137.9016 289.8703,137.9616 290.6553,138.0826 C291.4403,138.2036 292.3043,138.3966 293.2453,138.6626 L293.2453,137.1766 C293.2453,135.7046 292.8773,134.6416 292.1413,133.9886 C291.4033,133.3366 290.2623,133.0106 288.7173,133.0106 C287.8723,133.0106 287.0753,133.1196 286.3263,133.3366 C285.5773,133.5536 284.9373,133.7606 284.4063,133.9526 C283.7783,134.1946 283.2703,134.1826 282.8843,133.9166 C282.4973,133.6516 282.3043,133.2886 282.3043,132.8296 C282.3043,132.5636 282.3773,132.3096 282.5223,132.0686 C282.6673,131.8276 282.9083,131.6226 283.2473,131.4526 C283.8023,131.1866 284.5933,130.9286 285.6203,130.6746 C286.6463,130.4206 287.7753,130.2936 289.0073,130.2936 C290.0943,130.2936 291.0713,130.4266 291.9423,130.6926 C292.8113,130.9586 293.5593,131.3626 294.1883,131.9056 C294.8153,132.4496 295.2993,133.1496 295.6373,134.0066 C295.9753,134.8646 296.1453,135.8856 296.1453,137.0686 L296.1453,146.7056 Z" id="Fill-23" fill="#231F20"></path>
            <path d="M316.6027,148.2267 C316.6027,148.6617 316.4687,149.0237 316.1987,149.3147 C315.9297,149.6037 315.5757,149.7487 315.1357,149.7487 C314.7207,149.7487 314.3647,149.6037 314.0717,149.3147 C313.7797,149.0237 313.6317,148.6617 313.6317,148.2267 L313.6317,137.8287 C313.6317,137.0087 313.4997,136.2957 313.2347,135.6917 C312.9697,135.0887 312.6207,134.5927 312.1877,134.2057 C311.7557,133.8197 311.2437,133.5357 310.6547,133.3547 C310.0647,133.1747 309.4447,133.0827 308.7947,133.0827 C307.7847,133.0827 306.8217,133.2097 305.9067,133.4637 C304.9927,133.7177 304.2957,133.9887 303.8137,134.2787 L303.8137,148.2267 C303.8137,148.6617 303.6727,149.0237 303.3927,149.3147 C303.1107,149.6037 302.7627,149.7487 302.3457,149.7487 C301.9307,149.7487 301.5757,149.6037 301.2827,149.3147 C300.9897,149.0237 300.8437,148.6617 300.8437,148.2267 L300.8437,133.5537 C300.8437,133.2157 300.8967,132.9567 301.0057,132.7747 C301.1147,132.5947 301.2777,132.4187 301.4967,132.2497 C301.7377,132.0577 302.0897,131.8457 302.5497,131.6157 C303.0087,131.3867 303.5487,131.1757 304.1647,130.9817 C304.7827,130.7887 305.4847,130.6257 306.2717,130.4927 C307.0597,130.3607 307.9247,130.2937 308.8687,130.2937 C311.4347,130.2937 313.3657,130.9277 314.6607,132.1957 C315.9557,133.4637 316.6027,135.2937 316.6027,137.6847 L316.6027,148.2267 Z" id="Fill-25" fill="#231F20"></path>
            <path d="M323.7511,142.3942 C324.0391,145.5822 325.7361,147.1772 328.8401,147.1772 C329.2731,147.1772 329.7311,147.1282 330.2121,147.0312 C330.6931,146.9352 331.1501,146.8142 331.5841,146.6692 C332.0161,146.5242 332.4131,146.3612 332.7741,146.1792 C333.1361,145.9992 333.4131,145.8352 333.6061,145.6912 L333.6061,134.3152 C333.1711,134.0492 332.4861,133.7712 331.5481,133.4822 C330.6091,133.1912 329.5981,133.0472 328.5151,133.0472 C326.9501,133.0472 325.7961,133.4402 325.0501,134.2242 C324.3041,135.0102 323.8711,136.1502 323.7511,137.6482 C323.7271,137.9142 323.7081,138.2522 323.6961,138.6622 C323.6841,139.0742 323.6791,139.5082 323.6791,139.9662 C323.6791,140.4262 323.6841,140.8672 323.6961,141.2892 C323.7081,141.7122 323.7271,142.0802 323.7511,142.3942 M320.7801,137.5032 C320.9731,135.2332 321.7101,133.4632 322.9911,132.1952 C324.2701,130.9282 326.0691,130.2932 328.3881,130.2932 C329.3781,130.2932 330.3321,130.4142 331.2501,130.6562 C332.1681,130.8972 332.9531,131.1622 333.6061,131.4532 L333.6061,125.3662 C333.6061,124.9562 333.7461,124.6002 334.0271,124.2972 C334.3081,123.9962 334.6571,123.8442 335.0731,123.8442 C335.5121,123.8442 335.8731,123.9962 336.1551,124.2972 C336.4351,124.6002 336.5761,124.9562 336.5761,125.3662 L336.5761,146.5602 C336.5761,146.8262 336.5391,147.0442 336.4671,147.2122 C336.3941,147.3822 336.2241,147.5622 335.9581,147.7552 C335.7411,147.9012 335.4011,148.1002 334.9411,148.3532 C334.4821,148.6072 333.9321,148.8492 333.2901,149.0792 C332.6471,149.3082 331.9461,149.5072 331.1841,149.6752 C330.4211,149.8452 329.6291,149.9292 328.8061,149.9292 C326.3841,149.9292 324.4901,149.2712 323.1221,147.9562 C321.7541,146.6382 320.9741,144.8572 320.7801,142.6112 C320.7551,142.2982 320.7371,141.9172 320.7261,141.4702 C320.7141,141.0232 320.7081,140.5582 320.7081,140.0752 C320.7081,139.5922 320.7141,139.1272 320.7261,138.6812 C320.7371,138.2342 320.7551,137.8422 320.7801,137.5032" id="Fill-27" fill="#231F20"></path>
            <path d="M369.8339,140.933 C369.8339,142.137 369.5979,143.288 369.1269,144.383 C368.6549,145.479 367.9899,146.443 367.1299,147.275 C366.2709,148.106 365.2369,148.761 364.0269,149.244 C362.8169,149.725 361.4749,149.966 359.9989,149.966 C358.5469,149.966 357.1909,149.706 355.9339,149.187 C354.6769,148.667 353.5819,147.956 352.6489,147.05 C351.7179,146.144 350.9679,145.075 350.3989,143.843 C349.8299,142.611 349.4969,141.283 349.4019,139.858 C349.2569,137.878 349.2569,135.922 349.4019,133.988 C349.4969,132.564 349.8359,131.236 350.4159,130.004 C350.9949,128.772 351.7509,127.703 352.6789,126.797 C353.6099,125.891 354.6959,125.18 355.9409,124.66 C357.1839,124.141 358.5319,123.881 359.9799,123.881 C362.0569,123.881 363.8929,124.377 365.4869,125.367 C367.0809,126.357 368.3009,127.721 369.1459,129.461 C369.2419,129.654 369.2909,129.895 369.2909,130.185 C369.2909,130.596 369.1459,130.94 368.8559,131.217 C368.5669,131.496 368.2169,131.634 367.8049,131.634 C367.5159,131.634 367.2559,131.556 367.0259,131.398 C366.7969,131.242 366.6219,131.054 366.5009,130.837 C365.8729,129.582 365.0099,128.586 363.9109,127.848 C362.8109,127.112 361.5139,126.744 360.0159,126.744 C358.9539,126.744 357.9749,126.93 357.0809,127.305 C356.1879,127.68 355.4089,128.193 354.7449,128.844 C354.0809,129.496 353.5439,130.275 353.1319,131.181 C352.7219,132.087 352.4679,133.072 352.3719,134.134 C352.2269,136.042 352.2269,137.902 352.3719,139.714 C352.4679,140.777 352.7219,141.761 353.1319,142.666 C353.5439,143.571 354.0869,144.351 354.7629,145.003 C355.4389,145.655 356.2179,146.169 357.0999,146.542 C357.9809,146.917 358.9539,147.104 360.0159,147.104 C361.0299,147.104 361.9599,146.958 362.8059,146.669 C363.6509,146.38 364.3759,145.975 364.9789,145.456 C365.5839,144.937 366.0489,144.314 366.3749,143.589 C366.6999,142.865 366.8639,142.08 366.8639,141.235 L366.8639,138.988 L361.6829,138.988 C361.2719,138.988 360.9159,138.852 360.6139,138.577 C360.3109,138.304 360.1609,137.963 360.1609,137.558 C360.1609,137.152 360.3109,136.813 360.6139,136.538 C360.9159,136.264 361.2719,136.126 361.6829,136.126 L367.3029,136.126 C368.1349,136.126 368.7649,136.361 369.1929,136.831 C369.6199,137.301 369.8339,137.873 369.8339,138.548 L369.8339,140.933 Z" id="Fill-29" fill="#231F20"></path>
            <path d="M382.9552,130.6974 C383.7282,130.8924 384.1152,131.3574 384.1152,132.0914 C384.1152,132.3854 384.0002,132.6844 383.7702,132.9884 C383.5412,133.2924 383.1722,133.4454 382.6662,133.4454 C382.3032,133.4454 381.8932,133.3974 381.4342,133.3014 C380.9752,133.2044 380.4322,133.1554 379.8032,133.1554 C378.7892,133.1804 378.0472,133.4514 377.5752,133.9684 C377.1042,134.4874 376.8692,135.3004 376.8692,136.4094 L376.8692,148.2674 C376.8692,148.6764 376.7252,149.0264 376.4342,149.3144 C376.1452,149.6034 375.7942,149.7494 375.3842,149.7494 C374.9732,149.7494 374.6222,149.6034 374.3332,149.3144 C374.0432,149.0234 373.8992,148.6744 373.8992,148.2634 L373.8992,136.0534 C373.8992,134.2664 374.4052,132.8604 375.4202,131.8334 C376.4342,130.8074 377.8952,130.2934 379.8032,130.2934 C380.4322,130.2934 381.0292,130.3304 381.5962,130.4044 C382.1642,130.4774 382.6172,130.5754 382.9552,130.6974" id="Fill-31" fill="#231F20"></path>
            <path d="M398.3715,138.8798 C398.6365,138.8798 398.7935,138.7348 398.8425,138.4448 C398.8905,137.6248 398.8125,136.8758 398.6075,136.1988 C398.4005,135.5228 398.0805,134.9428 397.6465,134.4598 C397.2115,133.9778 396.6805,133.6028 396.0525,133.3368 C395.4245,133.0718 394.7245,132.9388 393.9515,132.9388 C392.1635,132.9388 390.8365,133.4758 389.9655,134.5498 C389.0965,135.6258 388.6855,137.0678 388.7345,138.8798 L398.3715,138.8798 Z M401.7045,139.2428 C401.7045,139.8708 401.5355,140.3778 401.1975,140.7638 C400.8585,141.1508 400.3145,141.3428 399.5665,141.3428 L388.7345,141.3428 L388.7345,141.9228 C388.7345,143.6378 389.2355,144.9538 390.2375,145.8718 C391.2405,146.7898 392.5375,147.2488 394.1315,147.2488 C394.7855,147.2488 395.4785,147.1648 396.2155,146.9948 C396.9515,146.8268 397.7305,146.5968 398.5525,146.3068 C398.8655,146.1858 399.1555,146.1378 399.4215,146.1628 C399.6875,146.1858 399.9105,146.2588 400.0925,146.3798 C400.2735,146.5008 400.4125,146.6568 400.5085,146.8498 C400.6055,147.0438 400.6545,147.2488 400.6545,147.4658 C400.6545,147.7078 400.5995,147.9378 400.4905,148.1548 C400.3815,148.3718 400.1695,148.5768 399.8575,148.7698 C399.5665,148.9398 399.1975,149.0958 398.7515,149.2408 C398.3045,149.3868 397.8205,149.5068 397.3025,149.6038 C396.7835,149.6998 396.2455,149.7778 395.6905,149.8388 C395.1345,149.8988 394.6035,149.9298 394.0965,149.9298 C392.8405,149.9298 391.7175,149.7428 390.7275,149.3678 C389.7365,148.9948 388.8915,148.4628 388.1905,147.7738 C387.4905,147.0858 386.9465,146.2648 386.5595,145.3108 C386.1745,144.3568 385.9445,143.2998 385.8725,142.1398 C385.8235,141.4408 385.8055,140.6788 385.8175,139.8578 C385.8295,139.0368 385.8595,138.3488 385.9085,137.7938 C386.0045,136.6338 386.2705,135.5888 386.7055,134.6588 C387.1395,133.7298 387.7075,132.9388 388.4085,132.2868 C389.1085,131.6338 389.9235,131.1398 390.8535,130.8008 C391.7835,130.4628 392.8035,130.2938 393.9145,130.2938 C395.0975,130.2938 396.1735,130.4878 397.1395,130.8728 C398.1055,131.2598 398.9265,131.8038 399.6035,132.5038 C400.2795,133.2048 400.7985,134.0308 401.1605,134.9858 C401.5235,135.9388 401.7045,136.9958 401.7045,138.1548 L401.7045,139.2428 Z" id="Fill-33" fill="#231F20"></path>
            <path d="M417.7709,138.8798 C418.0359,138.8798 418.1929,138.7348 418.2419,138.4448 C418.2899,137.6248 418.2119,136.8758 418.0069,136.1988 C417.7999,135.5228 417.4799,134.9428 417.0459,134.4598 C416.6109,133.9778 416.0799,133.6028 415.4519,133.3368 C414.8239,133.0718 414.1239,132.9388 413.3509,132.9388 C411.5629,132.9388 410.2359,133.4758 409.3649,134.5498 C408.4959,135.6258 408.0849,137.0678 408.1339,138.8798 L417.7709,138.8798 Z M421.1039,139.2428 C421.1039,139.8708 420.9349,140.3778 420.5969,140.7638 C420.2579,141.1508 419.7139,141.3428 418.9659,141.3428 L408.1339,141.3428 L408.1339,141.9228 C408.1339,143.6378 408.6349,144.9538 409.6369,145.8718 C410.6399,146.7898 411.9369,147.2488 413.5309,147.2488 C414.1849,147.2488 414.8779,147.1648 415.6149,146.9948 C416.3509,146.8268 417.1299,146.5968 417.9519,146.3068 C418.2649,146.1858 418.5549,146.1378 418.8209,146.1628 C419.0869,146.1858 419.3099,146.2588 419.4919,146.3798 C419.6729,146.5008 419.8119,146.6568 419.9079,146.8498 C420.0049,147.0438 420.0539,147.2488 420.0539,147.4658 C420.0539,147.7078 419.9989,147.9378 419.8899,148.1548 C419.7809,148.3718 419.5689,148.5768 419.2569,148.7698 C418.9659,148.9398 418.5969,149.0958 418.1509,149.2408 C417.7039,149.3868 417.2199,149.5068 416.7019,149.6038 C416.1829,149.6998 415.6449,149.7778 415.0899,149.8388 C414.5339,149.8988 414.0029,149.9298 413.4959,149.9298 C412.2399,149.9298 411.1169,149.7428 410.1269,149.3678 C409.1359,148.9948 408.2909,148.4628 407.5899,147.7738 C406.8899,147.0858 406.3459,146.2648 405.9589,145.3108 C405.5739,144.3568 405.3439,143.2998 405.2719,142.1398 C405.2229,141.4408 405.2049,140.6788 405.2169,139.8578 C405.2289,139.0368 405.2589,138.3488 405.3079,137.7938 C405.4039,136.6338 405.6699,135.5888 406.1049,134.6588 C406.5389,133.7298 407.1069,132.9388 407.8079,132.2868 C408.5079,131.6338 409.3229,131.1398 410.2529,130.8008 C411.1829,130.4628 412.2029,130.2938 413.3139,130.2938 C414.4969,130.2938 415.5729,130.4878 416.5389,130.8728 C417.5049,131.2598 418.3259,131.8038 419.0029,132.5038 C419.6789,133.2048 420.1979,134.0308 420.5599,134.9858 C420.9229,135.9388 421.1039,136.9958 421.1039,138.1548 L421.1039,139.2428 Z" id="Fill-35" fill="#231F20"></path>
            <path d="M434.2162,149.3144 C433.7312,149.5074 433.1652,149.6584 432.5132,149.7674 C431.8602,149.8764 431.1842,149.9294 430.4842,149.9294 C429.5182,149.9294 428.6832,149.7784 427.9782,149.4764 C427.2742,149.1754 426.6892,148.7594 426.2252,148.2264 C425.7602,147.6954 425.4182,147.0624 425.1992,146.3244 C424.9782,145.5884 424.8682,144.7974 424.8682,143.9514 L424.8682,128.1924 C424.8682,127.7824 425.0082,127.4324 425.2902,127.1414 C425.5712,126.8524 425.9202,126.7074 426.3352,126.7074 C426.7512,126.7074 427.1052,126.8524 427.3982,127.1414 C427.6912,127.4324 427.8392,127.7824 427.8392,128.1924 L427.8392,131.1624 L433.3102,131.1624 C433.6722,131.1624 433.9912,131.2894 434.2702,131.5434 C434.5472,131.7974 434.6862,132.1174 434.6862,132.5044 C434.6862,132.8894 434.5472,133.2094 434.2702,133.4634 C433.9912,133.7174 433.6722,133.8444 433.3102,133.8444 L427.8392,133.8444 L427.8392,144.0604 C427.8392,144.9784 428.0562,145.7324 428.4912,146.3244 C428.9262,146.9174 429.6382,147.2124 430.6282,147.2124 C431.1592,147.2124 431.6672,147.1344 432.1512,146.9764 C432.6332,146.8204 433.0922,146.6814 433.5282,146.5604 C434.1312,146.4154 434.5962,146.4884 434.9222,146.7774 C435.2472,147.0674 435.4112,147.4414 435.4112,147.9004 C435.4112,148.5774 435.0122,149.0484 434.2162,149.3144" id="Fill-37" fill="#231F20"></path>
            <path d="M455.4808,135.33 C457.0508,135.619 458.3968,135.964 459.5198,136.361 C460.6428,136.761 461.5608,137.238 462.2738,137.793 C462.9858,138.349 463.5058,139.007 463.8318,139.767 C464.1578,140.528 464.3208,141.429 464.3208,142.466 C464.3208,143.554 464.1158,144.556 463.7058,145.474 C463.2958,146.392 462.6998,147.183 461.9168,147.847 C461.1328,148.511 460.1748,149.03 459.0418,149.405 C457.9088,149.778 456.6198,149.966 455.1728,149.966 C453.1968,149.966 451.5148,149.715 450.1288,149.214 C448.7438,148.714 447.5088,148.094 446.4228,147.354 C445.9168,147.043 445.6628,146.609 445.6628,146.053 C445.6628,145.618 445.8078,145.257 446.0968,144.966 C446.3878,144.677 446.7488,144.532 447.1848,144.532 C447.3288,144.532 447.4868,144.562 447.6548,144.622 C447.8248,144.683 448.0298,144.798 448.2718,144.966 C449.1648,145.595 450.1308,146.108 451.1688,146.506 C452.2078,146.905 453.5608,147.104 455.2268,147.104 C457.1588,147.104 458.6628,146.7 459.7378,145.889 C460.8118,145.077 461.3498,143.947 461.3498,142.496 C461.3498,141.916 461.2408,141.408 461.0238,140.972 C460.8068,140.536 460.4438,140.155 459.9378,139.828 C459.4298,139.502 458.7598,139.212 457.9258,138.958 C457.0938,138.704 456.0488,138.456 454.7928,138.213 C451.8698,137.658 449.7078,136.835 448.3078,135.746 C446.9068,134.659 446.2058,133.122 446.2058,131.138 C446.2058,130.025 446.4168,129.015 446.8408,128.108 C447.2628,127.201 447.8598,126.44 448.6338,125.823 C449.4068,125.205 450.3308,124.728 451.4048,124.389 C452.4788,124.051 453.6568,123.881 454.9378,123.881 C456.4338,123.881 457.8238,124.069 459.1038,124.443 C460.3828,124.817 461.3728,125.307 462.0748,125.91 C462.4608,126.224 462.6538,126.635 462.6538,127.142 C462.6538,127.528 462.5148,127.861 462.2378,128.138 C461.9588,128.416 461.6388,128.555 461.2778,128.555 C461.0348,128.555 460.8228,128.518 460.6408,128.446 C460.4598,128.373 460.2838,128.289 460.1148,128.193 C459.4118,127.807 458.6368,127.467 457.7888,127.178 C456.9408,126.888 455.9838,126.744 454.9178,126.744 C453.8528,126.744 452.9568,126.858 452.2288,127.088 C451.5028,127.317 450.9078,127.631 450.4478,128.029 C449.9878,128.428 449.6608,128.887 449.4678,129.406 C449.2738,129.926 449.1768,130.475 449.1768,131.054 C449.1768,131.634 449.2798,132.142 449.4848,132.576 C449.6898,133.011 450.0398,133.392 450.5358,133.717 C451.0298,134.043 451.6768,134.333 452.4738,134.587 C453.2718,134.84 454.2728,135.088 455.4808,135.33" id="Fill-39" fill="#231F20"></path>
            <path d="M479.9718,138.8798 C480.2368,138.8798 480.3938,138.7348 480.4428,138.4448 C480.4908,137.6248 480.4128,136.8758 480.2078,136.1988 C480.0008,135.5228 479.6808,134.9428 479.2468,134.4598 C478.8118,133.9778 478.2808,133.6028 477.6528,133.3368 C477.0248,133.0718 476.3248,132.9388 475.5518,132.9388 C473.7638,132.9388 472.4368,133.4758 471.5658,134.5498 C470.6968,135.6258 470.2858,137.0678 470.3348,138.8798 L479.9718,138.8798 Z M483.3048,139.2428 C483.3048,139.8708 483.1358,140.3778 482.7978,140.7638 C482.4588,141.1508 481.9148,141.3428 481.1668,141.3428 L470.3348,141.3428 L470.3348,141.9228 C470.3348,143.6378 470.8358,144.9538 471.8378,145.8718 C472.8408,146.7898 474.1378,147.2488 475.7318,147.2488 C476.3858,147.2488 477.0788,147.1648 477.8158,146.9948 C478.5518,146.8268 479.3308,146.5968 480.1528,146.3068 C480.4658,146.1858 480.7558,146.1378 481.0218,146.1628 C481.2878,146.1858 481.5108,146.2588 481.6928,146.3798 C481.8738,146.5008 482.0128,146.6568 482.1088,146.8498 C482.2058,147.0438 482.2548,147.2488 482.2548,147.4658 C482.2548,147.7078 482.1998,147.9378 482.0908,148.1548 C481.9818,148.3718 481.7698,148.5768 481.4578,148.7698 C481.1668,148.9398 480.7978,149.0958 480.3518,149.2408 C479.9048,149.3868 479.4208,149.5068 478.9028,149.6038 C478.3838,149.6998 477.8458,149.7778 477.2908,149.8388 C476.7348,149.8988 476.2038,149.9298 475.6968,149.9298 C474.4408,149.9298 473.3178,149.7428 472.3278,149.3678 C471.3368,148.9948 470.4918,148.4628 469.7908,147.7738 C469.0908,147.0858 468.5468,146.2648 468.1598,145.3108 C467.7748,144.3568 467.5448,143.2998 467.4728,142.1398 C467.4238,141.4408 467.4058,140.6788 467.4178,139.8578 C467.4298,139.0368 467.4598,138.3488 467.5088,137.7938 C467.6048,136.6338 467.8708,135.5888 468.3058,134.6588 C468.7398,133.7298 469.3078,132.9388 470.0088,132.2868 C470.7088,131.6338 471.5238,131.1398 472.4538,130.8008 C473.3838,130.4628 474.4038,130.2938 475.5148,130.2938 C476.6978,130.2938 477.7738,130.4878 478.7398,130.8728 C479.7058,131.2598 480.5268,131.8038 481.2038,132.5038 C481.8798,133.2048 482.3988,134.0308 482.7608,134.9858 C483.1238,135.9388 483.3048,136.9958 483.3048,138.1548 L483.3048,139.2428 Z" id="Fill-41" fill="#231F20"></path>
            <path d="M496.107,130.6974 C496.88,130.8924 497.267,131.3574 497.267,132.0914 C497.267,132.3854 497.152,132.6844 496.922,132.9884 C496.693,133.2924 496.324,133.4454 495.818,133.4454 C495.455,133.4454 495.045,133.3974 494.586,133.3014 C494.127,133.2044 493.584,133.1554 492.955,133.1554 C491.941,133.1804 491.199,133.4514 490.727,133.9684 C490.256,134.4874 490.021,135.3004 490.021,136.4094 L490.021,148.2674 C490.021,148.6764 489.877,149.0264 489.586,149.3144 C489.297,149.6034 488.946,149.7494 488.536,149.7494 C488.125,149.7494 487.774,149.6034 487.485,149.3144 C487.195,149.0234 487.051,148.6744 487.051,148.2634 L487.051,136.0534 C487.051,134.2664 487.557,132.8604 488.572,131.8334 C489.586,130.8074 491.047,130.2934 492.955,130.2934 C493.584,130.2934 494.181,130.3304 494.748,130.4044 C495.316,130.4774 495.769,130.5754 496.107,130.6974" id="Fill-43" fill="#231F20"></path>
            <path d="M514.4102,130.5473 C514.9412,130.5473 515.3512,130.7643 515.6422,131.1993 C515.9312,131.6333 515.9802,132.1173 515.7872,132.6483 L510.2442,147.5383 C509.6642,149.0603 508.7222,149.8213 507.4182,149.8213 C506.1622,149.8213 505.2562,149.0723 504.7012,147.5753 L499.0852,132.6123 C498.8682,132.0573 498.9102,131.5683 499.2122,131.1453 C499.5142,130.7233 499.9422,130.5103 500.4982,130.5103 C500.8112,130.5103 501.0842,130.6143 501.3132,130.8193 C501.5432,131.0243 501.7172,131.2723 501.8382,131.5613 L507.2732,146.5973 C507.3202,146.6933 507.3812,146.7413 507.4532,146.7413 C507.5262,146.7413 507.5862,146.6933 507.6352,146.5973 L512.9612,131.7073 C513.0812,131.3693 513.2692,131.0903 513.5232,130.8733 C513.7752,130.6563 514.0712,130.5473 514.4102,130.5473" id="Fill-45" fill="#231F20"></path>
            <path d="M520.6041,130.5473 C521.0201,130.5473 521.3741,130.6983 521.6671,131.0003 C521.9601,131.3033 522.1081,131.6583 522.1081,132.0683 L522.1081,148.2263 C522.1081,148.6613 521.9661,149.0243 521.6861,149.3143 C521.4051,149.6033 521.0431,149.7493 520.6041,149.7493 C520.2121,149.7493 519.8701,149.6033 519.5761,149.3143 C519.2831,149.0243 519.1371,148.6613 519.1371,148.2263 L519.1371,132.0683 C519.1371,131.6583 519.2771,131.3033 519.5591,131.0003 C519.8401,130.6983 520.1881,130.5473 520.6041,130.5473 M522.3971,125.8013 C522.3971,126.2843 522.2231,126.7133 521.8721,127.0883 C521.5221,127.4623 521.0941,127.6493 520.5861,127.6493 C520.0791,127.6493 519.6561,127.4623 519.3191,127.0883 C518.9791,126.7133 518.8111,126.2843 518.8111,125.8013 C518.8111,125.2933 518.9791,124.8653 519.3191,124.5143 C519.6561,124.1653 520.0791,123.9893 520.5861,123.9893 C521.0941,123.9893 521.5221,124.1653 521.8721,124.5143 C522.2231,124.8653 522.3971,125.2933 522.3971,125.8013" id="Fill-47" fill="#231F20"></path>
            <path d="M534.6507,147.1769 C535.5927,147.1769 536.4917,146.9289 537.3497,146.4339 C538.2067,145.9389 538.8537,145.1599 539.2877,144.0969 C539.4567,143.7349 539.6557,143.4809 539.8867,143.3369 C540.1147,143.1909 540.3867,143.1179 540.7007,143.1179 C541.0877,143.1179 541.4137,143.2589 541.6797,143.5359 C541.9447,143.8129 542.0777,144.1689 542.0777,144.6039 C542.0777,145.0149 541.9257,145.5279 541.6247,146.1439 C541.3227,146.7599 540.8637,147.3449 540.2477,147.9009 C539.6327,148.4559 538.8537,148.9339 537.9107,149.3319 C536.9687,149.7309 535.8697,149.9299 534.6137,149.9299 C533.4557,149.9299 532.3867,149.7429 531.4087,149.3679 C530.4297,148.9949 529.5877,148.4749 528.8807,147.8109 C528.1727,147.1459 527.6107,146.3679 527.1957,145.4739 C526.7807,144.5809 526.5357,143.6259 526.4637,142.6119 C526.4387,142.2489 526.4207,141.8449 526.4087,141.3979 C526.3967,140.9509 526.3907,140.4989 526.3907,140.0399 C526.3907,139.5809 526.3967,139.1279 526.4087,138.6809 C526.4207,138.2339 526.4387,137.8289 526.4637,137.4679 C526.5357,136.4039 526.7867,135.4329 527.2137,134.5499 C527.6427,133.6689 528.2167,132.9139 528.9357,132.2869 C529.6547,131.6579 530.4967,131.1699 531.4627,130.8199 C532.4277,130.4689 533.4787,130.2929 534.6137,130.2929 C535.8697,130.2929 536.9627,130.4919 537.8927,130.8919 C538.8227,131.2899 539.5897,131.7729 540.1937,132.3409 C540.7967,132.9079 541.2497,133.4939 541.5527,134.0969 C541.8537,134.7009 542.0057,135.2089 542.0057,135.6189 C542.0057,136.0539 541.8727,136.4099 541.6067,136.6869 C541.3397,136.9659 541.0147,137.1049 540.6287,137.1049 C540.3387,137.1049 540.0727,137.0319 539.8317,136.8879 C539.5897,136.7419 539.3847,136.4889 539.2157,136.1259 C538.8047,135.0639 538.1777,134.2849 537.3317,133.7899 C536.4857,133.2949 535.5927,133.0469 534.6507,133.0469 C533.1287,133.0469 531.9087,133.4639 530.9907,134.2969 C530.0727,135.1299 529.5547,136.2479 529.4337,137.6479 C529.4087,137.8899 529.3907,138.2159 529.3797,138.6259 C529.3677,139.0369 529.3617,139.4719 529.3617,139.9309 C529.3617,140.3899 529.3677,140.8429 529.3797,141.2899 C529.3907,141.7359 529.4087,142.1169 529.4337,142.4309 C529.5547,143.7829 530.0547,144.9129 530.9377,145.8179 C531.8187,146.7239 533.0567,147.1769 534.6507,147.1769" id="Fill-49" fill="#231F20"></path>
            <path d="M557.8368,138.8798 C558.1018,138.8798 558.2588,138.7348 558.3078,138.4448 C558.3558,137.6248 558.2778,136.8758 558.0728,136.1988 C557.8658,135.5228 557.5458,134.9428 557.1118,134.4598 C556.6768,133.9778 556.1458,133.6028 555.5178,133.3368 C554.8898,133.0718 554.1898,132.9388 553.4168,132.9388 C551.6288,132.9388 550.3018,133.4758 549.4308,134.5498 C548.5618,135.6258 548.1508,137.0678 548.1998,138.8798 L557.8368,138.8798 Z M561.1698,139.2428 C561.1698,139.8708 561.0008,140.3778 560.6628,140.7638 C560.3238,141.1508 559.7798,141.3428 559.0318,141.3428 L548.1998,141.3428 L548.1998,141.9228 C548.1998,143.6378 548.7008,144.9538 549.7028,145.8718 C550.7058,146.7898 552.0028,147.2488 553.5968,147.2488 C554.2508,147.2488 554.9438,147.1648 555.6808,146.9948 C556.4168,146.8268 557.1958,146.5968 558.0178,146.3068 C558.3308,146.1858 558.6208,146.1378 558.8868,146.1628 C559.1528,146.1858 559.3758,146.2588 559.5578,146.3798 C559.7388,146.5008 559.8778,146.6568 559.9738,146.8498 C560.0708,147.0438 560.1198,147.2488 560.1198,147.4658 C560.1198,147.7078 560.0648,147.9378 559.9558,148.1548 C559.8468,148.3718 559.6348,148.5768 559.3228,148.7698 C559.0318,148.9398 558.6628,149.0958 558.2168,149.2408 C557.7698,149.3868 557.2858,149.5068 556.7678,149.6038 C556.2488,149.6998 555.7108,149.7778 555.1558,149.8388 C554.5998,149.8988 554.0688,149.9298 553.5618,149.9298 C552.3058,149.9298 551.1828,149.7428 550.1928,149.3678 C549.2018,148.9948 548.3568,148.4628 547.6558,147.7738 C546.9558,147.0858 546.4118,146.2648 546.0248,145.3108 C545.6398,144.3568 545.4098,143.2998 545.3378,142.1398 C545.2888,141.4408 545.2708,140.6788 545.2828,139.8578 C545.2948,139.0368 545.3248,138.3488 545.3738,137.7938 C545.4698,136.6338 545.7358,135.5888 546.1708,134.6588 C546.6048,133.7298 547.1728,132.9388 547.8738,132.2868 C548.5738,131.6338 549.3888,131.1398 550.3188,130.8008 C551.2488,130.4628 552.2688,130.2938 553.3798,130.2938 C554.5628,130.2938 555.6388,130.4878 556.6048,130.8728 C557.5708,131.2598 558.3918,131.8038 559.0688,132.5038 C559.7448,133.2048 560.2638,134.0308 560.6258,134.9858 C560.9888,135.9388 561.1698,136.9958 561.1698,138.1548 L561.1698,139.2428 Z" id="Fill-51" fill="#231F20"></path>
            <path d="M85.1024,45.944 C85.1414,45.959 85.1684,45.986 85.1834,46.023 C85.1974,46.061 85.1974,46.1 85.1834,46.139" id="Fill-53" fill="#808184"></path>
        </g>
    </g>
</svg>