<?xml version="1.0" encoding="UTF-8"?>
<svg width="16px" height="16px" viewBox="0 0 16 16" version="1.1" xmlns="http://www.w3.org/2000/svg" xmlns:xlink="http://www.w3.org/1999/xlink">
    <title>Call</title>
    <g id="Contact-Us" stroke="none" stroke-width="1" fill="none" fill-rule="evenodd">
        <g id="1---Feedback-home---App" transform="translate(-18.000000, -1581.000000)" fill="#222222" fill-rule="nonzero">
            <g id="Group-15" transform="translate(17.000000, 1418.000000)">
                <g id="Group-18" transform="translate(1.250210, 163.000000)">
                    <g id="Call" transform="translate(0.000000, 0.250152)">
                        <path d="M4.60380978,0.000106661114 L2.18580071,9.56417285e-05 C1.55627055,-0.00581527143 0.955327578,0.262507768 0.539486565,0.735180391 C0.123645549,1.20785301 -0.065928436,1.83808425 0.0204889979,2.46437191 C0.874305369,9.17866909 6.10062206,14.4821304 12.7415205,15.4548351 L13.0747306,15.4998527 L13.3810779,15.4998527 C13.9134125,15.5006221 14.4273837,15.3053113 14.8244916,14.951531 C15.2402479,14.5796781 15.4947024,14.0635377 15.5393736,13.5113684 L15.5464668,13.3261261 L15.5464668,10.9148834 C15.528185,9.8808088 14.7813292,9.00394958 13.8074813,8.82532453 C13.740664,8.82532453 13.6733878,8.81941621 13.600434,8.80797717 L13.4417702,8.77705136 L13.2141837,8.7228406 C12.8436459,8.64118804 12.4795144,8.53278248 12.1276752,8.39959819 C11.5177215,8.17769831 10.8432236,8.41848335 10.5074203,8.95926979 L10.4407935,9.07968517 L10.1478703,9.67884624 L9.91751614,9.55070333 C9.1132413,9.10329604 8.3741826,8.54761285 7.71974146,7.89792111 C7.16396861,7.3380773 6.67631543,6.71511773 6.2665791,6.04207262 L6.06824936,5.7014366 L5.95610897,5.49984915 L6.51497734,5.12991137 C7.13955427,4.82410202 7.43294781,4.09648604 7.19577124,3.44452399 C7.06407725,3.08988152 6.95601591,2.72690625 6.87231486,2.35806126 C6.83105396,2.17651334 6.79722171,1.98409239 6.77310602,1.79757955 C6.60152943,0.802359339 5.76799689,0.0656425061 4.77134352,0.00404956683 L4.60380978,0.000106661114 Z M4.64656164,1.12671415 C5.15274337,1.1154511 5.59558306,1.46529445 5.70470889,1.97657677 C5.7360029,2.19041918 5.7751101,2.40159811 5.8223317,2.61148965 C5.88261274,2.88656701 5.95618994,3.15847566 6.04278063,3.42626316 L6.18239146,3.82473447 L6.26449421,4.04202992 L4.92547289,4.66371558 C4.79124054,4.72530299 4.68707639,4.83783213 4.63602034,4.97641284 C4.58496428,5.11499354 4.59122396,5.26820514 4.65319065,5.40167754 C5.7872337,7.83078778 7.73985163,9.78340573 10.1582054,10.9127316 C10.2933802,10.9682637 10.4449984,10.9682637 10.5909752,10.9085835 C10.702868,10.8685607 10.7981981,10.7940039 10.86295,10.6989481 L10.9055615,10.624032 L11.4988546,9.28433814 L11.7175693,9.36255475 C12.1244002,9.5080454 12.5396154,9.6289308 12.9605123,9.72445371 C13.1690415,9.77137281 13.3802203,9.81048001 13.610301,9.84470062 C14.0672647,9.94273066 14.4005071,10.3276023 14.4402572,10.7787242 L14.4439821,10.8927573 L14.4600914,13.4069647 C14.4597076,13.7100528 14.3290164,13.9983423 14.1004907,14.1991023 C13.8654134,14.4038009 13.5542656,14.4986631 13.2442412,14.4598387 C6.92755195,13.6499161 1.96304853,8.66178822 1.18270329,2.33771209 C1.14942974,2.03147046 1.24288197,1.72494715 1.44472916,1.4854275 C1.61619031,1.29025607 1.85248925,1.1663564 2.1075693,1.13469777 L2.2364612,1.12665228 L4.64656164,1.12671415 Z" id="Shape"></path>
                    </g>
                </g>
            </g>
        </g>
    </g>
</svg>