<?xml version="1.0" encoding="utf-8"?>
<!-- Generator: Adobe Illustrator 26.3.1, SVG Export Plug-In . SVG Version: 6.00 Build 0)  -->
<svg version="1.1" id="Layer_1" xmlns="http://www.w3.org/2000/svg" xmlns:xlink="http://www.w3.org/1999/xlink" x="0px" y="0px"
	 viewBox="0 0 20 20" style="enable-background:new 0 0 20 20;" xml:space="preserve">
<style type="text/css">
	.st0{fill:#555554;}
</style>
<path class="st0" d="M12.7,12.7c1.5,0,2.7-1.2,2.7-2.7V2.7c0-1.5-1.2-2.7-2.7-2.7H2.7C1.2,0,0,1.2,0,2.7v7.2c0,1.5,1.2,2.7,2.7,2.7
	h0.4V14c0,0.3,0.2,0.6,0.5,0.8c0.1,0.1,0.3,0.1,0.5,0.1c0.2,0,0.3,0,0.4-0.1l3.7-2.1H12.7z M7.4,11l-2.5,1.5v-0.7
	c0-0.5-0.4-0.9-0.9-0.9H2.7c-0.5,0-0.9-0.4-0.9-0.9V2.7c0-0.5,0.4-0.9,0.9-0.9h9.9c0.5,0,0.9,0.4,0.9,0.9v7.2c0,0.5-0.4,0.9-0.9,0.9
	H7.9C7.7,10.9,7.6,10.9,7.4,11z M20,8.5v6.7c0,1.5-1.2,2.7-2.7,2.7h-0.8v1.2c0,0.3-0.2,0.6-0.4,0.8c-0.1,0.1-0.3,0.1-0.5,0.1
	c-0.1,0-0.3,0-0.4-0.1l-3.7-2H9.4c-1.4,0-2.6-1.1-2.7-2.5c-0.1-0.5,0.3-0.9,0.8-1c0.5-0.1,0.9,0.3,1,0.8c0.1,0.5,0.4,0.8,0.9,0.8
	h2.3c0.1,0,0.3,0,0.4,0.1l2.6,1.4V17c0-0.5,0.4-0.9,0.9-0.9h1.7c0.5,0,0.9-0.4,0.9-0.9V8.5c0-0.5-0.4-0.9-0.9-0.9
	c-0.5,0-0.9-0.5-0.8-1s0.5-0.9,1-0.8C18.9,5.8,20,7,20,8.5z M11.4,4.6c0,0.5-0.4,0.9-0.9,0.9H5c-0.5,0-0.9-0.4-0.9-0.9
	S4.5,3.7,5,3.7h5.5C10.9,3.7,11.4,4.1,11.4,4.6z M8.6,7.7c0,0.5-0.4,0.9-0.9,0.9H5c-0.5,0-0.9-0.4-0.9-0.9S4.5,6.8,5,6.8h2.7
	C8.2,6.8,8.6,7.2,8.6,7.7z"/>
</svg>
