<?xml version="1.0" encoding="UTF-8"?>
<svg width="20px" height="20px" viewBox="0 0 20 20" version="1.1" xmlns="http://www.w3.org/2000/svg" xmlns:xlink="http://www.w3.org/1999/xlink">
    <title>Close</title>
    <g id="Close" stroke="none" stroke-width="1" fill="none" fill-rule="evenodd">
        <path d="M0.330135458,0.54296873 C-0.141486625,1.12082255 -0.107799333,1.97067645 0.431197333,2.50967312 L7.92060302,9.99899497 L0.431197333,17.4903269 C-0.143732444,18.0652567 -0.143732444,18.9938729 0.431197333,19.5688027 L0.54296873,19.6698645 C1.12082255,20.1414866 1.97067645,20.1077993 2.50967312,19.5688027 L10,12.078392 L17.4903269,19.5688027 C18.0652567,20.1437324 18.9938729,20.1437324 19.5688027,19.5688027 L19.6698645,19.4570313 C20.1414866,18.8791774 20.1077993,18.0293235 19.5688027,17.4903269 L12.078392,9.99899497 L19.5688027,2.50967312 C20.1284875,1.94998832 20.1284875,1.00612711 19.5688027,0.44644231 L19.4570268,0.345376623 C18.879152,-0.126260132 18.029291,-0.0925218118 17.4901813,0.446587698 L9.99899497,7.92060302 L2.50967312,0.431197333 C1.93474334,-0.143732444 1.00612711,-0.143732444 0.431197333,0.431197333 L0.330135458,0.54296873 Z" fill="#000000" fill-rule="nonzero"></path>
    </g>
</svg>