<?xml version="1.0" encoding="UTF-8"?>
<svg width="14px" height="14px" viewBox="0 0 14 14" version="1.1" xmlns="http://www.w3.org/2000/svg" xmlns:xlink="http://www.w3.org/1999/xlink">
    <title>Verified</title>
    <g id="profile-mweb" stroke="none" stroke-width="1" fill="none" fill-rule="evenodd">
        <g id="6---verify-email" transform="translate(-300.000000, -688.000000)" fill="#13A180" fill-rule="nonzero">
            <g id="Group-4" transform="translate(0.000000, 416.000000)">
                <g id="Group-24" transform="translate(16.000000, 249.000000)">
                    <g id="Group-28" transform="translate(284.000000, 18.000000)">
                        <g id="Verified" transform="translate(0.000000, 5.000000)">
                            <path d="M7,0 C5.14358549,0 3.36312077,0.737476544 2.05020832,2.05018899 C0.737476544,3.36312077 0,5.14358549 0,7 C0,8.85641449 0.737476544,10.6368793 2.05018899,11.9497917 C3.36312077,13.2625235 5.14358549,14 7,14 C8.85641449,14 10.6368793,13.2625235 11.9497917,11.949811 C13.2625235,10.6368793 14,8.85641449 14,7 C14,5.14358549 13.2625235,3.36312077 11.949811,2.05020832 C10.6368793,0.737476544 8.85641449,0 7,0 Z M7,1.43589744 C8.47566426,1.43589744 9.89086623,2.02211168 10.9344005,3.065593 C11.9778933,4.10903273 12.5641025,5.52427058 12.5641025,7 C12.5641025,8.47566426 11.9778883,9.89086623 10.934407,10.9344005 C9.89096724,11.9778933 8.47572943,12.5641025 7,12.5641025 C5.52433571,12.5641025 4.10913375,11.9778883 3.06559944,10.934407 C2.02210672,9.89096724 1.43589744,8.47572943 1.43589744,7 C1.43589744,5.52433571 2.02211168,4.10913375 3.065593,3.06559944 C4.10903273,2.02210672 5.52427058,1.43589744 7,1.43589744 Z M9.87902629,4.50807596 C9.66120568,4.44969587 9.43056982,4.49690268 9.25424108,4.63158231 L9.18219218,4.69460482 L6.10226928,7.78394288 L4.81807565,6.48973447 C4.63557411,6.30741698 4.36989974,6.23622806 4.12095823,6.30295465 C3.87180704,6.36969231 3.67740218,6.56409944 3.61065545,6.81327627 C3.55227536,7.03109687 3.59948217,7.26173273 3.73429165,7.43819118 L3.79737814,7.51030392 L5.59164075,9.3045694 C5.72738118,9.43901609 5.9107826,9.51394773 6.10360936,9.51287476 C6.26257283,9.51376489 6.41642459,9.46188495 6.54149176,9.36710929 L6.61288853,9.30517574 L10.2025681,5.71549616 C10.3848856,5.53299462 10.4560745,5.26732025 10.3893479,5.01837875 C10.3300256,4.79691102 10.1698285,4.61869965 9.9599738,4.53495751 L9.87902629,4.50807596 Z" id="Shape"></path>
                        </g>
                    </g>
                </g>
            </g>
        </g>
    </g>
</svg>