<?xml version="1.0" encoding="UTF-8"?>
<svg height="20px" version="1.1" viewBox="0 0 20 20" width="20px"
    xmlns="http://www.w3.org/2000/svg">
    <title>FAQs</title>
    <g fill="none" fill-rule="evenodd" id="FAQs-" stroke="none" stroke-width="1">
        <path
            d="M16.6544462,1 C18.3611098,1 19.7893147,2.19349662 19.9790239,3.75842724 L19.9949573,3.93379519 L20,4.10380716 L20,12.807035 C20,14.3950031 18.6972865,15.7116137 17.0231481,15.8854234 L16.8356515,15.8999884 L16.654426,15.9045878 L9.52097561,15.9038823 L5.73728855,18.6229116 L5.6532919,18.6742051 L5.56135328,18.7179069 L5.45800966,18.7548227 L5.31518562,18.7850624 L5.18695589,18.794103 C5.04371523,18.794103 4.90860398,18.7621698 4.75189476,18.6911875 C4.50882982,18.5666908 4.33144663,18.3458128 4.26034494,18.0760359 L4.23649818,17.9575618 L4.22887519,17.8418984 L4.22731707,15.8980287 L3.35190345,15.8983334 C1.77525865,15.8983334 0.426871278,14.8834887 0.0833687236,13.4874633 L0.0470215684,13.3181512 L0.0206195324,13.145423 L0.00505816933,12.9706168 L0,12.8007806 L0,4.0975528 C0,2.50594463 1.30094823,1.19243634 2.9815553,1.01911068 L3.169805,1.00458818 L3.35190345,1 L16.6544462,1 Z M16.5706077,3 L3.43574201,3 C2.72940751,3 2.14328168,3.43064264 2.02347344,3.97272601 L2.00583191,4.08253398 L2,4.19293949 L2,12.7070605 C2,13.2775612 2.49438968,13.7746545 3.1627402,13.8792392 L3.29863484,13.8948282 L3.43574201,13.9 L5.18695589,13.9 C5.62753928,13.9 6.00823612,14.2025085 6.11658057,14.6303002 L6.13786972,14.7397556 L6.14503659,14.8524037 L6.14439024,15.880981 L8.6623092,14.0711914 C8.75401657,14.0086546 8.85408406,13.9623387 8.96701988,13.9328702 L9.08441213,13.9090406 L9.21264186,13.9 L16.5706077,13.9 C17.2754057,13.9 17.8576236,13.4707573 17.9766702,12.9277724 L17.994203,12.8177523 L18,12.7070605 L18,4.19293949 C18,3.54643617 17.3676861,3 16.5706077,3 Z M10.0661762,11.0710072 L10.1865332,11.1106885 L10.3000886,11.1680262 C10.3711002,11.2091887 10.4332406,11.2565982 10.4895868,11.3124892 C10.671872,11.4933019 10.7730516,11.7384508 10.7730516,11.999043 C10.7730516,12.1158654 10.7524577,12.2232312 10.6985404,12.3757271 C10.6721092,12.4347169 10.639379,12.4925171 10.5999192,12.5474436 L10.5356285,12.6274676 L10.5115572,12.6496668 C10.4207089,12.7526547 10.3157854,12.8245336 10.1508793,12.8945438 C10.0412322,12.9307975 9.92872977,12.95 9.81805156,12.95 C9.59636897,12.95 9.38428151,12.8780786 9.23989056,12.7603859 L9.17360545,12.6978463 C9.07479374,12.6138348 9.00503331,12.5120955 8.94393149,12.3757271 C8.89115713,12.257944 8.86305156,12.1268449 8.86305156,11.999043 C8.86305156,11.8663959 8.89051698,11.7352533 8.94393149,11.6160416 C8.96449905,11.5701384 8.98755577,11.5265714 9.01564967,11.481927 L9.06188693,11.4137256 L9.12994271,11.3298679 L9.14651635,11.3124892 C9.38504851,11.075884 9.74068842,10.986947 10.0661762,11.0710072 Z M9.81575018,4.04 C11.2844888,4.04 12.4902316,5.14022757 12.4902316,6.50728499 C12.4902316,7.46732206 11.9033126,8.32525591 10.9764744,8.73370297 C10.8798558,8.77707152 10.8161703,8.83554317 10.7886877,8.88374566 L10.7749149,8.91757562 L10.7684488,8.97126446 L10.7684488,9.51259328 C10.7684488,10.0319167 10.3380657,10.4554465 9.81575018,10.4554465 C9.37794509,10.4554465 8.99924695,10.1562222 8.89140914,9.73271207 L8.87021515,9.6243465 L8.86305156,9.51259328 L8.86305156,8.97126446 C8.86305156,8.24084961 9.25289822,7.57398567 9.90081739,7.17260535 L10.0435593,7.09073239 L10.1914259,7.01913231 C10.4402195,6.90667703 10.5848343,6.70928795 10.5848343,6.51350717 C10.5848343,6.20545343 10.2481146,5.92570651 9.81575018,5.92570651 C9.6385991,5.92570651 9.47319236,5.97187792 9.34592291,6.04915147 L9.25803396,6.11270283 L9.1804422,6.18907758 C8.83677889,6.57550145 8.24655787,6.61897904 7.84211968,6.2846973 C7.44185254,5.94328055 7.39581523,5.3384578 7.74403217,4.94691462 C8.25644252,4.36905762 9.0101607,4.04 9.81575018,4.04 Z"
            fill="#000000" fill-rule="nonzero" id="Combined-Shape"></path>
    </g>
</svg>