<?xml version="1.0" encoding="UTF-8"?>
<svg width="20px" height="20px" viewBox="0 0 20 20" version="1.1" xmlns="http://www.w3.org/2000/svg" xmlns:xlink="http://www.w3.org/1999/xlink">
    <title>Feedback</title>
    <g id="Feedback" stroke="none" stroke-width="1" fill="none" fill-rule="evenodd">
        <path d="M16.6544462,1 C18.3611098,1 19.7893147,2.19349662 19.9790239,3.75842724 L19.9949573,3.93379519 L20,4.10380716 L20,12.807035 C20,14.3950031 18.6972865,15.7116137 17.0231481,15.8854234 L16.8356515,15.8999884 L16.654426,15.9045878 L9.52097561,15.9038823 L5.73728855,18.6229116 L5.6532919,18.6742051 L5.56135328,18.7179069 L5.45800966,18.7548227 L5.31518562,18.7850624 L5.18695589,18.794103 C5.04371523,18.794103 4.90860398,18.7621698 4.75189476,18.6911875 C4.50882982,18.5666908 4.33144663,18.3458128 4.26034494,18.0760359 L4.23649818,17.9575618 L4.22887519,17.8418984 L4.22731707,15.8980287 L3.35190345,15.8983334 C1.77525865,15.8983334 0.426871278,14.8834887 0.0833687236,13.4874633 L0.0470215684,13.3181512 L0.0206195324,13.145423 L0.00505816933,12.9706168 L0,12.8007806 L0,4.0975528 C0,2.50594463 1.30094823,1.19243634 2.9815553,1.01911068 L3.169805,1.00458818 L3.35190345,1 L16.6544462,1 Z M16.5706077,3 L3.43574201,3 C2.72940751,3 2.14328168,3.43064264 2.02347344,3.97272601 L2.00583191,4.08253398 L2,4.19293949 L2,12.7070605 C2,13.2775612 2.49438968,13.7746545 3.1627402,13.8792392 L3.29863484,13.8948282 L3.43574201,13.9 L5.18695589,13.9 C5.62753928,13.9 6.00823612,14.2025085 6.11658057,14.6303002 L6.13786972,14.7397556 L6.14503659,14.8524037 L6.14439024,15.880981 L8.6623092,14.0711914 C8.75401657,14.0086546 8.85408406,13.9623387 8.96701988,13.9328702 L9.08441213,13.9090406 L9.21264186,13.9 L16.5706077,13.9 C17.2754057,13.9 17.8576236,13.4707573 17.9766702,12.9277724 L17.994203,12.8177523 L18,12.7070605 L18,4.19293949 C18,3.54643617 17.3676861,3 16.5706077,3 Z M10,9.39808277 C10.5255786,9.39808277 10.9580807,9.82615449 10.9580807,10.3503894 C10.9580807,10.790136 10.6521536,11.1675462 10.2224591,11.2746273 L10.1125624,11.2956454 L10,11.3026961 L4.93296939,11.3026961 C4.40739075,11.3026961 3.97488867,10.8746244 3.97488867,10.3503894 C3.97488867,9.91064284 4.28081583,9.53323263 4.71051033,9.42615151 L4.82040703,9.40513345 L4.93296939,9.39808277 L10,9.39808277 Z M15.0606809,5.43662898 C15.5907028,5.43662898 16.0251113,5.8627643 16.0251113,6.38893563 C16.0251113,6.82868221 15.7191842,7.20609243 15.2894897,7.31317354 L15.179593,7.3341916 L15.0670306,7.34124228 L4.93296939,7.34124228 C4.40739075,7.34124228 3.97488867,6.91317056 3.97488867,6.38893563 C3.97488867,5.94918905 4.28081583,5.57177883 4.71051033,5.46469772 L4.82040703,5.44367966 L4.93296939,5.43662898 L15.0606809,5.43662898 Z" fill="#000000" fill-rule="nonzero"></path>
    </g>
</svg>