<svg width="82" height="16" viewBox="0 0 82 16" xmlns="http://www.w3.org/2000/svg">
    <g fill="none" fill-rule="evenodd">
        <path stroke="#999" stroke-linecap="square" stroke-dasharray="2,4" d="M4 8.5h74.5"/>
        <circle fill="#999" cx="2.5" cy="8.5" r="2.5"/>
        <circle fill="#999" cx="79.5" cy="8.5" r="2.5"/>
        <circle fill="#FFF" cx="41" cy="8" r="8"/>
        <path d="M45.204 8.145a.55.55 0 0 1-.546.546h-3.84a.55.55 0 0 1-.545-.546V4.211a.55.55 0 0 1 .545-.546.55.55 0 0 1 .546.546V7.6h3.294c.306 0 .546.247.546.545zM48.222 8c0 3.985-3.244 7.222-7.222 7.222-.582 0-1.15-.073-1.695-.204A7.18 7.18 0 0 1 33.778 8c0-.756.117-1.49.342-2.19A7.211 7.211 0 0 1 41 .779 7.226 7.226 0 0 1 48.222 8zM47.13 8c0-3.382-2.75-6.13-6.131-6.13a6.124 6.124 0 0 0-5.84 4.275A5.889 5.889 0 0 0 34.87 8a6.089 6.089 0 0 0 4.697 5.956c.466.117.946.175 1.44.175 3.375 0 6.124-2.75 6.124-6.131z" fill="#999" fill-rule="nonzero"/>
    </g>
</svg>
