<?xml version="1.0" encoding="UTF-8"?>
<svg width="26px" height="26px" viewBox="0 0 26 26" version="1.1" xmlns="http://www.w3.org/2000/svg" xmlns:xlink="http://www.w3.org/1999/xlink">
    <title>flight-246</title>
    <g id="Page-1" stroke="none" stroke-width="1" fill="none" fill-rule="evenodd">
        <g id="1.7---Home---Mumbai-Airports---Hamburger-Logged-Out---Desktop" transform="translate(-24.000000, -239.000000)" fill-rule="nonzero">
            <g id="Group-4" transform="translate(24.000000, 109.000000)">
                <g id="flight-246" transform="translate(0.000000, 130.000000)">
                    <rect id="Rectangle" fill="#FFFFFF" opacity="0" x="0" y="0" width="26" height="26"></rect>
                    <path d="M11.431875,23.57875 L8.945625,23.57875 C8.75875,23.57875 8.58,23.489375 8.458125,23.343125 C8.344375,23.18875 8.30375,22.99375 8.3525,22.815 L8.56375,22.043125 L10.48125,15.22625 L6.8575,15.071875 L5.33,17.40375 C5.21625,17.5825 5.02125,17.69625 4.81,17.69625 L1.681875,17.69625 C1.486875,17.69625 1.308125,17.606875 1.194375,17.444375 C1.080625,17.281875 1.048125,17.086875 1.105,16.9 L1.356875,16.111875 L2.665,12.569375 L1.373125,9.05125 L1.113125,8.230625 C1.04,8.035625 1.0725,7.8325 1.18625,7.678125 C1.3,7.52375 1.486875,7.42625 1.67375,7.42625 L4.818125,7.42625 C5.029375,7.42625 5.224375,7.54 5.338125,7.71875 L5.525,8.019375 L6.865625,10.050625 L10.489375,9.89625 L8.360625,2.3075 C8.311875,2.120625 8.3525,1.925625 8.46625,1.779375 C8.58,1.633125 8.75875,1.54375 8.95375,1.54375 L8.95375,1.54375 L11.44,1.54375 C11.65125,1.54375 11.84625,1.649375 11.951875,1.828125 L12.130625,2.1125 L16.745625,9.498125 L21.85625,9.47375 C23.554375,9.47375 24.9275,10.855 24.9275,12.545 C24.9275,14.235 23.54625,15.61625 21.85625,15.61625 L16.745625,15.61625 L11.951875,23.294375 C11.838125,23.473125 11.643125,23.57875 11.431875,23.57875 Z M9.741875,22.36 L11.09875,22.36 L15.8925,14.69 C16.00625,14.51125 16.20125,14.405625 16.4125,14.405625 L16.4125,14.405625 L21.864375,14.405625 C22.888125,14.405625 23.716875,13.576875 23.716875,12.553125 C23.716875,11.529375 22.888125,10.700625 21.864375,10.700625 L16.4125,10.725 C16.4125,10.725 16.4125,10.725 16.4125,10.725 C16.20125,10.725 16.00625,10.619375 15.8925,10.440625 L11.09875,2.7625 L9.741875,2.7625 L9.741875,2.7625 L11.870625,10.310625 C11.919375,10.489375 11.886875,10.684375 11.78125,10.830625 C11.675625,10.985 11.496875,11.074375 11.31,11.0825 L6.573125,11.285625 C6.37,11.31 6.15875,11.188125 6.036875,11.009375 L4.476875,8.645 L2.510625,8.645 L2.510625,8.645 L3.875625,12.341875 C3.924375,12.48 3.924375,12.62625 3.875625,12.764375 L2.510625,16.46125 L4.485,16.453125 L6.036875,14.096875 C6.15875,13.918125 6.38625,13.804375 6.573125,13.820625 L11.31,14.02375 C11.496875,14.031875 11.6675,14.12125 11.78125,14.275625 C11.886875,14.43 11.9275,14.616875 11.870625,14.795625 L9.741875,22.36 Z" id="Shape" fill="#333333"></path>
                </g>
            </g>
        </g>
    </g>
</svg>