<?xml version="1.0" encoding="UTF-8"?>
<svg width="243px" height="181px" viewBox="0 0 243 181" version="1.1" xmlns="http://www.w3.org/2000/svg" xmlns:xlink="http://www.w3.org/1999/xlink">
    <title>Artboard</title>
    <g id="Artboard" stroke="none" stroke-width="1" fill="none" fill-rule="evenodd">
        <g id="location-(1)" transform="translate(0.000000, -0.000000)" fill-rule="nonzero">
            <path d="M204.03,126.111402 C201.27,131.601402 200.84,138.151402 202.88,143.941402 C206.54,154.361402 217.77,163.221402 215.06,173.921402 C214.68,175.401402 214.05,176.761402 213.24,178.011402 L28.81,178.011402 C24.66,173.581402 20.83,167.381402 20.13,160.021402 C19.25,150.741402 18.76,140.701402 23.91,132.831402 C27.58,127.231402 33.62,123.621402 38.98,119.501402 C44.34,115.381402 49.47,109.971402 49.92,103.361402 C50.35,96.8514022 46.1,90.9014022 41.21,86.4214022 C36.32,81.9414022 30.58,78.2514022 26.53,73.0414022 C18.06,62.1414022 18.91,46.2214022 25.94,34.3914022 C32.97,22.5514022 45.16,14.3614022 58,8.78140219 C74.5,1.57140219 93.08,-1.91859781 110.92,1.07140219 C128.76,4.06140219 145.71,14.0114022 154.88,29.1614022 C161,39.2814022 163.98,51.8414022 173.63,58.9314022 C184.81,67.1414022 201.3,65.1914022 212.72,73.0914022 C222.8,80.0714022 226.33,94.6314022 220.49,105.241402 C216.23,113.001402 208,118.201402 204.02,126.111402 L204.03,126.111402 Z" id="Path" fill="#E6EDFF"></path>
            <g id="Group" transform="translate(54.480000, 22.685001)">
                <path d="M131.43,72.8064013 C131.43,85.7264013 127.69,97.7864013 121.24,107.936401 C109.6,126.296401 89.1,138.476401 65.77,138.476401 C65.15,138.476401 64.53,138.466401 63.91,138.456401 C28.49,137.476401 0.11,108.466401 0.11,72.8164013 C0.11,59.4364013 4.12,46.9864013 11,36.6064013 C22.73,18.8564013 42.88,7.15640127 65.76,7.15640127 C82.46,7.15640127 97.71,13.3964013 109.3,23.6664013 C122.87,35.6964013 131.42,53.2464013 131.42,72.8064013 L131.43,72.8064013 Z" id="Path" fill="#5276D5"></path>
                <path d="M121.24,107.936401 C109.6,126.296401 89.1,138.476401 65.77,138.476401 C65.15,138.476401 64.53,138.466401 63.91,138.456401 C64.08,137.226401 64.38,136.016401 64.74,134.886401 C66.31,130.036401 68.56,124.596401 66.11,120.126401 C64.69,117.516401 61.73,115.456401 61.86,112.486401 C62,109.776401 64.76,107.836401 65.19,105.156401 C65.82,101.356401 61.67,98.5464013 57.95,97.6164013 C54.22,96.6864013 49.92,96.3364013 47.48,93.3864013 C45.62,91.1464013 45.4,88.0064013 44.19,85.3564013 C42.98,82.7164013 39.6,80.4664013 37.28,82.2364013 C35.71,83.4364013 35.53,85.9164013 33.94,87.0864013 C31.64,88.7564013 28.23,86.2364013 27.9,83.4064013 C27.57,80.5864013 29.1,77.9264013 30.39,75.3864013 C31.35,73.4664013 32.19,71.2664013 32.02,69.1964013 C31.93,68.1064013 32.58,67.0864013 33.65,66.8564013 C36.94,66.1564013 40.21,64.7464013 40.91,61.6364013 C41.62,58.5464013 39.08,55.5164013 36.17,54.2264013 C33.27,52.9364013 29.99,52.8164013 26.91,52.0364013 C19.41,50.1564013 13.22,43.9764013 11,36.5964013 C22.73,18.8464013 42.88,7.14640127 65.76,7.14640127 C82.46,7.14640127 97.71,13.3864013 109.3,23.6564013 C111.31,26.7064013 112.67,30.0564013 112.21,33.5964013 C111.53,38.7864013 107.15,42.5964013 103.06,45.8764013 C98.62,49.4664013 93.97,53.1464013 88.42,54.5064013 C84.67,55.4364013 80.23,55.4764013 77.77,58.4664013 C75.08,61.7564013 76.4,66.7764013 74.76,70.6964013 C72.8,75.3764013 66.83,78.1764013 66.63,83.2464013 C66.46,87.7764013 71.32,91.0164013 75.84,91.4264013 C80.36,91.8264013 84.85,90.3864013 89.38,90.3264013 C99.74,90.1864013 108.72,97.0564013 116.76,103.596401 C118.36,104.896401 120.02,106.296401 121.23,107.926401 L121.24,107.936401 Z" id="Path" fill="#3DD6AF"></path>
                <g opacity="0.5" transform="translate(0.000000, 6.826401)" fill="#606060" id="Path">
                    <path d="M93.92,6.4 C92.04,6.24 90.14,6.16 88.23,6.16 C63.89,6.16 42.48,18.6 30,37.48 C22.68,48.51 18.41,61.75 18.41,75.98 C18.41,95.51 26.42,113.18 39.34,125.85 C16.18,115.71 0,92.58 0,65.66 C0,52.28 4.01,39.83 10.89,29.45 C22.62,11.7 42.77,-3.55271368e-15 65.65,-3.55271368e-15 C75.76,-3.55271368e-15 85.36,2.29 93.91,6.39 L93.92,6.4 Z" style="mix-blend-mode: color-burn;"></path>
                </g>
                <g transform="translate(33.052542, 0.000000)">
                    <path d="M21.3774581,1.74640127 C19.8574581,0.846401266 18.1674581,0.296401266 16.4274581,0.0964012662 C12.8174581,-0.323598734 8.99745806,0.686401266 6.10745806,2.92640127 C1.82745806,6.25640127 -0.382541943,11.9164013 0.0674580565,17.3264013 C0.437458057,21.7064013 2.40745806,25.8464013 4.99745806,29.4064013 C7.50745806,32.8364013 11.2974581,39.1864013 15.9674581,38.4064013 C16.1274581,38.3864013 16.2974581,38.3464013 16.4674581,38.3064013 C17.8274581,37.9364013 18.6974581,36.6264013 19.5574581,35.5164013 C23.5274581,30.4764013 27.1474581,24.8664013 28.1474581,18.5464013 C29.1374581,12.2064013 26.9074581,5.00640127 21.3874581,1.73640127 L21.3774581,1.74640127 Z M14.1874581,17.2364013 C13.0474581,17.2364013 12.0074581,16.7664013 11.2874581,15.9964013 C10.5574581,15.2664013 10.1374581,14.2764013 10.1374581,13.1864013 C10.1374581,11.6064013 11.0374581,10.2264013 12.3774581,9.57640127 C12.9074581,9.30640127 13.5274581,9.14640127 14.1874581,9.14640127 C16.4174581,9.14640127 18.2374581,10.9664013 18.2374581,13.1964013 C18.2374581,15.4264013 16.4174581,17.2464013 14.1874581,17.2464013 L14.1874581,17.2364013 Z" id="Shape" fill="#FF7F92"></path>
                    <path d="M15.9574581,38.4064013 C11.2874581,39.1864013 7.50745806,32.8364013 4.98745806,29.4064013 C2.39745806,25.8364013 0.427458057,21.7064013 0.0574580565,17.3264013 C-0.392541943,11.9164013 1.81745806,6.25640127 6.09745806,2.92640127 C8.99745806,0.686401266 12.8074581,-0.333598734 16.4174581,0.0964012662 C14.9974581,2.39640127 13.4174581,5.57640127 12.3674581,9.56640127 C11.0274581,10.2264013 10.1274581,11.5964013 10.1274581,13.1764013 C10.1274581,14.2664013 10.5474581,15.2564013 11.2774581,15.9864013 C10.7674581,22.2464013 11.7974581,29.7864013 15.9474581,38.4064013 L15.9574581,38.4064013 Z" id="Path" fill="#F14F6E"></path>
                </g>
                <g transform="translate(84.412542, 71.323240)">
                    <path d="M21.3774581,1.74316085 C19.8574581,0.843160847 18.1674581,0.293160847 16.4274581,0.0931608474 C12.8174581,-0.326839153 8.99745806,0.683160847 6.10745806,2.92316085 C1.82745806,6.25316085 -0.382541943,11.9131608 0.0674580565,17.3231608 C0.437458057,21.7031608 2.40745806,25.8431608 4.99745806,29.4031608 C7.50745806,32.8331608 11.2974581,39.1831608 15.9674581,38.4031608 C16.1274581,38.3831608 16.2974581,38.3431608 16.4674581,38.3031608 C17.8274581,37.9331608 18.6974581,36.6231608 19.5574581,35.5131608 C23.5274581,30.4731608 27.1474581,24.8631608 28.1474581,18.5431608 C29.1374581,12.2031608 26.9074581,5.00316085 21.3874581,1.73316085 L21.3774581,1.74316085 Z M14.1874581,17.2331608 C13.0474581,17.2331608 12.0074581,16.7631608 11.2874581,15.9931608 C10.5574581,15.2631608 10.1374581,14.2731608 10.1374581,13.1831608 C10.1374581,11.6031608 11.0374581,10.2231608 12.3774581,9.57316085 C12.9074581,9.30316085 13.5274581,9.14316085 14.1874581,9.14316085 C16.4174581,9.14316085 18.2374581,10.9631608 18.2374581,13.1931608 C18.2374581,15.4231608 16.4174581,17.2431608 14.1874581,17.2431608 L14.1874581,17.2331608 Z" id="Shape" fill="#FF7F92"></path>
                    <path d="M15.9574581,38.4131608 C11.2874581,39.1931608 7.50745806,32.8431608 4.98745806,29.4131608 C2.39745806,25.8431608 0.427458057,21.7131608 0.0574580565,17.3331608 C-0.392541943,11.9231608 1.81745806,6.26316085 6.09745806,2.93316085 C8.99745806,0.693160847 12.8074581,-0.326839153 16.4174581,0.103160847 C14.9974581,2.40316085 13.4174581,5.58316085 12.3674581,9.57316085 C11.0274581,10.2331608 10.1274581,11.6031608 10.1274581,13.1831608 C10.1274581,14.2731608 10.5474581,15.2631608 11.2774581,15.9931608 C10.7674581,22.2531608 11.7974581,29.7931608 15.9474581,38.4131608 L15.9574581,38.4131608 Z" id="Path" fill="#F14F6E"></path>
                </g>
            </g>
            <path d="M121.44,177.211402 C188.51,177.211402 242.88,178.071402 242.88,179.121402 C242.88,180.171402 188.51,181.041402 121.44,181.041402 C54.37,181.041402 0,180.181402 0,179.121402 C0,178.061402 54.37,177.211402 121.44,177.211402 Z" id="Path" fill="#63648A"></path>
        </g>
    </g>
</svg>