<?xml version="1.0" encoding="UTF-8"?>
<svg height="20px" version="1.1" viewBox="0 0 20 20" width="20px"
    xmlns="http://www.w3.org/2000/svg">
    <title>Help</title>
    <g fill="none" fill-rule="evenodd" id="Help" stroke="none" stroke-width="1">
        <g fill="#000000" fill-rule="nonzero" id="noun-help-3070411"
            transform="translate(-0.000000, -0.000000)">
            <path
                d="M13.7220513,16.9652057 L15.2502564,18.5067442 L15.1225572,18.5884255 C13.5840527,19.5107701 11.8219542,20.0000775 9.99975544,20.0000775 L9.49407738,19.9875615 L9.11691959,19.9618069 C7.61275417,19.8304894 6.16489874,19.3605063 4.87132045,18.5850038 L4.75076923,18.5087955 L6.289,16.971 L6.52034324,17.0905796 C7.60504064,17.6252292 8.78748092,17.9022761 9.99998561,17.9022761 C11.2125277,17.9022761 12.3950092,17.625221 13.4723992,17.0947441 L13.7220513,16.9652057 Z M1.48820513,4.75289805 L3.02769231,6.2893083 L3.05908462,6.23163001 C2.42754522,7.39059229 2.09783017,8.67748331 2.09783017,9.99999122 L2.11306398,10.4895752 L2.14645461,10.8731465 C2.24575434,11.7638283 2.49428214,12.6230071 2.88175383,13.4238287 L3.03384615,13.7211032 L1.49128205,15.2493083 L1.41164976,15.1224578 C0.489219722,13.5836361 0,11.8217963 0,9.99985696 C0,8.17783124 0.489150344,6.41606669 1.41483891,4.8718662 L1.48820513,4.75289805 Z M18.5087179,4.75289805 L18.5888098,4.8782013 C19.5108294,6.41643194 20,8.17828508 20,10.0003461 L19.9874868,10.5059948 L19.9617377,10.8831264 C19.8304485,12.3871796 19.3605615,13.8348416 18.5851611,15.1283368 L18.5097436,15.2462314 L16.971,13.707 L17.090514,13.4795942 C17.6251176,12.3948816 17.9021698,11.2125107 17.9021698,10.0002118 L17.886936,9.5106278 L17.8535454,9.12705656 C17.7542457,8.23637475 17.5057179,7.37719597 17.1182462,6.57637433 L16.9712821,6.2893083 L18.5087179,4.75289805 Z M9.99408325,0 L10.5060665,0.0125935536 L10.8832243,0.0383482084 C12.3873897,0.169665689 13.8352451,0.639648781 15.1288234,1.41515126 L15.2461538,1.4893083 L13.705641,3.0267442 L13.772178,3.06117777 C12.6098439,2.42758766 11.3228906,2.09787893 10.0001582,2.09787893 L9.51051401,2.11311139 L9.12689056,2.14650091 C8.23609796,2.24579827 7.37688557,2.49432585 6.57610757,2.88180982 L6.27692308,3.03392369 L4.74769231,1.49238523 L4.87640216,1.41238597 C6.41613266,0.489359113 8.17824164,7.7534231e-05 9.99408325,0 Z"
                id="Combined-Shape"></path>
        </g>
    </g>
</svg>