<svg width="16" height="16" viewBox="0 0 16 16" xmlns="http://www.w3.org/2000/svg">
    <path d="M8.417 1.028A2.758 2.758 0 0 0 8 1C4.14 1 1 4.14 1 8a7 7 0 0 0 7 7c3.86 0 7-3.14 7-7 0-3.74-2.92-6.802-6.583-6.972zM8 13.94a5.94 5.94 0 0 1-5.734-4.405A5.94 5.94 0 0 1 2.06 8 5.948 5.948 0 0 1 8 2.06h.05c.063 0 .148 0 .261.015A5.923 5.923 0 0 1 13.94 8 5.948 5.948 0 0 1 8 13.94zm.721-7.509v5.82c0 .29-.24.53-.53.53-.29 0-.53-.24-.53-.53V6.43c0-.29.24-.53.53-.53.29 0 .53.24.53.53zm-.53-2.934a.757.757 0 0 0 0 1.513c.417 0 .764-.34.764-.756a.763.763 0 0 0-.764-.757z" fill="#FB3737" fill-rule="nonzero"/>
</svg>
