<?xml version="1.0" encoding="UTF-8"?>
<svg width="20px" height="20px" viewBox="0 0 20 20" version="1.1" xmlns="http://www.w3.org/2000/svg" xmlns:xlink="http://www.w3.org/1999/xlink">
    <title>Logout</title>
    <g id="Logout" stroke="none" stroke-width="1" fill="none" fill-rule="evenodd">
        <path d="M10.7035411,0 C11.3225496,0 11.895012,0.233649174 12.3340702,0.670751255 C12.7224619,1.06730194 12.9543497,1.57003272 12.9968434,2.10988484 L13.0039482,2.29111568 L13.0039482,5.95454991 C13.0039482,6.49110779 12.5599517,6.93309825 12.0220656,6.93309825 C11.5225999,6.93309825 11.1040901,6.55199423 11.0468513,6.06795252 L11.040183,5.95454991 L11.040183,2.29111568 C11.040183,2.19788103 11.0060049,2.11356131 10.9447358,2.05256909 C10.898623,2.00666465 10.8391098,1.97591364 10.7724084,1.96340716 L10.7035411,1.95709668 L2.30040712,1.95709668 C2.13393462,1.95709668 2.0010475,2.06866835 1.97042686,2.22270269 L1.96376517,2.29111568 L1.96376517,17.7088843 C1.96376517,17.8736405 2.07584322,18.0058067 2.23131825,18.0362739 L2.30040712,18.0429033 L10.6853103,18.0435856 L10.7599886,18.0386904 C10.8319893,18.0277631 10.8959024,17.9960437 10.9447358,17.9474309 C10.9906876,17.9016867 11.0214008,17.8428209 11.0338854,17.7769136 L11.040183,17.7088843 L11.040183,14.0454501 C11.040183,13.5088922 11.4841795,13.0669018 12.0220656,13.0669018 C12.5215313,13.0669018 12.9400411,13.4480058 12.9972799,13.9320475 L13.0039482,14.0454501 L13.0039482,17.7088843 C13.0039482,18.3298743 12.7662542,18.9098821 12.3296945,19.3336047 C11.9364592,19.7152769 11.4394643,19.9449553 10.9054159,19.9912829 L10.7035411,20 L2.30040712,20 C1.08713169,20 0.086600545,19.0543141 0.00532933068,17.8652959 L0,17.7088843 L0,2.29111568 C0,1.08226586 0.949978001,0.0862111906 2.14341836,0.00530533209 L2.30040712,0 L10.7035411,0 Z M14.5854379,5.58578922 C14.9366798,5.23613428 15.4972108,5.20923775 15.880651,5.50509962 L15.9725981,5.58578922 L19.7116975,9.30799512 C19.799599,9.39549948 19.8662262,9.49656794 19.9216944,9.62092436 C20.0264221,9.86852878 20.0264221,10.1446199 19.919773,10.3834962 C19.8840751,10.4634535 19.8425638,10.5350252 19.7928111,10.5997827 L19.7116975,10.6920049 L15.9725981,14.4142108 C15.7840196,14.6019373 15.5375675,14.7007542 15.279018,14.7007542 C15.0204685,14.7007542 14.7740164,14.6019373 14.5854379,14.4142108 C14.2336317,14.0639941 14.2065697,13.5043337 14.5042518,13.1218948 L14.5854379,13.030201 L16.644878,10.9785366 L6.03950654,10.9785483 C5.57846129,10.9785483 5.1863962,10.6538207 5.08378669,10.2231506 L5.06429222,10.1134026 L5.05762395,10 C5.05762395,9.50176768 5.44045764,9.08507564 5.9258099,9.02809021 L6.03950654,9.02145166 L16.644878,9.0204878 L14.5854379,6.96979899 C14.2629489,6.64876699 14.2133352,6.15174413 14.4365968,5.7765611 L14.5042518,5.67748305 L14.5854379,5.58578922 Z" fill="#000000" fill-rule="nonzero"></path>
    </g>
</svg>