<?xml version="1.0" encoding="UTF-8"?>
<svg width="16px" height="12px" viewBox="0 0 16 12" version="1.1" xmlns="http://www.w3.org/2000/svg" xmlns:xlink="http://www.w3.org/1999/xlink">
    <title>Mail</title>
    <g id="Contact-Us" stroke="none" stroke-width="1" fill="none" fill-rule="evenodd">
        <g id="1---Feedback-home---App" transform="translate(-17.000000, -1634.000000)" fill="#222222" fill-rule="nonzero">
            <g id="Group-15" transform="translate(17.000000, 1418.000000)">
                <g id="Group-9" transform="translate(0.250000, 212.000000)">
                    <g id="Mail" transform="translate(0.000000, 4.250000)">
                        <path d="M14.15,0 L1.35,0 C0.648273118,0 0.0715961453,0.53539892 0.00617991634,1.21998593 L0,1.35 L0,10.15 C0,10.8517411 0.535391064,11.4284055 1.21998454,11.4938202 L1.35,11.5 L14.15,11.5 C14.8517495,11.5 15.4284065,10.9646223 15.4938203,10.2800178 L15.5,10.15 L15.5,1.35 C15.5,0.64826477 14.9646145,0.0715951633 14.2800164,0.0061798297 L14.15,0 Z M14.4,1.8423357 L14.4,9.35 C14.4,9.89125044 13.9905004,10.3368334 13.4644112,10.3938389 L13.35,10.4 L2.15,10.4 C1.60876006,10.4 1.16316801,9.99049627 1.10616125,9.46441037 L1.1,9.35 L1.1,1.8423357 L7.45849849,5.816437 C7.60712321,5.90932838 7.78904933,5.92481027 7.94877455,5.86288269 L8.04150155,5.816437 L14.4,1.8423357 Z M1.98774141,1.1 L13.5122494,1.1 L8.30650377,4.35363359 C8.00384945,4.542795 7.62886002,4.56381306 7.31013114,4.41668772 L7.19349618,4.35363399 L1.98774141,1.1 Z" id="Shape"></path>
                    </g>
                </g>
            </g>
        </g>
    </g>
</svg>