<?xml version="1.0" encoding="UTF-8"?>
<svg width="13px" height="16px" viewBox="0 0 13 16" version="1.1" xmlns="http://www.w3.org/2000/svg" xmlns:xlink="http://www.w3.org/1999/xlink">
    <title>Map</title>
    <g id="Contact-Us" stroke="none" stroke-width="1" fill="none" fill-rule="evenodd">
        <g id="1---Feedback-home---App" transform="translate(-19.000000, -1466.000000)" fill="#222222" fill-rule="nonzero">
            <g id="Group-15" transform="translate(17.000000, 1418.000000)">
                <g id="Group-21" transform="translate(2.250000, 44.000000)">
                    <g id="Map" transform="translate(0.000000, 4.250000)">
                        <path d="M6.21464646,0 C4.56641223,0 2.98546662,0.663894174 1.81987373,1.84577959 C0.654720434,3.02715893 0,4.62954815 0,6.30040663 C0,10.122963 3.43843465,15.2965931 6.05392934,15.4942831 L6.20680066,15.500125 L6.3515518,15.4960499 L6.48511286,15.4837617 L6.62567549,15.4619146 C9.23028807,14.9770853 12.4292929,9.92606584 12.4292929,6.30040663 C12.4292929,4.62965251 11.774543,3.02718936 10.6094103,1.84577051 C9.44390652,0.663915175 7.86290981,0 6.21464646,0 Z M6.29558347,1.1072712 L6.52032717,1.11402142 L6.74522733,1.12923035 L6.97724166,1.15552671 C8.08485423,1.30759078 9.11753342,1.82644729 9.91111298,2.63111946 C10.8711619,3.60473007 11.4111845,4.92438912 11.4130478,6.30112208 C11.4130478,7.5003579 10.9614579,9.03860834 10.1877146,10.5403696 L10.0170287,10.8614802 L9.80935713,11.2269209 L9.66729863,11.4626646 L9.51990394,11.6960502 L9.36763217,11.9260036 L9.13715878,12.2539137 L8.99627089,12.4430031 C8.05731882,13.6751928 7.09540567,14.3914641 6.29392679,14.3914641 C4.23626403,14.3914641 1.1748064,9.45960929 1.1748064,6.30021711 C1.17665768,4.92427163 1.71675272,3.60463966 2.67677562,2.63108385 C3.5208166,1.77529499 4.63101692,1.24673255 5.81771595,1.13157743 L6.07311038,1.1132604 L6.29558347,1.1072712 Z M6.2056179,4.81599853 C5.8527442,4.81616162 5.50562758,4.95974202 5.24953627,5.21536848 C4.99278648,5.4716591 4.84848485,5.81955855 4.84848485,6.18227577 C4.84848485,6.54503028 4.99275493,6.8928818 5.2495319,7.14927362 C5.50562275,7.40490649 5.85273333,7.54848485 6.21464646,7.54848485 C6.57654268,7.54848485 6.92366103,7.40490857 7.17970337,7.14933097 C7.43650118,6.89292355 7.58080824,6.5450923 7.58080824,6.18289228 C7.58040344,5.82016204 7.43592414,5.47234874 7.17918942,5.21601291 C7.00700701,5.04413842 6.79197259,4.92120259 6.56647772,4.86101515 L6.43018467,4.83254298 L6.32387116,4.82027195 L6.2056179,4.81599853 Z" id="Combined-Shape"></path>
                    </g>
                </g>
            </g>
        </g>
    </g>
</svg>