<?xml version="1.0" encoding="UTF-8"?>
<svg width="20px" height="20px" viewBox="0 0 20 20" version="1.1" xmlns="http://www.w3.org/2000/svg" xmlns:xlink="http://www.w3.org/1999/xlink">
    <title>more benefits</title>
    <g id="Page-1" stroke="none" stroke-width="1" fill="none" fill-rule="evenodd">
        <g id="more-benefits" fill-rule="nonzero">
            <rect id="Rectangle" fill="#FFFFFF" opacity="0" x="0" y="0" width="20" height="20"></rect>
            <path d="M19.85,9.66 C19.85,9.93 19.74,10.18 19.56,10.37 L15.96,13.97 C15.76,14.17 15.51,14.26 15.25,14.26 C14.99,14.26 14.74,14.16 14.54,13.97 C14.15,13.58 14.15,12.95 14.54,12.56 L16.43,10.67 L2.2,10.67 C1.65,10.67 1.2,10.22 1.2,9.67 C1.2,9.12 1.65,8.67 2.2,8.67 L16.44,8.67 L14.55,6.78 C14.16,6.39 14.16,5.76 14.55,5.37 C14.94,4.98 15.57,4.98 15.96,5.37 L19.56,8.97 C19.75,9.14 19.85,9.39 19.85,9.66 Z" id="Path" fill="#000000"></path>
        </g>
    </g>
</svg>