<?xml version="1.0" encoding="UTF-8"?>
<svg width="20px" height="20px" viewBox="0 0 20 20" version="1.1" xmlns="http://www.w3.org/2000/svg" xmlns:xlink="http://www.w3.org/1999/xlink">
    <title>My Profile </title>
    <g id="My-Profile-" stroke="none" stroke-width="1" fill="none" fill-rule="evenodd">
        <path d="M12.6789635,11.6943463 L7.30639731,11.6943463 C3.27855066,11.6943463 0,14.9685029 0,18.9893802 C0,19.5384163 0.464262647,20 1.01156492,20 C1.55570135,20 2.0084907,19.5415632 2.0084907,18.9893802 C2.0084907,16.1594734 4.27896419,13.8344841 7.10275905,13.7200033 L7.32103645,13.7155858 L12.6936027,13.7155858 C15.6228618,13.7155858 18.0061484,16.0771578 18.0061484,18.9893802 C18.0061484,19.5415632 18.4589378,20 19.0030742,20 C19.5472106,20 20,19.5415632 20,18.9893802 C20,15.0389034 16.8567138,11.8278205 12.9256589,11.6984012 L12.6789635,11.6943463 Z M10.2342263,5.32907052e-15 L10.102474,5.32907052e-15 C7.99621585,5.32907052e-15 6.273804,1.67305996 6.16821015,3.78416166 L6.16308008,3.98978783 L6.16308008,5.91661294 C6.16308008,8.04533955 7.82447679,9.79398072 9.90033275,9.90119195 L10.102474,9.90640076 L10.2342263,9.90640076 C12.3376612,9.90640076 14.0627199,8.22217846 14.1684819,6.10771747 L14.1736203,5.90179121 L14.1736203,3.98978783 C14.1736203,1.8560411 12.5211684,0.112106292 10.4372062,0.0051941031 L10.2342263,5.32907052e-15 Z M10.2342263,2.02123954 C11.2543327,2.02123954 12.0960436,2.81987816 12.1738934,3.8358368 L12.1797687,3.98978783 L12.1797687,5.91661294 C12.1797687,6.94824749 11.3909728,7.80039517 10.3864509,7.87921279 L10.2342263,7.88516122 L10.102474,7.88516122 C9.08236761,7.88516122 8.24065673,7.0865226 8.16280696,6.07056397 L8.15693164,5.91661294 L8.15693164,3.98978783 C8.15693164,2.95815328 8.94572752,2.10600559 9.95024942,2.02718798 L10.102474,2.02123954 L10.2342263,2.02123954 Z" id="Profile" fill="#000000" fill-rule="nonzero"></path>
    </g>
</svg>