<?xml version="1.0" encoding="UTF-8"?>
<svg height="20px" version="1.1" viewBox="0 0 20 20" width="20px"
    xmlns="http://www.w3.org/2000/svg">
    <title>Offers</title>
    <g fill="none" fill-rule="evenodd" id="Offers" stroke="none" stroke-width="1">
        <path
            d="M12.087513,0.766842643 L12.2338267,0.901142924 L12.9695656,1.6372644 C13.1685343,1.83634002 13.4234384,1.95837322 13.7019374,1.98917708 L13.8430034,1.99691088 L14.8321722,1.99691088 C16.5351775,1.99691088 17.9098386,3.31356962 18.0026179,4.99273375 L18.0076099,5.17398787 L18.0076099,6.163688 C18.0076099,6.44945614 18.1011247,6.71677376 18.2740663,6.93361988 L18.3670908,7.03768874 L19.0735679,7.74454528 C20.2627247,8.93434079 20.3067675,10.8330905 19.2056964,12.1015654 L19.0735679,12.2450546 L18.3670908,12.9519111 C18.1681111,13.1509977 18.0461311,13.4060664 18.0153404,13.6847513 L18.0076099,13.8259119 L18.0076099,14.8437853 C18.0076099,16.5476412 16.691658,17.9230386 15.0133357,18.0158676 L14.8321722,18.0208623 L13.8148452,18.0208623 C13.5292694,18.0208623 13.262127,18.1144165 13.0454136,18.2874398 L12.9414074,18.3805088 L12.2327648,19.0894795 C11.6138933,19.6790446 10.8195123,20 9.97160994,20 C9.19038027,20 8.45774452,19.7276555 7.88793062,19.2289368 L7.73664956,19.0873446 L7.03017249,18.3804881 C6.83120374,18.1814124 6.57629965,18.0593792 6.29780067,18.0285754 L6.15673466,18.0208416 L5.16756583,18.0208416 C3.46456058,18.0208416 2.08989941,16.7041828 1.99712016,15.0250187 L1.99212813,14.8437646 L1.99212813,13.8258912 C1.99212813,13.540123 1.89861339,13.2728054 1.72567176,13.0559593 L1.63264727,12.9518904 L0.926170191,12.2450339 C-0.262986597,11.0552384 -0.307029441,9.15648868 0.794041659,7.88801379 L0.926170191,7.74452458 L1.63264727,7.03766804 C1.83162695,6.83858148 1.95360699,6.58351276 1.98439762,6.3048279 L1.99212813,6.1636673 L1.99212813,5.17396717 C1.99212813,3.47011122 3.30808004,2.0947139 4.9864024,2.0018849 L5.16756583,1.99689018 L6.18489282,1.99689018 C6.47046864,1.99689018 6.73761106,1.90333601 6.95432448,1.73031262 L7.05833065,1.6372437 L7.76480772,0.930387165 C8.94785772,-0.253298274 10.8415952,-0.307208852 12.087513,0.766842643 Z M9.22559463,2.26474962 L9.12296118,2.35241411 L8.39169504,3.02746309 C7.85249146,3.56695629 7.14002806,3.88424528 6.36852313,3.9333803 L6.15673466,3.94009779 L5.13940768,3.94009779 C4.51457558,3.94009779 3.97767485,4.43821391 3.91300301,5.04999687 L3.9064789,5.17375511 L3.9064789,6.16345524 C3.9064789,6.94507384 3.63430367,7.6780673 3.1358725,8.24816553 L2.99436158,8.39952228 L2.2878845,9.10637882 C1.83205295,9.56245521 1.80166418,10.2866882 2.19671819,10.7575496 L2.2878845,10.8543803 L2.99436158,11.5612368 C3.53355342,12.1007183 3.8506588,12.8135332 3.89976531,13.5854127 L3.9064789,13.7973039 L3.9064789,14.8151773 C3.9064789,15.4404072 4.40432761,15.9776002 5.01572754,16.042307 L5.13940768,16.0488346 L6.12857651,16.0488346 C6.90981677,16.0488346 7.64245035,16.3211683 8.21227617,16.8198976 L8.36356086,16.9614933 L9.09817212,17.6969031 C9.33030233,17.9291579 9.63856675,18.0565495 9.97160994,18.0565495 C10.2571858,18.0565495 10.5243282,17.9629954 10.7410416,17.789972 L10.8450478,17.6969031 L11.5515248,16.9900465 C12.0907284,16.4505533 12.8031918,16.1332643 13.5746968,16.0841293 L13.7864852,16.0774118 L14.8038122,16.0774118 C15.4457389,16.0774118 15.9676819,15.5883183 16.0304172,14.9692045 L16.036741,14.8437545 L16.036741,13.8258811 C16.036741,13.0442625 16.3089162,12.311269 16.8073474,11.7411708 L16.9488583,11.589814 L17.6553354,10.8829575 C18.1111669,10.4268811 18.1415557,9.70264812 17.7464814,9.23176641 L17.6553105,9.13493107 L16.9490602,8.42789752 C16.4162289,7.8947801 16.093823,7.16157736 16.0437889,6.4000831 L16.0369428,6.19183048 L16.0369428,5.20213035 C16.0369428,4.57690047 15.5390941,4.03970749 14.9276942,3.97500067 L14.8040141,3.96847303 L13.8148452,3.96847303 C13.033605,3.96847303 12.3009714,3.6961393 11.731164,3.19742849 L11.5798849,3.05583833 L10.8758107,2.35132152 C10.4190835,1.91852683 9.71512298,1.88967385 9.22559463,2.26474962 Z M13.5016611,11.60592 C13.7447619,11.8491514 13.8768457,12.1879298 13.8768457,12.541472 C13.8768457,12.70536 13.8434447,12.8893091 13.7832511,13.0397626 C13.7247372,13.186024 13.6138356,13.3366246 13.4732758,13.4770089 C13.353753,13.5965959 13.2016448,13.692749 13.0454965,13.7546078 C12.9513206,13.8016389 12.8242794,13.8331441 12.6951788,13.8459573 L12.5665327,13.8524225 L12.4407215,13.8462573 C12.3128498,13.8340304 12.181216,13.8039294 12.0684123,13.7587502 C11.902558,13.6923266 11.7506953,13.5963844 11.6313741,13.4769937 C11.5118551,13.3574105 11.4157598,13.2052304 11.3497841,13.0397475 C11.2861079,12.8805823 11.2561894,12.7232838 11.2561894,12.5414569 C11.2561894,12.3596268 11.2861086,12.2023225 11.3497841,12.0431663 C11.4161667,11.877236 11.5120513,11.7253015 11.6340508,11.6033216 C12.1619719,11.1061117 12.9708137,11.1061117 13.5016611,11.60592 Z M11.7443953,6.71447783 C12.1323049,6.32635987 12.7503696,6.32635987 13.1096121,6.71833761 L13.1096121,6.71833761 L13.1885418,6.80789702 C13.466251,7.16377169 13.4662659,7.65730942 13.1887372,7.98982527 L13.1887372,7.98982527 L13.1061664,8.07629473 L8.03976742,13.1752089 C7.88572962,13.3105195 7.67239693,13.3717701 7.42334933,13.3717701 C7.16401685,13.3717701 6.93509631,13.2736109 6.74248713,13.0811389 C6.35461408,12.6930575 6.35461408,12.0747783 6.74248713,11.7190726 L6.74248713,11.7190726 Z M8.24547162,6.37518164 C8.48857243,6.61841303 8.62065627,6.95719143 8.62065627,7.31073364 C8.62065627,7.47462159 8.58725525,7.65857077 8.52706161,7.80902423 C8.46854777,7.95528558 8.35764614,8.10588618 8.21708638,8.24627048 C8.09756359,8.36585748 7.94545536,8.46201063 7.80271073,8.51608826 C7.71825183,8.57248984 7.58344046,8.60623024 7.4291915,8.61747034 L7.31034327,8.62168412 L7.18453208,8.61551891 C7.05666038,8.60329207 6.9250266,8.57319098 6.81222282,8.52801178 C6.64636859,8.46158825 6.49450586,8.36564597 6.37518465,8.24625533 C6.25566567,8.12667216 6.15957032,7.97449203 6.09359466,7.80900908 C6.02991849,7.64984397 6,7.49254543 6,7.31071849 C6,7.12888843 6.0299192,6.97158414 6.09359466,6.8124279 C6.15997731,6.64649767 6.25586191,6.49456314 6.37786134,6.37258324 C6.90578247,5.87537337 7.71462425,5.87537337 8.24547162,6.37518164 Z"
            fill="#000000" fill-rule="nonzero" id="Combined-Shape"></path>
        <g id="Group" transform="translate(6.000000, 6.000000)"></g>
    </g>
</svg>