<svg width="14" height="13" viewBox="0 0 14 13" xmlns="http://www.w3.org/2000/svg">
    <path d="M13.932 4.869a1.352 1.352 0 0 0-.424-.613 1.421 1.421 0 0 0-.694-.307l-3.136-.467L8.25.745A1.384 1.384 0 0 0 7.503.09a1.445 1.445 0 0 0-1.008 0c-.324.12-.59.354-.746.654L4.32 3.482l-3.133.467a1.412 1.412 0 0 0-.874.484 1.322 1.322 0 0 0 .101 1.813l2.252 2.158-.509 3.025c-.056.332.018.671.207.953.188.282.479.486.815.572.336.087.693.05 1.001-.104L7 11.445l2.82 1.403c.31.153.666.19 1.002.104.336-.086.627-.29.815-.572.19-.282.263-.622.207-.953l-.511-3.023 2.251-2.158c.185-.176.315-.398.376-.641a1.308 1.308 0 0 0-.028-.737zM9.835 7.935l.625 3.713L7 9.925l-3.461 1.723.625-3.713L1.4 5.285l3.848-.572 1.752-3.36 1.753 3.36 3.848.573-2.765 2.649z" fill="#999" fill-rule="nonzero"/>
</svg>
