<?xml version="1.0" encoding="UTF-8"?>
<svg width="20px" height="20px" viewBox="0 0 20 20" version="1.1" xmlns="http://www.w3.org/2000/svg" xmlns:xlink="http://www.w3.org/1999/xlink">
    <title>Privacy Policy</title>
    <g id="Privacy-Policy" stroke="none" stroke-width="1" fill="none" fill-rule="evenodd">
        <path d="M15.2882922,0 C16.578728,0 17.6396661,1.00615301 17.7128477,2.26925816 L17.716796,2.4284304 L17.716796,17.5715696 C17.716796,18.8585757 16.7142339,19.9125715 15.4479038,19.994832 L15.2882922,20 L4.5084304,20 C3.22141329,20 2.16742757,18.997495 2.08516794,17.7311796 L2.08,17.5715696 L2.08,2.4284304 C2.08,1.14141329 3.08250503,0.0874275743 4.34882041,0.00516794469 L4.5084304,0 L15.2882922,0 Z M15.2882922,1.97433366 L4.5084304,1.97433366 C4.2873675,1.97433366 4.10051283,2.13662579 4.06171874,2.34735769 L4.05433366,2.4284304 L4.05433366,17.5715696 C4.05433366,17.7926325 4.21662579,17.9794872 4.42735769,18.0182813 L4.5084304,18.0256663 L15.2981639,18.0256663 C15.4915939,18.0256663 15.6588333,17.9014114 15.7236098,17.7291738 L15.7423889,17.6594274 L15.7423889,2.4284304 C15.7423889,2.2073675 15.5800968,2.02051283 15.3693649,1.98171874 L15.2882922,1.97433366 Z M12.8697335,13.7907206 C13.4136923,13.7907206 13.8569003,14.2298625 13.8569003,14.7778875 C13.8569003,15.2802796 13.4722277,15.7008373 12.9840894,15.7583538 L12.8697335,15.7650543 L11.3889832,15.7650543 C10.8479455,15.7650543 10.4018164,15.3189252 10.4018164,14.7778875 C10.4018164,14.2754953 10.786489,13.8549376 11.2746272,13.7974211 L11.3889832,13.7907206 L12.8697335,13.7907206 Z M12.6920434,8.80552813 C13.2330811,8.80552813 13.6792103,9.25165727 13.6792103,9.79269497 C13.6792103,10.2959031 13.3023397,10.7157614 12.8159751,10.7731738 L12.7019151,10.7798618 L7.0948075,10.7798618 C6.55376981,10.7798618 6.10764067,10.3337327 6.10764067,9.79269497 C6.10764067,9.29030282 6.49231324,8.8697451 6.98045153,8.81222865 L7.0948075,8.80552813 L12.6920434,8.80552813 Z M12.6920434,4.57058243 C13.2330811,4.57058243 13.6792103,5.01671156 13.6792103,5.55774926 C13.6792103,6.06014141 13.2945377,6.48069913 12.8063994,6.53821558 L12.6920434,6.54491609 L7.0948075,6.54491609 C6.55084872,6.54491609 6.10764067,6.10577417 6.10764067,5.55774926 C6.10764067,5.05535711 6.49231324,4.63479939 6.98045153,4.57728294 L7.0948075,4.57058243 L12.6920434,4.57058243 Z" id="Privacy-Policy-Copy" fill="#000000" fill-rule="nonzero"></path>
    </g>
</svg>