<?xml version="1.0" encoding="UTF-8"?>
<svg height="20px" version="1.1" viewBox="0 0 20 20" width="20px"
    xmlns="http://www.w3.org/2000/svg">
    <title>Rate Us</title>
    <g fill="none" fill-rule="evenodd" id="Rate-Us" stroke="none" stroke-width="1">
        <path
            d="M11.5293746,1 C11.7565551,1.01081812 11.9667669,1.07926249 12.1323851,1.20363813 L12.2261837,1.28496171 L13.1024611,2.15173435 C13.4579651,2.53606306 13.6780586,3.00014982 13.7380512,3.49642865 L13.7529955,3.68394932 L13.7524735,4.0151189 L13.7464891,4.09394002 L13.7398207,4.12481855 L13.21127,7.24567256 L17.7842142,7.24664865 C18.9117365,7.24664865 19.8431372,8.08692388 19.9821742,9.17089369 L19.9961664,9.32016224 L20,9.47211562 L19.9996212,10.4813102 C19.9805103,10.8239083 19.9494918,11.0368112 19.8688776,11.2866493 L19.8142561,11.4423175 L17.1784468,17.5925341 C16.7842713,18.50217 15.9143613,19.1094081 14.9336849,19.1777003 L14.7485991,19.1841316 L7.78913441,19.1841316 C7.31002347,19.1841316 6.84554861,19.0857409 6.4170368,18.8990422 L6.20587655,18.7983805 L6.010713,18.6882819 L5.95000205,18.7544765 C5.83344688,18.8647265 5.69128616,18.9451859 5.53468971,18.9865755 L5.41471021,19.0101471 L5.29036448,19.0181976 L0.976082007,19.0181976 C0.479331184,19.0181976 0.0634958732,18.6378445 0.00662527176,18.1551875 L0,18.0421156 L0,7.36377849 C0,6.86702766 0.380353109,6.45119235 0.86301013,6.39432175 L0.976082007,6.38769648 L5.29036448,6.38769648 C5.48731902,6.38769648 5.67310915,6.44841573 5.82919098,6.55518161 L5.91912673,6.62464936 L5.9345786,6.63952564 L10.8122909,1.31150434 C10.9376891,1.17714919 11.0992475,1.08045205 11.273155,1.03294199 L11.405529,1.00671216 L11.5293746,1 Z M11.5646196,3.40186162 L6.50732077,8.90284185 C6.37051726,9.03964536 6.29606022,9.18591748 6.27934457,9.34547434 L6.2762073,9.44283316 L6.2762073,15.7190405 C6.2762073,16.513614 6.88397673,17.1655265 7.66024669,17.2355088 L7.79889523,17.2417284 L14.6720893,17.2419919 C14.9541228,17.2551098 15.2060365,17.1258552 15.3391307,16.9156661 L15.3832981,16.8331714 L18.003883,10.7259557 C18.0151013,10.6951053 18.0230509,10.6697408 18.0297019,10.639686 L18.0477302,10.5252751 L18.0575171,10.4384368 L18.0575171,9.49163726 C18.0575171,9.36452728 17.9656745,9.25452611 17.8460469,9.22569129 L17.7842142,9.2183343 L12.0546128,9.2183343 C11.7671748,9.2183343 11.4930255,9.08828911 11.3152702,8.8722209 C11.1479304,8.68256908 11.0649649,8.44234701 11.0772964,8.1983176 L11.0914542,8.0762021 L11.8016744,3.75301822 C11.7972468,3.6998872 11.7735047,3.63661836 11.7370527,3.58344695 L11.6966086,3.53439081 L11.5646196,3.40186162 Z M4.31330639,8.33888441 L1.95118793,8.33888441 L1.95118793,17.0660336 L4.31330639,17.0660336 L4.31330639,8.33888441 Z"
            fill="#000000" fill-rule="nonzero" id="Rate-us"></path>
    </g>
</svg>