<svg width="14" height="14" viewBox="0 0 14 14" xmlns="http://www.w3.org/2000/svg">
    <g fill="#999" fill-rule="nonzero">
        <path d="M7.168 0a6.61 6.61 0 0 0-3.344.917 6.824 6.824 0 0 0-2.459 2.499V2.1c0-.25-.13-.481-.341-.606a.668.668 0 0 0-.683 0A.704.704 0 0 0 0 2.1v2.8a.71.71 0 0 0 .2.495.674.674 0 0 0 .483.205h3.071a.68.68 0 0 0 .592-.35.716.716 0 0 0 0-.7.68.68 0 0 0-.592-.35H2.498a5.445 5.445 0 0 1 1.966-2.047A5.271 5.271 0 0 1 7.168 1.4a5.385 5.385 0 0 1 3.639 1.418A5.648 5.648 0 0 1 12.6 6.36a5.708 5.708 0 0 1-.964 3.868 5.457 5.457 0 0 1-3.231 2.227 5.341 5.341 0 0 1-3.857-.546A5.565 5.565 0 0 1 2.027 8.87a.689.689 0 0 0-.517-.457.674.674 0 0 0-.645.23.714.714 0 0 0-.128.689 6.956 6.956 0 0 0 3.15 3.804 6.678 6.678 0 0 0 4.82.686 6.82 6.82 0 0 0 4.042-2.781 7.136 7.136 0 0 0 1.207-4.835 7.06 7.06 0 0 0-2.24-4.43A6.73 6.73 0 0 0 7.167 0z"/>
        <path d="M9.727 9.8a.672.672 0 0 1-.41-.14l-2.73-2.1A.706.706 0 0 1 6.314 7V4.2c0-.25.13-.481.342-.606a.668.668 0 0 1 .682 0 .703.703 0 0 1 .342.606v2.45l2.457 1.89a.713.713 0 0 1 .137.98.677.677 0 0 1-.547.28z"/>
    </g>
</svg>
