<?xml version="1.0" encoding="UTF-8"?>
<svg height="20px" version="1.1" viewBox="0 0 20 20" width="20px"
    xmlns="http://www.w3.org/2000/svg">
    <title>Refer &amp; Earn</title>
    <g fill="none" fill-rule="evenodd" id="Refer-&amp;-Earn" stroke="none" stroke-width="1">
        <g fill="#000000" fill-rule="nonzero" id="Group-4"
            transform="translate(1.550000, 0.000000)">
            <path
                d="M16.661543,0.386378429 C16.3431509,-0.0188478882 15.7771743,-0.114997331 15.3467033,0.143900919 L15.2421303,0.216048911 L9.49990263,4.71414348 L3.66369747,4.71414348 C1.70556433,4.71414348 0.106224028,6.2503182 0.00507838234,8.18326582 L0,8.37784096 L0,9.43896917 C0,11.3971023 1.53617472,12.9964426 3.46911569,13.0975883 L3.66369014,13.1026666 L4.77487488,13.1527614 L4.77507694,19.045226 C4.77507694,19.5348683 5.14365807,19.9384239 5.6185041,19.9935765 L5.72985091,20 L5.84205687,20 C6.33169918,20 6.73525476,19.6314189 6.79040738,19.1565786 L6.79683084,19.0452333 L6.84623482,13.1025118 L9.53094894,13.1134044 L15.2421303,17.6007612 C15.4202322,17.7406984 15.6401708,17.8167671 15.8666719,17.8167671 C16.3850858,17.8167671 16.8123545,17.4265279 16.8707479,16.9237797 L16.8775488,16.8058901 L16.8775488,1.01091999 C16.8775488,0.829719161 16.8288649,0.652718289 16.7377435,0.49797779 L16.661543,0.386378429 Z M14.7744985,3.15365412 L14.8557949,3.19316852 L14.7744985,14.6620949 L11.5719078,12.1215013 L11.5911139,5.65473331 L14.7744985,3.15365412 Z M9.49990263,6.73589738 L9.55015389,6.78614864 L9.49990263,11.0809127 L3.66131159,11.0808561 L3.50562685,11.0733986 C2.7166991,10.9980119 2.09837765,10.367869 2.0283638,9.58704151 L2.0217539,9.43896917 L2.0217539,8.37545507 L2.02926808,8.21977033 C2.10465474,7.43084258 2.73479761,6.81252113 3.51562513,6.74250728 L3.66369747,6.73589738 L9.49990263,6.73589738 Z"
                id="Refer-&amp;-Earn"></path>
        </g>
    </g>
</svg>