<?xml version="1.0" encoding="UTF-8"?>
<svg width="20px" height="20px" viewBox="0 0 20 20" version="1.1" xmlns="http://www.w3.org/2000/svg" xmlns:xlink="http://www.w3.org/1999/xlink">
    <title>Share</title>
    <g id="Share" stroke="none" stroke-width="1" fill="none" fill-rule="evenodd">
        <path d="M7.41711491,6.26894866 C7.96004815,6.26894866 8.39511002,6.70803888 8.39511002,7.24694377 C8.39511002,7.74466821 8.01401143,8.16131855 7.53040841,8.21830062 L7.41711491,8.22493888 L4.44400978,8.22493888 C4.40592019,8.22493888 4.37545398,8.24588268 4.36260148,8.27777998 L4.35599022,8.31295844 L4.35599022,17.9559902 C4.35599022,17.9940798 4.37693403,18.024546 4.40883133,18.0373985 L4.44400978,18.0440098 L15.5344743,18.0440098 C15.5725639,18.0440098 15.6030301,18.023066 15.6158826,17.9911687 L15.6224939,17.9559902 L15.6224939,8.31295844 C15.6224939,8.28717292 15.6126348,8.26745474 15.5735941,8.22493888 L15.5344743,8.22493888 L12.5613692,8.22493888 C12.0253583,8.22493888 11.5833741,7.78295471 11.5833741,7.24694377 C11.5833741,6.74921932 11.9644727,6.33256898 12.4480757,6.27558691 L12.5613692,6.26894866 L15.5344743,6.26894866 C16.0795169,6.26894866 16.5912983,6.48122164 16.9787547,6.86867805 C17.3231604,7.21308374 17.5291496,7.65572157 17.570673,8.1326344 L17.5784841,8.31295844 L17.5784841,17.9559902 C17.5784841,19.0330199 16.7416985,19.9197787 15.6805146,19.9948522 L15.5344743,20 L4.44400978,20 C3.36698008,20 2.48022131,19.1632144 2.40514783,18.1020305 L2.4,17.9559902 L2.4,8.31295844 C2.4,7.23592873 3.23678558,6.34916997 4.2979695,6.27409648 L4.44400978,6.26894866 L7.41711491,6.26894866 Z M9.98924205,0 C10.121927,0 10.253395,0.0269677959 10.372161,0.0797526776 C10.4520429,0.115255764 10.523559,0.156548369 10.5882814,0.206052757 L10.6804662,0.286770958 L13.712251,3.3185558 C14.0913523,3.69765709 14.0913523,4.32190281 13.712251,4.7010041 C13.5244206,4.8888346 13.2787753,4.98777506 13.0210269,4.98777506 C12.8062366,4.98777506 12.5998512,4.91906641 12.4283243,4.78746532 L12.3298027,4.7010041 L10.9672372,3.33789731 L10.9672372,12.391198 C10.9672372,12.850636 10.6425141,13.240993 10.2121898,13.3431474 L10.1025355,13.3625549 L9.98924205,13.3691932 C9.49151761,13.3691932 9.07486727,12.9880946 9.0178852,12.5044915 L9.01124694,12.391198 L9.01124694,3.33496333 L7.6515864,4.68826946 C7.3306819,5.02023963 6.8397487,5.07131197 6.46039495,4.84327649 L6.35991284,4.77416632 L6.26623306,4.69122415 C5.9162934,4.3412845 5.88937497,3.78246439 6.18547776,3.40038928 L6.26623306,3.30877585 L9.2980179,0.276991007 C9.38550051,0.189508403 9.4865002,0.123227357 9.62830617,0.0614466264 C9.74661711,0.0220096455 9.86924228,0 9.98924205,0 Z" fill="#000000" fill-rule="nonzero"></path>
    </g>
</svg>