<?xml version="1.0" encoding="UTF-8"?>
<svg width="20px" height="20px" viewBox="0 0 20 20" version="1.1" xmlns="http://www.w3.org/2000/svg" xmlns:xlink="http://www.w3.org/1999/xlink">
    <title>Terms and Conditions</title>
    <g id="Terms-and-Conditions" stroke="none" stroke-width="1" fill="none" fill-rule="evenodd">
        <path d="M12.275464,0.000214438472 L12.3952345,0.00690196732 C12.5552888,0.0244879591 12.7036338,0.0755447183 12.8413069,0.161368425 L12.9425769,0.232275261 L13.0467358,0.324860512 L17.6671266,4.94528079 L17.7452885,5.03209839 C17.8468235,5.15706438 17.9173135,5.29709937 17.9554274,5.45479662 L17.9779214,5.57642175 L17.9868771,5.71933556 L17.9868771,18.3661734 L17.9820603,18.4899473 C17.9255238,19.2446679 17.3776491,19.8433583 16.6423155,19.9739837 L16.4928394,19.9937754 L16.3475498,20 L3.63382657,20 L3.51005275,19.9951832 C2.75533207,19.9386467 2.15664174,19.3907721 2.02601635,18.6554384 L2.00622459,18.5059623 L2,18.3606727 L2,1.63382657 L2.00481683,1.51005275 C2.06135334,0.755332067 2.60922794,0.156641744 3.34456155,0.0260163466 L3.49403769,0.00622458738 L3.63932727,0 L12.275464,0.000214438472 Z M10.0256158,1.9408867 L3.9408867,1.9408867 L3.9408867,18.0581281 L16.0453202,18.0581281 L16.0453202,7.96059113 L12.3295878,7.96061368 L12.1905478,7.95603728 C11.1106958,7.88605683 10.205726,7.03582661 10.0496679,5.9716036 L10.0319478,5.81043599 L10.0262458,5.65256962 L10.0256158,1.9408867 Z M13.2039369,13.9901478 C13.7288326,13.9901478 14.1543447,14.4156599 14.1543447,14.9405556 C14.1543447,15.4279588 13.7874491,15.829669 13.3147745,15.8845694 L13.2039369,15.8909635 L6.78294021,15.8909635 C6.25804446,15.8909635 5.83253238,15.4654514 5.83253238,14.9405556 C5.83253238,14.4531524 6.199428,14.0514423 6.67210258,13.9965419 L6.78294021,13.9901478 L13.2039369,13.9901478 Z M13.2039369,10.4361261 C13.7288326,10.4361261 14.1543447,10.8616382 14.1543447,11.386534 C14.1543447,11.8739372 13.7874491,12.2756473 13.3147745,12.3305477 L13.2039369,12.3369418 L6.78294021,12.3369418 C6.25804446,12.3369418 5.83253238,11.9114297 5.83253238,11.386534 C5.83253238,10.8991308 6.199428,10.4974206 6.67210258,10.4425202 L6.78294021,10.4361261 L13.2039369,10.4361261 Z M11.9665025,1.96059113 L11.9667808,5.64267793 L11.9710186,5.7124877 C11.9892978,5.84914054 12.0703044,5.95117854 12.1845752,5.99473672 L12.2568937,6.01366313 L12.3344269,6.01970826 L16.0246305,6.01970826 L11.9665025,1.96059113 Z" id="Combined-Shape-Copy" fill="#000000" fill-rule="nonzero"></path>
    </g>
</svg>