<?xml version="1.0" encoding="UTF-8"?>
<svg width="18px" height="18px" viewBox="0 0 18 18" version="1.1" xmlns="http://www.w3.org/2000/svg" xmlns:xlink="http://www.w3.org/1999/xlink">
    <title>x_Calender</title>
    <g id="Flight-Booking" stroke="none" stroke-width="1" fill="none" fill-rule="evenodd">
        <g id="5.2---Traveller-Details---Travellers-unfilled---One-Way---GST-Active---App" transform="translate(-325.000000, -814.000000)" fill-rule="nonzero">
            <g id="Group" transform="translate(16.000000, 258.000000)">
                <g id="Group-5-Copy-2" transform="translate(0.000000, 293.000000)">
                    <g id="Group-15-Copy-2" transform="translate(0.000000, 242.000000)">
                        <g id="x_Calender" transform="translate(309.000000, 21.000000)">
                            <rect id="Rectangle" fill="#FFFFFF" opacity="0" x="0" y="0" width="18" height="18"></rect>
                            <path d="M14.43375,2.79 L13.9275,2.79 L13.9275,2.115 C13.9275,1.65375 13.545,1.27125 13.08375,1.27125 C12.6225,1.27125 12.24,1.65375 12.24,2.115 L12.24,2.77875 L5.76,2.77875 L5.76,2.115 C5.76,1.65375 5.3775,1.27125 4.91625,1.27125 C4.455,1.27125 4.0725,1.65375 4.0725,2.115 L4.0725,2.77875 L3.56625,2.77875 C2.2275,2.79 1.125,3.88125 1.125,5.22 L1.125,14.2875 C1.125,15.62625 2.21625,16.72875 3.56625,16.72875 L14.43375,16.72875 C15.7725,16.72875 16.875,15.6375 16.875,14.2875 L16.875,5.22 C16.875,3.88125 15.7725,2.79 14.43375,2.79 Z M3.56625,4.4775 L4.0725,4.4775 L4.0725,4.98375 C4.0725,5.445 4.455,5.8275 4.91625,5.8275 C5.3775,5.8275 5.76,5.445 5.76,4.98375 L5.76,4.4775 L12.22875,4.4775 L12.22875,4.98375 C12.22875,5.445 12.61125,5.8275 13.0725,5.8275 C13.53375,5.8275 13.91625,5.445 13.91625,4.98375 L13.91625,4.4775 L14.4225,4.4775 C14.83875,4.4775 15.17625,4.815 15.17625,5.22 L15.17625,6.705 L2.8125,6.705 L2.8125,5.22 C2.8125,4.80375 3.15,4.4775 3.56625,4.4775 Z M14.43375,15.04125 L3.56625,15.04125 C3.15,15.04125 2.8125,14.70375 2.8125,14.2875 L2.8125,8.3925 L15.1875,8.3925 L15.1875,14.2875 C15.1875,14.70375 14.85,15.04125 14.43375,15.04125 Z" id="Shape" fill="#333333"></path>
                        </g>
                    </g>
                </g>
            </g>
        </g>
    </g>
</svg>