<?xml version="1.0" encoding="UTF-8"?>
<svg width="20px" height="20px" viewBox="0 0 20 20" version="1.1" xmlns="http://www.w3.org/2000/svg" xmlns:xlink="http://www.w3.org/1999/xlink">
    <title>Payment Settings</title>
    <g id="Payment-Settings" stroke="none" stroke-width="1" fill="none" fill-rule="evenodd">
        <path d="M11.712142,0 C12.0419716,0.00573485732 12.3596842,0.12528237 12.6116466,0.33840934 C12.827592,0.521034075 12.9837183,0.76278377 13.0621185,1.0335269 L13.0947585,1.17117509 L13.1033663,1.22320474 L13.1087888,1.27220313 L13.2251722,3.0642594 L13.5407046,3.2293772 L13.8504185,3.40835858 L14.0547179,3.59064655 L15.7209497,2.82610733 C16.036613,2.65451889 16.4074786,2.61499629 16.7519772,2.71634902 C16.9973572,2.7884195 17.2160224,2.92784785 17.3858917,3.11972319 L17.4817811,3.24102276 L17.5579956,3.3632806 L19.4657803,6.56182064 C19.6448117,6.86567936 19.7048863,7.22521943 19.634385,7.57070706 C19.5842903,7.81680769 19.4703319,8.04420801 19.3031937,8.23275551 L19.1966146,8.34106046 L19.0884504,8.43021158 L19.0801538,8.42010996 L19.0849874,8.43305057 L17.5840012,9.50450418 L17.6015388,9.72521655 L17.608823,10.0034979 L17.6014838,10.2900043 L17.5420636,10.4860987 L18.9603785,11.5665817 C19.2433607,11.77693 19.4382893,12.0849185 19.5073354,12.4306463 C19.5566096,12.6767649 19.5397319,12.9304355 19.4587464,13.1689151 L19.4024785,13.3099979 L19.3353196,13.4376643 L17.4907519,16.6122637 C17.3166799,16.9075596 17.0425925,17.1306014 16.7180321,17.2410719 C16.4868903,17.3196256 16.240561,17.3374577 15.9996422,17.29347 L15.8559049,17.2596502 L15.7207404,17.2128654 L15.6765428,17.1941253 L14.0733028,16.4038486 C13.9412186,16.4926056 13.8065294,16.5773131 13.6688321,16.6581718 L13.4599797,16.7765982 L13.1982404,16.8616719 L13.0304766,18.7023914 C13.0033803,19.0560231 12.8433451,19.3864113 12.5826457,19.6271493 C12.3970518,19.7985324 12.1695779,19.915947 11.9218763,19.9688348 L11.7710012,19.9927398 L11.6254843,20 L7.90441915,20 C7.57503534,19.9937778 7.25767429,19.8739025 7.00618986,19.6607664 C6.79074382,19.4781807 6.63486749,19.236546 6.55666987,18.9663637 L6.52412812,18.8290347 L6.51006886,18.7300124 L6.39147731,16.9378125 L6.07663254,16.7727042 L5.76759226,16.5936874 L5.56396801,16.4115389 L3.8903045,17.175405 C3.56496692,17.3576101 3.17810574,17.3943246 2.82209817,17.2756766 C2.59403192,17.1931244 2.39133914,17.0549122 2.23021367,16.872506 L2.13865602,16.7578508 L2.06261322,16.640193 L0.196682568,13.4315434 C0.017658015,13.1271914 -0.0419509466,12.7671246 0.0293823981,12.4212268 C0.0801697933,12.174966 0.194937283,11.947676 0.362905848,11.7595693 L0.469984884,11.651569 L0.585417665,11.5576814 L2.16107309,10.4866889 L2.15319184,10.4051406 L2.14514297,10.2381116 L2.1431709,10.0033919 L2.14657729,9.8146968 L2.15671603,9.62575176 L2.21221742,9.53973793 L0.667239415,8.43554559 C0.384454798,8.22521061 0.18930192,7.9177792 0.119291183,7.57230009 C0.0695533608,7.32625883 0.0855951872,7.07268487 0.165530979,6.83404094 L0.221144644,6.69282589 L0.287955456,6.56443173 L2.13249499,3.39412405 C2.30660139,3.09877393 2.58070876,2.87575562 2.90521454,2.7654721 C3.13635635,2.68691839 3.38268567,2.66908623 3.6236238,2.71308064 L3.76737511,2.74690531 L3.86444714,2.78599435 L3.90250631,2.79367853 L3.9466017,2.81237162 L5.54582248,3.5981105 C5.67792355,3.50999876 5.81263683,3.42593919 5.95037133,3.34572609 L6.15929013,3.22826556 L6.42060445,3.1449031 L6.58837458,1.2975669 C6.6156431,0.943870779 6.77559141,0.613537311 7.03622427,0.372678367 C7.22192586,0.201302751 7.44935013,0.0839710687 7.69706742,0.0311319751 L7.84796152,0.00725121866 L7.99351912,0 L11.712142,0 Z M11.2217027,1.92931944 L8.48151443,1.92931944 L8.31063461,3.81429495 C8.29858336,3.94482585 8.26026188,4.0710299 8.19847027,4.18545741 L8.12895899,4.29568349 C8.02618876,4.4369958 7.88721364,4.54775901 7.72458907,4.61723301 C7.31986441,4.77975397 6.93496893,4.98686541 6.5779973,5.23369254 L6.22789477,5.4903089 C6.10655861,5.56892485 5.96864267,5.61964518 5.82422083,5.63818856 C5.73424027,5.64974186 5.64335381,5.64856706 5.5523088,5.6342729 L5.41571579,5.60294322 L5.29530726,5.55707775 L3.56961746,4.76295639 L2.18930238,7.13908412 L3.75740508,8.2583474 C3.86629207,8.33579654 3.95752091,8.43455666 4.02592358,8.54819616 L4.08652611,8.66655725 C4.15670891,8.83027415 4.18035304,9.01017557 4.15447635,9.18872687 C4.10909659,9.45757296 4.08333316,9.72977292 4.07732442,9.99802747 C4.08554159,10.2695612 4.11348429,10.5404044 4.16133547,10.8108371 C4.18787457,10.991046 4.16303971,11.1749914 4.08968443,11.341818 C4.05319832,11.4249008 4.0052933,11.5022022 3.94602813,11.572904 L3.84861763,11.6739048 L3.75255385,11.7495771 L2.11240189,12.8647635 L3.48687643,15.2311569 L5.21244246,14.4383025 C5.33114172,14.3838252 5.45913078,14.3541004 5.5888136,14.3503534 L5.71877965,14.3553111 C5.89190577,14.3737409 6.05685116,14.4383396 6.19695779,14.5428256 C6.6415854,14.8793472 7.1259908,15.1601933 7.63918273,15.3789996 C7.79989747,15.4476856 7.93899533,15.5584784 8.04168974,15.6996821 C8.09294883,15.7700787 8.13433448,15.846868 8.16528523,15.9298066 L8.20381501,16.058796 L8.22326172,16.1812782 L8.39390627,18.0647939 L11.1370148,18.0647939 L11.3082387,16.1811166 C11.3202838,16.0506522 11.358577,15.9244709 11.4203143,15.8100086 L11.4897625,15.699728 C11.5924879,15.5584774 11.7315893,15.4476826 11.8942512,15.3781918 C12.2988771,15.2155387 12.6837659,15.008394 13.0408137,14.7616378 L13.3032527,14.5692197 C13.4438462,14.4538218 13.614064,14.380395 13.7945471,14.3572215 C13.8845945,14.3456704 13.9754777,14.3468442 14.066505,14.3611387 L14.2030677,14.3924704 L14.3234521,14.4383351 L16.0479383,15.2311569 L17.4321471,12.8336139 L15.9635109,11.7156163 C15.8603843,11.6372274 15.7743434,11.5392618 15.7101122,11.4278187 L15.6533258,11.3121091 C15.5877273,11.1523279 15.565951,10.9778943 15.5906705,10.8044034 C15.6361466,10.5349863 15.6619782,10.2629328 15.667953,9.99444522 C15.6619792,9.72164756 15.6361411,9.44945447 15.590304,9.17772439 C15.5649448,9.00139546 15.58862,8.82154703 15.6587401,8.65781938 C15.6936476,8.57619968 15.7395494,8.49998502 15.7964553,8.42990274 L15.8900684,8.32946951 L15.9879259,8.24951091 L17.5499314,7.13908412 L16.1316528,4.76685009 L14.4020552,5.56355351 C14.2832476,5.61839107 14.1549461,5.64833399 14.0248617,5.65216347 L13.8944686,5.64724332 C13.7207227,5.6288045 13.5552804,5.56396287 13.415191,5.45910533 C12.9703922,5.12230059 12.4861308,4.84151658 11.9723831,4.6226854 C11.8116639,4.55271797 11.6730493,4.44065471 11.570879,4.29805611 C11.5200583,4.22692658 11.4792298,4.14948331 11.4489566,4.06598047 L11.4115338,3.9362133 L11.3933147,3.81413329 L11.2217027,1.92931944 Z M9.83133755,6.15871106 C10.8503832,6.15871106 11.8278587,6.56355863 12.5485512,7.28409135 C13.2690686,8.00476858 13.6739162,8.98224411 13.6739162,10.0012897 C13.6739162,11.0203353 13.2690686,11.9978109 12.5485359,12.7185033 C11.8278487,13.4390308 10.8504079,13.8438684 9.83237563,13.8438628 C8.80963922,13.8547702 7.82572656,13.4533344 7.1025784,12.7300664 C6.37928356,12.0069553 5.97783926,11.0230072 5.98875888,10.0012897 C5.98875888,8.98224411 6.39360646,8.00476858 7.11413918,7.28407609 C7.83481641,6.56355863 8.81229194,6.15871106 9.83133755,6.15871106 Z M9.83165336,8.09693323 L9.66232395,8.10295384 C9.2159073,8.1379142 8.79590751,8.33105953 8.47849774,8.64834136 C8.120457,9.00652276 7.92181557,9.49379603 7.92746006,10.0012082 C7.92746006,10.5061804 8.12803124,10.9905284 8.48502392,11.3475211 C8.84202929,11.7045228 9.32636056,11.9050857 9.83133755,11.9050857 C10.3363097,11.9050857 10.8206578,11.7045145 11.1776505,11.3475218 C11.5346521,10.9905165 11.735215,10.5061852 11.735215,10.0012082 C11.735215,9.49623602 11.5346439,9.01188798 11.1776512,8.65489529 C10.8603131,8.33756048 10.4423718,8.14383159 9.99875222,8.10469844 L9.83165336,8.09693323 Z" id="Combined-Shape" fill="#000000" fill-rule="nonzero"></path>
    </g>
</svg>