<!--
  - Copyright (c) 2022 .
  - All rights reserved.
  - Adani Digital Labs Confidential Information
  -->

<svg height="22" viewBox="0 0 22 22" width="22" xmlns="http://www.w3.org/2000/svg">
    <g fill="#666">
        <path
            d="M11 1c5.468 0 10 4.523 10 9.954C21 16.46 16.483 21 11 21S1 16.461 1 10.954C1 5.524 5.532 1 11 1zm0 1.688c-4.55 0-8.315 3.702-8.315 8.266 0 4.582 3.784 8.357 8.315 8.357 4.55 0 8.315-3.702 8.315-8.265 0-4.582-3.784-8.358-8.315-8.358z"
            stroke="#666" stroke-width=".6" />
        <path
            d="M15.567 5.644H7.838L6.434 7.369h2.27l.188.005c.56.03 1.076.189 1.463.434l.055.038H7.838L6.434 9.57h4.621l-.01.028c-.307.735-1.344 1.287-2.654 1.287H7.062v1.335l.064.18 4.26 5.243h2.511l-4.324-5.3.103-.014c1.67-.282 2.964-1.298 3.314-2.66l.021-.1h1.29l.935-1.725h-2.463l-.006-.017a1.739 1.739 0 0 0-.258-.432l-.024-.028h1.677l1.405-1.724z" />
    </g>
</svg>
