<!--
  - Copyright (c) 2022 .
  - All rights reserved.
  - Adani Digital Labs Confidential Information
  -->

<svg height="16" viewBox="0 0 13 16" width="13" xmlns="http://www.w3.org/2000/svg">
    <g fill="#333" fill-rule="nonzero">
        <path
            d="M6.5 0C4.776 0 3.123.728 1.904 2.023.684 3.318 0 5.075 0 6.908c0 4.72 5.867 8.672 6.117 8.836L6.5 16l.383-.256C7.133 15.58 13 11.628 13 6.908c0-1.832-.685-3.59-1.904-4.885C9.877.728 8.224 0 6.5 0zm0 14.17c-1.24-.916-5.056-4.006-5.056-7.263 0-1.92.964-3.693 2.528-4.653a4.8 4.8 0 0 1 5.055 0c1.565.96 2.528 2.734 2.528 4.653 0 3.257-3.816 6.347-5.055 7.263z" />
        <path
            d="M6.5 4.093c-.703 0-1.376.297-1.873.824a2.906 2.906 0 0 0-.776 1.99c0 .747.28 1.462.776 1.99.497.528 1.17.824 1.873.824.702 0 1.375-.296 1.872-.824a2.906 2.906 0 0 0 .776-1.99c0-.746-.28-1.462-.776-1.99A2.571 2.571 0 0 0 6.5 4.093zm0 4.094a1.17 1.17 0 0 1-.852-.375 1.32 1.32 0 0 1-.352-.905c0-.339.127-.664.352-.904a1.17 1.17 0 0 1 .852-.375c.319 0 .625.135.85.375.227.24.353.565.353.904 0 .34-.126.665-.352.905a1.17 1.17 0 0 1-.851.375z" />
    </g>
</svg>
