<!--
  - Copyright (c) 2022 .
  - All rights reserved.
  - Adani Digital Labs Confidential Information
  -->

<svg height="16" viewBox="0 0 16 16" width="16" xmlns="http://www.w3.org/2000/svg">
    <path
        d="M12 0a3.998 3.998 0 0 1 3.975 3.651l.01.172.004.169v8.016c0 2.078-1.6 3.802-3.649 3.977l-.172.011L12 16H3.988a3.997 3.997 0 0 1-3.975-3.651l-.01-.172-.004-.169V3.992c0-2.078 1.6-3.802 3.649-3.977L3.82.004 3.988 0h8.013zm0 1.55H3.988c-1.25 0-2.29.947-2.426 2.166l-.011.136-.004.14v8.016c0 1.25.947 2.292 2.165 2.428l.137.01.14.005h8.01c1.25 0 2.291-.948 2.427-2.167l.011-.136.004-.14V3.992A2.445 2.445 0 0 0 12 1.549zM7.997 4c.356 0 .664.247.75.594l.018.09.006.09v4.58l.861-.862a.772.772 0 0 1 .734-.201l.097.03.095.044.094.062.075.065a.778.778 0 0 1 .119.939l-.053.081-.066.075-2.183 2.185a.783.783 0 0 1-.547.227.756.756 0 0 1-.425-.128l-.059-.042-.064-.057-2.183-2.185a.777.777 0 0 1 0-1.095.777.777 0 0 1 .938-.119l.081.054.076.065.86.862.001-4.58c0-.285.159-.541.405-.677l.086-.041.09-.031.102-.02L7.997 4z"
        fill="#222" />
</svg>
