<?xml version="1.0" encoding="UTF-8"?><!--
  - Copyright (c) 2022 .
  - All rights reserved.
  - Adani Digital Labs Confidential Information
  -->

<svg height="100px" version="1.1" viewBox="0 0 100 100" width="100px"
    xmlns="http://www.w3.org/2000/svg">
    <title>driver profile icon_driver details</title>
    <g fill="none" fill-rule="evenodd" id="App" stroke="none" stroke-width="1">
        <g fill-rule="nonzero" id="driver-profile-icon_driver-details">
            <rect fill="#FFFFFF" height="100" id="Rectangle" opacity="0" width="100" x="0"
                y="0"></rect>
            <g id="Group" transform="translate(5.430000, 0.620000)">
                <g transform="translate(0.000000, 4.560000)">
                    <circle cx="44.57" cy="49.63" fill="#ECECEB" id="Oval" r="44.57"></circle>
                    <g transform="translate(6.480000, 0.000000)">
                        <rect fill="#EFAF84" height="26.63" id="Rectangle" width="23.58" x="26.3"
                            y="43.76"></rect>
                        <g transform="translate(14.613780, -0.000000)">
                            <path
                                d="M46.5662197,25.06 C45.2662197,21.95 42.6062197,23.48 42.6062197,23.48 C44.1462197,9.34 36.9562197,3.55271368e-15 23.4762197,3.55271368e-15 C9.9962197,3.55271368e-15 2.8062197,9.33 4.3362197,23.47 C4.3362197,23.47 1.6762197,21.94 0.376219697,25.05 C-0.923780303,28.16 1.4462197,35.45 2.9162197,37.77 C4.3862197,40.09 6.9862197,41.84 6.9862197,41.84 C6.9862197,41.84 7.1562197,44.44 7.8362197,46.25 C8.5162197,48.06 16.2062197,56.38 18.4662197,57.65 C21.4362197,59.4 25.7962197,59.4 28.4662197,57.65 C30.7262197,56.38 38.4162197,48.06 39.0962197,46.25 C39.7762197,44.44 39.9462197,41.84 39.9462197,41.84 C39.9462197,41.84 42.5462197,40.09 44.0162197,37.77 C45.4962197,35.46 47.8662197,28.17 46.5662197,25.06 Z"
                                fill="#F9BE93" id="Path"></path>
                            <g fill="#E2884B" transform="translate(1.625180, 26.175812)">
                                <path
                                    d="M21.9710401,33.0941876 C20.1210401,33.0941876 18.2210401,32.6441876 16.7010401,31.7541876 C15.3310401,30.9841876 12.1810401,27.8341876 9.8410401,25.2341876 L10.2810401,24.8341876 C12.6710401,27.4841876 15.7410401,30.5341876 17.0010401,31.2341876 C19.8710401,32.9241876 24.1210401,32.9241876 26.6910401,31.2441876 C27.9610401,30.5241876 31.0410401,27.4741876 33.4210401,24.8341876 L33.8610401,25.2341876 C31.5210401,27.8341876 28.3710401,30.9841876 26.9910401,31.7541876 C25.6310401,32.6441876 23.8210401,33.0941876 21.9710401,33.0941876 Z"
                                    id="Path"></path>
                                <rect height="6.11011612" id="Rectangle"
                                    transform="translate(5.003427, 12.648590) rotate(-7.030499) translate(-5.003427, -12.648590) "
                                    width="1" x="4.7034214" y="9.59353204"></rect>
                                <rect height="1" id="Rectangle"
                                    transform="translate(38.693144, 12.645212) rotate(-83.650318) translate(-38.693144, -12.645212) "
                                    width="6.10021218" x="35.643038" y="12.3452012"></rect>
                                <g id="Path" transform="translate(0.000000, -0.000000)">
                                    <path
                                        d="M0.491040105,5.8741876 C0.361040105,5.4141876 -0.698959895,1.3641876 0.771040105,0.254187595 C1.2510401,-0.055812405 1.6510401,-0.025812405 1.9010401,0.054187595 C2.6410401,0.294187595 3.0210401,1.2141876 3.0610401,1.3241876 L2.5010401,1.5341876 C2.4210401,1.3241876 2.1210401,0.754187595 1.7210401,0.624187595 C1.5410401,0.564187595 1.3410401,0.604187595 1.1210401,0.744187595 C0.281040105,1.3841876 0.641040105,4.1341876 1.0810401,5.7141876 L0.491040105,5.8741876 Z"></path>
                                    <path
                                        d="M43.2110401,5.8741876 L42.6310401,5.7141876 C43.0610401,4.1341876 43.4310401,1.3841876 42.5710401,0.734187595 C42.3710401,0.604187595 42.1710401,0.564187595 41.9910401,0.624187595 C41.5110401,0.784187595 41.2110401,1.5241876 41.2110401,1.5341876 L40.6510401,1.3241876 C40.6910401,1.2241876 41.0610401,0.304187595 41.8110401,0.054187595 C42.0610401,-0.025812405 42.4610401,-0.055812405 42.9210401,0.244187595 C44.3910401,1.3641876 43.3310401,5.4141876 43.2110401,5.8741876 Z"></path>
                                </g>
                            </g>
                            <path
                                d="M6.2562197,30.9100232 C10.2562197,30.93 7.2362197,18.02 10.3662197,14.9 C11.9562197,13.31 14.2862197,13.57 16.2862197,14.08 C18.6162197,14.67 21.0162197,15.47 23.4662197,15.54 C26.0662197,15.61 28.5262197,14.66 31.0162197,14.05 C32.9462197,13.58 35.0562197,13.37 36.5862197,14.9 C39.7262197,18.02 36.6962197,30.93 40.6962197,30.9100232 C40.4162197,27.93 40.4062197,24.65 42.6062197,23.47 L42.6062197,23.47 C44.1462197,9.34 36.9562197,3.55271368e-15 23.4762197,3.55271368e-15 C9.9962197,3.55271368e-15 2.8062197,9.33 4.3362197,23.47 L4.3362197,23.47 C6.1262197,24.64 6.5362197,27.79 6.2562197,30.9100232 Z"
                                fill="#000000" id="Path"></path>
                        </g>
                        <path
                            d="M76.18,72.78 C63.6,67.17 49.88,65.17 49.88,65.17 C43.59,71.73 31.86,71.82 26.3,65.17 C26.3,65.17 12.58,67.16 3.55271368e-15,72.78 C7.82,85.62 21.95,94.2 38.09,94.2 C54.23,94.2 68.36,85.62 76.18,72.78 Z"
                            fill="#4350AF" id="Path"></path>
                        <polygon fill="#7E97F2" id="Path"
                            points="23.11 65.63 26.3 59.91 37.93 70.11 30.3 76.09"></polygon>
                        <polygon fill="#7E97F2" id="Path"
                            points="53.05 65.63 49.87 59.91 38.14 70.11 45.86 76.09"></polygon>
                    </g>
                </g>
                <g id="Path" transform="translate(15.970000, -0.000000)">
                    <path
                        d="M49.29,22.69 C47.14,28.76 38.03,32.83 28.56,32.83 C19.09,32.83 9.98,28.76 7.83,22.69 L49.29,22.69 L49.29,22.69 Z"
                        fill="#4350AF"></path>
                    <path
                        d="M57.2,11.04 C57.2,16.3 44.4,20.57 28.6,20.57 C12.8,20.57 0,16.3 0,11.04 C0,5.78 12.81,-9.99200722e-16 28.6,-9.99200722e-16 C44.39,-9.99200722e-16 57.2,5.78 57.2,11.04 Z"
                        fill="#4350AF"></path>
                    <path
                        d="M48.33,23.45 L8.81,23.45 C8.28,23.45 7.84,23.02 7.84,22.48 L7.84,17.49 C21.66,10.06 35.48,10.06 49.3,17.49 L49.3,22.48 C49.29,23.02 48.86,23.45 48.33,23.45 Z"
                        fill="#7E97F2"></path>
                </g>
            </g>
            <path
                d="M50.56,5.15 L51,6.04 C51.09,6.23 51.27,6.35 51.47,6.38 L52.45,6.52 C52.97,6.6 53.17,7.23 52.8,7.59 L52.1,8.29 C51.95,8.43 51.88,8.64 51.92,8.85 L52.09,9.83 C52.18,10.34 51.64,10.74 51.18,10.49 L50.3,10.03 C50.12,9.93 49.9,9.93 49.71,10.03 L48.83,10.49 C48.37,10.73 47.83,10.34 47.92,9.83 L48.09,8.85 C48.13,8.65 48.06,8.44 47.91,8.29 L47.19,7.6 C46.82,7.24 47.02,6.6 47.54,6.53 L48.52,6.39 C48.73,6.36 48.9,6.23 48.99,6.05 L49.43,5.16 C49.67,4.68 50.33,4.68 50.56,5.15 Z"
                fill="#F3BA08" id="Path"></path>
        </g>
    </g>
</svg>