<?xml version="1.0" encoding="UTF-8"?><!--
  - Copyright (c) 2023 .
  - All rights reserved.
  - Adani Digital Labs Confidential Information
  -->

<svg height="19px" version="1.1" viewBox="0 0 18 19" width="18px"
    xmlns="http://www.w3.org/2000/svg">
    <title>kilometer 1</title>
    <g fill="none" fill-rule="evenodd" id="App" stroke="none" stroke-width="1">
        <g id="5.5---Choose-Cab---srp--view-details-App"
            transform="translate(-16.000000, -613.000000)">
            <g id="Group-17" transform="translate(0.000000, 309.000000)">
                <g id="Group-45" transform="translate(15.000000, 263.000000)">
                    <g id="kilometer-1" transform="translate(1.000000, 41.000000)">
                        <rect fill="#FFFFFF" height="18" id="Rectangle" opacity="0" width="18" x="0"
                            y="0" />
                        <path
                            d="M18,9 L18,9 C18,9.495 17.595,9.9 17.1,9.9 L14.976,9.9 C14.481,9.9 14.076,9.495 14.076,9 C14.076,8.505 14.481,8.1 14.976,8.1 L16.137,8.1 C15.975,6.84 15.489,5.679 14.769,4.707 L13.851,5.589 C13.68,5.76 13.455,5.841 13.23,5.841 C12.996,5.841 12.762,5.751 12.582,5.562 C12.24,5.202 12.249,4.635 12.609,4.293 L13.527,3.411 C12.51,2.583 11.268,2.034 9.9,1.863 L9.9,3.258 C9.9,3.753 9.495,4.158 9,4.158 C8.505,4.158 8.1,3.753 8.1,3.258 L8.1,1.863 C6.741,2.034 5.49,2.583 4.473,3.411 L5.391,4.293 C5.751,4.635 5.76,5.211 5.418,5.562 C5.238,5.742 5.004,5.841 4.77,5.841 C4.545,5.841 4.32,5.76 4.149,5.589 L3.231,4.707 C2.502,5.679 2.016,6.84 1.863,8.1 L3.024,8.1 C3.519,8.1 3.924,8.505 3.924,9 C3.924,9.495 3.519,9.9 3.024,9.9 L0.9,9.9 C0.405,9.9 0,9.495 0,9 L0,9 C0,4.041 4.041,0 9,0 C13.959,0 18,4.041 18,9 L18,9 Z M9.9,6.687 L9.9,8.559 C10.971,8.937 11.745,9.945 11.745,11.133 C11.745,12.645 10.512,13.878 9,13.878 C7.488,13.878 6.255,12.645 6.255,11.133 C6.255,9.936 7.029,8.928 8.1,8.559 L8.1,6.687 C8.1,6.192 8.505,5.787 9,5.787 C9.495,5.787 9.9,6.192 9.9,6.687 Z M9.945,11.142 C9.945,10.62 9.522,10.197 9,10.197 C8.478,10.197 8.055,10.62 8.055,11.142 C8.055,11.664 8.478,12.087 9,12.087 C9.522,12.087 9.945,11.664 9.945,11.142 Z M14.958,13.05 C13.617,15.021 11.394,16.2 9.009,16.2 C6.624,16.2 4.401,15.021 3.06,13.05 C2.781,12.636 2.223,12.528 1.809,12.816 C1.395,13.104 1.287,13.653 1.575,14.067 C3.258,16.533 6.039,18.009 9.018,18.009 C11.997,18.009 14.778,16.533 16.461,14.067 C16.74,13.653 16.632,13.095 16.227,12.816 C15.813,12.537 15.255,12.645 14.976,13.05 L14.958,13.05 Z"
                            fill="#555555" id="Shape" />
                    </g>
                </g>
            </g>
        </g>
    </g>
</svg>