<!--
  - Copyright (c) 2022 .
  - All rights reserved.
  - Adani Digital Labs Confidential Information
  -->

<svg height="15" viewBox="0 0 15 15" width="15" xmlns="http://www.w3.org/2000/svg">
    <g fill="#333" fill-rule="nonzero" stroke="#F8F9F9" stroke-width=".2">
        <path
            d="M7.656 1a6.137 6.137 0 0 0-3.105.852 6.336 6.336 0 0 0-2.283 2.32V2.95a.653.653 0 0 0-.317-.563.62.62 0 0 0-.634 0A.653.653 0 0 0 1 2.95v2.6c0 .172.067.338.186.46.119.121.28.19.448.19h2.852a.631.631 0 0 0 .55-.325.665.665 0 0 0 0-.65.631.631 0 0 0-.55-.325H3.32A5.057 5.057 0 0 1 5.145 3a4.895 4.895 0 0 1 2.51-.7 5 5 0 0 1 3.38 1.316c.93.85 1.523 2.021 1.666 3.29a5.3 5.3 0 0 1-.895 3.592 5.067 5.067 0 0 1-3 2.068 4.96 4.96 0 0 1-3.582-.507 5.167 5.167 0 0 1-2.342-2.824.626.626 0 0 0-1.08-.21.663.663 0 0 0-.117.64 6.459 6.459 0 0 0 2.924 3.532 6.2 6.2 0 0 0 4.477.637 6.333 6.333 0 0 0 3.752-2.583 6.627 6.627 0 0 0 1.121-4.489 6.556 6.556 0 0 0-2.08-4.114A6.25 6.25 0 0 0 7.655 1z" />
        <path
            d="M10.033 10.1a.624.624 0 0 1-.38-.13L7.116 8.02a.656.656 0 0 1-.254-.52V4.9c0-.232.121-.447.317-.563a.62.62 0 0 1 .634 0c.196.116.317.33.317.563v2.275l2.282 1.755a.662.662 0 0 1 .127.91.629.629 0 0 1-.507.26z" />
    </g>
</svg>
