<!--
  - Copyright (c) 2022 .
  - All rights reserved.
  - Adani Digital Labs Confidential Information
  -->

<svg height="52" viewBox="0 0 58 52" width="58" xmlns="http://www.w3.org/2000/svg">
    <g fill="none">
        <path
            d="M42.95 47.944H15.633L17.11 25.78c.302-4.563 4.003-8.105 8.285-8.105h7.81c4.275 0 7.982 3.534 8.285 8.105l1.46 22.163z"
            fill="#DC464B" />
        <path
            d="M37.501 23.461c-1.203-1.367-2.92-2.212-4.774-2.212h-6.122c-3.352 0-6.25 2.765-6.492 6.345l-2.354 15.441 1.158-17.361c.235-3.58 3.133-6.354 6.493-6.354h6.114c2.625.008 4.963 1.698 5.977 4.141z"
            fill="#FFFAFF" />
        <path d="M13.643 47.406H44.94V52H13.643z" fill="#434343" />
        <path
            d="M30.91 12.622h-3.548L26.439 0h5.395zM19.787 14.604l-2.913 2.058L9.027 6.83l4.434-3.119zM13.174 23.046l-.946 3.48L0 24.068l1.438-5.278zM38.213 14.604l2.92 2.058 7.84-9.833-4.427-3.119zM44.834 23.046l.946 3.48L58 24.068l-1.43-5.278zM36.972 27.11V43.52H22.496c7.348-3.419 12.19-8.865 14.476-16.409z"
            fill="#DC464B" />
        <path d="m39.06 29.123 1.09 16.946-12.327-.222c7.635-1.798 10.549-8.182 11.237-16.724z"
            fill="#AC151E" />
        <path d="M14.438 52v-3.76l27.24-.081-23.746.968c-1.322.057-2.467.654-2.863 1.515L14.438 52z"
            fill="#FFFAFF" />
    </g>
</svg>
