<!--
  - Copyright (c) 2022 .
  - All rights reserved.
  - Adani Digital Labs Confidential Information
  -->

<svg height="28" viewBox="0 0 30 28" width="30" xmlns="http://www.w3.org/2000/svg">
    <path
        d="M26.88 11.79h-.209l-2.136-6.324a3.724 3.724 0 0 0-3.541-2.518h-2.328V.737A.742.742 0 0 0 17.92 0h-5.973a.742.742 0 0 0-.747.737v2.21H8.872a3.725 3.725 0 0 0-3.542 2.52L3.195 11.79h-.209C1.34 11.79 0 13.112 0 14.737v7.368c0 1.219 1.005 2.21 2.24 2.21v1.474C2.24 27.008 3.245 28 4.48 28h1.493c1.235 0 2.24-.992 2.24-2.21v-1.474h13.44v1.473c0 1.219 1.005 2.211 2.24 2.211h1.493c1.235 0 2.24-.992 2.24-2.21v-1.474c1.235 0 2.24-.992 2.24-2.21v-7.369c0-1.625-1.34-2.947-2.986-2.947zM12.693 1.474h4.48v1.474h-4.48V1.474zm-5.945 4.46A2.235 2.235 0 0 1 8.873 4.42h12.12c.966 0 1.82.608 2.126 1.512l1.977 5.857H4.768l1.98-5.857zM6.72 25.788a.743.743 0 0 1-.747.738H4.48a.743.743 0 0 1-.747-.738v-1.473h2.986v1.473zm19.413 0a.743.743 0 0 1-.747.738h-1.493a.743.743 0 0 1-.747-.738v-1.473h2.986v1.473zm2.24-3.684a.743.743 0 0 1-.747.737H2.24a.743.743 0 0 1-.747-.737v-7.368c0-.813.67-1.474 1.493-1.474H26.88c.825 0 1.493.661 1.493 1.474l.001 7.368zM5.6 14.737c-1.441 0-2.613 1.157-2.613 2.58 0 1.421 1.172 2.578 2.613 2.578s2.614-1.157 2.614-2.579c0-1.422-1.173-2.58-2.614-2.58zm0 3.684c-.618 0-1.12-.496-1.12-1.105 0-.61.503-1.105 1.12-1.105.618 0 1.12.496 1.12 1.105 0 .61-.502 1.105-1.12 1.105zm18.666-3.684c-1.44 0-2.613 1.157-2.613 2.58 0 1.421 1.172 2.578 2.613 2.578 1.442 0 2.614-1.157 2.614-2.579 0-1.422-1.172-2.58-2.614-2.58zm0 3.684c-.617 0-1.12-.496-1.12-1.105 0-.61.503-1.105 1.12-1.105.618 0 1.12.496 1.12 1.105 0 .61-.502 1.105-1.12 1.105z"
        fill="#555" />
</svg>
