<?xml version="1.0" encoding="UTF-8"?>
<svg width="19px" height="19px" viewBox="0 0 19 19" version="1.1" xmlns="http://www.w3.org/2000/svg" xmlns:xlink="http://www.w3.org/1999/xlink">
    <title>call-svgrepo-com</title>
    <g id="Page-2" stroke="none" stroke-width="1" fill="none" fill-rule="evenodd">
        <g id="9.8---Duty-Free-Order---Help" transform="translate(-328.000000, -483.000000)" fill="#0D67CA" fill-rule="nonzero">
            <g id="Group-6" transform="translate(0.000000, 382.000000)">
                <g id="Group-2" transform="translate(16.000000, 86.000000)">
                    <path d="M327.137,33.8951763 C325.81342,33.7900428 324.537231,33.3551346 323.425,32.63 C321.27407,31.4791106 319.310081,30.0087321 317.6,28.269 C315.827456,26.5823236 314.347023,24.6132564 313.219,22.442 C311.665,19.616 311.93,18.135 312.226,17.5 C312.568085,16.8082832 313.105624,16.2321498 313.772,15.843 C314.154049,15.5919964 314.558428,15.3767521 314.98,15.2 L315.1,15.151 C315.381193,14.9924813 315.71679,14.9619062 316.022,15.067 C316.35789,15.2289184 316.65678,15.4583631 316.9,15.741 C317.777234,16.725495 318.517276,17.8241207 319.1,19.007 C319.339298,19.4159707 319.486391,19.8722686 319.531,20.344 C319.497596,20.8098271 319.310878,21.251481 319,21.6 C318.945,21.675 318.89,21.748 318.837,21.818 C318.516,22.24 318.446,22.362 318.492,22.579 C318.921053,23.6737877 319.586168,24.6605342 320.44,25.469 C321.23633,26.3098506 322.212753,26.9594316 323.296,27.369 C323.523,27.418 323.647,27.344 324.083,27.012 C324.145,26.964 324.21,26.912 324.277,26.866 C324.625764,26.5372069 325.075442,26.3359796 325.553,26.295 L325.553,26.295 C326.031926,26.3442675 326.492435,26.505994 326.897,26.767 C328.066493,27.359883 329.159241,28.093307 330.151,28.951 C330.434741,29.1939043 330.665227,29.4928209 330.828,29.829 C330.933728,30.1361449 330.903162,30.4738322 330.744,30.757 C330.728,30.792 330.711,30.83 330.693,30.873 C330.515407,31.2935962 330.299497,31.6969627 330.048,32.078 C329.657277,32.7438088 329.079746,33.280311 328.387,33.621 C327.996558,33.8061057 327.569071,33.8998108 327.137,33.8951763 Z" id="call-svgrepo-com"></path>
                </g>
            </g>
        </g>
    </g>
</svg>