<svg xmlns="http://www.w3.org/2000/svg" xmlns:xlink="http://www.w3.org/1999/xlink" viewBox="0 0 510.1 376"><defs><path id="A" d="M0 0h510.1v376H0z"/><path id="B" d="M29.6 204.2c0-4.6.5-8.3 1.1-8.3s1.1 3.7 1 8.3c0 4.6-.5 8.3-1.1 8.3-.5 0-1-3.7-1-8.3"/><path id="C" d="M29.7 185.3c0-4.3.5-7.7 1.1-7.7s1.1 3.5 1 7.7-.5 7.7-1.1 7.7-1-3.5-1-7.7"/><path id="D" d="M126.2 133.1l-56.5 48.8-16 13.8a3.14 3.14 0 0 0 0 4.4 3.14 3.14 0 0 0 4.4 0l56.5-48.8 16-13.8a3.14 3.14 0 0 0 0-4.4c-1.3-1.2-3.2-1.2-4.4 0"/><path id="E" d="M97.1 176.8c-4.5.2-8.5 3.2-9.8 7.5-1.4 4.4.7 9 4.5 11.4 1.8 1.2 3.9 1.7 6 1.6 2.3-.2 4.4-1.1 6.1-2.7 3.3-3 4.3-7.8 2.4-11.8-2.2-4.3-7.1-6.5-11.8-5.3-1.6.5-2.6 2.2-2.1 3.8s2.1 2.6 3.8 2.1c.2-.1.4-.1.6-.1.5-.1-.2.1-.3 0h.9.2c.3 0 .2 0-.3 0 .1 0 .2.1.4.1.3.1.7.3 1.1.3-.3.1-.6-.3-.1-.1.1.1.3.1.4.2.2.1.6.5.8.5-.3 0-.5-.4-.2-.1l.4.4.3.3c.1.1.2.2.2.3-.3-.4-.3-.4-.2-.3.1.3.3.5.5.8.2.4-.1.3 0-.1 0 .2.1.3.2.4 0 .2.1.3.1.5 0 .1.2.7 0 .2-.1-.5 0 0 0 .2v.6.2c0 .3 0 .3 0-.3 0 .1-.1.2-.1.4l-.3.9c.1-.6.2-.4 0-.1-.1.1-.1.3-.2.4s-.2.3-.3.4-.1.2-.2.2c-.2.3-.1.2.1-.2-.2.2-.4.5-.7.7l-.3.3c-.5.5.6-.4 0 0-.3.2-.5.3-.8.5-.1.1-.2.1-.3.2.8-.4.2-.1-.1 0-.2 0-.3.1-.5.1-.5.1.2-.1.3 0-.2-.1-.8 0-1 0-.4 0-.6-.2 0 0-.1 0-.3-.1-.4-.1-.2 0-.4-.1-.6-.2l-.2-.1c-.3-.1-.2-.1.2.1 0 0-.8-.4-.9-.5s-.3-.2-.4-.3c-.4-.2.6.5.1.1-.2-.2-.5-.4-.7-.7l-.3-.3c.3.4.3.4.1.2-.1-.1-.1-.2-.2-.3s-.4-.9-.5-.9c.1 0 .2.7.1.2 0-.2-.1-.3-.1-.5s-.1-.3-.1-.5c.2.1.1.7 0 .1 0-.3.1-.9 0-1.1l-.1.4c0-.1 0-.3.1-.4 0-.2.1-.4.2-.6 0-.1.2-.7.1-.2-.2.5.1-.2.2-.3s.1-.2.2-.3.1-.2.2-.3c.2-.3.2-.2-.1.2.2-.3.4-.5.7-.7l.4-.4c-.3.3-.4.3-.2.2.1-.1.2-.1.2-.2.1-.1 1-.5 1-.6 0 .1-.7.3-.1.1.2-.1.4-.1.7-.2.1 0 .3 0 .4-.1-.5.1-.6.1-.2 0h.4a3.12 3.12 0 0 0 3.1-3.1c0-1.7-1.2-3.1-3-3.1"/></defs><clipPath id="F"><use xlink:href="#A"/></clipPath><g clip-path="url(#F)"><path d="M436.4 272.3c-5.3 10.6-6.1 22.9-2.2 34.1 7 19.9 28.5 36.9 23.3 57.4-.7 2.8-1.9 5.4-3.5 7.8H101.2c-7.9-8.5-15.3-20.3-16.6-34.4-1.7-17.8-2.6-37 7.2-52 7-10.7 18.6-17.6 28.8-25.5 10.3-7.9 20.1-18.2 20.9-30.9.8-12.5-7.3-23.8-16.7-32.4s-20.3-15.6-28.1-25.6c-16.2-20.9-14.6-51.3-1.1-73.9s36.8-38.3 61.3-49c31.6-13.8 67.1-20.4 101.3-14.7s66.6 24.8 84.1 53.7c11.7 19.4 17.4 43.4 35.9 57 21.4 15.7 53 12 74.8 27.1 19.3 13.4 26 41.2 14.9 61.5-8.1 14.7-23.8 24.7-31.5 39.8" fill="#d8e7ff"/><path d="M332.8 44.5c3.9-14.1 10.2-27.8 16.7-40.8l2.1 3-10 22.3c-2.5 5.5-5 11.1-8.8 15.8" fill="#019cd3"/><path d="M386.7 85.8c7.4-6.5 14.1-13.9 19.9-21.9 1.1 2.2 2.2 4.6 1.4 7-.6 1.8-2.1 3.1-3.6 4.3-3.8 3-7.6 5.8-11.5 8.6-1.9 1.3-4.3 2.7-6.4 1.9" fill="#fb4849"/><g fill="#00c2a7"><path d="M89.5 337.7c1.5-6.2 5.9-11.5 11.2-15.2s11.3-6.2 17.2-8.6l-1.6 6.7c-9.9 3.4-19 8.9-26.5 16.2m39.6-254.1c-14.8-18.4-34.6-32.1-57-39.5-.5-4.5 2.6-9 6.7-10.8s9-1.4 13.2.4c4.2 1.7 7.8 4.7 11.1 7.8C116.2 52.5 126 67.1 132 83.4"/></g><path d="M182.8 28.6c-2.7-8-7.3-16.7-13.7-22.3-.7-.6-1.5-1.4-1.3-2.3.2-.8 1.1-1.2 1.9-1.5 2.5-.8 5-1.7 7.4-2.5a201.02 201.02 0 0 1 5.7 28.6" fill="#febf23"/><path d="M62.1 254.5c-13.1.7-25.7 9-31.1 21-2.2-.6-3.3-3.4-2.7-5.6s2.3-4 4-5.5c8-7 19.2-12.3 29.7-10.6l.1.7z" fill="#019cd3"/><path d="M415.9 263c3.9-5.2 11.2-6.2 16.3-2.4 3.9 2.9 5.5 7.8 4.3 12.4 1.8.9 3.5 2 5 3.4 1.9-4.7 1.5-9.9-.9-14.3-2.5-4.4-7-7.2-12.1-7.5-5.1-.1-9.8 2.7-12.1 7.2" fill="#00c2a7"/><path d="M395.6 309.4c1.5-2.1 4.6-2.4 7-1.4s4.1 3.1 5.6 5.1c5.4 7.3 9.5 15.5 12.1 24.2 5.1-2 9.3-5.9 11.5-10.9.6-1.3.6-2.8 0-4-.9-2.1-10.9-23.1-27.5-21.1-4.7.6-9.2 4-10.2 8.6" fill="#fabe22"/><path d="M265.7 27.7c1.9-2.9 7-2.7 8.7.3s-.6 7.4-4 7.7c-3.5.3-6.5-3.7-5.2-7" fill="#fb4849"/><path d="M84.6 267.2c-2.4-2.5-7.4-1.5-8.6 1.8s1.8 7.3 5.3 7.1c3.5-.3 5.9-4.7 4.2-7.8" fill="#9c00a1"/><path d="M79 94.2a5.47 5.47 0 0 0 6 4.7c.3 0 .7-.1 1-.2 2.6-1 3.9-4 2.9-6.6s-4-3.9-6.6-2.9c-1 .4-1.9 1.1-2.5 2" fill="#fabe22"/><path d="M235.1 86.7c-2.1-6.2.8-13.4 6-17.4s12.2-5 18.7-3.9c6.4 1.1 12.4 4.2 17.9 7.8 30.8 20.3 48.4 58.8 43.7 95.3-1.1 8.8-4.4 18.6-12.6 22.1-4.3 1.8-9.1 1.5-13.7 1.2-6.8-.5-13.9-1.1-19.4-5.2-8.3-6.3-9.4-18.3-8.7-28.7s2.4-21.6-2.6-30.7c-2.9-5.3-7.8-9.2-12.4-13.3-9.5-8.4-18.5-18.7-19.8-31.3" fill="#4c4d79"/><path d="M208.8 333.5l-13.2 38.6s104 7.8 120.2 1l-7.4-38.9-38.6-2.7-61 2z" fill="#39ae68"/><g fill="#daac93"><path d="M211.5 313.9l-2.8 19.6s35.9 16.9 99.5.7l.3-18.6-97-1.7zM172.8 259c0 .3-.1.7-.1 1-.4-.1-.9-.1-1.3-.2l1.4-.8zm141 5.6c1.6 18.4 6.9 36.2 15.6 52.4 1.9 3.5 4 7 7.5 8.9 6 3.3 13.7.6 18.8-3.9 6.4-5.7 10.2-13.7 13.8-21.5l24.1-52.3c2.4-5.1 4.8-10.4 8.8-14.3 4.9-4.9 16.7-7.2 21.9-8 1.9-.3 3.8-.9 5.6-1.7 5.4-2.5 16.4-8.2 20.3-13.7 3.4-4.5-18.7 2.8-43.1 5.1-3.7.4-9.5.2-12.6 2.2-3 1.9-5 7.1-7 10-12.5 17.4-24.8 36.6-37.3 54-1.7-7.7-2.1-14.8-3.8-22.5 0-.1-22 3.7-32.6 5.3m-109.7-.6v.2c-.5 7-2 13.9-4.6 20.4-5.2 13.7-14.1 26.3-24.1 37.1-3.3 3.5-7.3 7.2-12.1 6.8-4.9-.4-8.2-4.9-10.9-9C139 299 127.9 277 119.3 254c-2.8-7.3-5.5-15-11.2-20.4-11.8-11-31.4-7.7-45.1-16.3-1.4-.9-2.8-2.7-1.6-3.8.7-.5 1.5-.6 2.3-.4l49.8 4.8c2.3.1 4.5.6 6.6 1.6 2.3 1.2 3.8 3.4 5.3 5.5l40.4 56.8c3-5.1 5-10.7 6.2-16.5h0c.3-1.7.6-3.4.7-5.2l31.4 3.9"/></g><g fill="#ae6946"><path d="M204.1 264.2c-.4 6.4-1.8 12.7-4.2 18.6-5.9-2.1-29.3-12.6-27.7-17.8 10.6.9 21.3.6 31.9-.8m111 11c11.1-3.8 21.6-9.1 31.3-15.5l.1-.1h-.1l-7.9 1c-7.9 1-15.7 2.2-23.5 3.8l-1.2.3 1.3 10.5z"/></g><path d="M244.7 180.7c24.4-4.3 36.7.6 60.3 8.1 10.3 3.3 20.6 7.9 27.7 16.1 6 7 9.2 16 10.6 25.1s3.5 20.4 3.1 29.6c-8.7 6.1-32.4 7.1-32.4 7.1s-2.1 5.6-2.9 8.7c-3.6 13.1-2.9 26.7-2.4 40.3-32.3 3.9-65 3.3-97.2-1.7.2-13.4-2.1-26.8-6.8-39.4-.9-2.4-1.4-4.1-1.4-4.1s-21.8 1.8-32.2-5.6c2.9-15.4 6.8-30.5 10.7-45.6 8.8-33.3 62.9-38.6 62.9-38.6" fill="#ffc7c6"/><path d="M234.4 78.1c-4.6-2.2-10.1-1.3-14.5 1.3s-7.5 6.7-10.2 11c-10.2 16.7-12.9 37-11.8 56.5.4 6.7 1.2 13.4 3.5 19.7s6.2 12.2 11.9 15.8c11.4 7.4 26.7 4.2 34.1-7.2 2.5-3.8 3.9-8.2 4-12.8-13.6-15.8-19.7-36.7-16.7-57.3 1.4-9.3 4.4-19.5-.7-27.3" fill="#4c4d79"/><path d="M227.6 155.9c-1.1-.6-1.9-1.6-2.1-2.8l-.5-2.7c-.7-4.5-.5-9.1.6-13.5.5-2.3 1.3-4.3 2.5-5.3s2.1-.7 2.1-.6c0 .2-.8.3-1.5 1.2-.8.9-1.3 2.7-1.6 5-.4 2.7-.6 5.4-.5 8.1.1 1.6.2 3.2.5 4.8s.6 3.6 1.4 3.8c.5.2 1.1.1 1.5-.3.5-.4.9-1 1.1-1.6.4-1.5.8-3 .9-4.6.3-2.7.5-5.5.5-8.2 0-4.7 0-7.7.3-7.7s.8 2.9 1.2 7.6c.2 2.8.2 5.6 0 8.5-.1 1.7-.4 3.4-.9 5.1a5.34 5.34 0 0 1-1.8 2.6c-1.1.9-2.4 1.1-3.7.6" fill="#fff"/><path d="M290.7 192.5c-.8 9.3-1.5 18.6-4.3 27.5s-7.7 17.4-15.4 22.7-18.2 6.9-26.4 2.5c-9.5-5.1-13.6-16.6-14.4-27.3-.6-8.5-1.1-32.1 2.6-34.9 2.5-1.8 5.1-3.5 7.2-6 2.3-2.7 3.7-6.1 4.2-9.6.8-6.4-1.4-12.3-3.1-14.2l-.1-.1c-5.7-4.1-9.1-10.7-11.2-17.4-4.3-13.9-4.3-28.9.1-42.8 1.5-4.8 2-5.9 6.5-7.7.6 3.8 4.9 6.4 7.8 7.6 5.2 2.6 10.3 5.6 15.1 8.9.8.5 1.6 1.1 2.4 1.6 4.7 3.2 8.9 6.6 10.9 9.1 1.8 2.3 4.6 5.1 7.1 3.6 1.4-.8 2.4-2.7 3.9-2.3.7.3 1.3.8 1.6 1.6 2 4 1.3 8.9-.3 13.1s-4.1 8-5.6 12.2c-2.6 7.3-3.7 15-3.2 22.7.3 5.2 2.4 11.1 6.1 14.7 2.3 2.2 5.7 3.4 7.4 6.2 1.5 2.5 1.3 5.5 1.1 8.3" fill="#daac93"/><g fill="#ae6946"><path d="M244.4 125v.5c0 .1.1.2.2.2.5.2 1 .3 1.5.3 1.4 0 2.6-.1 3.7-.2 2.1-.2 3.5-.5 3.6-.1.1.3-1 1.2-3.2 1.9-1.3.4-2.6.7-3.9.8-1 .1-2 0-2.9-.4-.6-.3-1.1-.9-1.4-1.5-.2-.6-.3-1.3-.2-1.9.2-1 .7-1.9 1.3-2.7l1.2-1.8c.6-1 1.2-2.1 1.7-3.2.9-1.9 1.3-3.2 1.7-3.1.3 0 .5 1.5 0 3.7-.3 1.3-.8 2.6-1.4 3.8l-1.2 2.1c-.2.5-.5 1-.7 1.6m-12.1-23.8c2.1-.7 4.4-.3 6.2 1.1 1.3 1 1.6 2.1 1.4 2.2-.3.2-1-.3-2.2-.7-3-1.2-6.5-.1-8.3 2.6-.8 1-1.1 1.9-1.5 1.8-.3 0-.7-1-.2-2.6a7.43 7.43 0 0 1 4.6-4.4m1.6 12.5l6.7-1.3c.5 1.7-.5 3.5-2.3 3.9-1.7.5-3.5-.5-3.9-2.3 0-.1-.1-.2-.1-.3m25-2.7l6.7-1.3c.5 1.7-.5 3.5-2.3 3.9s-3.5-.5-3.9-2.3c0-.1-.1-.2-.1-.3m-15.4 56.4c.8-6.4-1.4-12.3-3.1-14.2 3.7 2.2 13.1 6.4 22.5.2-9.2 7.2-15.8 11.7-19.4 14"/></g><g fill="#63648a"><path d="M129.2 248.8l-2.9 4.6c-1 1.4-2.2 2.7-3.5 3.8-.7.6-1.6 1-2.5 1.2s-1.9.1-2.8-.3c-1.4-.8-2.4-2.1-2.7-3.7-.2-1.2-.1-2.4.3-3.5.3-.8.6-1.6 1.1-2.3.7-1.1 1.2-1.7 1.4-1.6s-.1.8-.5 2-1.1 3.1-.5 4.9c.3 1 .9 1.8 1.8 2.2 1 .3 2.2 0 2.9-.8 1.1-1.1 2.1-2.2 2.9-3.5 1-1.4 1.9-2.8 2.7-4.3 1.5-2.9 2.7-5.9 3.6-9.1.4-1.5.7-2.9.9-4.2.2-1.2.4-2.4.3-3.6 0-.9-.3-1.7-.8-2.4-.4-.5-1-.9-1.7-1-1.1-.3-1.7.2-1.8.1s0-.3.3-.5c.5-.4 1-.6 1.6-.6.9 0 1.9.4 2.6 1 .9.9 1.5 2 1.6 3.3.2 1.4.2 2.7 0 4.1-.1 1.5-.4 3-.7 4.5-.8 3.4-2 6.7-3.6 9.7"/><path d="M125.1 244l-2.9 4.6c-1 1.4-2.2 2.7-3.5 3.8-.7.6-1.6 1-2.5 1.2s-1.9.1-2.8-.3c-1.4-.8-2.4-2.1-2.7-3.7-.2-1.2-.1-2.4.3-3.5.3-.8.6-1.6 1.1-2.3.7-1.1 1.2-1.7 1.4-1.6s-.1.8-.5 2-1.1 3.1-.5 4.9c.3 1 .9 1.8 1.8 2.2 1 .3 2.2 0 2.9-.8 1.1-1.1 2.1-2.2 2.9-3.5 1-1.4 1.9-2.8 2.7-4.3 1.5-2.9 2.7-5.9 3.6-9.1.4-1.5.7-2.9.9-4.2.2-1.2.4-2.4.3-3.6 0-.9-.3-1.7-.8-2.4-.4-.5-1-.9-1.7-1-1.1-.3-1.7.2-1.8.1s0-.3.3-.5c.5-.4 1-.6 1.6-.6.9 0 1.9.4 2.6 1 .9.9 1.5 2 1.6 3.3.2 1.4.2 2.7 0 4.1-.1 1.5-.4 3-.7 4.5-.7 3.3-1.9 6.6-3.6 9.7"/></g><path d="M168.8 281.7c3.8 5.3 5.2 10.4 4.6 10.6-.7.3-3.1-4.2-6.7-9.2s-7-8.7-6.5-9.3c.4-.4 4.8 2.6 8.6 7.9" fill="#ae6946"/><path d="M172.3 265.1c0 .1 0 .1 0 0h-.3c-.6 0-1.1-.1-1.7-.1l1.7.1h.3z" fill="#4c4d79"/><path d="M350.3 286c-1.7 4.2-3.3 7.5-4 7.3s-.2-4 1.6-8.3 4-7.4 4.7-7.1c.6.4-.6 3.9-2.3 8.1" fill="#ae6946"/><g fill="#610066"><path d="M202.1 257.8c2.6 13.3 7.9 23.1 7.2 23.4-.3.2-2-2.1-4-6.1-5.3-10.7-7.6-22.6-6.9-34.5.3-4.5 1-7.3 1.4-7.2.7 0-.4 11.1 2.3 24.4m115 1.2c-.9 5.3-2.5 10.5-4.6 15.4-1.7 3.7-3.2 5.8-3.5 5.7-.7-.3 3.6-9.4 5.6-21.5 2.1-12.1 1-22.1 1.8-22.2.3 0 1 2.4 1.4 6.5.4 5.4.2 10.8-.7 16.1"/></g><g fill="#4c4d79"><path d="M400.7 233.2c-.8-.4-1.7-.2-2.3.3-.6.6-1.1 1.2-1.4 2-.7 1.3-1.2 2.7-1.7 4.1-.4.8-.5 1.7-.3 2.5.4 1.5 2.4 2.2 3.9 1.6 1.4-.7 2.5-2 3-3.5.6-1.5.7-3.1.3-4.6-.5-1.5-1.9-2.6-3.6-2.6m-9.9-8.2c-.4 2.5.4 5 2.1 6.7 1.8 1.7 4 2.9 6.4 3.4l-2.4 4.7c-2.9-1.1-5.8-2.8-7.5-5.5-1.7-2.6-1.9-6.4.2-8.7"/></g><path d="M266 126.7s-10.7 9.3-20.2 8.8c1.2 1.9 2.8 3.7 4.5 5.2 4 3.3 10 2.8 13.3-1.2.4-.5.8-1 1.1-1.6 1.2-2.5 1.9-5.8 1.3-11.2" fill="#fff"/><path d="M261.8 103.4c-.1 0-.2.1-.2.1-1.9.8-3.2 2-3.8 1.7-.3-.2-.3-.8.1-1.7.4-.7.9-1.3 1.6-1.8l2.3 1.7" fill="#ae6946"/><path d="M290.4 145.8c1.1.1 2.1-1 2.4-2.3.2-1.4.1-2.8-.3-4.2-.6-2.5-1.6-4.9-3-7-2.4-3.7-4.7-5.4-4.4-5.7.1-.2 2.8 1.1 5.7 4.8 1.7 2.2 2.9 4.7 3.6 7.4.5 1.6.7 3.4.4 5.1-.2 1-.7 2-1.4 2.7-.8.8-1.9 1.3-3.1 1.3-1.1-.1-2.1-.5-2.9-1.2-.7-.6-1.4-1.3-1.9-2-.9-1.4-1.7-2.8-2.3-4.4-1-2.6-1.5-5.3-1.5-8.1.1-4.7 1.5-7.4 1.7-7.3.3.1-.5 2.8-.2 7.2.2 2.5.8 5 1.8 7.4.6 1.4 1.3 2.7 2.2 3.9.8 1.2 2.1 2.3 3.2 2.4" fill="#fff"/><path d="M144.9 168.7c0 12.2 8.1 23 19.8 26.3v20.8H0v-20.1c13-2.4 22.4-13.8 22.4-27A27.34 27.34 0 0 0 0 141.8v-21.3h164.7v21.9c-11.7 3.4-19.8 14.1-19.8 26.3" fill="#0280ff"/><g fill="#fff"><use xlink:href="#B"/><use xlink:href="#C"/><path d="M29.8 166.4c0-3.9.5-7.1 1.1-7.1s1.1 3.2 1 7.1-.5 7.1-1.1 7.1-1.1-3.2-1-7.1m0-18.9c0-3.6.5-6.5 1.1-6.5s1.1 2.9 1 6.5c0 3.6-.5 6.5-1.1 6.5s-1-2.9-1-6.5m.1-18.9c0-3.2.5-5.9 1.1-5.9s1.1 2.6 1 5.9-.5 5.9-1.1 5.9-1-2.7-1-5.9"/><use xlink:href="#D"/><path d="M92.9 132c-4.5.2-8.5 3.1-9.8 7.5-1.4 4.4.7 9 4.5 11.4 1.8 1.2 3.9 1.7 6 1.6 2.3-.2 4.4-1.1 6.1-2.7 3.3-3 4.3-7.8 2.4-11.8-2.2-4.3-7.1-6.5-11.8-5.3-1.6.5-2.6 2.2-2.1 3.8s2.1 2.6 3.8 2.1c.2 0 .4-.1.6-.1.5-.1-.2.1-.3 0h.9.2c.3 0 .2 0-.3 0 .1 0 .2.1.4.1.3.1.7.3 1.1.3-.3.1-.6-.3-.1-.1.1.1.3.1.4.2.2.1.6.5.8.5-.3 0-.5-.4-.2-.1l.4.4.3.3c.1.1.2.2.2.3-.3-.4-.3-.4-.2-.3.1.3.3.5.5.8.2.4-.1.3 0-.1 0 .2.1.3.2.4 0 .2.1.3.1.5 0 .1.2.7 0 .2-.1-.5 0 0 0 .2v.6.2c0 .3 0 .3 0-.3 0 .1-.1.2-.1.4l-.3.9c.1-.6.2-.4 0-.1-.1.1-.1.3-.2.4s-.2.3-.3.4-.1.2-.2.2c-.2.3-.1.2.1-.2-.2.2-.4.5-.7.7l-.3.3c-.5.5.6-.4 0 0-.3.2-.5.3-.8.5-.1.1-.2.1-.3.2.8-.4.2-.1-.1 0-.2 0-.3.1-.5.1-.5.1.2-.1.3 0-.2-.1-.8 0-1 0-.4 0-.6-.2 0 0-.1 0-.3-.1-.4-.1-.2 0-.4-.1-.6-.2l-.2-.1c-.3-.1-.2-.1.2.1 0 0-.8-.4-.9-.5s-.3-.2-.4-.3c-.4-.2.6.5.1.1-.2-.2-.5-.4-.7-.7l-.3-.3c.3.4.3.4.1.2-.1-.1-.1-.2-.2-.3s-.4-.9-.5-.9c.1 0 .2.7.1.2 0-.2-.1-.3-.1-.5s-.1-.3-.1-.5c.2.1.1.7 0 .1 0-.3.1-.9 0-1.1l-.1.4c0-.1 0-.3.1-.4 0-.2.1-.4.2-.6 0-.1.2-.7.1-.2-.2.5.1-.2.2-.3s.1-.2.2-.3.1-.2.2-.3c.2-.3.2-.2-.1.2.2-.3.4-.5.7-.7l.4-.4c-.3.3-.4.3-.2.2.1-.1.2-.1.2-.2.1-.1 1-.5 1-.6 0 .1-.7.3-.1.1.2-.1.4-.1.7-.2.1 0 .3 0 .4-.1-.5.1-.6.1-.2 0h.4a3.12 3.12 0 0 0 3.1-3.1c0-1.7-1.3-3.1-3-3.1"/><use xlink:href="#E"/></g><path d="M490.3 168.7c0 12.2 8.1 23 19.8 26.3v20.8H345.4v-20.1c14.9-2.8 24.7-17.1 21.9-32-2.1-11.1-10.8-19.9-21.9-21.9v-21.3h164.7v21.9c-11.7 3.4-19.8 14.1-19.8 26.3" fill="#ffc127"/><g fill="#fff"><path d="M375 204.2c0-4.6.5-8.3 1.1-8.3s1.1 3.7 1 8.3c0 4.6-.5 8.3-1.1 8.3-.5 0-1-3.7-1-8.3m.1-18.9c0-4.3.5-7.7 1.1-7.7s1.1 3.5 1 7.7-.5 7.7-1.1 7.7-1-3.5-1-7.7m0-18.9c0-3.9.5-7.1 1.1-7.1s1.1 3.2 1 7.1-.5 7.1-1.1 7.1c-.5 0-1-3.2-1-7.1m.1-18.9c0-3.6.5-6.5 1.1-6.5s1.1 2.9 1 6.5-.5 6.5-1.1 6.5-1-2.9-1-6.5m.1-18.9c0-3.2.5-5.9 1.1-5.9s1.1 2.6 1 5.9-.5 5.9-1.1 5.9c-.6-.1-1-2.7-1-5.9m95.9 6.2l-56.5 48.8-16 13.8a3.14 3.14 0 0 0 0 4.4 3.14 3.14 0 0 0 4.4 0l56.5-48.8 16-13.8a3.14 3.14 0 0 0 0-4.4c-1.3-1.2-3.2-1.2-4.4 0"/><path d="M437.9 133.8c-4.5.2-8.5 3.2-9.8 7.5-1.4 4.4.7 9 4.5 11.4 1.8 1.2 3.9 1.7 6 1.6 2.3-.2 4.4-1.1 6.1-2.7 3.3-3 4.3-7.8 2.4-11.8-2.2-4.3-7.1-6.5-11.8-5.3-1.6.5-2.6 2.2-2.1 3.8s2.1 2.6 3.8 2.1c.2-.1.4-.1.6-.1.5-.1-.2.1-.3 0h.9.2c.3 0 .2 0-.3 0 .1 0 .2.1.4.1.3.1.7.3 1.1.3-.3.1-.6-.3-.1 0 .1.1.3.1.4.2.2.1.6.5.8.5-.3 0-.5-.4-.2-.1l.4.4.3.3c.1.1.2.2.2.3-.3-.4-.3-.4-.2-.3.1.3.3.5.5.8.2.4-.1.3 0-.1 0 .2.1.3.2.4 0 .2.1.3.1.5 0 .1.2.7 0 .2-.1-.5 0 0 0 .2v.6.2c0 .3 0 .3 0-.3 0 .1-.1.2-.1.4l-.3.9c.1-.6.2-.4 0-.1-.1.1-.1.3-.2.4s-.2.3-.3.4-.1.2-.2.2c-.2.3-.1.2.1-.2-.2.2-.4.5-.7.7l-.3.3c-.5.5.6-.4 0 0-.3.2-.5.3-.8.5-.1.1-.2.1-.3.2.8-.4.2-.1-.1 0-.2 0-.3.1-.5.1-.5.1.2-.1.3 0-.2-.1-.8 0-1 0-.4 0-.6-.2 0 0-.1 0-.3-.1-.4-.1-.2 0-.4-.1-.6-.2l-.2-.1c-.3-.1-.2-.1.2.1 0 0-.8-.4-.9-.5s-.3-.2-.4-.3c-.4-.2.6.5.1.1-.2-.2-.5-.4-.7-.7l-.3-.3c.3.4.3.4.1.2-.1-.1-.1-.2-.2-.3s-.4-.9-.5-.9c.1 0 .2.7.1.2 0-.2-.1-.3-.1-.5s-.1-.3-.1-.5c.2.1.1.7 0 .1 0-.3.1-.9 0-1.1l-.1.4c0-.1 0-.3.1-.4 0-.2.1-.4.2-.6 0-.1.2-.7.1-.2s.1-.2.2-.3.1-.2.2-.3.1-.2.2-.3c.2-.3.2-.2-.1.2.2-.3.4-.5.7-.7l.4-.4c-.3.3-.4.3-.2.2.1-.1.2-.1.2-.2.1-.1 1-.5 1-.6 0 .1-.7.3-.1.1.2-.1.4-.1.7-.2.1 0 .3 0 .4-.1-.5.1-.6.1-.2 0h.4a3.12 3.12 0 0 0 3.1-3.1c0-1.7-1.3-3.2-3-3.2m4.2 44.7c-4.5.2-8.5 3.2-9.8 7.5-1.4 4.4.7 9 4.5 11.4 1.8 1.2 3.9 1.7 6 1.6 2.3-.2 4.4-1.1 6.1-2.7 3.3-3 4.3-7.8 2.4-11.8-2.2-4.3-7.1-6.5-11.8-5.3-1.6.5-2.6 2.2-2.1 3.8s2.1 2.6 3.8 2.1c.2-.1.4-.1.6-.1.5-.1-.2.1-.3 0h.9.2c.3 0 .2 0-.3 0 .1 0 .2.1.4.1.3.1.7.3 1.1.3-.3.1-.6-.3-.1-.1.1.1.3.1.4.2.2.1.6.5.8.5-.3 0-.5-.4-.2-.1l.4.4.3.3c.1.1.2.2.2.3-.3-.4-.3-.4-.2-.3.1.3.3.5.5.8.2.4-.1.3 0-.1 0 .2.1.3.2.4 0 .2.1.3.1.5 0 .1.2.7 0 .2-.1-.5 0 0 0 .2v.6.2c0 .3 0 .3 0-.3 0 .1-.1.2-.1.4l-.3.9c.1-.6.2-.4 0-.1-.1.1-.1.3-.2.4s-.2.3-.3.4-.1.2-.2.2c-.2.3-.1.2.1-.2-.2.2-.4.5-.7.7l-.3.3c-.5.5.6-.4 0 0-.3.2-.5.3-.8.5-.1.1-.2.1-.3.2.8-.4.2-.1-.1 0-.2 0-.3.1-.5.1-.5.1.2-.1.3 0-.2-.1-.8 0-1 0-.4 0-.6-.2 0 0-.1 0-.3-.1-.4-.1-.2 0-.4-.1-.6-.2l-.2-.1c-.3-.1-.2-.1.2.1 0 0-.8-.4-.9-.5s-.3-.2-.4-.3c-.4-.2.6.5.1.1-.2-.2-.5-.4-.7-.7l-.3-.3c.3.4.3.4.1.2-.1-.1-.1-.2-.2-.3s-.4-.9-.5-.9c.1 0 .2.7.1.2 0-.2-.1-.3-.1-.5s-.1-.3-.1-.5c.2.1.1.7 0 .1 0-.3.1-.9 0-1.1l-.1.4c0-.1 0-.3.1-.4 0-.2.1-.4.2-.6 0-.1.2-.7.1-.2-.2.5.1-.2.2-.3s.1-.2.2-.3.1-.2.2-.3c.2-.3.2-.2-.1.2.2-.3.4-.5.7-.7l.4-.4c-.3.3-.4.3-.2.2.1-.1.2-.1.2-.2.1-.1 1-.5 1-.6 0 .1-.7.3-.1.1.2-.1.4-.1.7-.2.1 0 .3 0 .4-.1-.5.1-.6.1-.2 0h.4a3.12 3.12 0 0 0 3.1-3.1c0-1.7-1.2-3.1-3-3.1"/></g><path d="M274.2 369.6c109.4 0 198.2 1.4 198.2 3.2s-88.7 3.2-198.2 3.2S76 374.6 76 372.8c.1-1.8 88.8-3.2 198.2-3.2" fill="#4c4d79"/></g></svg>