<?xml version="1.0" encoding="UTF-8"?>
<svg width="24px" height="30px" viewBox="0 0 24 30" version="1.1" xmlns="http://www.w3.org/2000/svg" xmlns:xlink="http://www.w3.org/1999/xlink">
    <title>A1 Gradient</title>
    <defs>
        <linearGradient x1="-10.1985956%" y1="67.0636807%" x2="105.584484%" y2="34.5049275%" id="linearGradient-1">
            <stop stop-color="#0FB371" offset="0%"></stop>
            <stop stop-color="#2073B8" offset="35%"></stop>
            <stop stop-color="#6B5CA6" offset="49%"></stop>
            <stop stop-color="#923993" offset="64%"></stop>
            <stop stop-color="#F05636" offset="89%"></stop>
            <stop stop-color="#F05636" offset="100%"></stop>
        </linearGradient>
        <path d="M12.5016252,0 C9.10763845,0 5.60901363,0.867404605 3.99162395,1.63013833 L3.99162395,1.63013833 C2.49312414,2.29207106 2.04644331,3.37674144 2.04644331,4.31159242 L2.04644331,4.31159242 C2.04644331,6.0049387 3.65614452,7.26614905 6.10782598,6.4918057 L6.10782598,6.4918057 C7.6623953,5.94836482 9.8896112,5.29232905 12.1599575,5.29232905 L12.1599575,5.29232905 C16.4966246,5.29232905 18.3315414,6.87916165 18.3315414,10.5887123 L18.3315414,10.5887123 L18.3315414,12.385808 C15.7695962,11.7907688 13.8821728,11.4679108 11.2731591,11.4679108 L11.2731591,11.4679108 C3.75590699,11.4679108 0.231403925,15.4936853 0,20.0461314 L0,20.0461314 L0,21.045296 C0.224278035,25.8129807 3.53331666,29.4720386 9.97399675,29.9331065 L9.97399675,29.9331065 C10.3972372,29.9745694 10.8313539,29.9977886 11.2761595,30 L11.2761595,30 L11.2761595,21.3362736 L8.50343793,22.8840389 C7.8519815,23.2358289 7.17933492,23.3228089 6.48606076,23.1477432 L6.48606076,23.1477432 C5.79334917,22.9721246 5.26790849,22.5543625 4.91086386,21.8933512 L4.91086386,21.8933512 C4.74209276,21.5837613 4.64326791,21.2634831 4.61157645,20.9338067 L4.61157645,20.9338067 C4.57950994,20.6032089 4.61157645,20.2786924 4.70608826,19.9582299 L4.70608826,19.9582299 C4.80060008,19.6377675 4.95286911,19.3384973 5.16289536,19.0596821 L5.16289536,19.0596821 C5.37292162,18.7806826 5.63526691,18.5488587 5.95086886,18.3629205 L5.95086886,18.3629205 L12.4425553,14.770756 C12.9036755,14.5232684 13.3767971,14.3988796 13.8604201,14.3988796 L13.8604201,14.3988796 C14.3016627,14.3988796 14.684398,14.4877024 15.0105013,14.6627681 L15.0105013,14.6627681 C15.3354794,14.838571 15.6092637,15.0549154 15.8303538,15.312907 L15.8303538,15.312907 C16.0506938,15.5714514 16.2130891,15.8596649 16.3181023,16.1801273 L16.3181023,16.1801273 C16.4231154,16.5004054 16.475622,16.7947001 16.475622,17.0628271 L16.475622,17.0628271 L16.475622,29.4447652 C16.5768846,29.4220988 16.6794599,29.4016438 16.779785,29.3776874 L16.779785,29.3776874 C19.7645956,28.6971424 21.9235529,27.5997568 22.9436805,26.9293472 L22.9436805,26.9293472 C23.7824728,26.3696897 24,25.7803632 24,24.794651 L24,24.794651 L24,10.5887123 C24,3.21586525 19.608201,0 12.5016252,0 Z" id="path-2"></path>
    </defs>
    <g id="A1-Gradient" stroke="none" stroke-width="1" fill="none" fill-rule="evenodd">
        <mask id="mask-3" fill="white">
            <use xlink:href="#path-2"></use>
        </mask>
        <use fill="url(#linearGradient-1)" fill-rule="nonzero" xlink:href="#path-2"></use>
    </g>
</svg>