<?xml version="1.0" encoding="UTF-8"?>
<svg width="113px" height="46px" viewBox="0 0 113 46" version="1.1" xmlns="http://www.w3.org/2000/svg" xmlns:xlink="http://www.w3.org/1999/xlink">
    <title>Saved flights screen</title>
    <g id="Page-1" stroke="none" stroke-width="1" fill="none" fill-rule="evenodd">
        <g id="Saved" fill-rule="nonzero">
            <g id="Saved-flights-screen" transform="translate(0.000000, -0.000000)">
                <g id="Group" transform="translate(14.320000, 0.000000)">
                    <g transform="translate(2.990000, 35.980000)" id="Path">
                        <polygon fill="#C4DEFF" points="6.37 0.17 6.32 0.26 5.57 1.65 1.51 9.14 3.55271368e-15 9.01 2.64 0.53 2.65 0.52 2.81 0"></polygon>
                        <polygon fill="#C4DEFF" points="74.48 9.01 72.99 9.14 68.37 0.53 68.36 0.51 68.18 0.17 71.7 0 71.78 0.26 72.23 1.74"></polygon>
                        <polygon fill="#34365A" points="6.32 0.26 5.57 1.65 2.64 0.53 2.62 0.52 2.65 0.52"></polygon>
                        <polygon fill="#34365A" points="6.32 0.26 5.57 1.65 2.64 0.53 2.62 0.52 2.65 0.52"></polygon>
                        <polygon fill="#34365A" points="72.23 1.74 68.37 0.53 68.33 0.51 68.36 0.51 71.78 0.26"></polygon>
                    </g>
                    <g transform="translate(0.000000, 25.970000)" id="Path">
                        <polygon fill="#34365A" points="80.8 8.25 80.36 10.52 78.76 8.43"></polygon>
                        <polygon fill="#34365A" points="80.36 10.52 0.29 10.52 6.53 2.03 74.12 2.03"></polygon>
                        <polygon fill="#C4DEFF" points="80.8 8.46 0 8.46 6.3 0 74.51 0"></polygon>
                        <polygon fill="#34365A" points="0 8.46 0.3 10.52 1.85 8.46"></polygon>
                    </g>
                    <g transform="translate(15.194429, 0.000000)">
                        <polygon id="Path" fill="#2575D6" points="9.4255707 24.99 0.5055707 24.97 0.4955707 24.24 3.7655707 24.49 9.2455707 24.45"></polygon>
                        <g transform="translate(-0.000000, 0.000000)">
                            <path d="M3.1455707,20.56 L1.6355707,23.38 C1.3955707,23.83 2.0155707,24.34 2.5755707,24.35 L11.0455707,24.42 L10.9355707,24.73 L0.7555707,24.64 C0.1955707,24.64 -0.1644293,24.11 0.0755707004,23.66 L1.9555707,20.16 C2.0855707,19.93 2.3455707,19.78 2.6355707,19.77 L12.7155707,19.68 L12.5655707,20.08 L4.0855707,20.16 C3.7955707,20.16 3.2755707,20.32 3.1455707,20.55 L3.1455707,20.56 Z" id="Path" fill="#1254B5"></path>
                            <g transform="translate(7.956280, 0.000000)">
                                <path d="M33.7792907,23.99 L35.2092907,23.26 L35.0092907,21.82 C35.0092907,21.82 35.4692907,21.16 34.1192907,21.02 C34.0092907,20.08 33.7792907,18.9 32.9992907,18.8 L32.8592907,18.49 L33.5492907,18.32 L33.3792907,16.91 L33.0592907,16.3 L31.6592907,16.13 L33.7792907,23.98 L33.7792907,23.99 Z" id="Path" fill="#34365A"></path>
                                <g>
                                    <ellipse id="Oval" fill="#34365A" cx="33.9892907" cy="31.37" rx="1.38" ry="1.14"></ellipse>
                                    <path d="M5.29929072,19.82 L5.29929072,19.82 L5.46929072,20.67 L3.92929072,25.5 C3.92929072,25.5 0.799290722,25.59 0.619290722,25.67 C1.45929072,21.86 4.40929072,16.73 5.00929072,15.08 L5.00929072,15.08 C5.15929072,14.79 5.24929072,14.63 5.24929072,14.63 L5.24929072,14.65 C5.30929072,17.01 5.30929072,19.68 5.30929072,19.81 L5.29929072,19.82 Z" id="Path" fill="#A3C8FF"></path>
                                    <polygon id="Path" fill="#34365A" points="33.3792907 28.34 2.99929072 28.29 5.46929072 20.66 31.1492907 20.62"></polygon>
                                    <polygon id="Path" fill="#A3C8FF" points="34.1892907 24.06 32.5092907 25.37 31.1392907 20.65 31.3092907 20.27 31.2392907 14.65 31.2392907 14.67 31.5492907 15.57"></polygon>
                                    <path d="M31.3092907,20.27 C31.3092907,20.27 31.2092907,20.63 31.1892907,20.63 C30.1792907,20.63 5.34929072,20.67 5.30929072,20.67 C5.26929072,20.67 5.23929072,19.82 5.23929072,19.82 L5.23929072,14.65 L31.2392907,14.65 L31.2392907,14.68 L31.3092907,20.28 L31.3092907,20.27 Z" id="Path" fill="#A3C8FF"></path>
                                    <path d="M0.579290722,25.59 C0.629290722,27.05 -0.920709278,32.13 1.59929072,33.56 C2.33929072,33.98 4.57929072,33.93 5.62929072,33.9 L30.8792907,33.17 C36.3592907,33.01 33.5792907,24.08 34.1892907,24.04 C23.0492907,24.73 0.579290722,25.58 0.579290722,25.58 L0.579290722,25.59 Z" id="Path" fill="#FF5B4A"></path>
                                    <path d="M5.51929072,14.64 L5.51929072,20.67 L5.41929072,20.84 L4.99929072,15.09 L4.99929072,15.09 C5.14929072,14.8 5.23929072,14.64 5.23929072,14.64 L5.51929072,14.64 L5.51929072,14.64 Z" id="Path" fill="#5C9BFF"></path>
                                    <path d="M5.23929072,14.64 C5.54929072,14.47 3.12929072,19.62 1.90929072,22.39 C1.64929072,22.98 0.959290722,24.1 1.14929072,24.71 C1.33929072,25.32 1.81929072,25.55 2.65929072,25.48 C2.38929072,25.72 1.37929072,25.85 0.579290722,25.83 C0.499290722,24.85 1.05929072,23.14 1.60929072,22.22" id="Path" fill="#FF5B4A"></path>
                                    <path d="M28.8192907,14.48 L8.06929072,14.48 C6.28929072,14.48 4.78929072,13.4 4.53929072,11.95 L3.19929072,3.91 C2.89929072,2.11 4.59929072,0.51 6.80929072,0.51 L30.4292907,0.51 C32.4892907,0.51 34.0992907,1.99 33.8692907,3.68 L32.7992907,11.55 C32.5692907,13.21 30.8592907,14.47 28.8292907,14.47 L28.8192907,14.48 Z" id="Path" fill="#1254B5"></path>
                                    <path d="M8.30929072,0 C14.3292907,0 20.0592907,0.02 25.2792907,0.03 C26.5792907,0.03 27.8592907,0.03 29.0892907,0.04 C29.7192907,0.05 30.2892907,0.03 30.9492907,0.07 C31.5892907,0.13 32.1992907,0.34 32.7092907,0.63 C33.7292907,1.23 34.2992907,2.24 34.2592907,3.19 C34.1692907,4.11 34.0192907,4.93 33.9092907,5.74 C33.6692907,7.35 33.4592907,8.81 33.2692907,10.09 C33.1592907,10.73 33.1292907,11.32 32.9492907,11.89 C32.7692907,12.45 32.4192907,12.9 32.0392907,13.25 C31.2692907,13.95 30.3792907,14.2 29.8092907,14.29 C29.5192907,14.33 29.2892907,14.34 29.1392907,14.34 C28.9892907,14.34 28.9092907,14.34 28.9092907,14.32 C28.9092907,14.29 29.2192907,14.3 29.7692907,14.18 C30.3092907,14.06 31.1392907,13.79 31.8292907,13.11 C32.1692907,12.77 32.4792907,12.34 32.6292907,11.82 C32.7692907,11.31 32.7992907,10.69 32.8892907,10.06 C33.0492907,8.78 33.2292907,7.32 33.4292907,5.7 C33.5192907,4.9 33.6592907,4.03 33.7292907,3.18 C33.7492907,2.36 33.2492907,1.51 32.3692907,1 C31.9292907,0.75 31.4092907,0.58 30.8692907,0.53 C30.3292907,0.5 29.6792907,0.53 29.0792907,0.53 C27.8392907,0.53 26.5692907,0.53 25.2692907,0.54 C20.0492907,0.54 14.3192907,0.55 8.29929072,0.56 C7.55929072,0.57 6.76929072,0.52 6.12929072,0.62 C5.46929072,0.73 4.85929072,1.01 4.39929072,1.41 C3.93929072,1.8 3.62929072,2.32 3.52929072,2.85 C3.46929072,3.12 3.47929072,3.39 3.50929072,3.65 C3.55929072,3.94 3.60929072,4.23 3.64929072,4.52 C4.02929072,6.83 4.39929072,9.07 4.74929072,11.19 C4.78929072,11.45 4.82929072,11.73 4.88929072,11.96 C4.95929072,12.2 5.04929072,12.42 5.18929072,12.64 C5.45929072,13.06 5.86929072,13.42 6.34929072,13.67 C6.82929072,13.92 7.37929072,14.06 7.92929072,14.08 C8.49929072,14.09 9.10929072,14.08 9.68929072,14.09 C12.0092907,14.1 14.1692907,14.11 16.1392907,14.12 C20.0792907,14.16 23.2792907,14.19 25.4792907,14.21 L28.0192907,14.26 C28.5992907,14.28 28.9092907,14.3 28.9092907,14.32 C28.9092907,14.34 28.5992907,14.36 28.0192907,14.38 L25.4792907,14.43 C23.2692907,14.45 20.0792907,14.48 16.1392907,14.52 C14.1692907,14.53 12.0092907,14.54 9.68929072,14.55 C9.09929072,14.55 8.52929072,14.56 7.90929072,14.55 C7.25929072,14.53 6.60929072,14.37 6.03929072,14.08 C5.46929072,13.79 4.98929072,13.38 4.65929072,12.88 C4.49929072,12.63 4.37929072,12.36 4.29929072,12.08 C4.22929072,11.79 4.18929072,11.54 4.14929072,11.27 C3.78929072,9.14 3.40929072,6.91 3.01929072,4.6 C2.96929072,4.31 2.91929072,4.02 2.86929072,3.73 C2.82929072,3.41 2.81929072,3.09 2.88929072,2.77 C3.00929072,2.13 3.37929072,1.52 3.92929072,1.04 C4.46929072,0.56 5.20929072,0.22 6.00929072,0.09 C6.39929072,0 6.82929072,0 7.18929072,0 L8.31929072,0 L8.30929072,0 Z" id="Path" fill="#FF7061"></path>
                                    <path d="M9.14929072,1.11 C14.6392907,1.11 19.8592907,1.12 24.6192907,1.13 L28.0892907,1.13 L29.7592907,1.15 C30.3392907,1.16 30.8992907,1.32 31.3592907,1.59 C32.2992907,2.11 32.7592907,3.06 32.6192907,3.9 C32.5092907,4.7 32.3992907,5.47 32.2892907,6.21 C32.0792907,7.68 31.8892907,9.01 31.7192907,10.18 C31.6192907,10.76 31.5892907,11.3 31.4392907,11.81 C31.2792907,12.31 30.9692907,12.73 30.6292907,13.04 C29.9392907,13.68 29.1392907,13.91 28.6292907,13.99 C28.0992907,14.07 27.8192907,14.03 27.8192907,14.03 C27.8192907,14.01 28.0992907,14.03 28.6092907,13.92 C29.1092907,13.82 29.8692907,13.57 30.5092907,12.95 C30.8292907,12.64 31.1092907,12.24 31.2492907,11.77 C31.3792907,11.3 31.3992907,10.74 31.4892907,10.16 C31.6392907,8.99 31.8092907,7.66 31.9992907,6.19 C32.0992907,5.45 32.1992907,4.68 32.2992907,3.88 C32.4092907,3.12 31.9892907,2.29 31.1592907,1.83 C30.7492907,1.6 30.2592907,1.46 29.7392907,1.45 L24.6092907,1.45 C19.8592907,1.45 14.6292907,1.46 9.13929072,1.46 L8.10929072,1.46 C7.76929072,1.46 7.42929072,1.46 7.11929072,1.49 C6.48929072,1.56 5.89929072,1.8 5.45929072,2.17 C5.01929072,2.53 4.71929072,3.01 4.62929072,3.51 C4.56929072,3.76 4.58929072,4.01 4.62929072,4.27 C4.66929072,4.54 4.71929072,4.8 4.75929072,5.06 C5.10929072,7.17 5.43929072,9.2 5.75929072,11.14 C5.83929072,11.63 5.88929072,12.09 6.14929072,12.49 C6.38929072,12.89 6.75929072,13.23 7.20929072,13.47 C7.64929072,13.71 8.16929072,13.85 8.67929072,13.88 C9.19929072,13.9 9.75929072,13.88 10.2792907,13.89 C12.3892907,13.89 14.3592907,13.9 16.1592907,13.91 L24.6792907,13.96 L26.9992907,13.99 L27.5992907,14.01 C27.7392907,14.01 27.8092907,14.02 27.8092907,14.03 C27.8092907,14.04 27.7392907,14.04 27.5992907,14.05 L26.9992907,14.07 L24.6792907,14.1 C22.6692907,14.11 19.7592907,14.13 16.1592907,14.15 C14.3592907,14.15 12.3892907,14.16 10.2792907,14.17 C9.74929072,14.17 9.22929072,14.18 8.65929072,14.17 C8.08929072,14.14 7.50929072,13.99 7.00929072,13.72 C6.50929072,13.46 6.08929072,13.07 5.81929072,12.62 C5.51929072,12.17 5.46929072,11.64 5.38929072,11.17 C5.05929072,9.23 4.71929072,7.2 4.35929072,5.09 C4.31929072,4.83 4.26929072,4.56 4.22929072,4.3 C4.18929072,4.03 4.16929072,3.73 4.22929072,3.45 C4.32929072,2.88 4.66929072,2.33 5.16929072,1.92 C5.66929072,1.5 6.34929072,1.22 7.05929072,1.14 C7.42929072,1.1 7.76929072,1.11 8.10929072,1.11 L9.13929072,1.11 L9.14929072,1.11 Z" id="Path" fill="#71A8FF"></path>
                                    <path d="M16.7892907,27.76 C21.1792907,27.58 25.1592907,27.43 28.0392907,27.34 C29.4792907,27.3 30.6392907,27.27 31.4492907,27.25 C32.2592907,27.24 32.6992907,27.25 32.6992907,27.26 C32.6992907,27.28 32.2592907,27.32 31.4592907,27.38 C30.6492907,27.43 29.4892907,27.49 28.0592907,27.58 C25.1792907,27.73 21.2092907,27.92 16.8192907,28.1 C12.4292907,28.28 8.44929072,28.43 5.56929072,28.52 L2.15929072,28.61 C1.34929072,28.62 0.909290722,28.61 0.909290722,28.6 C0.909290722,28.58 1.34929072,28.54 2.15929072,28.48 L5.56929072,28.28 C8.44929072,28.13 12.4192907,27.94 16.8092907,27.76 L16.7892907,27.76 Z" id="Path" fill="#DC4941"></path>
                                    <path d="M16.9992907,30.04 C21.3892907,29.86 25.3692907,29.71 28.2492907,29.62 L31.6592907,29.53 C32.4692907,29.52 32.9092907,29.53 32.9092907,29.54 C32.9092907,29.56 32.4692907,29.6 31.6692907,29.66 C30.8592907,29.71 29.6992907,29.77 28.2692907,29.86 C25.3892907,30.01 21.4192907,30.2 17.0292907,30.38 C12.6392907,30.56 8.65929072,30.71 5.77929072,30.8 C4.33929072,30.84 3.17929072,30.87 2.36929072,30.89 C1.55929072,30.9 1.11929072,30.89 1.11929072,30.88 C1.11929072,30.86 1.55929072,30.82 2.36929072,30.76 C3.17929072,30.71 4.33929072,30.65 5.77929072,30.56 C8.65929072,30.41 12.6292907,30.22 17.0192907,30.04 L16.9992907,30.04 Z" id="Path" fill="#DC4941"></path>
                                    <polygon id="Path" fill="#F7DE95" points="12.3992907 29.92 12.3492907 28.51 19.4992907 28.23 19.5692907 29.63"></polygon>
                                    <path d="M19.4392907,28.44 C17.4692907,28.51 15.7292907,28.55 14.4592907,28.56 C13.1892907,28.58 12.3892907,28.58 12.3592907,28.56 C12.3192907,28.53 13.0492907,28.47 14.3092907,28.39 C15.5692907,28.31 17.3692907,28.2 19.4192907,28.11 L19.5892907,28.11 L19.6292907,28.24 C19.7692907,28.67 19.8092907,29.14 19.7492907,29.61 L19.7292907,29.75 L19.5592907,29.75 L19.5092907,29.77 C16.5892907,29.99 14.0092907,29.97 12.4292907,30.03 L12.2992907,30.03 L12.2992907,29.93 C12.2992907,29.02 12.3292907,28.54 12.3492907,28.56 C12.3692907,28.58 12.4592907,29.11 12.5392907,29.92 L12.4092907,29.82 C13.9892907,29.67 16.5792907,29.63 19.4592907,29.42 L19.5092907,29.42 L19.3192907,29.57 C19.3792907,29.14 19.3392907,28.72 19.2192907,28.32 L19.4292907,28.45" id="Path" fill="#DC4941"></path>
                                    <ellipse id="Oval" fill="#FFFFFF" cx="11.1892907" cy="29.28" rx="1" ry="1"></ellipse>
                                    <ellipse id="Oval" fill="#FFFFFF" cx="20.8492907" cy="28.88" rx="1" ry="1"></ellipse>
                                    <path d="M0.579290722,31.22 C0.399290722,31.84 0.729290722,32.52 1.29929072,32.96 C1.86929072,33.4 2.64929072,33.62 3.41929072,33.69 C4.18929072,33.76 4.97929072,33.69 5.74929072,33.61 C5.87929072,33.71 5.82929072,33.9 5.68929072,34 C5.54929072,34.1 5.35929072,34.12 5.17929072,34.13 C3.98929072,34.23 2.73929072,34.22 1.67929072,33.77 C0.619290722,33.32 -0.190709278,32.35 0.0392907217,31.39 C0.0692907217,31.27 0.129290722,31.13 0.279290722,31.08 C0.429290722,31.03 0.619290722,31.17 0.529290722,31.28" id="Path" fill="#34365A"></path>
                                    <path d="M33.8092907,30.25 C33.9992907,29.8 34.5692907,29.47 34.5392907,29.68 C34.3792907,30.36 34.2192907,31.05 33.8692907,31.68 C33.5192907,32.31 33.1692907,32.93 32.2092907,33.19 C30.0392907,33.77 26.6192907,33.48 25.0592907,33.45 C25.0592907,33.24 25.0592907,33.11 25.0592907,32.9 C27.1192907,32.94 31.0092907,33.29 33.0192907,31.47 C33.4892907,31.04 33.8092907,30.25 33.8092907,30.25 L33.8092907,30.25 Z" id="Path" fill="#34365A"></path>
                                    <path d="M18.2592907,14.5 C21.8492907,14.5 25.1092907,14.52 27.4592907,14.55 C28.6392907,14.57 29.5892907,14.58 30.2492907,14.61 C30.9092907,14.64 31.2692907,14.65 31.2692907,14.68 C31.2692907,14.7 30.9092907,14.73 30.2492907,14.75 C29.5892907,14.77 28.6392907,14.79 27.4592907,14.8 C25.1092907,14.83 21.8492907,14.85 18.2592907,14.85 C14.6692907,14.85 11.4092907,14.83 9.05929072,14.8 C7.87929072,14.78 6.92929072,14.77 6.26929072,14.74 C5.60929072,14.71 5.24929072,14.7 5.24929072,14.67 C5.24929072,14.64 5.60929072,14.62 6.26929072,14.6 C6.92929072,14.58 7.87929072,14.56 9.05929072,14.55 C11.4092907,14.52 14.6692907,14.5 18.2592907,14.5 L18.2592907,14.5 Z" id="Path" fill="#71A8FF"></path>
                                    <polygon id="Path" fill="#5C9BFF" points="31.5492907 15.57 31.1992907 20.85 31.0792907 20.65 31.0092907 14.64 31.2392907 14.64 31.2392907 14.67"></polygon>
                                    <path d="M32.4492907,17.86 C33.0292907,19.62 33.5392907,21.22 33.8892907,22.38 C34.0592907,22.96 34.2092907,23.44 34.2092907,23.79 C34.2092907,24.14 34.1292907,24.32 34.0992907,24.31 C34.0692907,24.31 34.0992907,24.12 34.0492907,23.8 C33.9992907,23.48 33.8192907,23.02 33.6092907,22.45 C33.1892907,21.31 32.6392907,19.72 32.0592907,17.96 C31.7692907,17.08 31.4992907,16.24 31.2492907,15.48 C31.1892907,15.29 31.1292907,15.12 31.0392907,14.97 C31.0192907,14.93 30.9892907,14.9 30.9592907,14.87 C30.9292907,14.85 30.9192907,14.84 30.8892907,14.82 C30.8192907,14.79 30.7392907,14.76 30.6392907,14.74 C30.2692907,14.66 29.8792907,14.64 29.5292907,14.63 C28.1292907,14.6 27.2492907,14.63 27.2492907,14.57 C27.2492907,14.55 27.4692907,14.52 27.8592907,14.48 C28.2492907,14.44 28.8192907,14.39 29.5392907,14.38 C29.8992907,14.38 30.2892907,14.38 30.7292907,14.46 C30.8392907,14.48 30.9492907,14.51 31.0692907,14.56 C31.1292907,14.59 31.1992907,14.64 31.2492907,14.68 C31.2892907,14.72 31.3192907,14.77 31.3592907,14.81 C31.4892907,14.99 31.5592907,15.19 31.6292907,15.38 C31.8892907,16.14 32.1692907,16.98 32.4692907,17.86 L32.4492907,17.86 Z" id="Path" fill="#FF7061"></path>
                                    <path d="M29.8692907,7.87 C30.0092907,6.84 30.1392907,5.87 30.2492907,4.98 C30.3492907,4.11 30.2492907,3.3 29.8392907,2.75 C29.4292907,2.19 28.8392907,1.91 28.4092907,1.83 C27.9792907,1.74 27.7192907,1.81 27.7192907,1.78 C27.7192907,1.77 27.9592907,1.65 28.4392907,1.7 C28.9192907,1.74 29.5992907,2.02 30.0892907,2.62 C30.5892907,3.22 30.7192907,4.1 30.6292907,5 C30.5392907,5.9 30.4092907,6.88 30.2792907,7.91 C30.1392907,8.94 30.0292907,9.91 29.8692907,10.81 C29.7092907,11.7 29.3092907,12.55 28.5792907,12.99 C27.8692907,13.42 27.0892907,13.46 26.6392907,13.33 C26.4092907,13.27 26.2492907,13.17 26.1592907,13.11 C26.0692907,13.04 26.0292907,12.99 26.0392907,12.98 C26.0692907,12.95 26.2492907,13.12 26.6792907,13.2 C27.0992907,13.28 27.7892907,13.2 28.3992907,12.8 C29.0092907,12.4 29.3592907,11.63 29.4892907,10.76 C29.6192907,9.88 29.7192907,8.89 29.8592907,7.87 L29.8692907,7.87 Z" id="Path" fill="#71A8FF"></path>
                                    <path d="M27.9792907,1.9 C27.9792907,1.9 27.9892907,1.66 27.6892907,1.69 C27.6892907,1.69 27.4692907,1.74 27.4692907,1.99 C27.4692907,2.24 27.5692907,3.34 27.5692907,3.34 C27.5692907,3.34 28.0892907,3.6 28.0592907,3.17 C28.0192907,2.73 27.9892907,1.91 27.9892907,1.91 L27.9792907,1.9 Z M27.5692907,1.95 C27.5792907,1.83 27.6992907,1.78 27.6992907,1.78 C27.8792907,1.75 27.8792907,1.9 27.8792907,1.9 C27.8792907,1.9 27.8392907,1.9 27.5692907,1.95 Z" id="Shape" fill="#5C9BFF"></path>
                                    <path d="M16.9192907,25.11 C21.6792907,24.81 25.9992907,24.54 29.1192907,24.34 C30.6792907,24.25 31.9392907,24.17 32.8192907,24.12 C33.2492907,24.1 33.5892907,24.08 33.8292907,24.07 C34.0592907,24.06 34.1792907,24.07 34.1792907,24.07 C34.1792907,24.07 34.0592907,24.09 33.8292907,24.11 L32.8292907,24.19 C31.9492907,24.25 30.6892907,24.34 29.1292907,24.45 C26.0092907,24.66 21.6992907,24.95 16.9292907,25.26 C12.1692907,25.56 7.84929072,25.83 4.72929072,26.03 C3.94929072,26.08 3.23929072,26.12 2.61929072,26.16 C1.99929072,26.21 1.41929072,26.18 1.04929072,25.96 C0.679290722,25.75 0.559290722,25.45 0.569290722,25.27 C0.579290722,25.08 0.669290722,25 0.669290722,25 C0.679290722,25 0.599290722,25.09 0.599290722,25.27 C0.599290722,25.44 0.729290722,25.72 1.07929072,25.92 C1.43929072,26.12 1.98929072,26.14 2.59929072,26.08 C3.21929072,26.04 3.92929072,25.99 4.70929072,25.93 C7.83929072,25.72 12.1492907,25.43 16.9092907,25.12 L16.9192907,25.11 Z" id="Path" fill="#DC4941"></path>
                                </g>
                            </g>
                        </g>
                    </g>
                    <g transform="translate(61.260000, 20.481354)" id="Path">
                        <polygon fill="#E0EFFF" points="-1.42108547e-14 11.0786465 1.02 0.618646482 13.7 1.28864648 13.63 11.8386465"></polygon>
                        <polygon fill="#34365A" points="13.7 1.28864648 14.14 1.19864648 15.25 10.5686465 13.63 11.8386465"></polygon>
                        <path d="M2.21,2.24864648 L2.13,3.88864648 C2.76,4.03864648 3.41,4.09864648 4.05,4.07864648 L4.1,2.24864648 L2.26,2.15864648" fill="#FFFFFF"></path>
                        <path d="M4.89,2.38864648 L4.81,4.02864648 C5.44,4.17864648 6.09,4.23864648 6.73,4.21864648 L6.78,2.38864648 L4.94,2.29864648" fill="#FFFFFF"></path>
                        <path d="M7.57,2.57864648 L7.49,4.21864648 C8.12,4.36864648 8.77,4.42864648 9.41,4.40864648 L9.46,2.57864648 L7.62,2.48864648" fill="#FFFFFF"></path>
                        <path d="M10.3,2.71864648 L10.22,4.35864648 C10.85,4.50864648 11.5,4.56864648 12.14,4.54864648 L12.19,2.71864648 L10.35,2.62864648" fill="#FFFFFF"></path>
                        <path d="M2.06,5.15864648 L1.98,6.79864648 C2.61,6.94864648 3.26,7.00864648 3.9,6.98864648 L3.95,5.15864648 L2.11,5.06864648" fill="#FFFFFF"></path>
                        <path d="M4.74,5.29864648 L4.66,6.93864648 C5.29,7.08864648 5.94,7.14864648 6.58,7.12864648 L6.63,5.29864648 L4.79,5.20864648" fill="#FFFFFF"></path>
                        <path d="M7.42,5.48864648 L7.34,7.12864648 C7.97,7.27864648 8.62,7.33864648 9.26,7.31864648 L9.31,5.48864648 L7.47,5.39864648" fill="#FFFFFF"></path>
                        <path d="M10.15,5.63864648 L10.07,7.27864648 C10.7,7.42864648 11.35,7.48864648 11.99,7.46864648 L12.04,5.63864648 L10.2,5.54864648" fill="#FFFFFF"></path>
                        <path d="M1.91,7.88864648 L1.83,9.52864648 C2.46,9.67864648 3.11,9.73864648 3.75,9.71864648 L3.8,7.88864648 L1.96,7.79864648" fill="#FFFFFF"></path>
                        <path d="M4.59,8.02864648 L4.51,9.66864648 C5.14,9.81864648 5.79,9.87864648 6.43,9.85864648 L6.48,8.02864648 L4.64,7.93864648" fill="#FFFFFF"></path>
                        <path d="M7.27,8.21864648 L7.19,9.85864648 C7.82,10.0086465 8.47,10.0686465 9.11,10.0486465 L9.16,8.21864648 L7.32,8.12864648" fill="#FFFFFF"></path>
                        <path d="M10,8.36864648 L9.92,10.0086465 C10.55,10.1586465 11.2,10.2186465 11.84,10.1986465 L11.89,8.36864648 L10.05,8.27864648" fill="#FFFFFF"></path>
                        <g transform="translate(1.116515, 0.000000)" fill="#4E506F">
                            <path d="M0.343484692,0.128646482 C0.493484692,0.0286464818 0.673484692,-0.0213535182 0.843484692,0.00864648176 C1.01348469,0.0386464818 1.12348469,0.128646482 1.20348469,0.218646482 C1.35348469,0.418646482 1.28348469,0.578646482 1.22348469,0.578646482 C1.12348469,0.578646482 0.883484692,0.298646482 0.603484692,0.498646482 C0.453484692,0.588646482 0.383484692,0.758646482 0.323484692,0.898646482 C0.263484692,1.03864648 0.233484692,1.15864648 0.173484692,1.15864648 C0.113484692,1.15864648 0.0334846923,1.06864648 0.00348469228,0.868646482 C-0.00651530772,0.778646482 0.00348469228,0.638646482 0.0534846923,0.508646482 C0.103484692,0.378646482 0.193484692,0.238646482 0.343484692,0.128646482 L0.343484692,0.128646482 Z"></path>
                            <path d="M1.62348469,0.218646482 C1.72348469,0.138646482 1.84348469,0.0886464818 1.96348469,0.0786464818 C2.01348469,0.0786464818 2.06348469,0.0786464818 2.11348469,0.0786464818 C2.16348469,0.0786464818 2.20348469,0.0986464818 2.24348469,0.108646482 C2.35348469,0.148646482 2.42348469,0.208646482 2.47348469,0.278646482 C2.60348469,0.458646482 2.53348469,0.608646482 2.47348469,0.618646482 C2.41348469,0.618646482 2.29348469,0.528646482 2.14348469,0.518646482 C2.06348469,0.518646482 1.97348469,0.538646482 1.88348469,0.618646482 C1.78348469,0.698646482 1.72348469,0.818646482 1.67348469,0.928646482 L1.63348469,1.00864648 C1.57348469,1.13864648 1.53348469,1.23864648 1.47348469,1.22864648 C1.41348469,1.22864648 1.34348469,1.13864648 1.31348469,0.948646482 C1.31348469,0.898646482 1.31348469,0.848646482 1.31348469,0.788646482 C1.31348469,0.728646482 1.33348469,0.668646482 1.35348469,0.598646482 C1.40348469,0.468646482 1.48348469,0.338646482 1.62348469,0.228646482 L1.62348469,0.218646482 Z"></path>
                            <path d="M2.90348469,0.318646482 C3.00348469,0.228646482 3.11348469,0.178646482 3.23348469,0.158646482 C3.28348469,0.158646482 3.33348469,0.148646482 3.39348469,0.158646482 C3.44348469,0.158646482 3.48348469,0.168646482 3.53348469,0.188646482 C3.65348469,0.218646482 3.72348469,0.288646482 3.76348469,0.358646482 C3.87348469,0.528646482 3.80348469,0.658646482 3.73348469,0.678646482 C3.66348469,0.688646482 3.55348469,0.618646482 3.42348469,0.618646482 C3.34348469,0.618646482 3.27348469,0.658646482 3.19348469,0.738646482 C3.10348469,0.828646482 3.06348469,0.948646482 3.01348469,1.04864648 C3.00348469,1.07864648 2.99348469,1.09864648 2.97348469,1.11864648 C2.91348469,1.22864648 2.87348469,1.31864648 2.79348469,1.29864648 C2.73348469,1.29864648 2.66348469,1.20864648 2.64348469,1.02864648 C2.64348469,0.988646482 2.63348469,0.928646482 2.64348469,0.878646482 C2.64348469,0.818646482 2.65348469,0.758646482 2.67348469,0.698646482 C2.71348469,0.568646482 2.78348469,0.438646482 2.91348469,0.338646482 L2.90348469,0.318646482 Z"></path>
                            <path d="M4.18348469,0.408646482 C4.27348469,0.308646482 4.39348469,0.248646482 4.50348469,0.228646482 C4.55348469,0.218646482 4.61348469,0.208646482 4.66348469,0.208646482 C4.71348469,0.208646482 4.75348469,0.208646482 4.80348469,0.228646482 C4.93348469,0.258646482 5.01348469,0.328646482 5.03348469,0.398646482 C5.12348469,0.548646482 5.05348469,0.668646482 4.97348469,0.698646482 C4.90348469,0.718646482 4.79348469,0.658646482 4.67348469,0.678646482 C4.60348469,0.698646482 4.53348469,0.748646482 4.47348469,0.828646482 C4.40348469,0.918646482 4.36348469,1.03864648 4.32348469,1.13864648 C4.31348469,1.15864648 4.30348469,1.18864648 4.28348469,1.20864648 C4.22348469,1.30864648 4.17348469,1.37864648 4.09348469,1.34864648 C4.04348469,1.34864648 3.97348469,1.25864648 3.94348469,1.09864648 C3.94348469,1.05864648 3.93348469,1.00864648 3.93348469,0.948646482 C3.93348469,0.888646482 3.94348469,0.838646482 3.96348469,0.778646482 C3.99348469,0.658646482 4.06348469,0.528646482 4.17348469,0.428646482 L4.18348469,0.408646482 Z"></path>
                            <path d="M5.46348469,0.498646482 C5.55348469,0.398646482 5.66348469,0.328646482 5.78348469,0.288646482 C5.83348469,0.268646482 5.89348469,0.258646482 5.94348469,0.258646482 C5.99348469,0.258646482 6.04348469,0.258646482 6.08348469,0.278646482 C6.22348469,0.308646482 6.30348469,0.378646482 6.32348469,0.438646482 C6.39348469,0.568646482 6.32348469,0.688646482 6.24348469,0.718646482 C6.17348469,0.738646482 6.06348469,0.718646482 5.95348469,0.748646482 C5.88348469,0.788646482 5.83348469,0.838646482 5.78348469,0.918646482 C5.72348469,1.01864648 5.70348469,1.13864648 5.66348469,1.22864648 C5.65348469,1.24864648 5.64348469,1.26864648 5.62348469,1.28864648 C5.56348469,1.36864648 5.50348469,1.42864648 5.42348469,1.38864648 C5.37348469,1.37864648 5.30348469,1.28864648 5.28348469,1.14864648 C5.27348469,1.10864648 5.26348469,1.05864648 5.26348469,1.00864648 C5.26348469,0.958646482 5.26348469,0.908646482 5.28348469,0.848646482 C5.31348469,0.728646482 5.36348469,0.608646482 5.47348469,0.508646482 L5.46348469,0.498646482 Z"></path>
                            <path d="M6.74348469,0.588646482 C6.82348469,0.478646482 6.93348469,0.398646482 7.05348469,0.358646482 C7.10348469,0.338646482 7.16348469,0.328646482 7.21348469,0.318646482 C7.26348469,0.318646482 7.31348469,0.318646482 7.35348469,0.328646482 C7.50348469,0.348646482 7.58348469,0.428646482 7.59348469,0.488646482 C7.65348469,0.608646482 7.56348469,0.708646482 7.48348469,0.748646482 C7.41348469,0.778646482 7.30348469,0.768646482 7.21348469,0.818646482 C7.15348469,0.868646482 7.10348469,0.928646482 7.06348469,1.01864648 C7.02348469,1.12864648 7.01348469,1.23864648 6.97348469,1.32864648 C6.97348469,1.34864648 6.95348469,1.36864648 6.93348469,1.37864648 C6.87348469,1.44864648 6.80348469,1.48864648 6.72348469,1.43864648 C6.67348469,1.41864648 6.61348469,1.33864648 6.58348469,1.20864648 C6.57348469,1.16864648 6.56348469,1.11864648 6.56348469,1.06864648 C6.56348469,1.01864648 6.56348469,0.968646482 6.57348469,0.918646482 C6.59348469,0.808646482 6.64348469,0.688646482 6.73348469,0.588646482 L6.74348469,0.588646482 Z"></path>
                            <path d="M8.02348469,0.678646482 C8.10348469,0.558646482 8.21348469,0.478646482 8.32348469,0.428646482 C8.38348469,0.408646482 8.43348469,0.388646482 8.49348469,0.388646482 C8.54348469,0.388646482 8.59348469,0.388646482 8.63348469,0.388646482 C8.79348469,0.408646482 8.87348469,0.488646482 8.88348469,0.548646482 C8.92348469,0.648646482 8.83348469,0.738646482 8.74348469,0.788646482 C8.66348469,0.828646482 8.56348469,0.838646482 8.48348469,0.898646482 C8.42348469,0.958646482 8.39348469,1.02864648 8.36348469,1.11864648 C8.33348469,1.22864648 8.33348469,1.34864648 8.29348469,1.42864648 C8.29348469,1.44864648 8.27348469,1.45864648 8.26348469,1.47864648 C8.20348469,1.53864648 8.13348469,1.55864648 8.04348469,1.48864648 C7.99348469,1.45864648 7.94348469,1.38864648 7.91348469,1.27864648 C7.90348469,1.23864648 7.89348469,1.19864648 7.89348469,1.14864648 C7.89348469,1.10864648 7.89348469,1.05864648 7.89348469,1.00864648 C7.90348469,0.898646482 7.94348469,0.788646482 8.02348469,0.678646482 Z"></path>
                            <path d="M9.30348469,0.768646482 C9.37348469,0.638646482 9.48348469,0.548646482 9.59348469,0.498646482 C9.65348469,0.468646482 9.70348469,0.458646482 9.76348469,0.448646482 C9.81348469,0.448646482 9.86348469,0.448646482 9.90348469,0.448646482 C10.0734847,0.458646482 10.1534847,0.548646482 10.1534847,0.608646482 C10.1734847,0.698646482 10.0834847,0.768646482 9.98348469,0.828646482 C9.90348469,0.868646482 9.80348469,0.908646482 9.73348469,0.988646482 C9.67348469,1.05864648 9.65348469,1.14864648 9.64348469,1.23864648 C9.63348469,1.35864648 9.64348469,1.47864648 9.60348469,1.54864648 C9.60348469,1.56864648 9.58348469,1.57864648 9.57348469,1.58864648 C9.51348469,1.62864648 9.43348469,1.63864648 9.34348469,1.55864648 C9.29348469,1.52864648 9.24348469,1.45864648 9.21348469,1.35864648 C9.20348469,1.31864648 9.19348469,1.27864648 9.18348469,1.23864648 C9.18348469,1.19864648 9.18348469,1.14864648 9.18348469,1.10864648 C9.18348469,1.00864648 9.22348469,0.898646482 9.29348469,0.788646482 L9.30348469,0.768646482 Z"></path>
                            <path d="M10.5934847,0.858646482 C10.6634847,0.718646482 10.7734847,0.628646482 10.8834847,0.568646482 C10.9434847,0.538646482 11.0034847,0.518646482 11.0534847,0.508646482 C11.1034847,0.508646482 11.1534847,0.498646482 11.1934847,0.508646482 C11.3734847,0.518646482 11.4534847,0.608646482 11.4434847,0.668646482 C11.4434847,0.738646482 11.3434847,0.798646482 11.2534847,0.858646482 C11.1734847,0.908646482 11.0834847,0.958646482 11.0234847,1.05864648 C10.9734847,1.14864648 10.9634847,1.23864648 10.9634847,1.32864648 C10.9634847,1.45864648 10.9934847,1.56864648 10.9634847,1.63864648 C10.9634847,1.64864648 10.9434847,1.65864648 10.9334847,1.66864648 C10.8834847,1.69864648 10.7834847,1.68864648 10.6934847,1.59864648 C10.6534847,1.55864648 10.6034847,1.49864648 10.5734847,1.40864648 C10.5634847,1.36864648 10.5534847,1.32864648 10.5434847,1.28864648 C10.5434847,1.24864648 10.5434847,1.20864648 10.5434847,1.16864648 C10.5434847,1.06864648 10.5734847,0.958646482 10.6234847,0.858646482 L10.5934847,0.858646482 Z"></path>
                            <path d="M12.2834847,1.13864648 C12.1734847,1.37864648 12.3234847,1.64864648 12.2734847,1.73864648 C12.2434847,1.78864648 12.1134847,1.78864648 11.9834847,1.65864648 C11.9234847,1.59864648 11.8634847,1.48864648 11.8334847,1.36864648 C11.8034847,1.24864648 11.8134847,1.09864648 11.8734847,0.958646482 C11.9434847,0.808646482 12.0434847,0.708646482 12.1534847,0.648646482 C12.2634847,0.588646482 12.3734847,0.558646482 12.4634847,0.568646482 C12.6534847,0.568646482 12.7334847,0.668646482 12.7234847,0.728646482 C12.6934847,0.838646482 12.3834847,0.908646482 12.2834847,1.14864648 L12.2834847,1.13864648 Z"></path>
                        </g>
                        <path d="M11.48,3.63864648 C12.15,3.04864648 12.73,2.61864648 12.78,2.66864648 C12.83,2.71864648 12.32,3.23864648 11.66,3.82864648 C11.47,3.98864648 11.28,4.14864648 11.11,4.28864648 L11.03,4.35864648 L10.96,4.29864648 C10.56,3.94864648 10.3,3.68864648 10.33,3.64864648 C10.36,3.60864648 10.67,3.79864648 11.1,4.11864648 L10.95,4.11864648 C11.12,3.96864648 11.29,3.80864648 11.48,3.63864648 L11.48,3.63864648 Z" fill="#4E506F"></path>
                    </g>
                    <g transform="translate(6.050000, 20.170000)">
                        <path d="M13.28,10.11 C13.28,10.73 10.31,11.24 6.64,11.24 C2.97,11.24 0,10.73 0,10.11 C0,9.49 2.97,8.98 6.64,8.98 C10.31,8.98 13.28,9.49 13.28,10.11" id="Path_39" fill="#A5CDF9" opacity="0.53"></path>
                        <path d="M10.71,10.66 C10.71,11.04 8.93,11.35 6.73,11.35 C4.53,11.35 2.75,11.04 2.75,10.66 C2.75,10.28 4.53,9.97 6.73,9.97 C8.93,9.97 10.71,10.28 10.71,10.66" id="Path_129" fill="#2A236A"></path>
                        <path d="M12.11,8.52 C12.11,8.83 12.04,9.13 11.91,9.41 C11.84,9.57 11.74,9.73 11.64,9.87 C11.37,10.23 10.99,10.48 10.55,10.58 L9.82,10.75 C7.63,11.25 5.36,11.23 3.19,10.67 L2.82,10.58 C2.51,10.5 2.23,10.34 2.01,10.11 C1.98,10.08 1.94,10.04 1.92,10.01 C1.69,9.74 1.53,9.43 1.43,9.1 C1.38,8.92 1.35,8.73 1.35,8.53 C1.35,6.71 3.76,5.9 6.74,5.9 C9.72,5.9 12.13,6.7 12.13,8.53" id="Path_40" fill="#8DADFF"></path>
                        <path d="M9.95,6.73 C9.95,6.99 9.48,7.23 8.74,7.38 C8.44,7.44 8.13,7.49 7.82,7.51 L7.82,7.51 C7.82,7.51 7.77,7.51 7.74,7.51 C7.59,7.52 7.44,7.53 7.28,7.54 C7.1,7.54 6.92,7.55 6.73,7.55 C6.61,7.55 6.48,7.55 6.36,7.55 C6.26,7.55 6.16,7.55 6.06,7.54 C5.77,7.52 5.49,7.5 5.23,7.46 C4.2,7.32 3.5,7.04 3.5,6.73 C3.5,6.56 3.71,6.4 4.06,6.26 C4.24,6.19 4.42,6.14 4.6,6.1 L4.6,6.1 C4.76,6.06 4.94,6.03 5.14,6 C5.23,5.99 5.32,5.97 5.41,5.97 C5.6,5.95 5.8,5.93 6.01,5.92 C6.24,5.91 6.48,5.9 6.73,5.9 C6.85,5.9 6.96,5.9 7.07,5.9 C7.25,5.9 7.43,5.91 7.59,5.93 L7.6,5.93 C7.87,5.95 8.13,5.98 8.36,6.01 C8.7,6.06 9.03,6.14 9.36,6.25 C9.73,6.39 9.95,6.55 9.95,6.73" id="Path_41" fill="#2F255F"></path>
                        <path d="M3.09,0 C3.09,0 3.18,3.55 4.84,6.13 C5.87,7.73 6.87,7.47 6.87,7.47 L7.61,6.32 C7.61,6.32 7.75,2.41 3.1,0.01" id="Path_44" fill="#83DBC8"></path>
                        <path d="M14.69,1.77 C13.46,2.54 12.22,3.31 11.14,4.26 C10.46,4.84 9.87,5.51 9.36,6.25 C9.12,6.61 8.91,6.98 8.74,7.37 C8.44,7.43 8.13,7.48 7.82,7.5 L7.82,7.5 C7.82,7.5 7.77,7.5 7.74,7.5 C7.67,7.43 7.62,7.35 7.58,7.27 C7.41,6.89 7.46,6.45 7.56,6.05 C7.57,6 7.58,5.96 7.6,5.91 L7.6,5.89 L7.6,5.89 C7.76,5.34 7.99,4.83 8.31,4.35 L8.1,4.93 C8.34,4.65 8.6,4.38 8.87,4.14 C9.04,3.99 9.21,3.84 9.39,3.7 C9.63,3.51 9.89,3.33 10.15,3.17 C11.52,2.3 13.09,1.82 14.7,1.75" id="Path_45" fill="#89E6D5"></path>
                        <g id="Mask_Group_27" transform="translate(7.950000, 3.190000)" fill="#3C4F45">
                            <path d="M0.91,0.97 C1.31,0.61 1.73,0.28 2.19,0 C1.56,1.28 0.83,2.5 0,3.65 C0,2.68 0.32,1.74 0.91,0.97" id="Path_47"></path>
                        </g>
                        <path d="M6.17,7.23 C6.17,7.23 5.94,3.08 0.97,3.04 C0.97,3.04 5.3,5.02 5.48,7.19 C6.03,7.93 6.17,7.24 6.17,7.24" id="Path_46" fill="#7DCBB9"></path>
                        <path d="M10.32,1.8 C10.04,2.36 9.71,3.03 9.39,3.73 C9.03,4.49 8.67,5.29 8.37,6.02 C8.14,6.57 7.95,7.08 7.82,7.49 L7.82,7.49 L7.82,7.51 C7.82,7.51 7.76,7.51 7.73,7.51 C7.58,7.52 7.43,7.53 7.27,7.54 C7.15,7 7.08,6.45 7.06,5.9 C7.02,5.17 7.04,4.56 7.04,4.56 C7.04,4.56 7.06,4.53 7.09,4.48 C7.39,4.03 9.02,1.71 10.31,1.79" id="Path_48" fill="#7ECEBD"></path>
                        <path d="M7.82,7.49 L7.82,7.49 C7.82,7.49 7.82,7.5 7.82,7.51 L7.82,7.51 C7.82,7.51 7.77,7.51 7.74,7.51 C7.59,7.52 7.44,7.53 7.28,7.54 C7.1,7.54 6.92,7.55 6.73,7.55 C6.61,7.55 6.48,7.55 6.36,7.55 C6.26,7.55 6.16,7.55 6.06,7.54 L6.06,7.51 C6.01,7.18 5.98,6.84 5.98,6.5 L5.98,6.5 C5.98,6.31 5.98,6.11 6.01,5.92 C6.08,5.14 6.3,4.37 6.66,3.67 C7.08,4.36 7.4,5.12 7.59,5.91 L7.59,5.91 L7.59,5.93 C7.71,6.4 7.78,6.88 7.81,7.37 C7.81,7.41 7.81,7.45 7.81,7.49" id="Path_49" fill="#608984"></path>
                        <path d="M2.13,5.7 C2.13,5.7 2.56,4.23 5.26,5.89 C4.89,6.36 4.24,5.97 4.24,5.97 L2.14,5.7 L2.13,5.7 Z" id="Path_50" fill="#83DBC8"></path>
                        <path d="M6.36,7.55 C6.26,7.55 6.16,7.55 6.06,7.54 C5.77,7.52 5.49,7.5 5.23,7.46 C5.12,7.17 4.83,6.67 4.05,6.26 C3.6,6.02 2.97,5.81 2.12,5.7 C2.12,5.7 3.99,5.25 5.25,5.89 C5.3,5.92 5.35,5.94 5.4,5.97 C5.62,6.1 5.82,6.28 5.97,6.5 L5.97,6.5 C6.18,6.81 6.31,7.18 6.35,7.55" id="Path_51" fill="#608984"></path>
                        <path d="M9.51,8.36 C9.12,8.47 8.78,8.51 8.76,8.44 C8.74,8.37 9.04,8.22 9.44,8.11 C9.84,8 10.17,7.96 10.19,8.03 C10.21,8.1 9.91,8.25 9.51,8.36" id="Path_54" fill="#C0D4FF"></path>
                        <g id="Group_20" transform="translate(1.265000, 8.050000)" fill="#7BA4FF">
                            <path d="M0.745,1.72 C0.745,1.72 0.695,1.67 0.675,1.64 C0.455,1.38 0.305,1.06 0.255,0.72 C0.255,0.45 0.375,0.19 0.565,0 L0.565,0.13 C0.455,0.67 0.525,1.22 0.745,1.72" id="Path_52"></path>
                            <path d="M10.755,1.05 C10.685,1.21 10.585,1.37 10.485,1.51 C10.215,1.87 9.835,2.12 9.395,2.22 L8.665,2.39 C6.475,2.89 4.205,2.87 2.035,2.31 L1.665,2.22 C1.355,2.14 1.075,1.98 0.855,1.75 C0.825,1.72 0.795,1.68 0.765,1.65 C0.535,1.38 0.375,1.07 0.275,0.74 C3.615,2.15 7.355,2.26 10.775,1.06" id="Path_53"></path>
                        </g>
                    </g>
                </g>
                <path d="M56.45,44.88 C87.62,44.88 112.9,45.02 112.9,45.2 C112.9,45.38 87.63,45.52 56.45,45.52 C25.27,45.52 0,45.38 0,45.2 C0,45.02 25.27,44.88 56.45,44.88 Z" id="Path" fill="#4A4173"></path>
            </g>
        </g>
    </g>
</svg>