<?xml version="1.0" encoding="UTF-8"?>
<svg id="Layer_2" viewBox="0 0 135.89 138.42" xmlns="http://www.w3.org/2000/svg">
    <defs>
        <style>
            .cls-1{fill:#0280ff;}.cls-2,.cls-3{fill:#fff;}.cls-4{fill:#c1d0ff;}.cls-5{fill:#db4f25;}.cls-6{fill:#34365a;}.cls-3{stroke:#0280ff;stroke-miterlimit:10;stroke-width:3px;}
        </style>
    </defs>
    <g id="Layer_1-2">
        <g>
            <path class="cls-4"
                d="M120.28,105.91c-1.73,3.44-2,7.54-.72,11.17,2.29,6.53,9.32,12.08,7.63,18.78-.24,.93-.63,1.78-1.14,2.56l-115.56-.62c-2.6-2.77-4.96-6.04-5.39-10.65-.55-5.81-.86-12.1,2.37-17.03,2.3-3.51,6.08-5.77,9.44-8.35,3.36-2.58,6.57-5.97,6.85-10.11,.27-4.08-2.39-7.8-5.46-10.61-3.06-2.81-6.66-5.12-9.19-8.38-5.31-6.83-4.77-16.8-.37-24.21,4.4-7.41,12.04-12.55,20.08-16.04,10.34-4.5,21.97-6.69,33.15-4.82,11.18,1.87,21.79,8.1,27.54,17.59,3.83,6.34,5.7,14.2,11.75,18.65,7,5.14,17.33,3.92,24.48,8.87,6.32,4.37,8.53,13.49,4.87,20.14-2.67,4.86-7.82,8.12-10.32,13.07Z" />
            <g>
                <g>
                    <rect class="cls-3" height="134.75" rx="11.36" ry="11.36" width="77.43"
                        x="26.97" y="1.5" />
                    <ellipse class="cls-4" cx="66.54" cy="86.11" rx="32.32" ry="2.28" />
                    <g>
                        <path class="cls-6"
                            d="M64.77,45.98l-26.51,34.84c-1.89,2.49-.32,6.09,2.79,6.39,1.55,.15,3.56,.16,6.15-.03,8.38-.65,15.38-24.38,15.38-24.38l2.19-16.82Z" />
                        <g>
                            <path class="cls-5"
                                d="M47.2,87.17l42.96-2.57c2.22-.13,3.46-2.62,2.24-4.48l-22.68-34.35c-1.2-1.82-3.9-1.71-4.94,.2l-20.28,36.92c-1.09,1.99,.44,4.41,2.71,4.28Z" />
                            <path class="cls-2"
                                d="M65.91,59c-.06-.63,.12-1.17,.54-1.62,.42-.45,.95-.68,1.57-.7s1.14,.19,1.6,.63c.46,.43,.68,.96,.68,1.57l.03,11.4c-.03,.55-.21,1-.56,1.36s-.79,.55-1.33,.56-.99-.15-1.34-.5c-.36-.35-.55-.79-.59-1.31l-.59-11.38Zm.7,17.63c-.02-.55,.16-1,.51-1.37s.83-.56,1.41-.58,1.04,.15,1.43,.5c.39,.35,.59,.8,.61,1.34l.04,1.54c.02,.52-.16,.98-.53,1.36-.37,.38-.83,.58-1.4,.6s-1.07-.16-1.44-.52-.57-.8-.59-1.33l-.04-1.54Z" />
                        </g>
                    </g>
                    <rect class="cls-1" height="2.37" rx="1.18" ry="1.18" width="21.3" x="55.04"
                        y="5.16" />
                </g>
                <path class="cls-4"
                    d="M67.94,136.81c37.52,0,67.94,.36,67.94,.8s-30.42,.8-67.94,.8-67.94-.36-67.94-.8,30.42-.8,67.94-.8Z" />
            </g>
        </g>
    </g>
</svg>