<?xml version="1.0" encoding="UTF-8"?>
<svg width="20px" height="20px" viewBox="0 0 20 20" version="1.1" xmlns="http://www.w3.org/2000/svg" xmlns:xlink="http://www.w3.org/1999/xlink">
    <title>Train</title>
    <g id="Train" stroke="none" stroke-width="1" fill="none" fill-rule="evenodd">
        <g id="Group-3" transform="translate(1.500000, 0.000000)" fill="#000000" fill-rule="nonzero">
            <path d="M13.9257058,0 C14.7621015,0.000932777134 15.5642256,0.322539399 16.1568256,0.895220055 C16.6469541,1.36887356 16.9619124,1.98368404 17.0574548,2.65221725 L17.0794908,2.85430147 L17.0873784,3.06518665 L17.0873784,14.1612329 C17.0864051,14.9759065 16.7513683,15.7562944 16.1568256,16.3308524 C15.6730729,16.7983446 15.0484385,17.0996129 14.3705967,17.1945288 L14.142799,17.2184697 L13.9257058,17.226072 L13.4436891,17.2252424 L14.3710835,18.4205884 C14.479559,18.5603608 14.5469157,18.7246332 14.5683402,18.8959189 L14.5757211,19.0254249 L14.5654262,19.1559215 C14.5269751,19.4160316 14.3837569,19.6497787 14.1683961,19.80587 C13.9551166,19.9604528 13.68818,20.0265428 13.4255878,19.9902905 C13.2579898,19.9671528 13.0998143,19.9033566 12.956839,19.7972716 L12.8525477,19.7097532 L12.7627276,19.6099169 L10.9116503,17.2252424 L6.17475718,17.2252424 L4.32465145,19.6099168 C4.21725075,19.7483042 4.07547435,19.8550736 3.91487103,19.9216478 L3.79113143,19.9639079 L3.66178943,19.9902905 C3.3991973,20.0265427 3.13226155,19.9604528 2.91898194,19.80587 C2.70362118,19.6497787 2.56040299,19.4160316 2.52195193,19.1559215 C2.49737189,18.9896449 2.51689575,18.8210362 2.58341582,18.655507 L2.64216286,18.532022 L2.71629383,18.4205883 L3.64271839,17.2252424 L3.16134655,17.2260718 C2.47158804,17.2253024 1.80493524,17.0062746 1.25997648,16.6080693 L1.08296598,16.4687516 L0.930552529,16.3308524 C0.440424244,15.8571991 0.125465891,15.2423881 0.0299235544,14.5738545 L0.00788758004,14.3717702 L0,14.160885 L0,3.06483877 C0.000973251561,2.25016523 0.336009837,1.46977809 0.930552529,0.895220055 C1.41430553,0.427727681 2.03893942,0.126459223 2.71678072,0.0315431925 L2.94457819,0.00760224405 L3.16167144,0 L13.9257058,0 Z M15.0689318,10.291262 L2.0174757,10.291262 L2.01772872,14.1605465 C2.01801608,14.4078078 2.10549187,14.646798 2.26438111,14.8394358 L2.34970382,14.9317158 C2.50560356,15.0823752 2.70303562,15.1858839 2.90943387,15.2304389 L3.03408824,15.2500031 L3.16167144,15.2565849 L13.9253897,15.2565849 C14.2308352,15.2562534 14.5230995,15.1390771 14.7376734,14.9317158 C14.8922997,14.782287 14.9978443,14.5944584 15.0430695,14.3999508 L15.0628764,14.2826984 L15.0696483,14.160885 L15.0689318,10.291262 Z M4.81173443,11.7 C5.07959499,11.7 5.3357552,11.8073427 5.52336343,11.9971397 C5.70849124,12.1844273 5.81173443,12.4365869 5.81173443,12.6986123 C5.81173443,12.8937859 5.7544167,13.084942 5.64651976,13.2483051 C5.53752532,13.4133299 5.38171174,13.5426946 5.19852143,13.6194598 C5.01403195,13.6967694 4.81053437,13.7170467 4.61429953,13.6775578 C4.41879938,13.6382167 4.23983279,13.5414402 4.10010618,13.4000834 C3.96185399,13.2602183 3.86823627,13.0830283 3.83046036,12.8909004 C3.79285018,12.6996153 3.81214235,12.5014541 3.88609258,12.3208396 C3.96063409,12.138781 4.08754278,11.9823383 4.2513006,11.8716423 C4.41661784,11.7598921 4.61177795,11.7 4.81173443,11.7 Z M12.7053608,11.7 C12.9732206,11.7 13.2293788,11.8073422 13.4169875,11.9971397 C13.6021165,12.1844285 13.7053608,12.4365885 13.7053608,12.6986123 C13.7053608,12.8937851 13.6480427,13.0849413 13.5401453,13.2483051 C13.4311512,13.4133294 13.275337,13.5426944 13.0921462,13.6194598 C12.9076567,13.6967694 12.7041598,13.7170467 12.507925,13.6775578 C12.3124248,13.6382167 12.1334582,13.5414402 11.9937316,13.4000834 C11.8554799,13.2602188 11.7618625,13.083029 11.7240865,12.8909004 C11.6864765,12.6996161 11.7057689,12.5014549 11.7797194,12.3208396 C11.8542613,12.1387801 11.9811693,11.9823378 12.1449264,11.8716423 C12.3102436,11.7598922 12.505404,11.7 12.7053608,11.7 Z M7.53398046,5.43689312 L2.0174757,5.43689312 L2.0174757,8.32135909 L7.53398046,8.32135909 L7.53398046,5.43689312 Z M15.0689318,5.43689312 L9.55242703,5.43689312 L9.55242703,8.32135909 L15.0689318,8.32135909 L15.0689318,5.43689312 Z M13.9253897,1.96948635 L3.16198756,1.96948635 C2.85654243,1.96981787 2.56427802,2.08699449 2.34970382,2.29435607 C2.19507748,2.44378486 2.08953296,2.63161335 2.04430771,2.82612097 L2.02450078,2.94337327 L2.01772892,3.06518665 L2.0174757,3.46699024 L15.0689318,3.46699024 L15.0696485,3.06552515 C15.0693611,2.8182639 14.9818854,2.57927384 14.8229961,2.386636 L14.7376734,2.29435607 C14.5230992,2.08699449 14.2308348,1.96981787 13.9253897,1.96948635 Z" id="Combined-Shape"></path>
        </g>
    </g>
</svg>