<?xml version="1.0" encoding="UTF-8"?>
<svg width="20px" height="20px" viewBox="0 0 20 20" version="1.1" xmlns="http://www.w3.org/2000/svg" xmlns:xlink="http://www.w3.org/1999/xlink">
    <title>Tag</title>
    <g id="Tag" stroke="none" stroke-width="1" fill="none" fill-rule="evenodd">
        <path d="M5.50003311,4.00003311 C4.67160599,4.00003311 4.00003311,4.67160599 4.00003311,5.50003311 C4.00003311,6.32846024 4.67160599,7.00003311 5.50003311,7.00003311 C6.32846024,7.00003311 7.00003311,6.32846024 7.00003311,5.50003311 C7.00003311,4.67160599 6.32846024,4.00003311 5.50003311,4.00003311 Z M10.7100331,0.290033112 C10.5213143,0.102846598 10.2658361,-0.0015036463 10.0000331,0 L1.00003311,0 C0.447748363,0 0,0.447748363 0,1.00003311 L0,10.0000331 C-0.0015036463,10.2658361 0.102846598,10.5213143 0.290033112,10.7100331 L8.71003311,19.1200331 C9.8813033,20.2898466 11.7787629,20.2898466 12.9500331,19.1200331 L19.1200331,13.0000331 C20.2898466,11.8287629 20.2898466,9.9313033 19.1200331,8.76003311 L10.7100331,0.290033112 Z M17.7100331,11.5300331 L17.7100331,11.5300331 L11.5300331,17.7000331 C11.1399957,18.0877567 10.5100706,18.0877567 10.1200331,17.7000331 L2.00003311,9.59003311 L2.00003311,2.00003311 L9.59003311,2.00003311 L17.7100331,10.1200331 C17.8972196,10.3087519 18.0015699,10.5642301 18.0000498,10.8300331 C17.9989285,11.092373 17.8947773,11.3437725 17.7100331,11.5300331 L17.7100331,11.5300331 Z" fill="#000000" fill-rule="nonzero" transform="translate(9.998689, 9.998689) scale(-1, 1) translate(-9.998689, -9.998689) "></path>
    </g>
</svg>