<?xml version="1.0" encoding="UTF-8"?>
<svg width="20px" height="20px" viewBox="0 0 20 20" version="1.1" xmlns="http://www.w3.org/2000/svg"
    xmlns:xlink="http://www.w3.org/1999/xlink">
    <title>Baggage</title>
    <g id="Baggage" stroke="none" stroke-width="1" fill="none" fill-rule="evenodd">
        <path
            d="M10.9085149,0 C11.6759145,0.000523502508 12.4114999,0.303942703 12.9539129,0.843736052 C13.4479188,1.33482513 13.745439,1.98526075 13.7958568,2.67422535 L13.8035185,2.88194978 L13.803,4.878 L14.1932218,4.87826884 C14.8746301,4.87934348 15.5280772,5.14907982 16.0099262,5.62855654 C16.4444199,6.06045239 16.7080219,6.63122936 16.7572062,7.23702203 L16.7655999,7.44010732 L16.7655999,15.9755136 C16.7645165,16.6550368 16.4927203,17.3063521 16.0101196,17.7860948 C15.5763273,18.2177761 15.0036339,18.4794285 14.3961087,18.5282444 L14.192453,18.5365748 L13.803,18.536 L13.8035746,19.0243902 C13.8035746,19.2404607 13.7316985,19.4490976 13.6012871,19.6185155 L13.5161227,19.7152056 C13.3326854,19.8976459 13.0841776,20 12.8253054,20 C12.2856419,20 11.8470362,19.5637719 11.8470362,19.0243902 L11.8470362,19.0243902 L11.847,18.536 L7.918,18.536 L7.91800311,19.0243902 C7.91800311,19.2404607 7.84612705,19.4490976 7.71571561,19.6185155 L7.63055123,19.7152056 C7.44711397,19.8976459 7.19860616,20 6.93973395,20 C6.40007048,20 5.96146478,19.5637719 5.96146478,19.0243902 L5.96146478,19.0243902 L5.961,18.536 L5.57237805,18.5365748 C4.89096974,18.5355002 4.23752269,18.2657638 3.75567363,17.7862871 C3.32118002,17.3543913 3.05757793,16.7836143 3.00839365,16.1778216 L3,15.9747363 L3,7.43933004 C3.00108339,6.75980689 3.27287959,6.10849157 3.75548023,5.62874888 C4.18927259,5.19706759 4.761966,4.93541519 5.36949121,4.88659926 L5.57314692,4.87826884 L5.961,4.878 L5.96146478,2.8816133 C5.96199239,2.11689274 6.26765583,1.3838817 6.81090288,0.843902647 C7.30420564,0.353037312 7.95697018,0.0576572671 8.64809968,0.00760575455 L8.85646838,0 L10.9085149,0 Z M14.1918717,6.82926464 L5.57329083,6.82926464 C5.40930109,6.82938662 5.25214154,6.89423825 5.13632412,7.00940579 C5.04409744,7.10113234 4.98429708,7.21861478 4.96400406,7.34433757 L4.95630243,7.43990104 L4.95630243,15.9741632 C4.95642372,16.13545 5.02103936,16.290344 5.13632412,16.4050253 C5.22895932,16.4971582 5.34807362,16.5570908 5.47579877,16.5774409 L5.57292798,16.5851665 L14.1918712,16.5851665 C14.3558609,16.5850445 14.5130204,16.5201929 14.6288379,16.4050253 C14.7210645,16.3132988 14.7808649,16.1958163 14.8011579,16.0700935 L14.8088596,15.9745301 L14.8088596,7.44026786 C14.8087383,7.27898107 14.7441226,7.12408711 14.6288379,7.00940579 C14.5130439,6.89423973 14.3558763,6.82938644 14.1918717,6.82926464 Z M10.9080212,1.95122975 L8.85709746,1.95122975 C8.60763334,1.95151707 8.36880334,2.05013052 8.1925513,2.22558825 C8.04619714,2.37102983 7.95336122,2.55923642 7.9263158,2.76013997 L7.91808159,2.88196519 L7.91707317,4.87707317 L11.8468293,4.87707317 L11.8470366,2.88251774 C11.8467976,2.67726864 11.7783123,2.47908679 11.6536939,2.31757611 L11.5722838,2.22530708 C11.3962929,2.05012736 11.1574736,1.95151662 10.9080212,1.95122975 Z"
            id="Baggage-1" fill="#000000" fill-rule="nonzero"></path>
    </g>
</svg>