<?xml version="1.0" encoding="UTF-8"?>
<svg width="511px" height="376px" viewBox="0 0 511 376" version="1.1" xmlns="http://www.w3.org/2000/svg" xmlns:xlink="http://www.w3.org/1999/xlink">
    <title>Coupons not available</title>
    <g id="Page-1" stroke="none" stroke-width="1" fill="none" fill-rule="evenodd">
        <g id="Coupons-not-available" fill-rule="nonzero">
            <path d="M436.4,272.3 C431.1,282.9 430.3,295.2 434.2,306.4 C441.2,326.3 462.7,343.3 457.5,363.8 C456.8,366.6 455.6,369.2 454,371.6 L101.2,371.6 C93.3,363.1 85.9,351.3 84.6,337.2 C82.9,319.4 82,300.2 91.8,285.2 C98.8,274.5 110.4,267.6 120.6,259.7 C130.9,251.8 140.7,241.5 141.5,228.8 C142.3,216.3 134.2,205 124.8,196.4 C115.4,187.8 104.5,180.8 96.7,170.8 C80.5,149.9 82.1,119.5 95.6,96.9 C109.1,74.3 132.4,58.6 156.9,47.9 C188.5,34.1 224,27.5 258.2,33.2 C292.4,38.9 324.8,58 342.3,86.9 C354,106.3 359.7,130.3 378.2,143.9 C399.6,159.6 431.2,155.9 453,171 C472.3,184.4 479,212.2 467.9,232.5 C459.8,247.2 444.1,257.2 436.4,272.3" id="Path_24258" fill="#D8E7FF"></path>
            <path d="M332.8,44.5 C336.7,30.4 343,16.7 349.5,3.7 L351.6,6.7 C348.3,14.1 344.9,21.5 341.6,29 C339.1,34.5 336.6,40.1 332.8,44.8" id="Path_24259" fill="#019CD3"></path>
            <path d="M386.7,85.8 C394.1,79.3 400.8,71.9 406.6,63.9 C407.7,66.1 408.8,68.5 408,70.9 C407.4,72.7 405.9,74 404.4,75.2 C400.6,78.2 396.8,81 392.9,83.8 C391,85.1 388.6,86.5 386.5,85.7" id="Path_24260" fill="#FB4849"></path>
            <path d="M89.5,337.7 C91,331.5 95.4,326.2 100.7,322.5 C106,318.8 112,316.3 117.9,313.9 L116.3,320.6 C106.4,324 97.3,329.5 89.8,336.8" id="Path_24261" fill="#00C2A7"></path>
            <path d="M129.4,82.7 C114.6,64.3 94.8,50.6 72.4,43.2 C71.9,38.7 75,34.2 79.1,32.4 C83.2,30.6 88.1,31 92.3,32.8 C96.5,34.5 100.1,37.5 103.4,40.6 C116.2,52.5 126,67.1 132,83.4" id="Path_24262" fill="#00C2A7"></path>
            <path d="M182.8,28.6 C180.1,20.6 175.5,11.9 169.1,6.3 C168.4,5.7 167.6,4.9 167.8,4 C168,3.2 168.9,2.8 169.7,2.5 C172.2,1.7 174.7,0.8 177.1,0 C179.7,9.4 181.6,19 182.8,28.6" id="Path_24263" fill="#FEBF23"></path>
            <path d="M62.1,254.5 C49,255.2 36.4,263.5 31,275.5 C28.8,274.9 27.7,272.1 28.3,269.9 C28.9,267.7 30.6,265.9 32.3,264.4 C40.3,257.4 51.5,252.1 62,253.8 L62.1,254.5 Z" id="Path_24264" fill="#019CD3"></path>
            <path d="M415.9,263 C419.8,257.8 427.1,256.8 432.2,260.6 C436.1,263.5 437.7,268.4 436.5,273 C438.3,273.9 440,275 441.5,276.4 C443.4,271.7 443,266.5 440.6,262.1 C438.1,257.7 433.6,254.9 428.5,254.6 C423.4,254.5 418.7,257.3 416.4,261.8" id="Path_24265" fill="#00C2A7"></path>
            <path d="M395.6,309.4 C397.1,307.3 400.2,307 402.6,308 C405,309 406.7,311.1 408.2,313.1 C413.6,320.4 417.7,328.6 420.3,337.3 C425.4,335.3 429.6,331.4 431.8,326.4 C432.4,325.1 432.4,323.6 431.8,322.4 C430.9,320.3 420.9,299.3 404.3,301.3 C399.6,301.9 395.1,305.3 394.1,309.9" id="Path_24266" fill="#FABE22"></path>
            <path d="M265.7,27.7 C267.6,24.8 272.7,25 274.4,28 C276.1,31 273.8,35.4 270.4,35.7 C266.9,36 263.9,32 265.2,28.7" id="Path_24267" fill="#FB4849"></path>
            <path d="M84.6,267.2 C82.2,264.7 77.2,265.7 76,269 C74.8,272.3 77.8,276.3 81.3,276.1 C84.8,275.8 87.2,271.4 85.5,268.3" id="Path_24268" fill="#9C00A1"></path>
            <path d="M79,94.2 C79.4,97.1 82,99.2 85,98.9 C85.3,98.9 85.7,98.8 86,98.7 C88.6,97.7 89.9,94.7 88.9,92.1 C87.9,89.5 84.9,88.2 82.3,89.2 C81.3,89.6 80.4,90.3 79.8,91.2" id="Path_24269" fill="#FABE22"></path>
            <path d="M235.1,86.7 C233,80.5 235.9,73.3 241.1,69.3 C246.3,65.3 253.3,64.3 259.8,65.4 C266.2,66.5 272.2,69.6 277.7,73.2 C308.5,93.5 326.1,132 321.4,168.5 C320.3,177.3 317,187.1 308.8,190.6 C304.5,192.4 299.7,192.1 295.1,191.8 C288.3,191.3 281.2,190.7 275.7,186.6 C267.4,180.3 266.3,168.3 267,157.9 C267.7,147.5 269.4,136.3 264.4,127.2 C261.5,121.9 256.6,118 252,113.9 C242.5,105.5 233.5,95.2 232.2,82.6" id="Path_24270" fill="#4C4D79"></path>
            <path d="M208.8,333.5 L195.6,372.1 C195.6,372.1 299.6,379.9 315.8,373.1 C310,340.9 308.4,334.2 308.4,334.2 L269.8,331.5 L208.8,333.5 Z" id="Path_24271" fill="#39AE68"></path>
            <path d="M211.5,313.9 L208.7,333.5 C208.7,333.5 244.6,350.4 308.2,334.2 L308.5,315.6 L211.5,313.9 Z" id="Path_24272" fill="#DAAC93"></path>
            <path d="M172.8,259 C172.8,259.3 172.7,259.7 172.7,260 C172.3,259.9 171.8,259.9 171.4,259.8 L172.8,259 Z" id="Path_24273" fill="#DAAC93"></path>
            <path d="M313.8,264.6 C315.4,283 320.7,300.8 329.4,317 C331.3,320.5 333.4,324 336.9,325.9 C342.9,329.2 350.6,326.5 355.7,322 C362.1,316.3 365.9,308.3 369.5,300.5 C377.5,283.1 385.6,265.7 393.6,248.2 C396,243.1 398.4,237.8 402.4,233.9 C407.3,229 419.1,226.7 424.3,225.9 C426.2,225.6 428.1,225 429.9,224.2 C435.3,221.7 446.3,216 450.2,210.5 C453.6,206 431.5,213.3 407.1,215.6 C403.4,216 397.6,215.8 394.5,217.8 C391.5,219.7 389.5,224.9 387.5,227.8 C375,245.2 362.7,264.4 350.2,281.8 C348.5,274.1 348.1,267 346.4,259.3 C346.4,259.2 324.4,263 313.8,264.6" id="Path_24274" fill="#DAAC93"></path>
            <path d="M204.1,264 C204.1,264.1 204.1,264.2 204.1,264.2 C203.6,271.2 202.1,278.1 199.5,284.6 C194.3,298.3 185.4,310.9 175.4,321.7 C172.1,325.2 168.1,328.9 163.3,328.5 C158.4,328.1 155.1,323.6 152.4,319.5 C139,299 127.9,277 119.3,254 C116.5,246.7 113.8,239 108.1,233.6 C96.3,222.6 76.7,225.9 63,217.3 C61.6,216.4 60.2,214.6 61.4,213.5 C62.1,213 62.9,212.9 63.7,213.1 L113.5,217.9 C115.8,218 118,218.5 120.1,219.5 C122.4,220.7 123.9,222.9 125.4,225 C138.9,243.9 152.3,262.9 165.8,281.8 C168.8,276.7 170.8,271.1 172,265.3 L172,265.3 C172.3,263.6 172.6,261.9 172.7,260.1 C183.2,261.3 193.6,262.7 204.1,264" id="Path_24275" fill="#DAAC93"></path>
            <path d="M204.1,264.2 C203.7,270.6 202.3,276.9 199.9,282.8 C194,280.7 170.6,270.2 172.2,265 C182.8,265.9 193.5,265.6 204.1,264.2" id="Path_24276" fill="#AE6946"></path>
            <path d="M315.1,275.2 C326.2,271.4 336.7,266.1 346.4,259.7 C346.4,259.7 346.5,259.6 346.5,259.6 C346.5,259.6 346.4,259.6 346.4,259.6 C343.8,259.9 341.1,260.2 338.5,260.6 C330.6,261.6 322.8,262.8 315,264.4 C314.6,264.5 314.2,264.6 313.8,264.7 L315.1,275.2 Z" id="Path_24277" fill="#AE6946"></path>
            <path d="M244.7,180.7 C269.1,176.4 281.4,181.3 305,188.8 C315.3,192.1 325.6,196.7 332.7,204.9 C338.7,211.9 341.9,220.9 343.3,230 C344.7,239.1 346.8,250.4 346.4,259.6 C337.7,265.7 314,266.7 314,266.7 C314,266.7 311.9,272.3 311.1,275.4 C307.5,288.5 308.2,302.1 308.7,315.7 C276.4,319.6 243.7,319 211.5,314 C211.7,300.6 209.4,287.2 204.7,274.6 C203.8,272.2 203.3,270.5 203.3,270.5 C203.3,270.5 181.5,272.3 171.1,264.9 C174,249.5 177.9,234.4 181.8,219.3 C190.6,186 244.7,180.7 244.7,180.7" id="Path_24278" fill="#FFC7C6"></path>
            <path d="M234.4,78.1 C229.8,75.9 224.3,76.8 219.9,79.4 C215.5,82 212.4,86.1 209.7,90.4 C199.5,107.1 196.8,127.4 197.9,146.9 C198.3,153.6 199.1,160.3 201.4,166.6 C203.7,172.9 207.6,178.8 213.3,182.4 C224.7,189.8 240,186.6 247.4,175.2 C249.9,171.4 251.3,167 251.4,162.4 C237.8,146.6 231.7,125.7 234.7,105.1 C236.1,95.8 239.1,85.6 234,77.8" id="Path_24279" fill="#4C4D79"></path>
            <path d="M227.6,155.9 C226.5,155.3 225.7,154.3 225.5,153.1 C225.3,152.2 225.1,151.3 225,150.4 C224.3,145.9 224.5,141.3 225.6,136.9 C226.1,134.6 226.9,132.6 228.1,131.6 C229.3,130.6 230.2,130.9 230.2,131 C230.2,131.2 229.4,131.3 228.7,132.2 C227.9,133.1 227.4,134.9 227.1,137.2 C226.7,139.9 226.5,142.6 226.6,145.3 C226.7,146.9 226.8,148.5 227.1,150.1 C227.4,151.7 227.7,153.7 228.5,153.9 C229,154.1 229.6,154 230,153.6 C230.5,153.2 230.9,152.6 231.1,152 C231.5,150.5 231.9,149 232,147.4 C232.3,144.7 232.5,141.9 232.5,139.2 C232.5,134.5 232.5,131.5 232.8,131.5 C233.1,131.5 233.6,134.4 234,139.1 C234.2,141.9 234.2,144.7 234,147.6 C233.9,149.3 233.6,151 233.1,152.7 C232.8,153.7 232.1,154.7 231.3,155.3 C230.2,156.2 228.9,156.4 227.6,155.9" id="Path_24280" fill="#FFFFFF"></path>
            <path d="M290.7,192.5 C289.9,201.8 289.2,211.1 286.4,220 C283.6,228.9 278.7,237.4 271,242.7 C263.3,248 252.8,249.6 244.6,245.2 C235.1,240.1 231,228.6 230.2,217.9 C229.6,209.4 229.1,185.8 232.8,183 C235.3,181.2 237.9,179.5 240,177 C242.3,174.3 243.7,170.9 244.2,167.4 C245,161 242.8,155.1 241.1,153.2 C241.1,153.2 241,153.1 241,153.1 C235.3,149 231.9,142.4 229.8,135.7 C225.5,121.8 225.5,106.8 229.9,92.9 C231.4,88.1 231.9,87 236.4,85.2 C237,89 241.3,91.6 244.2,92.8 C249.4,95.4 254.5,98.4 259.3,101.7 C260.1,102.2 260.9,102.8 261.7,103.3 C266.4,106.5 270.6,109.9 272.6,112.4 C274.4,114.7 277.2,117.5 279.7,116 C281.1,115.2 282.1,113.3 283.6,113.7 C284.3,114 284.9,114.5 285.2,115.3 C287.2,119.3 286.5,124.2 284.9,128.4 C283.3,132.6 280.8,136.4 279.3,140.6 C276.7,147.9 275.6,155.6 276.1,163.3 C276.4,168.5 278.5,174.4 282.2,178 C284.5,180.2 287.9,181.4 289.6,184.2 C291.1,186.7 290.9,189.7 290.7,192.5" id="Path_24281" fill="#DAAC93"></path>
            <path d="M244.4,125 C244.4,125.2 244.4,125.4 244.4,125.5 C244.4,125.6 244.5,125.7 244.6,125.7 C245.1,125.9 245.6,126 246.1,126 C247.5,126 248.7,125.9 249.8,125.8 C251.9,125.6 253.3,125.3 253.4,125.7 C253.5,126 252.4,126.9 250.2,127.6 C248.9,128 247.6,128.3 246.3,128.4 C245.3,128.5 244.3,128.4 243.4,128 C242.8,127.7 242.3,127.1 242,126.5 C241.8,125.9 241.7,125.2 241.8,124.6 C242,123.6 242.5,122.7 243.1,121.9 C243.5,121.3 243.9,120.7 244.3,120.1 C244.9,119.1 245.5,118 246,116.9 C246.9,115 247.3,113.7 247.7,113.8 C248,113.8 248.2,115.3 247.7,117.5 C247.4,118.8 246.9,120.1 246.3,121.3 C245.9,122 245.5,122.7 245.1,123.4 C244.9,123.9 244.6,124.4 244.4,125" id="Path_24282" fill="#AE6946"></path>
            <path d="M232.3,101.2 C234.4,100.5 236.7,100.9 238.5,102.3 C239.8,103.3 240.1,104.4 239.9,104.5 C239.6,104.7 238.9,104.2 237.7,103.8 C234.7,102.6 231.2,103.7 229.4,106.4 C228.6,107.4 228.3,108.3 227.9,108.2 C227.6,108.2 227.2,107.2 227.7,105.6 C228.5,103.5 230.2,101.9 232.3,101.2" id="Path_24283" fill="#AE6946"></path>
            <path d="M233.9,113.7 L240.6,112.4 C241.1,114.1 240.1,115.9 238.3,116.3 C236.6,116.8 234.8,115.8 234.4,114 C234.4,113.9 234.3,113.8 234.3,113.7" id="Path_24284" fill="#AE6946"></path>
            <path d="M259.3,111 L266,109.7 C266.5,111.4 265.5,113.2 263.7,113.6 C261.9,114 260.2,113.1 259.8,111.3 C259.8,111.2 259.7,111.1 259.7,111" id="Path_24285" fill="#AE6946"></path>
            <path d="M244.3,167.4 C245.1,161 242.9,155.1 241.2,153.2 C244.9,155.4 254.3,159.6 263.7,153.4 C254.5,160.6 247.9,165.1 244.3,167.4" id="Path_24286" fill="#AE6946"></path>
            <path d="M129.2,248.8 C128.3,250.4 127.4,251.9 126.3,253.4 C125.3,254.8 124.1,256.1 122.8,257.2 C122.1,257.8 121.2,258.2 120.3,258.4 C119.4,258.6 118.4,258.5 117.5,258.1 C116.1,257.3 115.1,256 114.8,254.4 C114.6,253.2 114.7,252 115.1,250.9 C115.4,250.1 115.7,249.3 116.2,248.6 C116.9,247.5 117.4,246.9 117.6,247 C117.8,247.1 117.5,247.8 117.1,249 C116.7,250.2 116,252.1 116.6,253.9 C116.9,254.9 117.5,255.7 118.4,256.1 C119.4,256.4 120.6,256.1 121.3,255.3 C122.4,254.2 123.4,253.1 124.2,251.8 C125.2,250.4 126.1,249 126.9,247.5 C128.4,244.6 129.6,241.6 130.5,238.4 C130.9,236.9 131.2,235.5 131.4,234.2 C131.6,233 131.8,231.8 131.7,230.6 C131.7,229.7 131.4,228.9 130.9,228.2 C130.5,227.7 129.9,227.3 129.2,227.2 C128.1,226.9 127.5,227.4 127.4,227.3 C127.3,227.2 127.4,227 127.7,226.8 C128.2,226.4 128.7,226.2 129.3,226.2 C130.2,226.2 131.2,226.6 131.9,227.2 C132.8,228.1 133.4,229.2 133.5,230.5 C133.7,231.9 133.7,233.2 133.5,234.6 C133.4,236.1 133.1,237.6 132.8,239.1 C132,242.5 130.8,245.8 129.2,248.8" id="Path_24287" fill="#63648A"></path>
            <path d="M125.1,244 C124.2,245.6 123.3,247.1 122.2,248.6 C121.2,250 120,251.3 118.7,252.4 C118,253 117.1,253.4 116.2,253.6 C115.3,253.8 114.3,253.7 113.4,253.3 C112,252.5 111,251.2 110.7,249.6 C110.5,248.4 110.6,247.2 111,246.1 C111.3,245.3 111.6,244.5 112.1,243.8 C112.8,242.7 113.3,242.1 113.5,242.2 C113.7,242.3 113.4,243 113,244.2 C112.6,245.4 111.9,247.3 112.5,249.1 C112.8,250.1 113.4,250.9 114.3,251.3 C115.3,251.6 116.5,251.3 117.2,250.5 C118.3,249.4 119.3,248.3 120.1,247 C121.1,245.6 122,244.2 122.8,242.7 C124.3,239.8 125.5,236.8 126.4,233.6 C126.8,232.1 127.1,230.7 127.3,229.4 C127.5,228.2 127.7,227 127.6,225.8 C127.6,224.9 127.3,224.1 126.8,223.4 C126.4,222.9 125.8,222.5 125.1,222.4 C124,222.1 123.4,222.6 123.3,222.5 C123.2,222.4 123.3,222.2 123.6,222 C124.1,221.6 124.6,221.4 125.2,221.4 C126.1,221.4 127.1,221.8 127.8,222.4 C128.7,223.3 129.3,224.4 129.4,225.7 C129.6,227.1 129.6,228.4 129.4,229.8 C129.3,231.3 129,232.8 128.7,234.3 C128,237.6 126.8,240.9 125.1,244" id="Path_24288" fill="#63648A"></path>
            <path d="M168.8,281.7 C172.6,287 174,292.1 173.4,292.3 C172.7,292.6 170.3,288.1 166.7,283.1 C163.1,278.1 159.7,274.4 160.2,273.8 C160.6,273.4 165,276.4 168.8,281.7" id="Path_24289" fill="#AE6946"></path>
            <path d="M172.3,265.1 C172.3,265.2 172.3,265.2 172.3,265.1 C172.2,265.1 172.1,265.1 172,265.1 C171.4,265.1 170.9,265 170.3,265 L172,265.1 L172.3,265.1 Z" id="Path_24290" fill="#4C4D79"></path>
            <path d="M350.3,286 C348.6,290.2 347,293.5 346.3,293.3 C345.6,293.1 346.1,289.3 347.9,285 C349.7,280.7 351.9,277.6 352.6,277.9 C353.2,278.3 352,281.8 350.3,286" id="Path_24291" fill="#AE6946"></path>
            <path d="M202.1,257.8 C204.7,271.1 210,280.9 209.3,281.2 C209,281.4 207.3,279.1 205.3,275.1 C200,264.4 197.7,252.5 198.4,240.6 C198.7,236.1 199.4,233.3 199.8,233.4 C200.5,233.4 199.4,244.5 202.1,257.8" id="Path_24292" fill="#610066"></path>
            <path d="M317.1,259 C316.2,264.3 314.6,269.5 312.5,274.4 C310.8,278.1 309.3,280.2 309,280.1 C308.3,279.8 312.6,270.7 314.6,258.6 C316.7,246.5 315.6,236.5 316.4,236.4 C316.7,236.4 317.4,238.8 317.8,242.9 C318.2,248.3 318,253.7 317.1,259" id="Path_24293" fill="#610066"></path>
            <path d="M400.7,233.2 C399.9,232.8 399,233 398.4,233.5 C397.8,234.1 397.3,234.7 397,235.5 C396.3,236.8 395.8,238.2 395.3,239.6 C394.9,240.4 394.8,241.3 395,242.1 C395.4,243.6 397.4,244.3 398.9,243.7 C400.3,243 401.4,241.7 401.9,240.2 C402.5,238.7 402.6,237.1 402.2,235.6 C401.7,234.1 400.3,233 398.6,233" id="Path_24294" fill="#4C4D79"></path>
            <path d="M388.7,224.8 C388.3,227.3 389.1,229.8 390.8,231.5 C392.6,233.2 394.8,234.4 397.2,234.9 C396.4,236.5 395.6,238 394.8,239.6 C391.9,238.5 389,236.8 387.3,234.1 C385.6,231.5 385.4,227.7 387.5,225.4" id="Path_24295" fill="#4C4D79"></path>
            <path d="M266,126.7 C266,126.7 255.3,136 245.8,135.5 C247,137.4 248.6,139.2 250.3,140.7 C254.3,144 260.3,143.5 263.6,139.5 C264,139 264.4,138.5 264.7,137.9 C265.9,135.4 266.6,132.1 266,126.7" id="Path_24296" fill="#FFFFFF"></path>
            <path d="M261.8,103.4 C261.7,103.4 261.6,103.5 261.6,103.5 C259.7,104.3 258.4,105.5 257.8,105.2 C257.5,105 257.5,104.4 257.9,103.5 C258.3,102.8 258.8,102.2 259.5,101.7 C260.3,102.3 261.1,102.8 261.8,103.4" id="Path_24297" fill="#AE6946"></path>
            <path d="M290.4,145.8 C291.5,145.9 292.5,144.8 292.8,143.5 C293,142.1 292.9,140.7 292.5,139.3 C291.9,136.8 290.9,134.4 289.5,132.3 C287.1,128.6 284.8,126.9 285.1,126.6 C285.2,126.4 287.9,127.7 290.8,131.4 C292.5,133.6 293.7,136.1 294.4,138.8 C294.9,140.4 295.1,142.2 294.8,143.9 C294.6,144.9 294.1,145.9 293.4,146.6 C292.6,147.4 291.5,147.9 290.3,147.9 C289.2,147.8 288.2,147.4 287.4,146.7 C286.7,146.1 286,145.4 285.5,144.7 C284.6,143.3 283.8,141.9 283.2,140.3 C282.2,137.7 281.7,135 281.7,132.2 C281.8,127.5 283.2,124.8 283.4,124.9 C283.7,125 282.9,127.7 283.2,132.1 C283.4,134.6 284,137.1 285,139.5 C285.6,140.9 286.3,142.2 287.2,143.4 C288,144.6 289.3,145.7 290.4,145.8" id="Path_24298" fill="#FFFFFF"></path>
            <path d="M144.9,168.7 C144.9,180.9 153,191.7 164.7,195 L164.7,215.8 L0,215.8 L0,195.7 C13,193.3 22.4,181.9 22.4,168.7 C22.4,155.5 13,144.2 0,141.8 L0,120.5 L164.7,120.5 L164.7,142.4 C153,145.8 144.9,156.5 144.9,168.7" id="Path_24299" fill="#0280FF"></path>
            <path d="M29.6,204.2 C29.6,199.6 30.1,195.9 30.7,195.9 C31.3,195.9 31.8,199.6 31.7,204.2 C31.7,208.8 31.2,212.5 30.6,212.5 C30.1,212.5 29.6,208.8 29.6,204.2" id="Path_24300" fill="#FFFFFF"></path>
            <path d="M29.7,185.3 C29.7,181 30.2,177.6 30.8,177.6 C31.4,177.6 31.9,181.1 31.8,185.3 C31.7,189.5 31.3,193 30.7,193 C30.1,193 29.7,189.5 29.7,185.3" id="Path_24301" fill="#FFFFFF"></path>
            <path d="M29.8,166.4 C29.8,162.5 30.3,159.3 30.9,159.3 C31.5,159.3 32,162.5 31.9,166.4 C31.8,170.3 31.4,173.5 30.8,173.5 C30.2,173.5 29.7,170.3 29.8,166.4" id="Path_24302" fill="#FFFFFF"></path>
            <path d="M29.8,147.5 C29.8,143.9 30.3,141 30.9,141 C31.5,141 32,143.9 31.9,147.5 C31.9,151.1 31.4,154 30.8,154 C30.2,154 29.8,151.1 29.8,147.5" id="Path_24303" fill="#FFFFFF"></path>
            <path d="M29.9,128.6 C29.9,125.4 30.4,122.7 31,122.7 C31.6,122.7 32.1,125.3 32,128.6 C31.9,131.9 31.5,134.5 30.9,134.5 C30.3,134.5 29.9,131.8 29.9,128.6" id="Path_24304" fill="#FFFFFF"></path>
            <path d="M126.2,133.1 C107.4,149.4 88.5,165.6 69.7,181.9 C64.4,186.5 59,191.1 53.7,195.7 C52.5,196.9 52.5,198.9 53.7,200.1 C54.9,201.3 56.9,201.3 58.1,200.1 C76.9,183.8 95.8,167.6 114.6,151.3 L130.6,137.5 C131.8,136.3 131.8,134.3 130.6,133.1 C129.3,131.9 127.4,131.9 126.2,133.1" id="Path_24305" fill="#FFFFFF"></path>
            <path d="M92.9,132 C88.4,132.2 84.4,135.1 83.1,139.5 C81.7,143.9 83.8,148.5 87.6,150.9 C89.4,152.1 91.5,152.6 93.6,152.5 C95.9,152.3 98,151.4 99.7,149.8 C103,146.8 104,142 102.1,138 C99.9,133.7 95,131.5 90.3,132.7 C88.7,133.2 87.7,134.9 88.2,136.5 C88.7,138.1 90.3,139.1 92,138.6 C92.2,138.6 92.4,138.5 92.6,138.5 C93.1,138.4 92.4,138.6 92.3,138.5 C92.6,138.5 92.9,138.5 93.2,138.5 C93.3,138.5 93.3,138.5 93.4,138.5 C93.7,138.5 93.6,138.5 93.1,138.5 C93.2,138.5 93.3,138.6 93.5,138.6 C93.8,138.7 94.2,138.9 94.6,138.9 C94.3,139 94,138.6 94.5,138.8 C94.6,138.9 94.8,138.9 94.9,139 C95.1,139.1 95.5,139.5 95.7,139.5 C95.4,139.5 95.2,139.1 95.5,139.4 C95.6,139.5 95.8,139.7 95.9,139.8 C96,139.9 96.1,140 96.2,140.1 C96.3,140.2 96.4,140.3 96.4,140.4 C96.1,140 96.1,140 96.2,140.1 C96.3,140.4 96.5,140.6 96.7,140.9 C96.9,141.3 96.6,141.2 96.7,140.8 C96.7,141 96.8,141.1 96.9,141.2 C96.9,141.4 97,141.5 97,141.7 C97,141.8 97.2,142.4 97,141.9 C96.9,141.4 97,141.9 97,142.1 C97,142.3 97,142.5 97,142.7 L97,142.9 C97,143.2 97,143.2 97,142.6 C97,142.7 96.9,142.8 96.9,143 C96.8,143.3 96.7,143.6 96.6,143.9 C96.7,143.3 96.8,143.5 96.6,143.8 C96.5,143.9 96.5,144.1 96.4,144.2 C96.3,144.3 96.2,144.5 96.1,144.6 C96,144.7 96,144.8 95.9,144.8 C95.7,145.1 95.8,145 96,144.6 C95.8,144.8 95.6,145.1 95.3,145.3 C95.2,145.4 95.1,145.5 95,145.6 C94.5,146.1 95.6,145.2 95,145.6 C94.7,145.8 94.5,145.9 94.2,146.1 C94.1,146.2 94,146.2 93.9,146.3 C94.7,145.9 94.1,146.2 93.8,146.3 C93.6,146.3 93.5,146.4 93.3,146.4 C92.8,146.5 93.5,146.3 93.6,146.4 C93.4,146.3 92.8,146.4 92.6,146.4 C92.2,146.4 92,146.2 92.6,146.4 C92.5,146.4 92.3,146.3 92.2,146.3 C92,146.3 91.8,146.2 91.6,146.1 L91.4,146 C91.1,145.9 91.2,145.9 91.6,146.1 C91.6,146.1 90.8,145.7 90.7,145.6 C90.6,145.5 90.4,145.4 90.3,145.3 C89.9,145.1 90.9,145.8 90.4,145.4 C90.2,145.2 89.9,145 89.7,144.7 C89.7,144.7 89.4,144.4 89.4,144.4 C89.7,144.8 89.7,144.8 89.5,144.6 C89.4,144.5 89.4,144.4 89.3,144.3 C89.2,144.2 88.9,143.4 88.8,143.4 C88.9,143.4 89,144.1 88.9,143.6 C88.9,143.4 88.8,143.3 88.8,143.1 C88.8,142.9 88.7,142.8 88.7,142.6 C88.9,142.7 88.8,143.3 88.7,142.7 C88.7,142.4 88.8,141.8 88.7,141.6 L88.6,142 C88.6,141.9 88.6,141.7 88.7,141.6 C88.7,141.4 88.8,141.2 88.9,141 C88.9,140.9 89.1,140.3 89,140.8 C88.8,141.3 89.1,140.6 89.2,140.5 C89.3,140.4 89.3,140.3 89.4,140.2 C89.5,140.1 89.5,140 89.6,139.9 C89.8,139.6 89.8,139.7 89.5,140.1 C89.7,139.8 89.9,139.6 90.2,139.4 C90.3,139.3 90.5,139.1 90.6,139 C90.3,139.3 90.2,139.3 90.4,139.2 C90.5,139.1 90.6,139.1 90.6,139 C90.7,138.9 91.6,138.5 91.6,138.4 C91.6,138.5 90.9,138.7 91.5,138.5 C91.7,138.4 91.9,138.4 92.2,138.3 C92.3,138.3 92.5,138.3 92.6,138.2 C92.1,138.3 92,138.3 92.4,138.2 C92.5,138.2 92.7,138.2 92.8,138.2 C94.5,138.2 95.9,136.8 95.9,135.1 C95.9,133.4 94.6,132 92.9,132" id="Path_24306" fill="#FFFFFF"></path>
            <path d="M97.1,176.8 C92.6,177 88.6,180 87.3,184.3 C85.9,188.7 88,193.3 91.8,195.7 C93.6,196.9 95.7,197.4 97.8,197.3 C100.1,197.1 102.2,196.2 103.9,194.6 C107.2,191.6 108.2,186.8 106.3,182.8 C104.1,178.5 99.2,176.3 94.5,177.5 C92.9,178 91.9,179.7 92.4,181.3 C92.9,182.9 94.5,183.9 96.2,183.4 C96.4,183.3 96.6,183.3 96.8,183.3 C97.3,183.2 96.6,183.4 96.5,183.3 C96.8,183.3 97.1,183.3 97.4,183.3 C97.5,183.3 97.5,183.3 97.6,183.3 C97.9,183.3 97.8,183.3 97.3,183.3 C97.4,183.3 97.5,183.4 97.7,183.4 C98,183.5 98.4,183.7 98.8,183.7 C98.5,183.8 98.2,183.4 98.7,183.6 C98.8,183.7 99,183.7 99.1,183.8 C99.3,183.9 99.7,184.3 99.9,184.3 C99.6,184.3 99.4,183.9 99.7,184.2 C99.8,184.3 100,184.5 100.1,184.6 C100.2,184.7 100.3,184.8 100.4,184.9 C100.5,185 100.6,185.1 100.6,185.2 C100.3,184.8 100.3,184.8 100.4,184.9 C100.5,185.2 100.7,185.4 100.9,185.7 C101.1,186.1 100.8,186 100.9,185.6 C100.9,185.8 101,185.9 101.1,186 C101.1,186.2 101.2,186.3 101.2,186.5 C101.2,186.6 101.4,187.2 101.2,186.7 C101.1,186.2 101.2,186.7 101.2,186.9 C101.2,187.1 101.2,187.3 101.2,187.5 C101.2,187.6 101.2,187.6 101.2,187.7 C101.2,188 101.2,188 101.2,187.4 C101.2,187.5 101.1,187.6 101.1,187.8 C101,188.1 100.9,188.4 100.8,188.7 C100.9,188.1 101,188.3 100.8,188.6 C100.7,188.7 100.7,188.9 100.6,189 C100.5,189.1 100.4,189.3 100.3,189.4 C100.2,189.5 100.2,189.6 100.1,189.6 C99.9,189.9 100,189.8 100.2,189.4 C100,189.6 99.8,189.9 99.5,190.1 C99.4,190.2 99.3,190.3 99.2,190.4 C98.7,190.9 99.8,190 99.2,190.4 C98.9,190.6 98.7,190.7 98.4,190.9 C98.3,191 98.2,191 98.1,191.1 C98.9,190.7 98.3,191 98,191.1 C97.8,191.1 97.7,191.2 97.5,191.2 C97,191.3 97.7,191.1 97.8,191.2 C97.6,191.1 97,191.2 96.8,191.2 C96.4,191.2 96.2,191 96.8,191.2 C96.7,191.2 96.5,191.1 96.4,191.1 C96.2,191.1 96,191 95.8,190.9 L95.6,190.8 C95.3,190.7 95.4,190.7 95.8,190.9 C95.8,190.9 95,190.5 94.9,190.4 C94.8,190.3 94.6,190.2 94.5,190.1 C94.1,189.9 95.1,190.6 94.6,190.2 C94.4,190 94.1,189.8 93.9,189.5 C93.9,189.5 93.6,189.2 93.6,189.2 C93.9,189.6 93.9,189.6 93.7,189.4 C93.6,189.3 93.6,189.2 93.5,189.1 C93.4,189 93.1,188.2 93,188.2 C93.1,188.2 93.2,188.9 93.1,188.4 C93.1,188.2 93,188.1 93,187.9 C93,187.7 92.9,187.6 92.9,187.4 C93.1,187.5 93,188.1 92.9,187.5 C92.9,187.2 93,186.6 92.9,186.4 L92.8,186.8 C92.8,186.7 92.8,186.5 92.9,186.4 C92.9,186.2 93,186 93.1,185.8 C93.1,185.7 93.3,185.1 93.2,185.6 C93,186.1 93.3,185.4 93.4,185.3 C93.5,185.2 93.5,185.1 93.6,185 C93.7,184.9 93.7,184.8 93.8,184.7 C94,184.4 94,184.5 93.7,184.9 C93.9,184.6 94.1,184.4 94.4,184.2 C94.5,184.1 94.7,183.9 94.8,183.8 C94.5,184.1 94.4,184.1 94.6,184 C94.7,183.9 94.8,183.9 94.8,183.8 C94.9,183.7 95.8,183.3 95.8,183.2 C95.8,183.3 95.1,183.5 95.7,183.3 C95.9,183.2 96.1,183.2 96.4,183.1 C96.5,183.1 96.7,183.1 96.8,183 C96.3,183.1 96.2,183.1 96.6,183 C96.7,183 96.9,183 97,183 C98.7,183 100.1,181.6 100.1,179.9 C100.1,178.2 98.9,176.8 97.1,176.8" id="Path_24307" fill="#FFFFFF"></path>
            <path d="M490.3,168.7 C490.3,180.9 498.4,191.7 510.1,195 L510.1,215.8 L345.4,215.8 L345.4,195.7 C360.3,192.9 370.1,178.6 367.3,163.7 C365.2,152.6 356.5,143.8 345.4,141.8 L345.4,120.5 L510.1,120.5 L510.1,142.4 C498.4,145.8 490.3,156.5 490.3,168.7" id="Path_24308" fill="#FFC127"></path>
            <path d="M375,204.2 C375,199.6 375.5,195.9 376.1,195.9 C376.7,195.9 377.2,199.6 377.1,204.2 C377.1,208.8 376.6,212.5 376,212.5 C375.5,212.5 375,208.8 375,204.2" id="Path_24309" fill="#FFFFFF"></path>
            <path d="M375.1,185.3 C375.1,181 375.6,177.6 376.2,177.6 C376.8,177.6 377.3,181.1 377.2,185.3 C377.1,189.5 376.7,193 376.1,193 C375.5,193 375.1,189.5 375.1,185.3" id="Path_24310" fill="#FFFFFF"></path>
            <path d="M375.1,166.4 C375.1,162.5 375.6,159.3 376.2,159.3 C376.8,159.3 377.3,162.5 377.2,166.4 C377.1,170.3 376.7,173.5 376.1,173.5 C375.6,173.5 375.1,170.3 375.1,166.4" id="Path_24311" fill="#FFFFFF"></path>
            <path d="M375.2,147.5 C375.2,143.9 375.7,141 376.3,141 C376.9,141 377.4,143.9 377.3,147.5 C377.2,151.1 376.8,154 376.2,154 C375.6,154 375.2,151.1 375.2,147.5" id="Path_24312" fill="#FFFFFF"></path>
            <path d="M375.3,128.6 C375.3,125.4 375.8,122.7 376.4,122.7 C377,122.7 377.5,125.3 377.4,128.6 C377.3,131.9 376.9,134.5 376.3,134.5 C375.7,134.4 375.3,131.8 375.3,128.6" id="Path_24313" fill="#FFFFFF"></path>
            <path d="M471.2,134.8 C452.4,151.1 433.5,167.3 414.7,183.6 C409.4,188.2 404,192.8 398.7,197.4 C397.5,198.6 397.5,200.6 398.7,201.8 C399.9,203 401.9,203 403.1,201.8 C421.9,185.5 440.8,169.3 459.6,153 L475.6,139.2 C476.8,138 476.8,136 475.6,134.8 C474.3,133.6 472.4,133.6 471.2,134.8" id="Path_24314" fill="#FFFFFF"></path>
            <path d="M437.9,133.8 C433.4,134 429.4,137 428.1,141.3 C426.7,145.7 428.8,150.3 432.6,152.7 C434.4,153.9 436.5,154.4 438.6,154.3 C440.9,154.1 443,153.2 444.7,151.6 C448,148.6 449,143.8 447.1,139.8 C444.9,135.5 440,133.3 435.3,134.5 C433.7,135 432.7,136.7 433.2,138.3 C433.7,139.9 435.3,140.9 437,140.4 C437.2,140.3 437.4,140.3 437.6,140.3 C438.1,140.2 437.4,140.4 437.3,140.3 C437.6,140.3 437.9,140.3 438.2,140.3 C438.3,140.3 438.3,140.3 438.4,140.3 C438.7,140.3 438.6,140.3 438.1,140.3 C438.2,140.3 438.3,140.4 438.5,140.4 C438.8,140.5 439.2,140.7 439.6,140.7 C439.3,140.8 439,140.4 439.5,140.7 C439.6,140.8 439.8,140.8 439.9,140.9 C440.1,141 440.5,141.4 440.7,141.4 C440.4,141.4 440.2,141 440.5,141.3 C440.6,141.4 440.8,141.6 440.9,141.7 C441,141.8 441.1,141.9 441.2,142 C441.3,142.1 441.4,142.2 441.4,142.3 C441.1,141.9 441.1,141.9 441.2,142 C441.3,142.3 441.5,142.5 441.7,142.8 C441.9,143.2 441.6,143.1 441.7,142.7 C441.7,142.9 441.8,143 441.9,143.1 C441.9,143.3 442,143.4 442,143.6 C442,143.7 442.2,144.3 442,143.8 C441.9,143.3 442,143.8 442,144 C442,144.2 442,144.4 442,144.6 C442,144.7 442,144.7 442,144.8 C442,145.1 442,145.1 442,144.5 C442,144.6 441.9,144.7 441.9,144.9 C441.8,145.2 441.7,145.5 441.6,145.8 C441.7,145.2 441.8,145.4 441.6,145.7 C441.5,145.8 441.5,146 441.4,146.1 C441.3,146.2 441.2,146.4 441.1,146.5 C441,146.6 441,146.7 440.9,146.7 C440.7,147 440.8,146.9 441,146.5 C440.8,146.7 440.6,147 440.3,147.2 C440.2,147.3 440.1,147.4 440,147.5 C439.5,148 440.6,147.1 440,147.5 C439.7,147.7 439.5,147.8 439.2,148 C439.1,148.1 439,148.1 438.9,148.2 C439.7,147.8 439.1,148.1 438.8,148.2 C438.6,148.2 438.5,148.3 438.3,148.3 C437.8,148.4 438.5,148.2 438.6,148.3 C438.4,148.2 437.8,148.3 437.6,148.3 C437.2,148.3 437,148.1 437.6,148.3 C437.5,148.3 437.3,148.2 437.2,148.2 C437,148.2 436.8,148.1 436.6,148 L436.4,147.9 C436.1,147.8 436.2,147.8 436.6,148 C436.6,148 435.8,147.6 435.7,147.5 C435.6,147.4 435.4,147.3 435.3,147.2 C434.9,147 435.9,147.7 435.4,147.3 C435.2,147.1 434.9,146.9 434.7,146.6 C434.7,146.6 434.4,146.3 434.4,146.3 C434.7,146.7 434.7,146.7 434.5,146.5 C434.4,146.4 434.4,146.3 434.3,146.2 C434.2,146.1 433.9,145.3 433.8,145.3 C433.9,145.3 434,146 433.9,145.5 C433.9,145.3 433.8,145.2 433.8,145 C433.8,144.8 433.7,144.7 433.7,144.5 C433.9,144.6 433.8,145.2 433.7,144.6 C433.7,144.3 433.8,143.7 433.7,143.5 L433.6,143.9 C433.6,143.8 433.6,143.6 433.7,143.5 C433.7,143.3 433.8,143.1 433.9,142.9 C433.9,142.8 434.1,142.2 434,142.7 C433.9,143.2 434.1,142.5 434.2,142.4 C434.3,142.3 434.3,142.2 434.4,142.1 C434.5,142 434.5,141.9 434.6,141.8 C434.8,141.5 434.8,141.6 434.5,142 C434.7,141.7 434.9,141.5 435.2,141.3 C435.3,141.2 435.5,141 435.6,140.9 C435.3,141.2 435.2,141.2 435.4,141.1 C435.5,141 435.6,141 435.6,140.9 C435.7,140.8 436.6,140.4 436.6,140.3 C436.6,140.4 435.9,140.6 436.5,140.4 C436.7,140.3 436.9,140.3 437.2,140.2 C437.3,140.2 437.5,140.2 437.6,140.1 C437.1,140.2 437,140.2 437.4,140.1 C437.5,140.1 437.7,140.1 437.8,140.1 C439.5,140.1 440.9,138.7 440.9,137 C440.9,135.3 439.6,133.8 437.9,133.8" id="Path_24315" fill="#FFFFFF"></path>
            <path d="M442.1,178.5 C437.6,178.7 433.6,181.7 432.3,186 C430.9,190.4 433,195 436.8,197.4 C438.6,198.6 440.7,199.1 442.8,199 C445.1,198.8 447.2,197.9 448.9,196.3 C452.2,193.3 453.2,188.5 451.3,184.5 C449.1,180.2 444.2,178 439.5,179.2 C437.9,179.7 436.9,181.4 437.4,183 C437.9,184.6 439.5,185.6 441.2,185.1 C441.4,185 441.6,185 441.8,185 C442.3,184.9 441.6,185.1 441.5,185 C441.8,185 442.1,185 442.4,185 C442.5,185 442.5,185 442.6,185 C442.9,185 442.8,185 442.3,185 C442.4,185 442.5,185.1 442.7,185.1 C443,185.2 443.4,185.4 443.8,185.4 C443.5,185.5 443.2,185.1 443.7,185.3 C443.8,185.4 444,185.4 444.1,185.5 C444.3,185.6 444.7,186 444.9,186 C444.6,186 444.4,185.6 444.7,185.9 C444.8,186 445,186.2 445.1,186.3 C445.2,186.4 445.3,186.5 445.4,186.6 C445.5,186.7 445.6,186.8 445.6,186.9 C445.3,186.5 445.3,186.5 445.4,186.6 C445.5,186.9 445.7,187.1 445.9,187.4 C446.1,187.8 445.8,187.7 445.9,187.3 C445.9,187.5 446,187.6 446.1,187.7 C446.1,187.9 446.2,188 446.2,188.2 C446.2,188.3 446.4,188.9 446.2,188.4 C446.1,187.9 446.2,188.4 446.2,188.6 C446.2,188.8 446.2,189 446.2,189.2 C446.2,189.3 446.2,189.3 446.2,189.4 C446.2,189.7 446.2,189.7 446.2,189.1 C446.2,189.2 446.1,189.3 446.1,189.5 C446,189.8 445.9,190.1 445.8,190.4 C445.9,189.8 446,190 445.8,190.3 C445.7,190.4 445.7,190.6 445.6,190.7 C445.5,190.8 445.4,191 445.3,191.1 C445.2,191.2 445.2,191.3 445.1,191.3 C444.9,191.6 445,191.5 445.2,191.1 C445,191.3 444.8,191.6 444.5,191.8 C444.4,191.9 444.3,192 444.2,192.1 C443.7,192.6 444.8,191.7 444.2,192.1 C443.9,192.3 443.7,192.4 443.4,192.6 C443.3,192.7 443.2,192.7 443.1,192.8 C443.9,192.4 443.3,192.7 443,192.8 C442.8,192.8 442.7,192.9 442.5,192.9 C442,193 442.7,192.8 442.8,192.9 C442.6,192.8 442,192.9 441.8,192.9 C441.4,192.9 441.2,192.7 441.8,192.9 C441.7,192.9 441.5,192.8 441.4,192.8 C441.2,192.8 441,192.7 440.8,192.6 L440.6,192.5 C440.3,192.4 440.4,192.4 440.8,192.6 C440.8,192.6 440,192.2 439.9,192.1 C439.8,192 439.6,191.9 439.5,191.8 C439.1,191.6 440.1,192.3 439.6,191.9 C439.4,191.7 439.1,191.5 438.9,191.2 C438.9,191.2 438.6,190.9 438.6,190.9 C438.9,191.3 438.9,191.3 438.7,191.1 C438.6,191 438.6,190.9 438.5,190.8 C438.4,190.7 438.1,189.9 438,189.9 C438.1,189.9 438.2,190.6 438.1,190.1 C438.1,189.9 438,189.8 438,189.6 C438,189.4 437.9,189.3 437.9,189.1 C438.1,189.2 438,189.8 437.9,189.2 C437.9,188.9 438,188.3 437.9,188.1 L437.8,188.5 C437.8,188.4 437.8,188.2 437.9,188.1 C437.9,187.9 438,187.7 438.1,187.5 C438.1,187.4 438.3,186.8 438.2,187.3 C438,187.8 438.3,187.1 438.4,187 C438.5,186.9 438.5,186.8 438.6,186.7 C438.7,186.6 438.7,186.5 438.8,186.4 C439,186.1 439,186.2 438.7,186.6 C438.9,186.3 439.1,186.1 439.4,185.9 C439.5,185.8 439.7,185.6 439.8,185.5 C439.5,185.8 439.4,185.8 439.6,185.7 C439.7,185.6 439.8,185.6 439.8,185.5 C439.9,185.4 440.8,185 440.8,184.9 C440.8,185 440.1,185.2 440.7,185 C440.9,184.9 441.1,184.9 441.4,184.8 C441.5,184.8 441.7,184.8 441.8,184.7 C441.3,184.8 441.2,184.8 441.6,184.7 C441.7,184.7 441.9,184.7 442,184.7 C443.7,184.7 445.1,183.3 445.1,181.6 C445.1,179.9 443.9,178.5 442.1,178.5" id="Path_24316" fill="#FFFFFF"></path>
            <path d="M274.2,369.6 C383.6,369.6 472.4,371 472.4,372.8 C472.4,374.6 383.7,376 274.2,376 C164.7,376 76,374.6 76,372.8 C76.1,371 164.8,369.6 274.2,369.6" id="Path_24317" fill="#4C4D79"></path>
        </g>
    </g>
</svg>