<?xml version="1.0" encoding="UTF-8"?>
<svg width="20px" height="20px" viewBox="0 0 20 20" version="1.1" xmlns="http://www.w3.org/2000/svg" xmlns:xlink="http://www.w3.org/1999/xlink">
    <title>Delete</title>
    <g id="Delete" stroke="none" stroke-width="1" fill="none" fill-rule="evenodd">
        <g id="Group-13" transform="translate(0.500000, 0.000000)" fill="#000000">
            <path d="M10.5,0 C12.1568542,0 13.5,1.34314575 13.5,3 L13.5,3 L13.5,4 L18,4 C18.5522847,4 19,4.44771525 19,5 C19,5.55228475 18.5522847,6 18,6 L16.5,6 L16.5,17 C16.5,18.6568542 15.1568542,20 13.5,20 L5.5,20 C3.84314575,20 2.5,18.6568542 2.5,17 L2.5,6 L1,6 C0.44771525,6 6.76353751e-17,5.55228475 0,5 C-6.76353751e-17,4.44771525 0.44771525,4 1,4 L5.5,4 L5.5,3 C5.5,1.40231912 6.74891996,0.0963391206 8.32372721,0.00509269341 L8.5,0 Z M14.5,6 L4.5,6 L4.5,17 C4.5,17.5128358 4.88604019,17.9355072 5.38337887,17.9932723 L5.5,18 L13.5,18 C14.0128358,18 14.4355072,17.6139598 14.4932723,17.1166211 L14.5,17 L14.5,6 Z M7.5,8 C8.05228475,8 8.5,8.44771525 8.5,9 L8.5,15 C8.5,15.5522847 8.05228475,16 7.5,16 C6.94771525,16 6.5,15.5522847 6.5,15 L6.5,9 C6.5,8.44771525 6.94771525,8 7.5,8 Z M11.5,8 C12.0522847,8 12.5,8.44771525 12.5,9 L12.5,15 C12.5,15.5522847 12.0522847,16 11.5,16 C10.9477153,16 10.5,15.5522847 10.5,15 L10.5,9 C10.5,8.44771525 10.9477153,8 11.5,8 Z M10.5,2 L8.5,2 L8.38337887,2.00672773 C7.88604019,2.06449284 7.5,2.48716416 7.5,3 L7.5,3 L7.5,4 L11.5,4 L11.5,3 L11.4932723,2.88337887 C11.4355072,2.38604019 11.0128358,2 10.5,2 L10.5,2 Z" id="Combined-Shape"></path>
        </g>
    </g>
</svg>