<?xml version="1.0" encoding="UTF-8"?>
<svg width="32px" height="32px" viewBox="0 0 32 32" version="1.1" xmlns="http://www.w3.org/2000/svg" xmlns:xlink="http://www.w3.org/1999/xlink">
    <title>Flight</title>
    <g id="Flight" stroke="none" stroke-width="1" fill="none" fill-rule="evenodd">
        <g id="bus" fill="#FFFFFF" fill-rule="nonzero" opacity="0">
            <rect id="Rectangle" x="0" y="0" width="32" height="32"></rect>
        </g>
        <g id="noun-flight-1093244" transform="translate(15.703191, 15.999975) rotate(-270.000000) translate(-15.703191, -15.999975) translate(1.879101, 1.879949)" fill="#000000" fill-rule="nonzero">
            <path d="M11.8746599,0.724866274 C12.5128919,0.182366202 13.3763133,-0.0766679462 14.212677,0.0198259895 C15.5924189,0.173191491 16.661323,1.3530037 16.7719832,2.77472539 L16.780778,2.9536438 L17.5923688,8.75185784 L27.3565961,15.5290845 C27.5442881,15.6790813 27.6481795,15.8676489 27.6481795,16.0842569 C27.6481795,16.2919278 27.6119211,16.459402 27.5238659,16.5851962 L27.4646929,16.6556593 L25.5886865,18.8083548 C25.4248059,19.0049408 25.1509624,19.0867551 24.8873936,19.0300222 L24.7754151,18.9971563 L17.0168987,15.9480506 L16.5088987,23.6430506 L18.7164071,24.6575295 C18.8667132,24.7326781 18.983118,24.843886 19.0529315,24.9758987 L19.0963574,25.0785709 L19.6122748,27.3306792 C19.6505769,27.5594224 19.6037938,27.7745447 19.4645678,27.9487591 C19.3432375,28.1003232 19.1710523,28.2015662 18.9886592,28.2311038 L18.8783235,28.2400506 L8.68943138,28.2400506 C8.46752877,28.2400506 8.24847307,28.1305565 8.10312634,27.9486831 C7.96891179,27.7807456 7.90672179,27.5918426 7.93553428,27.4105163 L8.51397268,25.1578132 C8.56758836,24.9971574 8.66241801,24.8696545 8.80260728,24.7628969 L8.91631893,24.6865246 L11.1188987,23.6740506 L10.6118987,15.9480506 L2.91375882,18.9670296 C2.69802113,19.0479132 2.47734773,19.0292104 2.28604655,18.9202818 L2.19300247,18.858342 L2.10580677,18.7816247 L0.170169672,16.6614697 C0.0238095301,16.514861 -0.0254512019,16.2981704 0.012059262,16.0841249 C0.012059262,15.8917045 0.0946154591,15.7216154 0.23488624,15.6071753 L10.0175292,8.83310141 L10.8781862,2.90937515 C10.8781862,2.12942373 11.1857969,1.38828016 11.7329257,0.854024079 L11.8746599,0.724866274 Z M12.8604262,1.8317911 C12.5689326,2.07483983 12.3964589,2.40569007 12.357895,2.77811065 L12.3496097,2.94012982 L12.3483208,3.05000016 L11.42631,9.28123651 C11.42631,9.47365692 11.3437538,9.64374602 11.2034379,9.75821765 L1.82189872,16.2880506 L2.87289872,17.4190506 L11.0837196,14.2155756 C11.2611415,14.1565688 11.4657008,14.1677353 11.6458232,14.2439176 L11.7505516,14.2973877 C11.9116617,14.4263598 12.0278638,14.5991212 12.0619688,14.7721496 L12.0722826,14.8756505 L12.6881364,24.1182774 C12.6881364,24.3758134 12.5485997,24.6297445 12.3416924,24.7628449 L12.2491035,24.8121484 L9.89989872,25.8960506 L9.67389872,26.7990506 L17.9588987,26.7990506 L17.7578987,25.8950506 L15.4503408,24.8155535 C15.186643,24.716672 15.0092802,24.4703979 14.9992002,24.2088389 L15.0034196,24.1102959 L15.6187419,14.883632 C15.6187419,14.6721099 15.7179552,14.473929 15.8639929,14.3518492 L15.9406713,14.2974417 C16.0928417,14.1754463 16.2971885,14.1433952 16.5076612,14.1886135 L16.6131948,14.2176031 L24.8438987,17.4180506 L25.8118987,16.2610506 L16.4849236,9.79692827 C16.3705329,9.68274165 16.2827621,9.54781451 16.2338512,9.40581074 L16.2046454,9.29819454 L15.3108435,3.09384818 L15.3108435,3.00151822 C15.3108435,2.26556378 14.8246695,1.6270351 14.1659086,1.48110267 L14.0298846,1.45834501 C13.6093665,1.40242941 13.1815847,1.53990428 12.8604262,1.8317911 Z" id="Shape"></path>
        </g>
    </g>
</svg>