<?xml version="1.0" encoding="UTF-8"?>
<svg width="20px" height="20px" viewBox="0 0 20 20" version="1.1" xmlns="http://www.w3.org/2000/svg"
    xmlns:xlink="http://www.w3.org/1999/xlink">
    <title>Flights</title>
    <g id="Flights" stroke="none" stroke-width="1" fill="none" fill-rule="evenodd">
        <path
            d="M14.7064969,0.781963114 C15.969019,-0.313343569 17.8719516,-0.252832269 19.0641377,0.931012582 C20.2660351,2.1245008 20.3096763,4.04886226 19.198459,5.30230297 L19.0651167,5.44387353 L15.9443827,8.56304243 L17.7535896,16.3991722 L17.7686204,16.5380192 C17.7740144,16.7610279 17.699868,16.9777113 17.5619024,17.1517123 L17.4876742,17.2349876 L15.8579919,18.8609757 L15.7578992,18.9410965 C15.5567512,19.0790577 15.3089629,19.137789 15.096537,19.0985085 C14.8322258,19.063677 14.5931744,18.9231835 14.4430284,18.7167174 L14.3843088,18.6243085 L14.0201653,17.9852935 L11.1319142,12.8335146 L9.2422266,14.562039 L9.71788841,16.8426615 L9.73433162,16.9840708 C9.74223578,17.2129697 9.66939366,17.4354824 9.52887559,17.6139019 L9.45303741,17.6992627 L7.40213922,19.7473515 L7.29618412,19.8338906 C7.21862155,19.8870165 7.13304874,19.9283265 7.02017966,19.9600926 L6.89749753,19.9887616 L6.76178254,20 L6.72618983,20 L6.62948938,19.991457 C6.35407313,19.9424111 6.12260121,19.8020175 5.97212408,19.5827021 L5.91270076,19.483914 L5.55599094,18.792265 L4.18419463,15.8243798 L1.20807061,14.4530803 L0.471318916,14.0654431 L0.364812782,13.9920383 C0.176110159,13.8407012 0.0530733888,13.6281441 0.0130322534,13.3879553 C-0.0315338303,13.1206234 0.0395915744,12.8559355 0.205079017,12.6469663 L0.281717289,12.5609742 L2.34187873,10.5051262 L2.45336597,10.4175018 C2.63816292,10.2952707 2.85522605,10.2431659 3.07584223,10.2645912 L3.2084086,10.2862972 L3.49958095,10.3559081 L5.44558512,10.7529544 L7.16644788,8.87766841 L1.31857826,5.60156427 L1.21958994,5.52706765 C1.04292483,5.37349061 0.925827151,5.16106386 0.895455912,4.92827393 C0.862625156,4.67663225 0.931842291,4.41787357 1.08416643,4.21723343 L1.16716639,4.12205858 L2.79649139,2.50276857 L2.9054288,2.41331567 C3.08464673,2.28957364 3.29809739,2.23324037 3.51929675,2.24895521 L3.65273434,2.267067 L3.9584567,2.33422351 L11.4379094,4.06619306 L14.5601787,0.917384086 L14.7064969,0.781963114 Z M16.0295831,2.20305833 L15.9266164,2.29547121 L12.4022271,5.84418692 L12.2917395,5.92976823 C12.1093772,6.04840083 11.8905516,6.10260136 11.6778207,6.08260281 L11.551254,6.06162166 L3.74294776,4.26187507 L3.41776801,4.58993021 L9.19774898,7.83141441 L9.3005082,7.90405558 C9.4839885,8.05541331 9.60450334,8.27076707 9.63539124,8.50751711 C9.66820325,8.75901511 9.61041609,9.00788271 9.46970303,9.20503993 L9.39247153,9.29908212 L6.43298305,12.5143615 L6.32470081,12.6037323 C6.14586949,12.7285209 5.92885944,12.7913721 5.71118209,12.7787976 L5.58079571,12.7620939 L3.28059779,12.2896337 L2.58707283,12.97548 L5.3404074,14.2443715 L5.44713436,14.3064586 C5.55330615,14.3793082 5.64258549,14.4728172 5.71249893,14.5828217 L5.77586547,14.6981705 L7.03311459,17.4166943 L7.73239494,16.7183781 L7.25280609,14.359902 L7.24252209,14.2193936 C7.24422274,13.989657 7.32734524,13.7717902 7.47477569,13.6029379 L7.55377068,13.5227682 L10.7594102,10.5813472 L10.8603697,10.5061698 C11.0548393,10.3829941 11.2856273,10.3366266 11.5410698,10.3704638 C11.7825581,10.4127115 11.9941594,10.5414505 12.1482628,10.7419154 L12.2203952,10.8480566 L15.4340712,16.5792904 L15.7630878,16.250276 L13.9546498,8.42873831 L13.9397078,8.28863368 C13.9346917,8.06509821 14.0085588,7.84511599 14.1467369,7.66988358 L14.2211177,7.58618725 L17.7048605,4.11143663 L17.800644,4.00751995 C18.2198057,3.50550261 18.1882967,2.76326505 17.722039,2.29711998 C17.291444,1.86662896 16.6306007,1.80923016 16.1396751,2.12385028 L16.0295831,2.20305833 Z"
            id="Qualified-Successful-Bidder" fill="#000000" fill-rule="nonzero"></path>
    </g>
</svg>