<?xml version="1.0" encoding="UTF-8"?>
<svg width="16px" height="16px" viewBox="0 0 16 16" version="1.1" xmlns="http://www.w3.org/2000/svg" xmlns:xlink="http://www.w3.org/1999/xlink">
    <title>i-common</title>
    <defs>
        <polygon id="path-1" points="0 0 16 0 16 15.9995429 0 15.9995429"></polygon>
    </defs>
    <g id="Flight-Booking" stroke="none" stroke-width="1" fill="none" fill-rule="evenodd">
        <g id="24--transaction-failed" transform="translate(-20.000000, -527.000000)">
            <g id="Group-32" transform="translate(0.000000, 402.000000)">
                <g id="i-common" transform="translate(20.000000, 125.000000)">
                    <g id="Fill-1-Clipped">
                        <mask id="mask-2" fill="white">
                            <use xlink:href="#path-1"></use>
                        </mask>
                        <g id="path-1"></g>
                        <path d="M8.05942857,1.15268571 L8,1.15268571 C4.224,1.15268571 1.15314286,4.22468571 1.15314286,7.99954286 C1.15314286,8.58011429 1.23314286,9.17668571 1.392,9.77325714 C2.18971429,12.7618286 4.90628571,14.8475429 8,14.8475429 C11.7748571,14.8475429 14.8468571,11.7755429 14.8468571,7.99954286 C14.8468571,4.34697143 11.9942857,1.34925714 8.35314286,1.17668571 C8.22057143,1.15497143 8.13257143,1.15268571 8.05942857,1.15268571 M8,15.9995429 C4.38514286,15.9995429 1.20914286,13.5618286 0.278857143,10.0704 C0.0937142857,9.37668571 0,8.68068571 0,7.99954286 C0,3.58811429 3.58857143,-0.000457142857 8,-0.000457142857 C8.15771429,-0.000457142857 8.336,0.00411428571 8.49371429,0.0349714286 C12.6662857,0.226971429 16,3.73097143 16,7.99954286 C16,12.4109714 12.4114286,15.9995429 8,15.9995429" id="Fill-1" fill="#F04C23" fill-rule="nonzero" mask="url(#mask-2)"></path>
                    </g>
                    <path d="M7.99977143,12.5294857 C7.68091429,12.5294857 7.42377143,12.2712 7.42377143,11.9534857 L7.42377143,6.53748571 C7.42377143,6.21977143 7.68091429,5.96148571 7.99977143,5.96148571 C8.31862857,5.96148571 8.57577143,6.21977143 8.57577143,6.53748571 L8.57577143,11.9534857 C8.57577143,12.2712 8.31862857,12.5294857 7.99977143,12.5294857" id="Fill-4" fill="#F04C23" fill-rule="nonzero"></path>
                    <path d="M7.99977143,5.31668571 C7.52205714,5.31668571 7.12662857,4.92011429 7.12662857,4.44354286 C7.12662857,3.96582857 7.52205714,3.56925714 7.99977143,3.56925714 C8.47748571,3.56925714 8.87291429,3.96582857 8.87291429,4.44354286 C8.87291429,4.92011429 8.47748571,5.31668571 7.99977143,5.31668571" id="Fill-6" fill="#F04C23" fill-rule="nonzero"></path>
                </g>
            </g>
        </g>
    </g>
</svg>