<?xml version="1.0" encoding="utf-8"?>
<!-- Generator: Adobe Illustrator 26.3.1, SVG Export Plug-In . SVG Version: 6.00 Build 0)  -->
<svg version="1.1" id="Layer_1" xmlns="http://www.w3.org/2000/svg" xmlns:xlink="http://www.w3.org/1999/xlink" x="0px" y="0px"
	 viewBox="0 0 20 20" style="enable-background:new 0 0 20 20;" xml:space="preserve">
<style type="text/css">
	.st0{fill:#222222;}
</style>
<path class="st0" d="M6.79,20c-0.05,0-0.1,0-0.15-0.01c-0.32-0.05-0.59-0.24-0.74-0.53L5.55,18.8l-1.37-2.97l-3.62-1.72
	c-0.28-0.15-0.48-0.43-0.53-0.74c-0.05-0.32,0.06-0.64,0.29-0.86l2-2c0.25-0.25,0.6-0.35,0.95-0.27l0.3,0.07l1.88,0.39L7.1,8.91
	l-5.68-3.2c-0.27-0.16-0.46-0.43-0.5-0.74C0.87,4.65,0.98,4.33,1.2,4.11l1.58-1.58c0.25-0.25,0.61-0.35,0.94-0.27l7.68,1.78
	l3.06-3.09C15.08,0.34,15.89,0,16.76,0c0,0,0,0,0,0c0.87,0,1.68,0.34,2.28,0.95c1.24,1.26,1.24,3.31,0,4.56L15.96,8.6l1.77,7.7
	c0.08,0.34-0.02,0.7-0.27,0.94l-1.58,1.59c-0.22,0.22-0.54,0.33-0.85,0.29c-0.31-0.04-0.59-0.23-0.75-0.5l-0.36-0.63l-2.83-5.07
	l-1.78,1.64l0.46,2.2c0.08,0.34-0.02,0.7-0.27,0.94l-2,2C7.32,19.89,7.06,20,6.79,20z M2.75,12.95l2.62,1.21
	c0.22,0.1,0.39,0.28,0.49,0.49l1.21,2.63l0.62-0.62l-0.46-2.25c-0.07-0.35,0.04-0.71,0.31-0.95l3.14-2.89
	c0.23-0.21,0.54-0.3,0.84-0.25c0.31,0.05,0.57,0.24,0.72,0.51l3.15,5.64l0.25-0.25l-1.77-7.7c-0.08-0.34,0.02-0.7,0.27-0.94
	l3.47-3.47c0.47-0.47,0.47-1.24,0-1.72c-0.22-0.23-0.52-0.35-0.85-0.35l0,0c-0.32,0-0.62,0.13-0.85,0.35l-3.46,3.49
	c-0.25,0.25-0.6,0.35-0.95,0.27L3.82,4.36L3.57,4.6L9.2,7.77c0.27,0.15,0.45,0.42,0.5,0.72c0.05,0.3-0.04,0.62-0.25,0.84l-2.89,3.15
	c-0.24,0.26-0.6,0.38-0.95,0.31l-2.25-0.46L2.75,12.95z"/>
</svg>
