<?xml version="1.0" encoding="utf-8"?>
<!-- Generator: Adobe Illustrator 26.0.1, SVG Export Plug-In . SVG Version: 6.00 Build 0)  -->
<svg version="1.1" id="Layer_1" xmlns="http://www.w3.org/2000/svg" xmlns:xlink="http://www.w3.org/1999/xlink" x="0px" y="0px"
	 viewBox="0 0 22 22" style="enable-background:new 0 0 22 22;" xml:space="preserve">
<style type="text/css">
	.st0{opacity:0;fill:#FFFFFF;}
	.st1{fill:#E6E6E6;}
	.st2{fill:#2EFF6F;}
	.st3{fill:#333333;}
	.st4{fill:#FFFFFF;}
	.st5{fill:none;stroke:#000000;stroke-width:1.5;stroke-linecap:round;stroke-linejoin:round;stroke-miterlimit:10;}
	.st6{fill:none;stroke:#000000;stroke-width:1.5;stroke-linejoin:round;stroke-miterlimit:10;}
	.st7{fill-rule:evenodd;clip-rule:evenodd;}
	.st8{fill:none;stroke:#000000;stroke-linecap:round;stroke-linejoin:round;stroke-miterlimit:10;}
	.st9{fill:none;stroke:#000000;stroke-width:0.93;stroke-linecap:round;stroke-linejoin:round;stroke-miterlimit:10;}
	.st10{fill:none;stroke:#000000;stroke-width:0.95;stroke-linecap:round;stroke-linejoin:round;stroke-miterlimit:10;}
	.st11{fill:none;stroke:#221F20;stroke-linecap:round;stroke-linejoin:round;stroke-miterlimit:10;}
	.st12{fill:none;stroke:#000000;stroke-linecap:round;stroke-linejoin:round;}
	.st13{fill:#FF8BB3;}
	.st14{fill:none;stroke:#000000;stroke-width:1.5;stroke-linecap:round;stroke-linejoin:round;}
	.st15{fill:none;stroke:#000000;stroke-width:1.2;stroke-linecap:round;stroke-linejoin:round;stroke-miterlimit:10;}
	.st16{fill:none;stroke:#000000;stroke-width:1.8;stroke-linecap:round;stroke-linejoin:round;stroke-miterlimit:10;}
	.st17{fill:#FF45FE;}
	.st18{fill:none;stroke:#000000;stroke-width:1.5;stroke-miterlimit:10;}
	.st19{fill:none;stroke:#000000;stroke-width:1.4;stroke-linecap:round;stroke-linejoin:round;stroke-miterlimit:10;}
	.st20{fill:#00FFFF;}
</style>
<rect x="0" class="st0" width="22" height="22"/>
<path class="st3" d="M11.59,1.14C11.4,1.11,11.19,1.1,11,1.1c-5.46,0-9.9,4.44-9.9,9.9c0,0.86,0.12,1.73,0.34,2.56
	C2.59,17.88,6.52,20.9,11,20.9c5.46,0,9.9-4.44,9.9-9.9C20.9,5.71,16.77,1.38,11.59,1.14z M11,19.4c-3.8,0-7.13-2.56-8.11-6.23
	C2.7,12.46,2.6,11.73,2.6,11c0-4.63,3.77-8.4,8.4-8.4c0.02,0,0.04,0,0.07,0c0.09,0,0.21,0,0.37,0.02C15.9,2.84,19.4,6.52,19.4,11
	C19.4,15.63,15.63,19.4,11,19.4z M12.02,8.78v8.23c0,0.41-0.34,0.75-0.75,0.75s-0.75-0.34-0.75-0.75V8.78
	c0-0.41,0.34-0.75,0.75-0.75S12.02,8.37,12.02,8.78z M11.27,4.63c-0.59,0-1.07,0.48-1.07,1.07s0.48,1.07,1.07,1.07
	s1.08-0.48,1.08-1.07S11.86,4.63,11.27,4.63z"/>
</svg>
