<?xml version="1.0" encoding="UTF-8"?>
<svg width="20px" height="20px" viewBox="0 0 20 20" version="1.1" xmlns="http://www.w3.org/2000/svg">
    <title>Long-Layover</title>
    <g id="Long-Layover" stroke="none" stroke-width="1" fill="none" fill-rule="evenodd">
        <g id="long-layover">
            <rect id="Rectangle" fill="#FFFFFF" opacity="0" x="0" y="0" width="20" height="20"/>
            <path d="M13.770319,0 C10.3362807,0 7.53668354,2.79959718 7.53668354,6.23363545 C7.53668354,9.66767372 10.3362807,12.4672709 13.770319,12.4672709 C17.2043573,12.4672709 20.0039544,9.66767372 20.0039544,6.23363545 C20.0039544,2.79959718 17.2043573,0 13.770319,0 Z M13.770319,10.4531722 C11.444035,10.4531722 9.55078223,8.55991944 9.55078223,6.23363545 C9.55078223,3.90735146 11.444035,2.01409869 13.770319,2.01409869 C16.096603,2.01409869 17.9898557,3.90735146 17.9898557,6.23363545 C17.9898557,8.55991944 16.096603,10.4531722 13.770319,10.4531722 Z M16.6806916,7.0694864 C16.6806916,7.62336354 16.2275194,8.07653575 15.6736422,8.07653575 L13.2063714,8.07653575 C12.6524942,8.07653575 12.199322,7.62336354 12.199322,7.0694864 L12.199322,4.59214502 C12.199322,4.03826788 12.6524942,3.58509567 13.2063714,3.58509567 C13.7602485,3.58509567 14.2134207,4.03826788 14.2134207,4.59214502 L14.2134207,6.06243706 L15.6736422,6.06243706 C16.2375899,6.06243706 16.6806916,6.50553877 16.6806916,7.0694864 Z M13.5890501,15.0352467 L13.5890501,18.9929507 C13.5890501,19.5468278 13.1358779,20 12.5820008,20 C12.0281236,20 11.5749514,19.5468278 11.5749514,18.9929507 L11.5749514,16.0422961 L5.86498162,16.0422961 C5.42187991,16.0422961 5.02913067,15.7502518 4.89821425,15.3373615 L2.61221224,7.97583082 C2.45108434,7.44209466 2.74312865,6.87814703 3.27686481,6.71701913 C3.81060096,6.54582075 4.37454859,6.84793555 4.53567649,7.37160121 L6.60012765,14.0181269 L12.5719303,14.0181269 C13.1358779,14.0281974 13.5890501,14.4712991 13.5890501,15.0352467 Z M9.55078223,18.5196375 C9.55078223,19.0735146 9.09761002,19.5266868 8.54373288,19.5266868 L3.14594839,19.5266868 C2.70284668,19.5266868 2.31009743,19.2346425 2.17918102,18.8217523 L0.0442364078,11.9738167 C-0.116891487,11.4400806 0.175152823,10.8761329 0.708888976,10.715005 C1.24262513,10.5538771 1.80657276,10.8459215 1.96770066,11.3796576 L3.88109441,17.5226586 L8.53366239,17.5226586 C9.09761002,17.5125881 9.55078223,17.9556898 9.55078223,18.5196375 Z M1.25269562,3.92749245 C1.25269562,3.01107754 1.99791214,2.26586103 2.91432704,2.26586103 C3.83074195,2.26586103 4.57595846,3.01107754 4.57595846,3.92749245 C4.57595846,4.84390735 3.83074195,5.58912387 2.91432704,5.58912387 C1.99791214,5.58912387 1.25269562,4.84390735 1.25269562,3.92749245 Z" id="Shape" fill="#000000"/>
        </g>
    </g>
</svg>
