<svg width="25" height="25" viewBox="0 0 25 25" xmlns="http://www.w3.org/2000/svg">
    <g fill="#555" fill-rule="nonzero">
        <path d="M21.824.47c.757-.658 1.9-.622 2.614.089.722.716.748 1.87.081 2.622l-.08.085-1.872 1.872 1.085 4.702.01.083a.57.57 0 0 1-.125.368l-.044.05-.978.976-.06.048a.547.547 0 0 1-.397.094.58.58 0 0 1-.392-.229l-.035-.055-.219-.384-1.733-3.09-1.134 1.036.286 1.369.01.084a.578.578 0 0 1-.124.378l-.045.052-1.23 1.228-.064.052a.542.542 0 0 1-.166.076l-.074.017-.08.007h-.022l-.058-.005a.593.593 0 0 1-.395-.245l-.035-.06-.214-.415-.823-1.78-1.786-.823-.442-.233-.064-.044a.584.584 0 0 1-.211-.362.562.562 0 0 1 .115-.445l.046-.051 1.236-1.234.067-.052a.572.572 0 0 1 .374-.092l.079.013.175.042 1.167.238L17.3 5.327 13.79 3.36l-.06-.045a.576.576 0 0 1-.08-.786l.05-.057.977-.971.065-.054a.571.571 0 0 1 .369-.099l.08.011.183.04 4.488 1.04L21.736.55l.088-.08zm.794.852-.062.055-2.115 2.13-.066.05a.58.58 0 0 1-.368.093l-.076-.013-4.685-1.08-.195.197 3.468 1.945.061.043a.587.587 0 0 1 .102.78l-.047.057-1.775 1.93-.065.053a.586.586 0 0 1-.368.105l-.079-.01-1.38-.283-.416.411 1.652.762.064.037c.064.044.118.1.16.166l.038.069.754 1.631.42-.419-.288-1.415-.006-.084a.568.568 0 0 1 .139-.37l.047-.048 1.924-1.765.06-.045a.581.581 0 0 1 .773.141l.043.064 1.928 3.439.198-.198-1.085-4.693-.01-.084a.58.58 0 0 1 .125-.371l.045-.05 2.09-2.085.057-.062a.761.761 0 0 0-.996-1.13l-.066.047zM8.824 13.47c.757-.658 1.9-.622 2.614.089.722.716.748 1.87.081 2.622l-.08.085-1.872 1.872 1.085 4.702.01.083a.57.57 0 0 1-.125.368l-.044.05-.978.976-.06.048a.547.547 0 0 1-.397.094.58.58 0 0 1-.392-.229l-.035-.055-.219-.384-1.733-3.09-1.134 1.036.286 1.369.01.084a.578.578 0 0 1-.124.378l-.045.052-1.23 1.228-.064.052a.542.542 0 0 1-.166.076l-.074.017-.08.007h-.022l-.058-.005a.593.593 0 0 1-.395-.245l-.035-.06-.214-.415-.823-1.78-1.786-.823-.442-.233-.064-.044a.584.584 0 0 1-.211-.362.562.562 0 0 1 .115-.445l.046-.051 1.236-1.234.067-.052a.572.572 0 0 1 .374-.092l.079.013.175.042 1.167.238L4.3 18.327.79 16.36l-.06-.045a.576.576 0 0 1-.08-.786l.05-.057.977-.971.065-.054a.571.571 0 0 1 .369-.099l.08.011.183.04 4.488 1.04 1.873-1.89.088-.08zm.794.852-.062.055-2.115 2.13-.066.05a.58.58 0 0 1-.368.093l-.076-.013-4.685-1.08-.195.197 3.468 1.945.061.043a.587.587 0 0 1 .102.78l-.047.057-1.775 1.93-.065.053a.586.586 0 0 1-.368.105l-.079-.01-1.38-.283-.416.411 1.652.762.064.037c.064.044.118.1.16.166l.038.069.754 1.631.42-.419-.288-1.415-.006-.084a.568.568 0 0 1 .139-.37l.047-.048 1.924-1.765.06-.045a.581.581 0 0 1 .773.141l.043.064 1.928 3.439.198-.198-1.085-4.693-.01-.084a.58.58 0 0 1 .125-.371l.045-.05 2.09-2.085.057-.062a.761.761 0 0 0-.996-1.13l-.066.047z"/>
    </g>
</svg>
