<?xml version="1.0" encoding="UTF-8"?>
<svg width="19px" height="14px" viewBox="0 0 19 14" version="1.1" xmlns="http://www.w3.org/2000/svg" xmlns:xlink="http://www.w3.org/1999/xlink">
    <title>one way</title>
    <g id="Flight-Booking" stroke="none" stroke-width="1" fill="none" fill-rule="evenodd">
        <g id="Black-Right-Arrow" transform="translate(0.000000, 0.000000)" fill="#000000" fill-rule="nonzero">
            <path d="M15.3991763,6.0401056 L11.485894,1.60303582 C11.1387983,1.20948185 11.1691889,0.602504228 11.5537734,0.247313358 C11.9383578,-0.107877512 12.5315017,-0.0767780823 12.8785974,0.316775878 L18.393711,6.57007985 C18.7367523,6.95903673 18.7255113,7.54569937 18.3678218,7.92122964 L12.8539673,13.710103 L12.8539673,13.710103 C12.4923692,14.0897369 11.8984959,14.0975211 11.5275143,13.7274895 C11.1565327,13.3574578 11.1489259,12.7497339 11.510524,12.3701 L15.7457791,7.9235998 C15.6642827,7.9472461 15.5782709,7.9599017 15.4893706,7.9599017 L0.93802089,7.9599017 C0.41996626,7.9599017 0,7.5301407 0,7 C0,6.4698666 0.41996626,6.0401056 0.93802089,6.0401056 L15.3991763,6.0401056 Z" id="one-way"></path>
        </g>
    </g>
</svg>