<?xml version="1.0" encoding="UTF-8"?>
<svg width="22px" height="22px" viewBox="0 0 22 22" version="1.1" xmlns="http://www.w3.org/2000/svg" xmlns:xlink="http://www.w3.org/1999/xlink">
    <title>Percentage_icon</title>
    <g id="Page-1" stroke="none" stroke-width="1" fill="none" fill-rule="evenodd">
        <g id="Percentage_icon">
            <rect id="Rectangle" fill="#FFFFFF" fill-rule="nonzero" opacity="0" x="0" y="0" width="22" height="22"></rect>
            <g id="Group-43" transform="translate(1.000000, 1.400000)">
                <path d="M10.8625,0.570834428 C11.4875,0.23327313 12.275,-0.179301791 13.1,0.0832458857 C13.9625,0.358295833 14.35,1.18344567 14.6625,1.83356373 C14.7875,2.10861368 14.975,2.50868633 15.1,2.59620222 C15.225,2.68371811 15.675,2.74622947 15.975,2.78373628 C16.6875,2.88375444 17.575,3.00877714 18.1,3.72140655 C18.6125,4.43403596 18.45,5.30919488 18.325,6.02182429 C18.275,6.32187878 18.1875,6.77196051 18.2375,6.92198775 C18.2875,7.05951273 18.6125,7.37206949 18.8125,7.55960354 C19.3375,8.05969435 20,8.68480787 20,9.5974736 C20,10.5101393 19.3375,11.1352529 18.8125,11.6353437 C18.6125,11.8228777 18.2875,12.1354345 18.2375,12.2729595 C18.1875,12.4229867 18.275,12.8730684 18.325,13.1731229 C18.45,13.8732501 18.6125,14.7609112 18.0875,15.4735407 C17.575,16.1986723 16.675,16.3111928 15.9625,16.4112109 C15.6625,16.4487177 15.2125,16.5112291 15.0875,16.598745 C14.975,16.6862609 14.775,17.0988358 14.65,17.3613835 C14.325,18.0115015 13.9375,18.8366514 13.0875,19.1117013 C12.9,19.1742127 12.7125,19.1992172 12.5375,19.1992172 C11.9125,19.1992172 11.3375,18.8866605 10.85,18.6241128 C10.575,18.4740855 10.175,18.2615469 10,18.2615469 C9.825,18.2615469 9.425,18.4740855 9.1375,18.6241128 C8.5125,18.9616741 7.725,19.3867513 6.9,19.1117013 C6.0375,18.8366514 5.65,18.0240038 5.3375,17.3613835 C5.2125,17.0863335 5.025,16.6862609 4.9,16.598745 C4.775,16.5112291 4.325,16.4487177 4.025,16.4112109 C3.3125,16.3111928 2.425,16.1861701 1.9,15.4735407 C1.3875,14.7609112 1.55,13.8857523 1.675,13.1731229 C1.7375,12.8730684 1.8125,12.4229867 1.7625,12.2729595 C1.7125,12.1354345 1.3875,11.8228777 1.1875,11.6353437 C0.6625,11.1352529 0,10.5101393 0,9.5974736 C0,8.68480787 0.6625,8.05969435 1.1875,7.55960354 C1.3875,7.37206949 1.7125,7.05951273 1.7625,6.92198775 C1.8125,6.77196051 1.725,6.32187878 1.675,6.02182429 C1.55,5.30919488 1.3875,4.43403596 1.9125,3.72140655 C2.425,2.99627487 3.325,2.88375444 4.0375,2.78373628 C4.3375,2.74622947 4.7875,2.68371811 4.9125,2.59620222 C5.0375,2.49618406 5.225,2.09611141 5.35,1.83356373 C5.6625,1.1709434 6.0625,0.358295833 6.9125,0.0832458857 C7.75,-0.179301791 8.525,0.23327313 9.15,0.570834428 C9.425,0.720861672 9.825,0.933400268 10,0.933400268 C10.175,0.933400268 10.575,0.720861672 10.8625,0.570834428 Z M12.8271405,0.845884376 C12.7140549,0.860022646 12.2475767,1.11451151 11.9789984,1.25589421 C11.3852989,1.56693615 10.7350565,1.92039291 10,1.92039291 C9.26494346,1.92039291 8.61470113,1.56693615 8.02100162,1.25589421 C7.75242326,1.11451151 7.28594507,0.860022646 7.13045234,0.874160916 L7.13045234,0.874160916 L7.09677098,0.91258055 C6.99345819,1.05237294 6.78962484,1.47268102 6.66397415,1.7365954 C6.3812601,2.31626447 6.07027464,2.98076317 5.49071082,3.390773 C4.91114701,3.81492111 4.19022617,3.89975073 3.53998384,3.98458035 C3.21486268,4.04113343 2.67770598,4.11182478 2.55048465,4.21079267 C2.52221325,4.32389883 2.62116317,4.8611531 2.67770598,5.17219504 C2.7907916,5.8084172 2.93214863,6.54360725 2.70597738,7.22224422 C2.49394184,7.88674292 1.97092084,8.38158237 1.50444265,8.81986875 C1.2641357,9.06021934 0.854200323,9.44195263 0.811793215,9.61161187 C0.84006462,9.75299458 1.25,10.1347279 1.49030695,10.3750785 C1.95678514,10.8133648 2.47980614,11.3082043 2.69184168,11.972703 C2.91801292,12.65134 2.7766559,13.38653 2.66357027,14.0227522 C2.60702746,14.3479324 2.50807754,14.8710484 2.56462036,15.0265693 C2.66357027,15.0831224 3.20072698,15.1538138 3.52584814,15.1962286 C4.17609047,15.2810582 4.89701131,15.3800261 5.47657512,15.8041742 C6.04200323,16.214184 6.35298869,16.8786827 6.63570275,17.4583518 C6.77705977,17.7552555 7.01736672,18.2642332 7.15872375,18.3490628 C7.27180937,18.3349246 7.72415186,18.094574 8.00686591,17.939053 C8.60056543,17.6280111 9.25080775,17.2745543 9.9858643,17.2745543 C10.7209208,17.2745543 11.3852989,17.6280111 11.9648627,17.939053 C12.2475767,18.094574 12.6999192,18.3349246 12.8695477,18.3349246 L12.8695477,18.3349246 L12.903229,18.2965049 C13.0065418,18.1567125 13.2103752,17.7364045 13.3360258,17.4724901 C13.6187399,16.892821 13.9297254,16.2283223 14.5092892,15.8183125 C15.088853,15.3941644 15.8097738,15.2951965 16.4600162,15.2103669 C16.7851373,15.167952 17.322294,15.0831224 17.4495153,14.9841545 C17.4777868,14.8710484 17.3788368,14.3337941 17.322294,14.0227522 C17.2092084,13.38653 17.0678514,12.65134 17.2940226,11.972703 C17.5060582,11.3082043 18.0290792,10.8133648 18.4955574,10.3750785 C18.7358643,10.1488661 19.131664,9.76713285 19.1882068,9.5974736 C19.131664,9.42781436 18.7358643,9.04608107 18.4955574,8.81986875 C18.0290792,8.38158237 17.5060582,7.88674292 17.2940226,7.22224422 C17.0678514,6.54360725 17.2092084,5.8084172 17.322294,5.17219504 C17.3788368,4.84701483 17.4777868,4.32389883 17.4212439,4.16837786 C17.322294,4.11182478 16.7851373,4.04113343 16.4600162,3.99871862 C15.8097738,3.913889 15.088853,3.81492111 14.5092892,3.390773 C13.9438611,2.98076317 13.6328756,2.31626447 13.3501616,1.7365954 C13.2088045,1.43969172 12.9684976,0.930713997 12.8271405,0.845884376 Z" id="Combined-Shape" fill="#00B16B" fill-rule="nonzero"></path>
                <g id="Group-42" transform="translate(6.007894, 5.100000)">
                    <path d="M0.721329436,2.13768276 C0.237458468,1.65459311 0.237458468,0.86017902 0.721329436,0.366354044 C1.2052004,-0.127470932 2.00089933,-0.116735606 2.49552298,0.366354044 C2.97939395,0.849443694 2.97939395,1.64385779 2.49552298,2.13768276 C2.00089933,2.62077241 1.2052004,2.62077241 0.721329436,2.13768276 Z" id="Path" fill="#00B16B" fill-rule="nonzero"></path>
                    <path d="M5.18635138,7.76014939 C4.70248041,7.27705974 4.70248041,6.48264564 5.18635138,5.98882067 C5.67022235,5.49499569 6.46592127,5.50573102 6.96054493,5.98882067 C7.4444159,6.47191032 7.4444159,7.26632441 6.96054493,7.76014939 C6.46592127,8.24323904 5.67022235,8.24323904 5.18635138,7.76014939 Z" id="Path-Copy" fill="#00B16B" fill-rule="nonzero"></path>
                    <line x1="3.70952149" y1="-0.656952561" x2="3.89257975" y2="8.94552308" id="Line-6" stroke="#00B16B" stroke-linecap="round" transform="translate(3.801051, 4.144285) rotate(-134.000000) translate(-3.801051, -4.144285) "></line>
                </g>
            </g>
        </g>
    </g>
</svg>