<?xml version="1.0" encoding="UTF-8"?>
<svg width="20px" height="20px" viewBox="0 0 20 20" version="1.1" xmlns="http://www.w3.org/2000/svg">
    <title>Price Increased</title>
    <g id="Price-Increased" stroke="none" stroke-width="1" fill="none" fill-rule="evenodd">
        <path d="M18.9731012,4.4 L15.0523724,4.4 C14.4875882,4.4 14.0254736,4.84201599 14.0254736,5.39055612 L14.0315304,5.49873311 C14.0875633,5.99601065 14.5253765,6.38111224 15.0523724,6.38111224 L16.4078929,6.38028943 L11.6975627,10.8965316 L8.26005293,7.59864741 C7.87484973,7.22910934 7.19859475,7.22910934 6.81316451,7.59860588 L0.304932183,13.8402957 C-0.101726846,14.2266966 -0.101726846,14.858174 0.305429122,15.2450374 C0.496903392,15.4319342 0.757118474,15.5329704 1.02837616,15.5329704 L1.1614215,15.5246267 C1.38117966,15.4969252 1.5888432,15.4008025 1.75179872,15.2445836 L7.53599919,9.69850576 L10.9733834,12.9947111 L11.0677882,13.0740042 C11.4635739,13.3647454 12.0648999,13.3383145 12.4233181,12.9947134 L17.944834,7.70048239 L17.9457838,9.14920176 C17.9457838,9.69861035 18.4059548,10.1397579 18.9726826,10.1397579 L19.084502,10.1339745 C19.5987184,10.0804562 19.9995814,9.66197671 19.9995814,9.14920176 L20,5.39055612 C20,4.84115072 19.5398219,4.4 18.9731012,4.4 Z" id="Path" fill="#000000"/>
    </g>
</svg>
