<?xml version="1.0" encoding="UTF-8"?>
<svg width="20px" height="20px" viewBox="0 0 20 20" version="1.1" xmlns="http://www.w3.org/2000/svg" xmlns:xlink="http://www.w3.org/1999/xlink">
    <title>Red Cross</title>
    <g id="Red-Cross" stroke="none" stroke-width="1" fill="none" fill-rule="evenodd">
        <path d="M10,0 C15.5228475,0 20,4.4771525 20,10 C20,15.5228475 15.5228475,20 10,20 C4.4771525,20 0,15.5228475 0,10 C0,4.4771525 4.4771525,0 10,0 Z M7.42179478,6.31597857 C7.11643209,6.01061583 6.6213413,6.01061583 6.31597857,6.31597857 C6.01061583,6.6213413 6.01061583,7.11643209 6.31597857,7.42179478 L6.31597857,7.42179478 L9.08043478,10.186087 L6.31597857,12.950876 L6.2402688,13.0385757 C6.01313949,13.3446872 6.03837608,13.7790898 6.31597857,14.0566923 L6.31597857,14.0566923 L6.36856404,14.1047586 C6.67576578,14.3611125 7.1333967,14.3450904 7.42179478,14.0566923 L7.42179478,14.0566923 L10.186087,11.2921739 L12.950876,14.0566923 C13.2562387,14.362055 13.7513295,14.362055 14.0566923,14.0566923 C14.362055,13.7513295 14.362055,13.2562387 14.0566923,12.950876 L14.0566923,12.950876 L11.2921739,10.186087 L14.0566923,7.42179478 L14.132402,7.33409514 C14.3595313,7.02798358 14.3342947,6.59358106 14.0566923,6.31597857 C13.7513295,6.01061583 13.2562387,6.01061583 12.950876,6.31597857 L12.950876,6.31597857 L10.186087,9.08043478 Z" id="Combined-Shape" fill="#DC464B" fill-rule="nonzero"></path>
    </g>
</svg>