<?xml version="1.0" encoding="UTF-8"?>
<svg width="20px" height="20px" viewBox="0 0 20 20" version="1.1" xmlns="http://www.w3.org/2000/svg" xmlns:xlink="http://www.w3.org/1999/xlink">
    <title>Refresh</title>
    <g id="Refresh" stroke="none" stroke-width="1" fill="none" fill-rule="evenodd">
        <path d="M11.7586181,-1.47075918 L16.235258,1.69658361 C16.4329317,1.81649952 16.4352266,2.11585062 16.2447,2.23109861 L11.7808295,5.36089506 C11.5643564,5.49792667 11.2725522,5.34444934 11.2725522,5.09226891 L11.3368429,3.11741224 L11.1746232,3.03555331 C11.0555677,3.01229346 10.9622686,3.00319293 10.8147466,2.99933454 L10.4901943,2.99650681 C6.45078516,3.06311728 3.14393639,6.34830029 3.09886416,10.338528 C3.05356348,14.6652239 6.74792199,18.1008993 11.1376896,17.8141694 C14.7831199,17.5704479 17.758327,14.7348431 18.1191549,11.1602033 C18.2716411,9.52928313 17.9011892,7.92371129 17.0594295,6.56539291 C16.7500795,6.05147696 16.901516,5.42215375 17.4083118,5.11503581 C17.8847566,4.81480596 18.530111,4.97017682 18.8499786,5.46226912 C19.7757937,6.95165176 20.2614523,8.65146555 20.2614523,10.4052801 C20.2614523,15.9041345 15.4796119,20.2563723 9.87984107,19.8518545 C5.17509685,19.5087116 1.3711522,15.7548835 1.02347136,11.1124012 C0.592438066,5.61629985 5.01757263,0.915576726 10.6205723,0.915576726 L11.1868281,0.914865698 L11.2367642,0.865201887 L11.2506601,-1.2016836 C11.2506612,-1.45348786 11.541853,-1.60794523 11.7586181,-1.47075918 Z" id="Path" fill="#000000" fill-rule="nonzero" transform="translate(10.627950, 9.177950) rotate(45.000000) translate(-10.627950, -9.177950) "></path>
    </g>
</svg>