<?xml version="1.0" encoding="UTF-8"?>
<svg width="50px" height="35px" viewBox="0 0 50 35" version="1.1" xmlns="http://www.w3.org/2000/svg">
    <title>a-60</title>
    <g id="Page-2" stroke="none" stroke-width="1" fill="none" fill-rule="evenodd">
        <g id="8.9---Cancel-Booking---Review-Details---Refund-amount-not-visible---Flight-Booking---APP" transform="translate(-162.000000, -343.000000)">
            <g id="toast" transform="translate(16.000000, 323.000000)">
                <g id="Group-14" transform="translate(20.000000, 20.000000)">
                    <g id="a-60" transform="translate(126.000000, 0.000000)">
                        <g id="Group">
                            <path d="M43.2565105,26.1542123 L2.84965471,26.1542123 C1.27714452,26.1542123 0,24.8756545 0,23.3014041 L0,2.85280819 C0,1.27855783 1.27714452,0 2.84965471,0 L43.2565105,0 C44.8290207,0 46.1061652,1.27855783 46.1061652,2.85280819 L46.1061652,23.3014041 C46.1061652,24.8756545 44.8290207,26.1542123 43.2565105,26.1542123 Z" id="Path" fill="#0E9347"/>
                            <path d="M42.3080123,8.33769634 L42.3080123,17.8206806 C42.3080123,18.1830081 42.0043265,18.4620419 41.6423995,18.4620419 C41.6382395,18.4620419 41.6382395,18.4620419 41.6340794,18.4620419 C39.3585157,18.4620419 37.4781596,20.1653974 37.2035943,22.368515 C37.1619935,22.6891956 36.8957484,22.9349119 36.5712622,22.9349119 L9.53490307,22.9349119 C9.21041684,22.9349119 8.94417173,22.6933603 8.90257093,22.368515 C8.62384558,20.1653974 6.74348947,18.4620419 4.46792578,18.4620419 C4.4637657,18.4620419 4.4637657,18.4620419 4.45960562,18.4620419 C4.09767868,18.4620419 3.79399284,18.1871728 3.79399284,17.8206806 L3.79399284,8.33769634 C3.79399284,7.97536887 4.0935186,7.69633508 4.45960562,7.69633508 C4.4637657,7.69633508 4.4637657,7.69633508 4.46792578,7.69633508 C6.74348947,7.69633508 8.62384558,5.99297953 8.90257093,3.78986197 C8.94417173,3.46918134 9.21041684,3.22346502 9.53490307,3.22346502 L36.5712622,3.22346502 C36.8957484,3.22346502 37.1619935,3.46501666 37.2035943,3.78986197 C37.4823197,5.99297953 39.3585157,7.69633508 41.6340794,7.69633508 C41.6382395,7.69633508 41.6382395,7.69633508 41.6423995,7.69633508 C42.0043265,7.69633508 42.3080123,7.97120419 42.3080123,8.33769634 Z" id="Path" fill="#00B16B"/>
                        </g>
                        <ellipse id="Oval" fill="#FED402" cx="40.8935852" cy="25.8835079" rx="9.10641484" ry="9.11649215"/>
                        <g id="Group" transform="translate(40.061569, 21.173251)" fill="#222222">
                            <path d="M0.832015975,6.81342218 C0.374407189,6.81342218 0,6.43860067 0,5.98048548 L0,0.832936697 C0,0.374821514 0.374407189,0 0.832015975,0 C1.28962476,0 1.66403195,0.374821514 1.66403195,0.832936697 L1.66403195,5.98048548 C1.66403195,6.44276535 1.28962476,6.81342218 0.832015975,6.81342218 Z" id="Path"/>
                            <path d="M0.832015975,9.47881961 C0.374407189,9.47881961 0,9.1039981 0,8.64588291 C0,8.18776773 0.370247109,7.81294622 0.832015975,7.81294622 L0.832015975,7.81294622 C1.28962476,7.81294622 1.66403195,8.18776773 1.66403195,8.64588291 C1.66403195,9.1039981 1.28962476,9.47881961 0.832015975,9.47881961 Z" id="Path"/>
                        </g>
                        <ellipse id="Oval" fill="#0E9347" cx="23.0510026" cy="13.0771061" rx="4.70089026" ry="4.70609234"/>
                    </g>
                </g>
            </g>
        </g>
    </g>
</svg>
