<svg width="20" height="16" viewBox="0 0 20 16" xmlns="http://www.w3.org/2000/svg">
    <path d="M14.705 10.403 5.322 7.442a3.665 3.665 0 0 1-1.947-1.46 4.667 4.667 0 0 1-.777-2.374l-.054-1.122a.27.27 0 0 1 .1-.2.214.214 0 0 1 .21-.034l.717.226c.22.07.362.203.428.4l.486 1.315a.614.614 0 0 0 .428.4l3.498 1.104c.08.025.155.016.225-.029.07-.044.098-.112.085-.205L8.48.247a.27.27 0 0 1 .1-.2.215.215 0 0 1 .21-.034l1.076.34c.199.063.328.203.388.42L12 6.532c.039.211.168.352.388.42l3.139.991c.2.063.378.153.538.27l.179.156c.1.097.199.228.298.392a.84.84 0 0 1 .14.475c.006.047.009.086.009.12 0 .033-.004.06-.01.08a.932.932 0 0 1-.04.219.606.606 0 0 1-.09.17c-.194.381-.607.594-1.238.638a1.453 1.453 0 0 1-.608-.06zM1 13.533h18a1 1 0 0 1 0 2H1a1 1 0 1 1 0-2z" fill="#555" fill-rule="nonzero"/>
</svg>
