<?xml version="1.0" encoding="UTF-8"?>
<svg width="16px" height="22px" viewBox="0 0 16 22" version="1.1" xmlns="http://www.w3.org/2000/svg" xmlns:xlink="http://www.w3.org/1999/xlink">
    <title>round trip</title>
    <g id="Flight-Booking" stroke="none" stroke-width="1" fill="none" fill-rule="evenodd">
        <g id="Black-Return-Flight-Arrow" fill="#000000" fill-rule="nonzero">
            <path d="M12.8662887,4.71831847 L9.637447,1.30679374 C9.3347726,0.986994389 9.3599792,0.492648899 9.6937477,0.202642169 C10.0275161,-0.0873645659 10.543455,-0.0632128839 10.8461295,0.256586459 L15.3238904,4.98769249 C15.6990919,5.38412237 15.6870906,6.00818413 15.2969246,6.38989524 L10.8246472,10.7652592 L10.8246472,10.7652592 C10.509384,11.0736907 9.9928577,11.0788489 9.6709536,10.7767802 C9.3490495,10.4747115 9.343666,9.9798033 9.6589293,9.6713717 L13.1319683,6.27359287 C13.0934923,6.27892636 13.0541473,6.28168706 13.0141292,6.28168706 L0.81582891,6.28168706 C0.36525904,6.28168706 0,5.93171508 0,5.5 C0,5.06829045 0.36525904,4.71831847 0.81582891,4.71831847 L12.8662887,4.71831847 Z M3.13371134,15.7183185 L15.1841711,15.7183185 C15.634741,15.7183185 16,16.0682905 16,16.5 C16,16.9317151 15.634741,17.2816871 15.1841711,17.2816871 L2.98587075,17.2816871 C2.94585272,17.2816871 2.90650766,17.2789264 2.8680317,17.2735929 L6.3410707,20.6713717 C6.656334,20.9798033 6.6509505,21.4747115 6.3290464,21.7767802 C6.0071423,22.0788489 5.49061604,22.0736907 5.17535276,21.7652592 L0.703075354,17.3898952 C0.312909414,17.0081841 0.300908098,16.3841224 0.676109627,15.9876925 L5.15387052,11.2565865 L5.15387052,11.2565865 C5.45654498,10.9367871 5.9724839,10.9126354 6.3062523,11.2026422 C6.6400208,11.4926489 6.6652274,11.9869944 6.362553,12.3067937 L3.13371134,15.7183185 Z" id="round-trip"></path>
        </g>
    </g>
</svg>