<?xml version="1.0" encoding="UTF-8"?>
<svg width="26px" height="31px" viewBox="0 0 26 31" version="1.1" xmlns="http://www.w3.org/2000/svg">
    <title>Group 3</title>
    <g id="Flight-Booking" stroke="none" stroke-width="1" fill="none" fill-rule="evenodd">
        <g id="1-Payments--home-Rewards-unchecked--one-way" transform="translate(-68.000000, -1472.000000)" fill="#00B16B">
            <g id="Group-3" transform="translate(68.000000, 1472.000000)">
                <path d="M10.2428259,16.6269682 C9.9584121,16.3601849 9.49766166,16.3601849 9.21329332,16.6269682 C8.92892498,16.8937516 8.92887947,17.3262736 9.21329332,17.5926814 L10.5006642,18.7999082 C10.6428711,18.9332999 10.8291644,19 11.0154487,19 C11.2017329,19 11.3880354,18.9333042 11.5302332,18.7999082 L17.5366896,13.1657847 C17.8211035,12.8990013 17.8211035,12.4668122 17.5366896,12.2000715 C17.2522758,11.9333308 16.7915253,11.9332881 16.507157,12.2000715 L11.0154669,17.3513385 L10.2428259,16.6269682 Z" id="Path"/>
                <g id="Shape-3">
                    <path d="M0.00135431836,3.69991961 L0.00135431836,14.2340815 C0.00135431836,21.7585873 5.13895374,28.4691196 12.7851003,30.9314991 C12.856775,30.9546184 12.9284541,30.9774521 13.0006917,31 C13.0735045,30.9771664 13.1457494,30.9543327 13.2177103,30.9312134 C20.8630559,28.4689069 26,21.7590323 26,14.2337959 L26,3.69963391 C19.4807046,2.90275821 15.1552593,1.10660944 13,0 C10.8448863,1.10660944 6.51995071,2.90275821 0,3.69963391 L0.00135431836,3.69991961 Z M20.0909091,15.5001442 C20.0909091,19.4446145 16.909847,22.6538462 13,22.6538462 C9.090153,22.6538462 5.90909091,19.4446145 5.90909091,15.5001442 C5.90909091,11.5553855 9.090153,8.34615385 13,8.34615385 C16.909847,8.34615385 20.0909091,11.5553855 20.0909091,15.5001442 Z" id="Shape"/>
                </g>
            </g>
        </g>
    </g>
</svg>