<?xml version="1.0" encoding="UTF-8"?>
<svg width="20px" height="20px" viewBox="0 0 20 20" version="1.1" xmlns="http://www.w3.org/2000/svg">
    <title>Short-layover</title>
    <g id="Short-layover" stroke="none" stroke-width="1" fill="none" fill-rule="evenodd">
        <rect id="Rectangle" fill="#FFFFFF" opacity="0" x="0" y="0" width="20" height="20"/>
        <path d="M9.57016351,13.7439526 C10.0101635,14.0839526 10.0801635,14.7139526 9.74016351,15.1439526 L8.77016351,16.3839526 C8.58016351,16.6239526 8.29016351,16.7639526 7.98016351,16.7639526 C7.98016351,16.7639526 7.97016351,16.7639526 7.97016351,16.7639526 L4.99016351,16.7339526 C4.44016351,16.7239526 3.99016351,16.2739526 4.00016351,15.7239526 C4.01016351,15.1739526 4.45016351,14.7339526 5.00016351,14.7339526 C5.00016351,14.7339526 5.01016351,14.7339526 5.01016351,14.7339526 L7.50016351,14.7639526 L8.16016351,13.9139526 C8.50016351,13.4839526 9.13016351,13.4039526 9.57016351,13.7439526 Z M12.2301635,3.06395256 C13.0801635,3.00395256 13.7101635,2.26395256 13.6501635,1.42395256 C13.5901635,0.573952557 12.8501635,-0.0560474431 12.0101635,0.0039525569 C11.1601635,0.0639525569 10.5301635,0.803952557 10.5901635,1.64395256 C10.6501635,2.49395256 11.3901635,3.12395256 12.2301635,3.06395256 Z M11.6101635,4.34395256 C11.3201635,4.01395256 10.8701635,3.86395256 10.4401635,3.96395256 L6.47016351,4.89395256 C5.56016351,5.11395256 4.95016351,5.95395256 5.01016351,6.89395256 L5.16016351,8.92395256 C5.20016351,9.45395256 5.64016351,9.85395256 6.16016351,9.85395256 C6.18016351,9.85395256 6.21016351,9.85395256 6.24016351,9.85395256 C6.79016351,9.81395256 7.20016351,9.33395256 7.16016351,8.78395256 L7.01016351,6.82395256 L9.65016351,6.19395256 L9.22016351,11.0539526 C9.20016351,11.3139526 9.27016351,11.5639526 9.43016351,11.7639526 L11.8701635,14.8139526 L12.1701635,18.8739526 C12.2101635,19.4039526 12.6501635,19.8039526 13.1701635,19.8039526 C13.1901635,19.8039526 13.2201635,19.8039526 13.2501635,19.8039526 C13.8001635,19.7639526 14.2101635,19.2839526 14.1701635,18.7339526 L13.8501635,14.3639526 C13.8401635,14.1639526 13.7601635,13.9739526 13.6301635,13.8139526 L11.2501635,10.8339526 L11.5601635,7.35395256 L12.0301635,7.90395256 C12.2201635,8.12395256 12.5001635,8.25395256 12.7901635,8.25395256 C12.8101635,8.25395256 12.8401635,8.25395256 12.8601635,8.25395256 L14.9401635,8.10395256 C15.4901635,8.06395256 15.9101635,7.58395256 15.8701635,7.03395256 C15.8301635,6.48395256 15.3701635,6.05395256 14.8001635,6.10395256 L13.2201635,6.21395256 L11.6101635,4.34395256 Z" id="Shape" fill="#000000"/>
    </g>
</svg>
