<?xml version="1.0" encoding="UTF-8"?>
<svg width="20px" height="20px" viewBox="0 0 20 20" version="1.1" xmlns="http://www.w3.org/2000/svg" xmlns:xlink="http://www.w3.org/1999/xlink">
    <title>Filter</title>
    <g id="Filter" stroke="none" stroke-width="1" fill="none" fill-rule="evenodd">
        <g id="2-px" transform="translate(0.000000, 0.300000)" fill="#000000" fill-rule="nonzero">
            <g id="Group-9">
                <path d="M4.6088415,10.1832994 C6.65107046,10.1832994 8.42626443,11.5229024 9.01410356,13.4330144 L9.07250095,13.6398173 L9.10386965,13.7774287 L18.9852642,13.7774051 C19.5456873,13.7774051 20,14.2317178 20,14.7921409 C20,15.3125338 19.6082712,15.7414335 19.1035888,15.8000499 L18.9852455,15.8068767 L9.10386965,15.8078687 L9.07224951,15.9454409 C8.55212081,17.9644814 6.72363853,19.4009824 4.6088415,19.4009824 C2.06344863,19.4009824 0,17.3375338 0,14.7921409 C0,12.246748 2.06344863,10.1832994 4.6088415,10.1832994 Z M4.6088415,12.2127711 C3.18429488,12.2127711 2.02947167,13.3675943 2.02947167,14.7921409 C2.02947167,16.2166875 3.18429488,17.3715107 4.6088415,17.3715107 C6.03338812,17.3715107 7.18821133,16.2166875 7.18821133,14.7921409 C7.18821133,13.3675943 6.03338812,12.2127711 4.6088415,12.2127711 Z M15.3911585,0 C17.9365514,0 20,2.06344863 20,4.6088415 C20,7.15423437 17.9365514,9.217683 15.3911585,9.217683 C13.2763615,9.217683 11.4478792,7.78118201 10.9277505,5.76214154 L10.9277505,5.76214154 L10.8961303,5.6245693 L1.01475451,5.62357733 L0.896411152,5.61675046 C0.391728814,5.55813414 0,5.1292344 0,4.6088415 C0,4.04841837 0.454312707,3.59410567 1.01473583,3.59410567 L1.01473583,3.59410567 L10.8961303,3.59412933 L10.9274991,3.45651796 L10.9858964,3.24971506 C11.5737356,1.33960298 13.3489295,0 15.3911585,0 Z M15.3911585,2.02947167 C13.9666119,2.02947167 12.8117887,3.18429488 12.8117887,4.6088415 C12.8117887,6.03338812 13.9666119,7.18821133 15.3911585,7.18821133 C16.8157051,7.18821133 17.9705283,6.03338812 17.9705283,4.6088415 C17.9705283,3.18429488 16.8157051,2.02947167 15.3911585,2.02947167 Z" id="Combined-Shape"></path>
            </g>
        </g>
    </g>
</svg>