<?xml version="1.0" encoding="UTF-8"?>
<svg width="51px" height="50px" viewBox="0 0 51 50" version="1.1" xmlns="http://www.w3.org/2000/svg">
    <title>Combined Shape</title>
    <g id="Flight-Booking" stroke="none" stroke-width="1" fill="none" fill-rule="evenodd">
        <g id="Artboard" transform="translate(-48.000000, -44.000000)" fill="#666666">
            <g id="noun-error-3512841" transform="translate(48.664600, 44.000000)">
                <path d="M49.6708,13.6511437 L49.6708,49.3354 L0,49.3354 L0,13.6511437 L49.6708,13.6511437 Z M48.2454,15.083 L1.4244,15.083 L1.4244,47.903 L48.2454,47.903 L48.2454,15.083 Z M24.8353335,33.8221632 C27.3958919,33.8221632 29.704242,34.2659511 31.7233999,35.007112 C32.4333743,35.268045 33.0574936,35.5482394 33.5938821,35.830573 C33.7201459,35.8970333 33.8357437,35.9607138 33.9408686,36.0211183 L34.276741,36.2257616 L34.3682084,36.6446705 L34.3769028,36.7080735 C34.3776379,36.7289668 34.3735449,36.7353926 34.3655784,36.7352036 L34.3447956,36.7283328 L33.7253714,37.6680961 L33.458,37.399 L33.3586806,37.3374288 L33.0915166,37.1842823 L32.793982,37.0271369 L32.6502581,36.9551389 L32.456,36.862 L32.6874477,37.3973925 C33.295538,38.8018136 32.7526676,40.4211244 31.4748161,41.1799343 L31.3179726,41.2667923 L31.1542331,41.3449765 C29.7016591,41.9859244 28.018614,41.3636634 27.3112548,39.9568245 L27.2367357,39.7973047 L25.272,35.259 L25.159701,35.256526 L24.8353698,35.2538972 C22.4485452,35.2538972 20.3046323,35.6663445 18.4361713,36.3526125 C17.787477,36.5905838 17.2205848,36.8449965 16.7379312,37.0990813 L16.4373552,37.2639005 L16.186,37.415 L16.2365921,37.3741105 L15.8500713,37.3550181 L15.7524044,37.3483878 C15.7023222,37.344086 15.6878642,37.340217 15.6915585,37.3350174 L15.717973,37.3223215 L15.3260753,36.7284125 L15.3157541,36.7182801 L15.3075485,36.6880077 L15.2736275,36.3688468 L15.4014445,36.2206999 L15.5799362,36.1092092 C15.7219407,36.0237268 15.8873652,35.930276 16.076777,35.8305771 C16.6130079,35.5483084 17.2372661,35.268056 17.9473947,35.0070651 C19.966425,34.2659511 22.2747751,33.8221632 24.8353335,33.8221632 Z M26.869,35.358 L28.5430948,39.2263002 C28.8858745,40.0185281 29.7983753,40.3795405 30.5812609,40.0344048 C31.3195356,39.7083182 31.6810099,38.8695614 31.4346207,38.1101436 L31.3812429,37.968827 L30.586,36.131 L30.2923293,36.0380883 C30.145332,35.9937717 29.9964292,35.9510323 29.8456482,35.9099476 L29.56,35.836 L30.268653,37.4866719 C30.4104249,37.8155498 30.2871563,38.1938724 29.9924309,38.3783459 L29.8989632,38.4276292 C29.5694597,38.5711313 29.1921927,38.4457065 29.0096355,38.1485503 L28.9609521,38.0543487 L27.86,35.488 L27.4732555,35.4300994 L27.1865981,35.3935284 L26.869,35.358 Z M16.0383581,24.5181419 C16.3168218,24.23695 16.7696832,24.236958 17.0481684,24.5181201 C17.3248818,24.7974934 17.3248818,25.2486168 17.0482086,25.527975 L17.0482086,25.527975 L15.664,26.926 L17.0481684,28.3239306 C17.2972105,28.5753666 17.3221147,28.9663494 17.1225813,29.2460155 L17.1225813,29.2460155 L17.0477573,29.3347706 C16.7693852,29.6148419 16.3171883,29.6148419 16.0383395,29.3343156 L16.0383395,29.3343156 L14.658,27.94 L13.278838,29.3339267 C13.0282166,29.5870035 12.6363299,29.6123112 12.3571377,29.4095471 L12.3571377,29.4095471 L12.2685958,29.3335116 C11.9929968,29.054242 11.9929968,28.6037848 12.2690464,28.324034 L12.2690464,28.324034 L13.653,26.926 L12.2685958,25.5281089 C12.0205567,25.2767663 11.9957528,24.8863323 12.1944832,24.6068502 L12.1944832,24.6068502 L12.2690062,24.5181419 C12.5474745,24.2369454 13.0003443,24.2369454 13.2788272,24.518131 L13.2788272,24.518131 L14.658,25.911 Z M36.3922043,24.5182642 C36.6707447,24.2369949 37.1239647,24.2369949 37.4014895,24.5182424 C37.678203,24.7976158 37.678203,25.2487391 37.4015298,25.5280974 L37.4015298,25.5280974 L36.017,26.926 L37.4014895,28.3240529 C37.6505965,28.5755544 37.6755072,28.966825 37.4765444,29.2452269 L37.4765444,29.2452269 L37.4019322,29.3335006 C37.1239665,29.6151942 36.6707684,29.6151942 36.3922151,29.3339376 L36.3922151,29.3339376 L35.012,27.94 L33.6326842,29.3339267 C33.3820668,29.5869994 32.9901874,29.6123002 32.711302,29.4098624 L32.711302,29.4098624 L32.6228739,29.3339484 C32.3461605,29.0545751 32.3461605,28.6034518 32.622872,28.3240549 L32.622872,28.3240549 L34.006,26.926 L32.6228739,25.5286681 C32.373836,25.2772363 32.3489385,24.8862606 32.5481487,24.6069044 L32.5481487,24.6069044 L32.6228523,24.5182642 C32.9013207,24.2370677 33.3541904,24.2370677 33.6326734,24.5182533 L33.6326734,24.5182533 L35.012,25.912 Z M34.8225154,7.61162093 C35.0307519,7.61162093 35.1995462,7.78205327 35.1995462,7.99231071 L35.1995462,9.23577773 L36.2659558,8.61404422 C36.4463135,8.50891686 36.6766404,8.5710372 36.7807519,8.75314659 C36.8848688,8.93525462 36.8233456,9.16781682 36.6429865,9.27293875 L35.5760519,9.89520235 L36.6429865,10.5169359 C36.8233442,10.6220632 36.8848769,10.85462 36.7807519,11.036728 C36.676635,11.218836 36.4463135,11.281496 36.2659558,11.1763605 L35.1995462,10.5540969 L35.1995462,11.798094 C35.1995462,12.0083514 35.0307519,12.1787838 34.8225154,12.1787838 C34.6142788,12.1787838 34.4454846,12.0083514 34.4454846,11.798094 L34.4454846,10.5540969 L33.37855,11.1758304 C33.1981923,11.2809577 32.9678654,11.2188374 32.8637538,11.036728 C32.7596369,10.85462 32.8216865,10.6220578 33.0015192,10.5169359 L34.0684538,9.89520235 L33.0015192,9.27346884 C32.8216865,9.16834148 32.7596288,8.93525462 32.8637538,8.75314659 C32.9678708,8.57156865 33.1981923,8.5089087 33.37855,8.61404422 L34.4454846,9.23577773 L34.4454846,7.99231071 C34.4454846,7.78205327 34.6142788,7.61162093 34.8225154,7.61162093 Z M3.16108462,6.85056757 C3.36879615,6.85056757 3.53759038,7.02099992 3.53759038,7.23125735 L3.53759038,7.23125735 L3.53759038,8.47525447 L4.604525,7.85299086 C4.78488269,7.74785535 5.01520423,7.8105153 5.11932115,7.99262333 C5.22344615,8.17473136 5.16191346,8.40728813 4.98155577,8.51241549 L4.98155577,8.51241549 L3.91462115,9.13414899 L4.98155577,9.7558825 C5.16191481,9.86100442 5.22343808,10.0940967 5.11932115,10.2762048 C5.01520962,10.4583141 4.78488269,10.5204345 4.604525,10.4153071 L4.604525,10.4153071 L3.53759038,9.79357362 L3.53759038,11.0370406 C3.53759038,11.2472981 3.36879615,11.4177304 3.16108462,11.4177304 C2.95284808,11.4177304 2.78405385,11.2472981 2.78405385,11.0370406 L2.78405385,11.0370406 L2.78405385,9.79357362 L1.71711923,10.4153071 C1.53676154,10.5204426 1.30644,10.4577827 1.20232308,10.2756747 C1.09819808,10.0940967 1.15973077,9.86100986 1.34008846,9.7558825 L1.34008846,9.7558825 L2.40702308,9.13414899 L1.34008846,8.51241549 C1.15972942,8.40729356 1.09820615,8.17473136 1.20232308,7.99262333 C1.30643462,7.8105153 1.53676154,7.7478635 1.71711923,7.85299086 L1.71711923,7.85299086 L2.78405385,8.47525447 L2.78405385,7.23125735 C2.78405385,7.02099992 2.95284808,6.85056757 3.16108462,6.85056757 Z M23.7040654,5.27880519 L25.0631715,5.28430441 L26.4014751,5.30062916 C26.6225442,5.30423767 26.8425607,5.30828644 27.0614314,5.31277006 L27.0614314,5.31277006 L28.3601642,5.34484677 C28.5740804,5.35104819 28.786665,5.35767365 28.9978251,5.36471775 L28.9978251,5.36471775 L30.2469468,5.41196284 L31.4574164,5.46899596 L32.6247717,5.53555773 L33.7445502,5.61138878 C33.9269674,5.62478532 34.1072162,5.63855727 34.2852037,5.65269923 L34.2852037,5.65269923 L35.3252502,5.74194788 C35.6623915,5.77314864 35.989744,5.80578621 36.306564,5.83981736 C36.4437846,5.85458283 36.5787449,5.86957643 36.7114055,5.8847939 L36.7114055,5.8847939 L37.4794572,5.9787507 L38.1904244,6.07787441 L38.8424154,6.18195935 C39.3606424,6.27070685 39.8154656,6.36440804 40.201959,6.46252729 C40.7018526,6.58958983 41.0969739,6.72622377 41.3892099,6.879411 C41.5727066,6.97593848 41.7232531,7.08167047 41.8448239,7.21020709 C42.0219264,7.39830763 42.1316385,7.62991612 42.1316385,7.8978002 C42.1316385,8.29219608 41.8132553,8.61335989 41.4192077,8.61335989 C41.1376389,8.61335989 40.8915059,8.44841866 40.776174,8.20575743 L40.776174,8.20575743 L40.7594,8.165 L40.7295679,8.14856361 C40.5782234,8.06910032 40.3376096,7.98217448 40.0186123,7.89485673 L40.0186123,7.89485673 L39.6489187,7.80152648 C39.578614,7.7850677 39.5059222,7.76870951 39.4308829,7.75245853 L39.4308829,7.75245853 L38.9527926,7.6562921 C38.8685212,7.64049644 38.7819812,7.62482123 38.6932122,7.60927309 L38.6932122,7.60927309 L38.1341664,7.51756219 C37.9391126,7.48753551 37.7354588,7.45807012 37.5235212,7.429219 L37.5235212,7.429219 L36.8631731,7.34456144 L36.1550189,7.26390739 C35.0632694,7.14667974 33.8422631,7.04610986 32.5240309,6.96411787 L32.5240309,6.96411787 L31.3710542,6.89843349 C31.1751721,6.88825931 30.9774925,6.87847546 30.7781088,6.86908754 L30.7781088,6.86908754 L29.5621055,6.81755604 L28.3096873,6.77579567 C27.8866436,6.76353393 27.4582777,6.75294549 27.0253369,6.74407514 L27.0253369,6.74407514 L25.7135366,6.72266315 C25.0515211,6.71457907 24.3808928,6.71046146 23.7041731,6.71046146 L23.7041731,6.71046146 L23.0295391,6.71182847 C22.3571208,6.71455689 21.6916299,6.72135272 21.0355908,6.73206474 L21.0355908,6.73206474 L19.7368629,6.75866551 C19.522758,6.7639543 19.3098903,6.76966701 19.0983532,6.77579805 L19.0983532,6.77579805 L17.8458474,6.81755936 C17.6400072,6.8253413 17.4356846,6.83353035 17.2329732,6.84212092 L17.2329732,6.84212092 L16.0367872,6.89843779 L14.8837576,6.96412225 L13.7783724,7.03890542 C12.8783164,7.10494118 12.0325648,7.18017467 11.2528048,7.26390568 C11.1309483,7.27699603 11.0110012,7.29026648 10.8930028,7.30371047 L10.8930028,7.30371047 L10.2087111,7.38640414 L9.57307397,7.4729469 C9.47129378,7.48767392 9.37161945,7.50254815 9.27409028,7.51756304 L9.27409028,7.51756304 L8.71497141,7.60928751 C8.62618003,7.62483868 8.53961238,7.64051734 8.45530777,7.65631692 L8.45530777,7.65631692 L7.97695084,7.75251281 C7.82676023,7.7850267 7.68593609,7.81797165 7.55479278,7.85129504 L7.55479278,7.85129504 L7.3784,7.897 L7.75892096,7.99354049 C7.96994564,8.04291874 8.20242466,8.09139139 8.45529119,8.13877965 L8.45529119,8.13877965 L8.9878915,8.2320574 L9.57296193,8.32212571 C9.67474081,8.33685198 9.77862692,8.35143129 9.88458075,8.36585701 L9.88458075,8.36585701 L10.5448003,8.45051531 L11.2527484,8.53116971 C12.3444648,8.64839381 13.5655065,8.7489625 14.8838051,8.83095449 L14.8838051,8.83095449 L16.0368454,8.89663913 C16.2327392,8.9068134 16.4304307,8.91659735 16.6298267,8.92598538 L16.6298267,8.92598538 L17.8459066,8.97751771 L19.0984033,9.01927906 L20.3828291,9.05100058 C20.5993115,9.05543591 20.8169373,9.05944172 21.035613,9.06301239 L21.035613,9.06301239 L22.3595179,9.07917002 C22.8045205,9.0827855 23.2529748,9.08461565 23.7041327,9.08461565 C25.9076989,9.08461565 28.0608848,9.04088167 30.08165,8.95697367 C30.4756192,8.93985544 30.8072719,9.24834154 30.8230646,9.64204151 C30.8398437,10.036732 30.5348008,10.3713885 30.1412546,10.3874839 C28.1123391,10.472345 25.9395521,10.5162651 23.7040654,10.5162651 L23.7040654,10.5162651 L22.3448825,10.5107663 L21.0065401,10.4944426 C20.7854672,10.4908343 20.5654483,10.4867857 20.3465762,10.4823023 L20.3465762,10.4823023 L19.0478471,10.4502271 C18.8339333,10.4440259 18.6213518,10.4374007 18.4101956,10.4303569 L18.4101956,10.4303569 L17.1611031,10.3831133 L15.9506703,10.3260812 L14.7833517,10.25952 C14.2112135,10.2239003 13.6569138,10.1848042 13.1229583,10.1423777 L13.1229583,10.1423777 L12.0829154,10.0531271 C11.7457713,10.0219254 11.4184116,9.98928676 11.1015787,9.95525422 C10.9643145,9.94048901 10.8293141,9.92549562 10.6966172,9.91027836 L10.6966172,9.91027836 L9.92839149,9.81632272 L9.21734071,9.71720051 L8.56535887,9.6131181 C8.04717886,9.52437334 7.59250199,9.4306767 7.20626072,9.33256563 C6.70456527,9.20519127 6.31057971,9.06908973 6.01882816,8.91588631 C5.83576739,8.81992812 5.68409943,8.71324686 5.56389985,8.58549142 C5.38616322,8.39768889 5.27596731,8.16568098 5.27596731,7.8978002 C5.27596731,7.62952166 5.38610692,7.39742636 5.56323544,7.21028296 C5.68357611,7.08238957 5.83367884,6.97697179 6.01905522,6.87906509 C6.3117183,6.72593972 6.70693498,6.58927295 7.20622978,6.46251254 C7.59253304,6.36439571 8.04725152,6.27069396 8.56545193,6.18194596 L8.56545193,6.18194596 L9.21744803,6.07786063 C9.44472669,6.0439811 9.68184673,6.01092865 9.92849243,5.97873775 L9.92849243,5.97873775 L10.6966907,5.88478417 L11.1016306,5.83981051 C11.4184721,5.80577847 11.7458395,5.77314024 12.0829904,5.74193902 L12.0829904,5.74193902 L13.1230508,5.65268955 C13.6570138,5.61026351 14.2113188,5.57116791 14.7834602,5.53554852 L14.7834602,5.53554852 L15.950782,5.4689879 L17.1612122,5.41195634 L18.4102958,5.36471302 C18.6214501,5.35766922 18.8340292,5.35104405 19.0479405,5.34484293 L19.0479405,5.34484293 L20.3466512,5.31276787 C20.5655197,5.30828451 20.7855348,5.30423598 21.0066035,5.30062769 L21.0066035,5.30062769 L22.3449176,5.28430401 L23.7040654,5.27880519 Z M45.3759442,5.32844727 C45.5841808,5.32844727 45.752975,5.49887962 45.752975,5.70913705 L45.752975,6.95260407 L46.8199096,6.33087056 C46.9997423,6.2257432 47.2305942,6.288395 47.3347058,6.46997293 C47.4388227,6.65208096 47.3767731,6.88517326 47.1964154,6.99029518 L46.1300058,7.61202869 L47.1964154,8.2337622 C47.3767731,8.33888956 47.4388308,8.57197642 47.3347058,8.75355436 C47.2305888,8.93566239 46.9997423,8.99832234 46.8199096,8.89318682 L45.752975,8.27145331 L45.752975,9.51492033 C45.752975,9.72517777 45.5841808,9.89561011 45.3759442,9.89561011 C45.1677077,9.89561011 44.9989135,9.72517777 44.9989135,9.51492033 L44.9989135,8.27092322 L43.9325038,8.89318682 C43.7521462,8.99831418 43.5212942,8.93566239 43.4177077,8.75355436 C43.3135908,8.57144632 43.375114,8.33888412 43.5554731,8.2337622 L44.6218827,7.61202869 L43.5554731,6.99029518 C43.3751154,6.88516782 43.3135827,6.65261106 43.4177077,6.47050303 C43.5218246,6.288395 43.7521462,6.22573505 43.9325038,6.33087056 L44.9989135,6.95313416 L44.9989135,5.70913705 C44.9989135,5.49887962 45.1677077,5.32844727 45.3759442,5.32844727 Z M15.9763615,0 C16.1845981,0 16.3533923,0.170432348 16.3533923,0.380689784 L16.3533923,1.6241568 L17.4198019,1.00242329 C17.6001596,0.897295933 17.8304865,0.959416274 17.9345981,1.14152566 C18.038715,1.32363369 17.9771917,1.5561959 17.7968327,1.66131782 L16.7298981,2.28358142 L17.7968327,2.90531493 C17.9771904,3.01044229 18.0387231,3.24299906 17.9345981,3.42510709 C17.8304812,3.60721512 17.6001596,3.66987507 17.4198019,3.56473955 L16.3533923,2.94247595 L16.3533923,4.18647306 C16.3533923,4.3967305 16.1845981,4.56716285 15.9763615,4.56716285 C15.768125,4.56716285 15.5993308,4.3967305 15.5993308,4.18647306 L15.5993308,2.94247595 L14.5323962,3.56420946 C14.3520385,3.66933682 14.1217115,3.60721648 14.0176,3.42510709 C13.9134831,3.24299906 13.9755327,3.01043685 14.1553654,2.90531493 L15.2223,2.28358142 L14.1553654,1.66184792 C13.9755327,1.55672056 13.913475,1.32363369 14.0176,1.14152566 C14.1217169,0.959947728 14.3520385,0.897287778 14.5323962,1.00242329 L15.5993308,1.6241568 L15.5993308,0.380689784 C15.5993308,0.170432348 15.768125,0 15.9763615,0 Z" id="Combined-Shape"/>
            </g>
        </g>
    </g>
</svg>