<?xml version="1.0" encoding="UTF-8"?>
<svg width="20px" height="20px" viewBox="0 0 20 20" version="1.1" xmlns="http://www.w3.org/2000/svg" xmlns:xlink="http://www.w3.org/1999/xlink">
    <title>Rupee</title>
    <g id="Rupee" stroke="none" stroke-width="1" fill="none" fill-rule="evenodd">
        <path d="M4.28997633,0 L15.6989937,0 C16.2515956,0 16.69897,0.444688743 16.69897,0.992171153 C16.69897,1.53965356 16.2515956,1.98434231 15.6989937,1.98434231 L12.0049322,1.98418306 L12.3520876,2.46108472 C12.8199113,3.10375341 13.1485639,3.83503477 13.3178451,4.61004712 L13.3694237,4.84618724 L15.6989928,4.84618724 C16.251595,4.84618724 16.69897,5.29087622 16.69897,5.83835839 C16.69897,6.38584057 16.251595,6.83052955 15.6989928,6.83052955 L13.3698576,6.83052955 L13.317958,7.06615499 C13.0296542,8.37505857 12.3027121,9.54838963 11.2563348,10.3935377 C10.2098481,11.2388339 8.90498086,11.7058356 7.55570865,11.7179232 L6.80965791,11.7246067 L13.369628,18.2786523 C13.5701501,18.46135 13.6858853,18.7110966 13.6952396,18.9760859 C13.7045792,19.2406618 13.6063103,19.4986395 13.4226968,19.6913344 C13.2384039,19.883842 12.9836236,19.9954039 12.7167973,19.9998317 C12.4486358,20.0047299 12.1899345,19.9025738 11.9958238,19.7131873 L3.60293715,11.453907 C3.30733689,11.1684569 3.21154316,10.7319163 3.36222193,10.3472277 C3.51267762,9.96240964 3.88154817,9.70423005 4.29838995,9.6925841 L7.55441655,9.69270119 C9.24101436,9.69270119 10.6330766,8.77476896 11.1872316,7.23243089 L11.3315636,6.83072244 L4.29,6.83072244 C3.73739635,6.83072244 3.29,6.38602593 3.29,5.83855129 C3.29,5.29107665 3.73739635,4.84638014 4.29,4.84638014 L11.351138,4.84638014 L11.1827356,4.43293623 C10.8899409,3.71409741 10.3886168,3.09738237 9.74299006,2.66120863 C9.09740564,2.22571982 8.33622499,1.98996615 7.55714516,1.98435011 L4.28997633,1.98434231 C3.73737441,1.98434231 3.29,1.53965356 3.29,0.992171153 C3.29,0.444688743 3.73737441,0 4.28997633,0 Z" id="Path" fill="#000000" fill-rule="nonzero"></path>
    </g>
</svg>