<?xml version="1.0" encoding="UTF-8"?>
<svg width="20px" height="20px" viewBox="0 0 20 20" version="1.1" xmlns="http://www.w3.org/2000/svg" xmlns:xlink="http://www.w3.org/1999/xlink">
    <title>Time</title>
    <g id="Time" stroke="none" stroke-width="1" fill="none" fill-rule="evenodd">
        <g id="Group" transform="translate(1.500000, 0.000000)" fill="#000000" fill-rule="nonzero">
            <path d="M8.5,3 C13.1944204,3 17,6.80557963 17,11.5 C17,16.1944204 13.1944204,20 8.5,20 C3.80557963,20 0,16.1944204 0,11.5 C0,6.80557963 3.80557963,3 8.5,3 Z M8.5,5 C4.91014913,5 2,7.91014913 2,11.5 C2,15.0898509 4.91014913,18 8.5,18 C12.0898509,18 15,15.0898509 15,11.5 C15,7.91014913 12.0898509,5 8.5,5 Z M11.9913294,7.99304556 C12.3518134,8.35352952 12.3795429,8.92076058 12.074518,9.31305179 L11.9913294,9.40725912 L9.20710678,12.1914818 C8.81658249,12.5820061 8.18341751,12.5820061 7.79289322,12.1914818 C7.43240926,11.8309978 7.40467972,11.2637668 7.70970461,10.8714756 L7.79289322,10.7772682 L10.5771159,7.99304556 C10.9676402,7.60252127 11.6008051,7.60252127 11.9913294,7.99304556 Z M10.4894737,0 C11.047572,0 11.5,0.44771525 11.5,1 C11.5,1.51283584 11.1098962,1.93550716 10.6073224,1.99327227 L10.4894737,2 L6.51052632,2 C5.95242804,2 5.5,1.55228475 5.5,1 C5.5,0.487164161 5.89010377,0.0644928393 6.3926776,0.00672773133 L6.51052632,0 L10.4894737,0 Z" id="Combined-Shape"></path>
        </g>
    </g>
</svg>