<?xml version="1.0" encoding="UTF-8"?>
<svg width="970px" height="254px" viewBox="0 0 970 254" version="1.1"
    xmlns="http://www.w3.org/2000/svg" xmlns:xlink="http://www.w3.org/1999/xlink">
    <title>Aeroplane_1 Animation-02</title>
    <g id="Page-1" stroke="none" stroke-width="1" fill="none" fill-rule="evenodd">
        <g id="Aeroplane_1-Animation-02" transform="translate(0.500000, 0.900000)"
            fill-rule="nonzero">
            <g id="Group" transform="translate(112.600000, -0.000000)">
                <g transform="translate(575.032044, 197.460612)">
                    <g id="Path">
                        <path
                            d="M79.6679557,4.03938769 C74.6679557,2.53938769 66.6679557,1.43938769 59.7679557,1.53938769 C46.1679557,1.63938769 32.5679557,3.73938769 19.7679557,7.53938769 C13.4679557,9.43938769 6.76795573,12.1393877 3.86795573,17.4393877 C1.26795573,22.2393877 2.56795573,28.2393877 5.96795573,32.7393877 C9.36795573,37.1393877 14.5679557,40.3393877 19.8679557,42.9393877 C33.1679557,49.3393877 48.2679557,52.8393877 63.4679557,52.8393877 C67.8679557,52.8393877 72.7679557,52.4393877 75.6679557,49.5393877 C78.0679557,47.1393877 78.4679557,43.8393877 78.7679557,40.6393877 C79.7679557,28.8393877 80.7679557,21.4393877 79.6679557,9.63938769"
                            fill="#A914B0"></path>
                        <path
                            d="M14.7679557,37.1393877 C17.6679557,39.0393877 20.8679557,40.5393877 24.0679557,41.9393877 C27.2679557,43.3393877 30.4679557,44.5393877 33.6679557,45.6393877 C40.0679557,47.7393877 46.4679557,49.0393877 52.6679557,49.8393877 C55.7679557,50.2393877 58.7679557,50.4393877 61.6679557,50.5393877 C64.6679557,50.6393877 67.3679557,50.6393877 69.8679557,50.1393877 C72.3679557,49.6393877 74.2679557,48.5393877 75.2679557,46.8393877 C76.3679557,45.1393877 76.7679557,42.7393877 76.9679557,40.4393877 C77.4679557,35.6393877 78.0679557,31.3393877 78.3679557,27.5393877 C78.7679557,23.7393877 78.9679557,20.5393877 79.0679557,17.8393877 C79.2679557,12.5393877 79.2679557,9.53938769 79.6679557,9.53938769 C79.9679557,9.53938769 80.6679557,12.4393877 81.0679557,17.8393877 C81.2679557,20.5393877 81.3679557,23.8393877 81.2679557,27.7393877 C81.1679557,31.6393877 80.8679557,35.9393877 80.5679557,40.7393877 C80.5679557,41.9393877 80.3679557,43.2393877 80.1679557,44.6393877 C79.8679557,46.0393877 79.4679557,47.4393877 78.6679557,48.8393877 C77.8679557,50.2393877 76.6679557,51.5393877 75.2679557,52.3393877 C73.8679557,53.2393877 72.3679557,53.8393877 70.7679557,54.1393877 C67.6679557,54.8393877 64.5679557,54.9393877 61.5679557,54.9393877 C58.4679557,54.9393877 55.3679557,54.7393877 52.0679557,54.4393877 C45.5679557,53.7393877 38.8679557,52.4393877 32.0679557,50.3393877 C28.6679557,49.2393877 25.2679557,48.0393877 21.9679557,46.5393877 C18.6679557,45.0393877 15.2679557,43.4393877 11.9679557,41.3393877 C8.66795573,39.2393877 5.66795573,36.6393877 3.36795573,33.3393877 C1.06795573,30.0393877 -0.332044268,25.9393877 0.0679557323,21.7393877 C0.267955732,19.6393877 0.867955732,17.6393877 1.86795573,15.8393877 C2.86795573,14.0393877 4.26795573,12.6393877 5.76795573,11.4393877 C8.76795573,9.03938769 11.9679557,7.63938769 15.0679557,6.53938769 C18.1679557,5.43938769 21.2679557,4.63938769 24.1679557,3.93938769 C27.1679557,3.23938769 30.0679557,2.63938769 32.8679557,2.13938769 C38.4679557,1.13938769 43.8679557,0.539387691 48.6679557,0.239387691 C53.5679557,-0.0606123087 57.8679557,-0.0606123087 61.7679557,0.139387691 C65.6679557,0.339387691 68.9679557,0.839387691 71.6679557,1.33938769 C77.0679557,2.43938769 79.7679557,3.73938769 79.6679557,4.03938769 C79.5679557,4.43938769 76.6679557,3.73938769 71.3679557,3.33938769 C68.7679557,3.13938769 65.4679557,2.93938769 61.7679557,3.03938769 C58.0679557,3.03938769 53.6679557,3.43938769 48.9679557,3.93938769 C44.2679557,4.43938769 39.0679557,5.23938769 33.6679557,6.33938769 C30.9679557,6.93938769 28.1679557,7.53938769 25.2679557,8.33938769 C22.3679557,9.13938769 19.4679557,9.93938769 16.6679557,11.0393877 C13.8679557,12.1393877 11.0679557,13.4393877 8.86795573,15.2393877 C6.66795573,17.1393877 5.16795573,19.4393877 5.06795573,22.2393877 C4.86795573,25.0393877 5.86795573,28.0393877 7.56795573,30.5393877 C9.36795573,33.0393877 11.8679557,35.2393877 14.7679557,37.1393877 L14.7679557,37.1393877 Z"
                            fill="#4E4F6F"></path>
                    </g>
                    <ellipse id="Oval" stroke="#34365A" stroke-width="2" fill="#34365A"
                        cx="78.3679557" cy="26.8393877" rx="7.3" ry="23.4"></ellipse>
                </g>
                <g transform="translate(50.860770, 127.300000)" id="Path">
                    <path
                        d="M795.43923,47.8 C799.73923,50.5 803.03923,54.7 804.43923,59.5 C815.23923,96.8 681.93923,98.3 681.93923,98.3 C681.93923,98.3 269.53923,107.1 169.23923,89.4 C123.43923,81.3 70.1392305,61.9 26.4392305,46 C17.5392305,42.7 7.33923048,37.2 3.23923048,29.4 C0.839230485,24.9 4.03923048,19.4 9.13923048,19 C221.53923,1.9 434.83923,1.6 647.93923,1.4 C673.33923,1.4 699.03923,1.7 723.93923,7.3 C748.83923,12.9 748.13923,14.2 759.13923,20.4 C772.43923,27.9 782.53923,39.5 795.53923,47.7 L795.43923,47.8 Z"
                        fill="#BBD4FF"></path>
                    <path
                        d="M13.5392305,42.8 C10.3392305,40.9 7.23923048,38.6 4.63923048,35.7 C3.33923048,34.2 2.13923048,32.7 1.13923048,30.9 C0.639230485,29.9 0.139230485,28.7 0.0392304845,27.5 C-0.0607695155,26.3 0.0392304845,25 0.239230485,23.9 C0.839230485,21.6 2.33923048,19.5 4.33923048,18.2 C5.33923048,17.6 6.43923048,17.1 7.63923048,16.8 C7.93923048,16.8 8.23923048,16.8 8.53923048,16.7 L9.33923048,16.7 L10.6392305,16.5 C14.1392305,16.2 17.7392305,16 21.2392305,15.7 C35.3392305,14.6 49.3392305,13.5 63.2392305,12.7 C77.1392305,11.8 90.9392305,10.8 104.63923,10.1 C111.53923,9.7 118.33923,9.3 125.13923,8.9 C131.93923,8.5 138.73923,8.2 145.43923,7.9 C199.33923,5.2 251.43923,3.5 301.03923,2.4 C400.23923,0.1 489.63923,-1.13686838e-13 564.63923,-1.13686838e-13 C583.43923,-1.13686838e-13 601.23923,-1.13686838e-13 618.13923,-1.13686838e-13 C626.53923,-1.13686838e-13 634.83923,-1.13686838e-13 642.73923,-1.13686838e-13 C650.73923,-1.13686838e-13 658.43923,-1.13686838e-13 665.83923,0.2 C680.73923,0.5 694.73923,1.4 707.43923,3.2 C720.13923,5.1 731.63923,7.8 741.53923,11.5 C751.43923,15.1 759.83923,19.5 766.43923,24.3 C773.03923,29.1 778.03923,33.7 782.23923,37.3 C786.43923,40.9 789.73923,43.5 791.93923,45.2 C794.23923,46.9 795.43923,47.7 795.33923,47.8 C795.33923,47.8 795.03923,47.7 794.33923,47.3 C793.73923,46.9 792.73923,46.4 791.63923,45.6 C789.23923,44 785.83923,41.5 781.53923,38.1 C777.23923,34.7 772.03923,30.1 765.53923,25.5 C758.93923,20.9 750.63923,16.8 740.83923,13.3 C731.03923,9.8 719.63923,7.2 707.03923,5.5 C694.43923,3.8 680.63923,3.1 665.73923,2.9 C658.33923,2.9 650.63923,2.9 642.63923,2.9 C634.63923,2.9 626.43923,2.9 618.03923,3 C601.13923,3 583.23923,3.2 564.53923,3.3 C489.53923,3.8 400.23923,4.3 301.03923,6.8 C251.43923,8.1 199.43923,9.9 145.53923,12.6 C138.83923,13 132.03923,13.3 125.23923,13.6 C118.43923,14 111.63923,14.4 104.73923,14.8 C91.0392305,15.5 77.2392305,16.5 63.3392305,17.4 C49.4392305,18.3 35.4392305,19.4 21.3392305,20.5 C17.8392305,20.8 14.3392305,21 10.7392305,21.3 L9.03923048,21.3 L8.83923048,21.5 L8.43923048,21.5 C7.83923048,21.7 7.33923048,21.9 6.83923048,22.2 C6.33923048,22.5 5.93923048,22.9 5.63923048,23.4 C5.33923048,23.9 5.03923048,24.4 4.93923048,25 C4.63923048,26.1 4.73923048,27.2 5.33923048,28.3 C6.03923048,29.7 7.03923048,30.9 8.13923048,32.1 C10.3392305,34.5 13.0392305,36.5 15.9392305,38.3 C18.8392305,40.1 21.9392305,41.5 25.1392305,42.8 C26.7392305,43.4 28.4392305,44 30.0392305,44.6 L35.0392305,46.4 C41.7392305,48.8 48.4392305,51.2 55.0392305,53.6 C68.3392305,58.3 81.5392305,62.9 94.8392305,67.2 C108.03923,71.5 121.23923,75.5 134.43923,79 C147.63923,82.5 160.83923,85.5 174.03923,87.6 C187.23923,89.6 200.53923,90.9 213.73923,91.9 C226.93923,92.9 240.03923,93.6 252.93923,94.3 C278.83923,95.5 304.23923,96.3 329.03923,96.9 C378.63923,98 425.73923,98.3 469.83923,98.4 C513.93923,98.4 555.03923,98.2 592.53923,97.9 C611.33923,97.7 629.13923,97.5 646.03923,97.3 C654.43923,97.2 662.73923,97.1 670.63923,97 C674.63923,97 678.53923,96.9 682.43923,96.8 C686.23923,96.8 690.03923,96.6 693.73923,96.5 C708.63923,95.9 722.43923,94.8 735.03923,93.3 C747.63923,91.8 759.13923,89.9 769.23923,87.3 C779.33923,84.7 788.13923,81.7 794.83923,77.3 C796.53923,76.2 797.93923,75 799.33923,73.8 C800.63923,72.5 801.73923,71.2 802.53923,69.8 C804.23923,67 804.43923,63.9 804.03923,61.2 C803.53923,58.6 802.63923,56.3 801.53923,54.6 C800.43923,52.8 799.33923,51.5 798.33923,50.5 C796.33923,48.5 795.03923,47.8 795.13923,47.7 C795.13923,47.7 795.53923,47.8 796.13923,48.2 C796.73923,48.6 797.63923,49.2 798.73923,50.1 C799.83923,51 801.03923,52.4 802.23923,54.1 C803.43923,55.9 804.53923,58.2 805.13923,61 C805.63923,63.8 805.43923,67.2 803.73923,70.4 C802.93923,72 801.73923,73.5 800.43923,74.8 C799.03923,76.2 797.53923,77.4 795.83923,78.6 C789.03923,83.2 780.03923,86.5 769.83923,89.2 C759.63923,91.9 748.13923,94 735.43923,95.7 C722.73923,97.3 708.83923,98.6 693.93923,99.3 C690.23923,99.5 686.43923,99.6 682.53923,99.7 C678.63923,99.7 674.73923,99.9 670.83923,100 C662.83923,100.2 654.63923,100.3 646.23923,100.5 C629.33923,100.8 611.43923,101.1 592.73923,101.4 C555.23923,102 514.13923,102.4 470.03923,102.5 C425.93923,102.6 378.73923,102.5 329.13923,101.5 C304.33923,101 278.93923,100.3 252.93923,99.1 C239.93923,98.5 226.83923,97.8 213.63923,96.8 C200.43923,95.8 187.03923,94.6 173.53923,92.5 C160.03923,90.4 146.73923,87.3 133.33923,83.9 C120.03923,80.4 106.73923,76.4 93.4392305,72.1 C80.1392305,67.8 66.8392305,63.2 53.5392305,58.5 C46.8392305,56.1 40.2392305,53.7 33.5392305,51.3 L28.5392305,49.5 C26.8392305,48.9 25.2392305,48.3 23.4392305,47.6 C20.0392305,46.2 16.6392305,44.7 13.4392305,42.7 L13.5392305,42.8 Z"
                        fill="#4E4F6F"></path>
                </g>
                <path
                    d="M91.1,175.5 C133.4,190.9 176.1,208.6 219.4,216.2 C319.8,233.9 732.1,225.1 732.1,225.1 C732.1,225.1 860,223.7 855,188.6 C852.2,191.6 848.8,194 845.1,195.7 C835.8,199.9 825.4,200.2 815.2,200.4 C571.1,205.3 334.2,197 90.9,175.5 L91.1,175.5 L91.1,175.5 Z"
                    id="Path" fill="#64A9E8"></path>
                <path
                    d="M769.4,166.6 C775.5,167.2 781.6,167.5 787.7,167.5 C788.2,167.5 788.6,167.5 789.1,167.5 C795.5,167.5 801.9,167 808.3,166.3 C808.9,166.3 809.6,166.2 810.2,166.1 C816.7,165.3 823.2,164.2 829.6,162.7 C824.9,158.7 820.2,154.8 815.1,151.4 C813.2,151.7 809.7,151.8 805.8,151.7 C805.2,151.7 804.6,151.7 803.9,151.7 C799,151.7 793.7,151.4 789.7,151.3 L788.3,151.3 C786.6,151.3 785.2,151.2 784.4,151.3 C780.2,151.5 775.9,152.6 772.7,155.3 C769.5,158.1 767.8,162.8 769.4,166.6 L769.4,166.6 Z"
                    id="Path" fill="#34365A"></path>
                <g transform="translate(229.800000, 173.400000)" id="Path">
                    <path
                        d="M345.5,31.1 C349.2,28.6 355.2,25.6 355,20.9 C354.8,16.2 351,12.2 346.6,10.4 C342.2,8.6 337.4,8.5 332.6,8.4 L4.7,2.6 C2.9,2.6 1.8,4.6 2.8,6.1 C9,14.7 22.1,17 33.2,17.9 C116.4,25 199.6,32.2 282.8,39.3 C298.3,40.6 314.3,41.9 329.3,37.8 C338.3,35.3 346.8,30.9 354.1,25"
                        fill="#FFFFFF"></path>
                    <path
                        d="M8.1,5.2 L4.7,5.2 C4.7,5.2 4.7,4.8 4.7,4.9 C4.7,4.7 4.7,4.7 4.7,4.7 L4.7,4.7 C4.7,4.7 4.7,4.7 4.6,4.7 C4.6,4.7 4.6,4.7 4.8,4.7 C4.7,4.7 5,4.5 5,4.7 L5,4.7 L5.2,5 L5.5,5.4 C7.2,7.5 9.5,9.2 12,10.5 C17.1,13.1 23.1,14.3 29.1,15 C30.6,15.2 32.1,15.3 33.6,15.5 C35.1,15.6 36.7,15.8 38.2,15.9 C41.3,16.2 44.3,16.4 47.3,16.7 C53.4,17.2 59.4,17.7 65.3,18.3 C89.1,20.4 112.1,22.4 134,24.3 C177.8,28.2 217.2,31.8 250.3,34.8 C258.6,35.6 266.5,36.3 273.9,37 C281.4,37.7 288.4,38.4 294.9,38.9 C301.4,39.4 307.5,39.5 313.1,39.2 C318.7,38.9 323.7,38.2 328.2,37.1 C337.1,34.9 343.5,31.5 347.7,29 C351.9,26.5 353.9,24.9 354,25 C354,25 353.6,25.5 352.7,26.4 C351.8,27.2 350.3,28.4 348.3,29.8 C344.3,32.6 337.9,36.4 328.8,38.9 C324.3,40.2 319.1,41.1 313.4,41.5 C307.7,42 301.5,41.9 294.8,41.5 C288.2,41.2 281.1,40.6 273.7,40 C266.2,39.4 258.3,38.8 250.1,38.2 C217,35.6 177.5,32.4 133.7,28.8 C111.8,27 88.8,25 65,23.1 C59,22.6 53,22.1 47,21.6 C44,21.3 40.9,21.1 37.9,20.8 C36.4,20.7 34.8,20.5 33.3,20.4 C31.7,20.3 30.2,20.1 28.6,19.9 C22.3,19.1 15.9,17.9 9.8,14.9 C6.8,13.4 3.9,11.3 1.6,8.5 L1.2,8 L1,7.7 C1,7.6 0.9,7.6 0.8,7.4 C0.3,6.7 0,5.9 0,5 C0,3.3 0.8,1.6 2.3,0.7 C3,0.2 3.9,0 4.7,0 C5,0 5,0 5.1,0 L8.4,0 C109.8,1.9 201.7,3.8 268.2,5.4 C284.8,5.8 299.9,6.2 313.1,6.6 C319.7,6.8 325.8,7 331.5,7.1 C334.3,7.1 337.1,7.2 339.7,7.6 C342.3,7.9 344.9,8.5 347.1,9.4 C351.6,11.4 354.8,15 355.7,18.8 C355.9,19.8 356,20.6 355.9,21.6 C355.8,22.5 355.5,23.4 355.1,24.1 C354.3,25.5 353.2,26.5 352.2,27.3 C350.2,28.8 348.5,29.7 347.5,30.3 C346.4,30.9 345.8,31.2 345.8,31.1 C345.8,31.1 346.2,30.6 347.3,29.9 C348.3,29.1 349.9,28.1 351.7,26.5 C352.6,25.7 353.5,24.7 354.1,23.5 C354.4,22.9 354.6,22.2 354.6,21.5 C354.6,20.8 354.5,20 354.3,19.2 C353.4,16 350.5,12.9 346.4,11.3 C344.3,10.5 342,10 339.5,9.8 C337,9.6 334.3,9.6 331.5,9.6 C325.8,9.6 319.7,9.6 313.1,9.5 C299.9,9.4 284.9,9.2 268.2,9.1 C201.7,8.4 109.9,7 8.4,5.2 L8.1,5.2 Z"
                        fill="#4E4F6F"></path>
                </g>
                <path
                    d="M803.9,151.7 C804.2,153.7 804.9,156.5 805.9,159.5 C806.7,162.1 807.6,164.5 808.4,166.3 C809,166.3 809.7,166.2 810.3,166.1 C809.9,164.2 809.3,161.6 808.4,158.8 C807.6,156 806.7,153.6 805.9,151.8 C805.3,151.8 804.7,151.8 803.9,151.7 L803.9,151.7 Z"
                    id="Path" fill="#C4D9FF"></path>
                <path
                    d="M787.7,167.4 C788.2,167.4 788.6,167.4 789.1,167.4 C789.5,165.7 789.8,162.7 790,159.3 C790.1,155.9 790,153 789.7,151.2 L788.3,151.2 C787.9,152.9 787.6,155.8 787.5,159.2 C787.4,162.6 787.5,165.7 787.7,167.4 L787.7,167.4 Z"
                    id="Path" fill="#C4D9FF"></path>
                <g transform="translate(470.232044, 197.460612)">
                    <g id="Path">
                        <path
                            d="M79.6679557,4.03938769 C74.6679557,2.53938769 66.6679557,1.43938769 59.7679557,1.53938769 C46.1679557,1.63938769 32.5679557,3.73938769 19.7679557,7.53938769 C13.4679557,9.43938769 6.76795573,12.1393877 3.86795573,17.4393877 C1.26795573,22.2393877 2.56795573,28.2393877 5.96795573,32.7393877 C9.36795573,37.1393877 14.5679557,40.3393877 19.8679557,42.9393877 C33.1679557,49.3393877 48.2679557,52.8393877 63.4679557,52.8393877 C67.8679557,52.8393877 72.7679557,52.4393877 75.6679557,49.5393877 C78.0679557,47.1393877 78.4679557,43.8393877 78.7679557,40.6393877 C79.7679557,28.8393877 80.7679557,21.4393877 79.6679557,9.63938769"
                            fill="#A914B0"></path>
                        <path
                            d="M14.7679557,37.1393877 C17.6679557,39.0393877 20.8679557,40.5393877 24.0679557,41.9393877 C27.2679557,43.3393877 30.4679557,44.5393877 33.6679557,45.6393877 C40.0679557,47.7393877 46.4679557,49.0393877 52.6679557,49.8393877 C55.7679557,50.2393877 58.7679557,50.4393877 61.6679557,50.5393877 C64.6679557,50.6393877 67.3679557,50.6393877 69.8679557,50.1393877 C72.3679557,49.6393877 74.2679557,48.5393877 75.2679557,46.8393877 C76.3679557,45.1393877 76.7679557,42.7393877 76.9679557,40.4393877 C77.4679557,35.6393877 78.0679557,31.3393877 78.3679557,27.5393877 C78.7679557,23.7393877 78.9679557,20.5393877 79.0679557,17.8393877 C79.2679557,12.5393877 79.2679557,9.53938769 79.6679557,9.53938769 C79.9679557,9.53938769 80.6679557,12.4393877 81.0679557,17.8393877 C81.2679557,20.5393877 81.3679557,23.8393877 81.2679557,27.7393877 C81.1679557,31.6393877 80.8679557,35.9393877 80.5679557,40.7393877 C80.5679557,41.9393877 80.3679557,43.2393877 80.1679557,44.6393877 C79.8679557,46.0393877 79.4679557,47.4393877 78.6679557,48.8393877 C77.8679557,50.2393877 76.6679557,51.5393877 75.2679557,52.3393877 C73.8679557,53.2393877 72.3679557,53.8393877 70.7679557,54.1393877 C67.6679557,54.8393877 64.5679557,54.9393877 61.5679557,54.9393877 C58.4679557,54.9393877 55.3679557,54.7393877 52.0679557,54.4393877 C45.5679557,53.7393877 38.8679557,52.4393877 32.0679557,50.3393877 C28.6679557,49.2393877 25.2679557,48.0393877 21.9679557,46.5393877 C18.6679557,45.0393877 15.2679557,43.4393877 11.9679557,41.3393877 C8.66795573,39.2393877 5.66795573,36.6393877 3.36795573,33.3393877 C1.06795573,30.0393877 -0.332044268,25.9393877 0.0679557323,21.7393877 C0.267955732,19.6393877 0.867955732,17.6393877 1.86795573,15.8393877 C2.86795573,14.0393877 4.26795573,12.6393877 5.76795573,11.4393877 C8.76795573,9.03938769 11.9679557,7.63938769 15.0679557,6.53938769 C18.1679557,5.43938769 21.2679557,4.63938769 24.1679557,3.93938769 C27.1679557,3.23938769 30.0679557,2.63938769 32.8679557,2.13938769 C38.4679557,1.13938769 43.8679557,0.539387691 48.6679557,0.239387691 C53.5679557,-0.0606123087 57.8679557,-0.0606123087 61.7679557,0.139387691 C65.6679557,0.339387691 68.9679557,0.839387691 71.6679557,1.33938769 C77.0679557,2.43938769 79.7679557,3.73938769 79.6679557,4.03938769 C79.5679557,4.43938769 76.6679557,3.73938769 71.3679557,3.33938769 C68.7679557,3.13938769 65.4679557,2.93938769 61.7679557,3.03938769 C58.0679557,3.03938769 53.6679557,3.43938769 48.9679557,3.93938769 C44.2679557,4.43938769 39.0679557,5.23938769 33.6679557,6.33938769 C30.9679557,6.93938769 28.1679557,7.53938769 25.2679557,8.33938769 C22.3679557,9.13938769 19.4679557,9.93938769 16.6679557,11.0393877 C13.8679557,12.1393877 11.0679557,13.4393877 8.86795573,15.2393877 C6.66795573,17.1393877 5.16795573,19.4393877 5.06795573,22.2393877 C4.86795573,25.0393877 5.86795573,28.0393877 7.56795573,30.5393877 C9.36795573,33.0393877 11.8679557,35.2393877 14.7679557,37.1393877 L14.7679557,37.1393877 Z"
                            fill="#4E4F6F"></path>
                    </g>
                    <path
                        d="M5.46795573,19.8393877 C27.9679557,14.8393877 49.8679557,13.9393877 72.7679557,17.0393877 L74.1679557,9.43938769 C53.2679557,6.33938769 33.4679557,7.63938769 12.9679557,12.5393877 C12.9679557,12.5393877 8.26795573,14.6393877 7.06795573,17.0393877 C5.86795573,19.3393877 5.56795573,19.8393877 5.46795573,19.8393877 L5.46795573,19.8393877 Z"
                        id="Path" fill="#FFFFFF"></path>
                    <ellipse id="Oval" stroke="#34365A" stroke-width="2" fill="#34365A"
                        cx="78.3679557" cy="26.8393877" rx="7.3" ry="23.4"></ellipse>
                </g>
                <g transform="translate(68.600000, 0.000000)" id="Path">
                    <path
                        d="M168.6,135.4 C168.8,135.4 168.8,135.2 168.6,135.1 C143.2,132.5 121.5,114.7 106.2,94.1 C90.5,73 79.9,48.6 65.4,26.7 C60.4,19.1 54.6,11.5 46.6,7.1 C33.5,-0.1 17.4,2.5 2.7,5.3 L29.1,141.4 C29.1,141.8 29.5,142 29.9,142 C39.5,140.7 152.1,136.1 168.6,135.4 L168.6,135.4 Z"
                        fill="#A914B0"></path>
                    <path
                        d="M10.1,29.6 C16.8,63.9 23,96.7 28.7,126.5 C29.4,130.2 30.1,133.9 30.8,137.5 C31,138.4 31.1,139.3 31.3,140.2 L31.3,140.9 L31.5,141.1 L30,141.4 L30,141.4 L30,141.4 C30.2,142.8 29.7,139.5 29.8,139.8 L30.6,139.8 C32.5,139.5 34.3,139.4 36.1,139.3 C43.3,138.9 50.3,138.6 57,138.3 C70.5,137.7 83,137.2 94.5,136.8 C117.4,136 136,135.5 148.8,135.3 C155.2,135.2 160.2,135.1 163.6,135.2 C167,135.2 168.8,135.3 168.8,135.5 C168.8,135.7 167,135.9 163.7,136.2 C160.3,136.5 155.4,136.9 149,137.3 C136.2,138.1 117.7,139.2 94.8,140.5 C83.4,141.1 70.8,141.8 57.4,142.6 C50.7,143 43.7,143.4 36.6,143.9 C34.8,144 33,144.2 31.3,144.3 L30.3,144.3 C30.1,144.4 29.8,144.3 29.6,144.3 C29.1,144.3 28.7,144 28.3,143.7 C27.9,143.4 27.6,143 27.4,142.6 C27.4,142.4 27.2,142.1 27.2,142 L27.2,141.8 L27,141.1 C26.8,140.2 26.6,139.3 26.5,138.4 C25.8,134.8 25.1,131.1 24.3,127.4 C18.4,97.7 12,65 5.3,30.6 C3.7,22.3 2.1,14.1 0.5,5.9 L0,3.4 L2.5,2.9 C10.4,1.4 18.4,0 26.5,0 C30.5,0 34.6,0.4 38.5,1.3 C42.4,2.2 46.2,3.8 49.7,5.9 C53.1,8.1 56.1,10.7 58.7,13.5 C61.3,16.3 63.6,19.3 65.6,22.3 C69.7,28.4 73.4,34.4 76.8,40.4 C83.6,52.3 89.6,63.8 95.8,74.2 C98.9,79.4 101.9,84.3 105.1,88.9 C108.3,93.5 111.5,97.7 114.8,101.6 C121.4,109.3 128.2,115.5 134.7,120.2 C141.2,124.9 147.3,128.1 152.5,130.2 C155.1,131.3 157.5,132 159.5,132.7 C161.6,133.2 163.4,133.7 164.8,134.1 C166.3,134.4 167.4,134.6 168.1,134.8 C168.3,134.8 168.4,134.8 168.6,134.9 C168.7,134.9 168.8,134.9 169,135.1 C169.1,135.3 169,135.4 169,135.4 L168.9,135.4 L168.9,135.3 C168.9,135.3 168.8,135.3 168.6,135.3 L168.1,135.3 C167.3,135.3 166.2,135.2 164.7,135.1 C163.2,134.9 161.4,134.6 159.2,134.2 C157.1,133.7 154.6,133.1 151.9,132.1 C146.5,130.2 140,127.2 133.2,122.6 C126.4,117.9 119.2,111.8 112.3,104.1 C108.8,100.2 105.4,96 102.1,91.3 C98.8,86.7 95.6,81.7 92.4,76.5 C86,66.1 79.9,54.6 73,42.9 C69.5,37 65.9,31.1 61.9,25.2 C57.9,19.4 53.2,13.9 47.3,10.2 C44.3,8.4 41,7.1 37.6,6.2 C34.1,5.4 30.4,5 26.7,5 C19.2,5 11.5,6.3 3.7,7.9 L5.7,4.9 C7.3,13 8.9,21.2 10.5,29.5 L10.1,29.6 Z"
                        fill="#4E4F6F"></path>
                </g>
                <g transform="translate(-0.000000, 149.600000)" id="Path">
                    <path
                        d="M106.5,17.4 C115.1,18.9 151.5,23.3 145.9,9.5 C143.9,4.6 137.3,3.9 132.1,3.9 C88.2,3.5 44.4,3.1 0.5,2.7 L127.7,20.4"
                        fill="#A914B0"></path>
                    <path
                        d="M32.8,5.5 C21.7,5.4 10.8,5.3 0.4,5.1 L0.8,0.1 C37.1,5.3 68.9,10 91.5,13.6 C102.8,15.4 111.9,16.9 118.1,18.1 C124.3,19.2 127.7,20 127.6,20.3 C127.6,20.6 124.1,20.4 117.8,19.8 C111.5,19.2 102.4,18.2 91,16.8 C68.2,14.1 36.4,10 0,5 L0.4,0 C10.9,0 21.7,0.2 32.8,0.3 C55,0.5 76.2,0.8 95.4,1.1 C105,1.3 114.2,1.4 122.7,1.6 C124.8,1.6 126.9,1.6 129,1.7 C130,1.7 131.1,1.7 132.1,1.7 C133.1,1.7 134.2,1.7 135.2,1.9 C137.3,2.1 139.4,2.4 141.4,3.2 C143.4,4 145.4,5.3 146.7,7.3 C147,7.8 147.2,8.3 147.5,8.8 C147.7,9.3 147.8,9.8 148,10.4 C148.2,11.5 148.3,12.7 147.9,13.9 C147.8,14.5 147.4,15 147.2,15.5 C146.9,16 146.5,16.4 146.1,16.8 C145.3,17.5 144.4,18 143.6,18.4 C140.2,19.9 137,20.2 134,20.4 C128.1,20.7 123.1,20.3 119,19.8 C110.9,18.8 106.5,17.6 106.5,17.3 C106.5,16.9 111,17.5 119.1,17.8 C123.1,17.9 128.1,18.1 133.7,17.5 C136.5,17.2 139.5,16.7 142.1,15.4 C143.3,14.8 144.4,13.9 144.6,12.9 C144.8,12.4 144.6,11.8 144.6,11.2 C144.6,10.9 144.4,10.5 144.3,10.2 C144.1,9.9 144,9.6 143.8,9.3 C143.1,8.2 141.8,7.4 140.3,6.8 C138.8,6.3 137,6 135.1,5.9 C134.2,5.9 133.2,5.9 132.2,5.9 C131.2,5.9 130.2,5.9 129.1,5.9 C127,5.9 124.9,5.9 122.8,5.9 C114.2,5.9 105.1,5.9 95.5,5.9 C76.3,5.9 55.1,5.7 32.8,5.5 L32.8,5.5 Z"
                        fill="#4E4F6F"></path>
                </g>
                <g transform="translate(240.700000, 155.700000)" id="Path">
                    <g transform="translate(442.300000, 0.000000)">
                        <path
                            d="M3.5,0.2 C4.7,0.3 5.6,1.4 6,2.5 C6.4,3.6 6.3,4.9 6.3,6.1 C6.3,6.8 6.3,7.6 6,8.3 C5.7,9 5.3,9.6 4.6,9.9 C3.5,10.3 2.2,9.5 1.6,8.5 C1,7.4 1,6.2 1,4.9 C1,3.7 1,2.5 1.6,1.5 C2.2,0.5 3.7,1.13686838e-13 4.6,0.8"
                            fill="#E0EBFF"></path>
                        <path
                            d="M3,10.8 C1.8,10.4 1,9.6 0.5,8.6 C0.1,7.6 -1.13686838e-13,6.7 -1.13686838e-13,5.9 C-1.13686838e-13,5.1 -1.13686838e-13,4.4 -1.13686838e-13,3.6 C-1.13686838e-13,2.9 0.3,2.1 0.6,1.5 C0.9,0.9 1.5,0.4 2,0.2 C2.5,0 3,0 3.4,0 C4.2,0.2 4.4,0.7 4.3,0.8 C4.3,0.9 3.9,0.8 3.4,0.8 C2.9,0.8 2.1,1.3 1.8,2.1 C1.4,2.9 1.5,4.3 1.6,5.8 C1.6,6.5 1.8,7.2 2,7.8 C2.2,8.3 2.8,8.8 3.3,9 C3.8,9.1 4.2,9 4.5,8.5 C4.8,8 5,7.4 5.1,6.7 C5.3,5.2 5.4,3.9 5.1,2.9 C4.9,1.9 4.4,1.2 3.9,0.9 C3.5,0.5 3.1,0.4 3.1,0.3 C3.1,0.2 3.5,0 4.2,0.3 C4.9,0.6 5.8,1.3 6.3,2.6 C6.8,3.9 6.8,5.4 6.7,7 C6.7,7.8 6.5,8.8 5.9,9.8 C5.6,10.3 5.1,10.7 4.5,10.9 C3.9,11.2 3.2,11.2 2.6,10.9 L3,10.8 Z"
                            fill="#4E4F6F"></path>
                    </g>
                    <g transform="translate(428.000000, 0.000000)">
                        <path
                            d="M3.5,0.2 C4.7,0.3 5.6,1.4 6,2.5 C6.4,3.6 6.3,4.9 6.3,6.1 C6.3,6.8 6.3,7.6 6,8.3 C5.7,9 5.3,9.6 4.6,9.9 C3.5,10.3 2.2,9.5 1.6,8.5 C1,7.4 1,6.2 1,4.9 C1,3.7 1,2.5 1.6,1.5 C2.2,0.5 3.7,1.13686838e-13 4.6,0.8"
                            fill="#E0EBFF"></path>
                        <path
                            d="M3,10.8 C1.8,10.4 1,9.6 0.5,8.6 C0.1,7.6 0,6.7 0,5.9 C0,5.1 0,4.4 0,3.6 C0,2.9 0.3,2.1 0.6,1.5 C0.9,0.9 1.5,0.4 2,0.2 C2.5,0 3,0 3.4,0 C4.2,0.2 4.4,0.7 4.3,0.8 C4.3,0.9 3.9,0.8 3.4,0.8 C2.9,0.8 2.1,1.3 1.8,2.1 C1.4,2.9 1.5,4.3 1.6,5.8 C1.6,6.5 1.8,7.2 2,7.8 C2.2,8.3 2.8,8.8 3.3,9 C3.8,9.1 4.2,9 4.5,8.5 C4.8,8 5,7.4 5.1,6.7 C5.3,5.2 5.4,3.9 5.1,2.9 C4.9,1.9 4.4,1.2 3.9,0.9 C3.5,0.5 3.1,0.4 3.1,0.3 C3.1,0.2 3.5,0 4.2,0.3 C4.9,0.6 5.8,1.3 6.3,2.6 C6.8,3.9 6.8,5.4 6.7,7 C6.7,7.8 6.5,8.8 5.9,9.8 C5.6,10.3 5.1,10.7 4.5,10.9 C3.9,11.2 3.2,11.2 2.6,10.9 L3,10.8 Z"
                            fill="#4E4F6F"></path>
                    </g>
                    <g transform="translate(413.800000, 0.000000)">
                        <path
                            d="M3.5,0.2 C4.7,0.3 5.6,1.4 6,2.5 C6.4,3.6 6.3,4.9 6.3,6.1 C6.3,6.8 6.3,7.6 6,8.3 C5.7,9 5.3,9.6 4.6,9.9 C3.5,10.3 2.2,9.5 1.6,8.5 C1,7.4 1,6.2 1,4.9 C1,3.7 1,2.5 1.6,1.5 C2.2,0.5 3.7,1.13686838e-13 4.6,0.8"
                            fill="#E0EBFF"></path>
                        <path
                            d="M3,10.8 C1.8,10.4 1,9.6 0.5,8.6 C0.1,7.6 -1.13686838e-13,6.7 -1.13686838e-13,5.9 C-1.13686838e-13,5.1 -1.13686838e-13,4.4 -1.13686838e-13,3.6 C-1.13686838e-13,2.9 0.3,2.1 0.6,1.5 C0.9,0.9 1.5,0.4 2,0.2 C2.5,0 3,0 3.4,0 C4.2,0.2 4.4,0.7 4.3,0.8 C4.3,0.9 3.9,0.8 3.4,0.8 C2.9,0.8 2.1,1.3 1.8,2.1 C1.4,2.9 1.5,4.3 1.6,5.8 C1.6,6.5 1.8,7.2 2,7.8 C2.2,8.3 2.8,8.8 3.3,9 C3.8,9.1 4.2,9 4.5,8.5 C4.8,8 5,7.4 5.1,6.7 C5.3,5.2 5.4,3.9 5.1,2.9 C4.9,1.9 4.4,1.2 3.9,0.9 C3.5,0.5 3.1,0.4 3.1,0.3 C3.1,0.2 3.5,0 4.2,0.3 C4.9,0.6 5.8,1.3 6.3,2.6 C6.8,3.9 6.8,5.4 6.7,7 C6.7,7.8 6.5,8.8 5.9,9.8 C5.6,10.3 5.1,10.7 4.5,10.9 C3.9,11.2 3.2,11.2 2.6,10.9 L3,10.8 Z"
                            fill="#4E4F6F"></path>
                    </g>
                    <g transform="translate(399.500000, 0.000000)">
                        <path
                            d="M3.5,0.2 C4.7,0.3 5.6,1.4 6,2.5 C6.4,3.6 6.3,4.9 6.3,6.1 C6.3,6.8 6.3,7.6 6,8.3 C5.7,9 5.3,9.6 4.6,9.9 C3.5,10.3 2.2,9.5 1.6,8.5 C1,7.4 1,6.2 1,4.9 C1,3.7 1,2.5 1.6,1.5 C2.2,0.5 3.7,1.13686838e-13 4.6,0.8"
                            fill="#E0EBFF"></path>
                        <path
                            d="M3,10.8 C1.8,10.4 1,9.6 0.5,8.6 C0.1,7.6 0,6.7 0,5.9 C0,5.1 0,4.4 0,3.6 C0,2.9 0.3,2.1 0.6,1.5 C0.9,0.9 1.5,0.4 2,0.2 C2.5,0 3,0 3.4,0 C4.2,0.2 4.4,0.7 4.3,0.8 C4.3,0.9 3.9,0.8 3.4,0.8 C2.9,0.8 2.1,1.3 1.8,2.1 C1.4,2.9 1.5,4.3 1.6,5.8 C1.6,6.5 1.8,7.2 2,7.8 C2.2,8.3 2.8,8.8 3.3,9 C3.8,9.1 4.2,9 4.5,8.5 C4.8,8 5,7.4 5.1,6.7 C5.3,5.2 5.4,3.9 5.1,2.9 C4.9,1.9 4.4,1.2 3.9,0.9 C3.5,0.5 3.1,0.4 3.1,0.3 C3.1,0.2 3.5,0 4.2,0.3 C4.9,0.6 5.8,1.3 6.3,2.6 C6.8,3.9 6.8,5.4 6.7,7 C6.7,7.8 6.5,8.8 5.9,9.8 C5.6,10.3 5.1,10.7 4.5,10.9 C3.9,11.2 3.2,11.2 2.6,10.9 L3,10.8 Z"
                            fill="#4E4F6F"></path>
                    </g>
                    <g transform="translate(385.200000, 0.000000)">
                        <path
                            d="M3.5,0.2 C4.7,0.3 5.6,1.4 6,2.5 C6.4,3.6 6.3,4.9 6.3,6.1 C6.3,6.8 6.3,7.6 6,8.3 C5.7,9 5.3,9.6 4.6,9.9 C3.5,10.3 2.2,9.5 1.6,8.5 C1,7.5 1,6.2 1,4.9 C1,3.7 1,2.5 1.6,1.5 C2.2,0.5 3.7,1.13686838e-13 4.6,0.8"
                            fill="#E0EBFF"></path>
                        <path
                            d="M3,10.8 C1.8,10.4 1,9.6 0.5,8.6 C0.1,7.6 0,6.7 0,5.9 C0,5.1 0,4.4 0,3.6 C0,2.9 0.3,2.1 0.6,1.5 C0.9,0.9 1.5,0.4 2,0.2 C2.5,0 3,0 3.4,0 C4.2,0.2 4.4,0.7 4.3,0.8 C4.3,0.9 3.9,0.8 3.4,0.8 C2.9,0.8 2.1,1.3 1.8,2.1 C1.4,2.9 1.5,4.3 1.6,5.8 C1.6,6.5 1.8,7.2 2,7.8 C2.2,8.3 2.8,8.8 3.3,9 C3.8,9.1 4.2,9 4.5,8.5 C4.8,8 5,7.4 5.1,6.7 C5.3,5.2 5.4,3.9 5.1,2.9 C4.9,1.9 4.4,1.2 3.9,0.9 C3.5,0.5 3.1,0.4 3.1,0.3 C3.1,0.2 3.5,0 4.2,0.3 C4.9,0.6 5.8,1.3 6.3,2.6 C6.8,3.9 6.8,5.4 6.7,7 C6.7,7.8 6.5,8.8 5.9,9.8 C5.6,10.3 5.1,10.7 4.5,10.9 C3.9,11.2 3.2,11.2 2.6,10.9 L3,10.8 Z"
                            fill="#4E4F6F"></path>
                    </g>
                    <g transform="translate(371.000000, 0.000000)">
                        <path
                            d="M3.4,0.2 C4.6,0.3 5.5,1.4 5.9,2.5 C6.3,3.6 6.2,4.9 6.2,6.1 C6.2,6.8 6.2,7.6 5.9,8.3 C5.6,9 5.2,9.6 4.5,9.9 C3.4,10.3 2.1,9.5 1.5,8.5 C0.9,7.5 0.9,6.2 0.9,4.9 C0.9,3.7 0.9,2.5 1.5,1.5 C2.1,0.5 3.6,1.13686838e-13 4.5,0.8"
                            fill="#E0EBFF"></path>
                        <path
                            d="M3,10.8 C1.8,10.4 1,9.6 0.5,8.6 C0.1,7.6 0,6.7 0,5.9 C0,5.1 0,4.4 0,3.6 C0,2.9 0.3,2.1 0.6,1.5 C0.9,0.9 1.5,0.4 2,0.2 C2.5,0 3,0 3.4,0 C4.2,0.2 4.4,0.7 4.3,0.8 C4.3,0.9 3.9,0.8 3.4,0.8 C2.9,0.8 2.1,1.3 1.8,2.1 C1.4,2.9 1.5,4.3 1.6,5.8 C1.6,6.5 1.8,7.2 2,7.8 C2.2,8.3 2.8,8.8 3.3,9 C3.8,9.1 4.2,9 4.5,8.5 C4.8,8 5,7.4 5.1,6.7 C5.3,5.2 5.4,3.9 5.1,2.9 C4.9,1.9 4.4,1.2 3.9,0.9 C3.5,0.5 3.1,0.4 3.1,0.3 C3.1,0.2 3.5,0 4.2,0.3 C4.9,0.6 5.8,1.3 6.3,2.6 C6.8,3.9 6.8,5.4 6.7,7 C6.7,7.8 6.5,8.8 5.9,9.8 C5.6,10.3 5.1,10.7 4.5,10.9 C3.9,11.2 3.2,11.2 2.6,10.9 L3,10.8 Z"
                            fill="#4E4F6F"></path>
                    </g>
                    <g transform="translate(356.700000, 0.000000)">
                        <path
                            d="M3.5,0.2 C4.7,0.3 5.6,1.4 6,2.5 C6.4,3.6 6.3,4.9 6.3,6.1 C6.3,6.8 6.3,7.6 6,8.3 C5.7,9 5.3,9.6 4.6,9.9 C3.5,10.3 2.2,9.5 1.6,8.5 C1,7.5 1,6.2 1,4.9 C1,3.7 1,2.5 1.6,1.5 C2.2,0.5 3.7,1.13686838e-13 4.6,0.8"
                            fill="#E0EBFF"></path>
                        <path
                            d="M3,10.8 C1.8,10.4 1,9.6 0.5,8.6 C0.1,7.6 0,6.7 0,5.9 C0,5.1 0,4.4 0,3.6 C0,2.9 0.3,2.1 0.6,1.5 C0.9,0.9 1.5,0.4 2,0.2 C2.5,0 3,0 3.4,0 C4.2,0.2 4.4,0.7 4.3,0.8 C4.3,0.9 3.9,0.8 3.4,0.8 C2.9,0.8 2.1,1.3 1.8,2.1 C1.4,2.9 1.5,4.3 1.6,5.8 C1.6,6.5 1.8,7.2 2,7.8 C2.2,8.3 2.8,8.8 3.3,9 C3.8,9.1 4.2,9 4.5,8.5 C4.8,8 5,7.4 5.1,6.7 C5.3,5.2 5.4,3.9 5.1,2.9 C4.9,1.9 4.4,1.2 3.9,0.9 C3.5,0.5 3.1,0.4 3.1,0.3 C3.1,0.2 3.5,0 4.2,0.3 C4.9,0.6 5.8,1.3 6.3,2.6 C6.8,3.9 6.8,5.4 6.7,7 C6.7,7.8 6.5,8.8 5.9,9.8 C5.6,10.3 5.1,10.7 4.5,10.9 C3.9,11.2 3.2,11.2 2.6,10.9 L3,10.8 Z"
                            fill="#4E4F6F"></path>
                    </g>
                    <g transform="translate(342.400000, 0.000000)">
                        <path
                            d="M3.5,0.2 C4.7,0.3 5.6,1.4 6,2.5 C6.4,3.6 6.3,4.9 6.3,6.1 C6.3,6.8 6.3,7.6 6,8.3 C5.7,9 5.3,9.6 4.6,9.9 C3.5,10.3 2.2,9.5 1.6,8.5 C1,7.5 1,6.2 1,4.9 C1,3.7 1,2.5 1.6,1.5 C2.2,0.5 3.7,1.13686838e-13 4.6,0.8"
                            fill="#E0EBFF"></path>
                        <path
                            d="M3,10.8 C1.8,10.4 1,9.6 0.5,8.6 C0.1,7.6 0,6.7 0,5.9 C0,5.1 0,4.4 0,3.6 C0,2.9 0.3,2.1 0.6,1.5 C0.9,0.9 1.5,0.4 2,0.2 C2.5,0 3,0 3.4,0 C4.2,0.2 4.4,0.7 4.3,0.8 C4.3,0.9 3.9,0.8 3.4,0.8 C2.9,0.8 2.1,1.3 1.8,2.1 C1.4,2.9 1.5,4.3 1.6,5.8 C1.6,6.5 1.8,7.2 2,7.8 C2.2,8.3 2.8,8.8 3.3,9 C3.8,9.1 4.2,9 4.5,8.5 C4.8,8 5,7.4 5.1,6.7 C5.3,5.2 5.4,3.9 5.1,2.9 C4.9,1.9 4.4,1.2 3.9,0.9 C3.5,0.5 3.1,0.4 3.1,0.3 C3.1,0.2 3.5,0 4.2,0.3 C4.9,0.6 5.8,1.3 6.3,2.6 C6.8,3.9 6.8,5.4 6.7,7 C6.7,7.8 6.5,8.8 5.9,9.8 C5.6,10.3 5.1,10.7 4.5,10.9 C3.9,11.2 3.2,11.2 2.6,10.9 L3,10.8 Z"
                            fill="#4E4F6F"></path>
                    </g>
                    <g transform="translate(328.200000, 0.000000)">
                        <path
                            d="M3.4,0.2 C4.6,0.3 5.5,1.4 5.9,2.5 C6.3,3.6 6.2,4.9 6.2,6.1 C6.2,6.8 6.2,7.6 5.9,8.3 C5.6,9 5.2,9.6 4.5,9.9 C3.4,10.3 2.1,9.5 1.5,8.5 C0.9,7.5 0.9,6.2 0.9,4.9 C0.9,3.7 0.9,2.5 1.5,1.5 C2.1,0.5 3.6,1.13686838e-13 4.5,0.8"
                            fill="#E0EBFF"></path>
                        <path
                            d="M3,10.8 C1.8,10.4 1,9.6 0.5,8.6 C0.1,7.6 0,6.7 0,5.9 C0,5.1 0,4.4 0,3.6 C0,2.9 0.3,2.1 0.6,1.5 C0.9,0.9 1.5,0.4 2,0.2 C2.5,0 3,0 3.4,0 C4.2,0.2 4.4,0.7 4.3,0.8 C4.3,0.9 3.9,0.8 3.4,0.8 C2.9,0.8 2.1,1.3 1.8,2.1 C1.4,2.9 1.5,4.3 1.6,5.8 C1.6,6.5 1.8,7.2 2,7.8 C2.2,8.3 2.8,8.8 3.3,9 C3.8,9.1 4.2,9 4.5,8.5 C4.8,8 5,7.4 5.1,6.7 C5.3,5.2 5.4,3.9 5.1,2.9 C4.9,1.9 4.4,1.2 3.9,0.9 C3.5,0.5 3.1,0.4 3.1,0.3 C3.1,0.2 3.5,0 4.2,0.3 C4.9,0.6 5.8,1.3 6.3,2.6 C6.8,3.9 6.8,5.4 6.7,7 C6.7,7.8 6.5,8.8 5.9,9.8 C5.6,10.3 5.1,10.7 4.5,10.9 C3.9,11.2 3.2,11.2 2.6,10.9 L3,10.8 Z"
                            fill="#4E4F6F"></path>
                    </g>
                    <g transform="translate(313.900000, 0.000000)">
                        <path
                            d="M3.5,0.2 C4.7,0.3 5.6,1.4 6,2.5 C6.4,3.6 6.3,4.9 6.3,6.1 C6.3,6.8 6.3,7.6 6,8.3 C5.7,9 5.3,9.6 4.6,9.9 C3.5,10.3 2.2,9.5 1.6,8.5 C1,7.5 1,6.2 1,4.9 C1,3.7 1,2.5 1.6,1.5 C2.2,0.5 3.7,1.13686838e-13 4.6,0.8"
                            fill="#E0EBFF"></path>
                        <path
                            d="M3,10.8 C1.8,10.4 1,9.6 0.5,8.6 C0.1,7.6 0,6.7 0,5.9 C0,5.1 0,4.4 0,3.6 C0,2.9 0.3,2.1 0.6,1.5 C0.9,0.9 1.5,0.4 2,0.2 C2.5,0 3,0 3.4,0 C4.2,0.2 4.4,0.7 4.3,0.8 C4.3,0.9 3.9,0.8 3.4,0.8 C2.9,0.8 2.1,1.3 1.8,2.1 C1.4,2.9 1.5,4.3 1.6,5.8 C1.6,6.5 1.8,7.2 2,7.8 C2.2,8.3 2.8,8.8 3.3,9 C3.8,9.1 4.2,9 4.5,8.5 C4.8,8 5,7.4 5.1,6.7 C5.3,5.2 5.4,3.9 5.1,2.9 C4.9,1.9 4.4,1.2 3.9,0.9 C3.5,0.5 3.1,0.4 3.1,0.3 C3.1,0.2 3.5,0 4.2,0.3 C4.9,0.6 5.8,1.3 6.3,2.6 C6.8,3.9 6.8,5.4 6.7,7 C6.7,7.8 6.5,8.8 5.9,9.8 C5.6,10.3 5.1,10.7 4.5,10.9 C3.9,11.2 3.2,11.2 2.6,10.9 L3,10.8 Z"
                            fill="#4E4F6F"></path>
                    </g>
                    <g transform="translate(299.600000, 0.000000)">
                        <path
                            d="M3.5,0.2 C4.7,0.3 5.6,1.4 6,2.5 C6.4,3.6 6.3,4.9 6.3,6.1 C6.3,6.8 6.3,7.6 6,8.3 C5.7,9 5.3,9.6 4.6,9.9 C3.5,10.3 2.2,9.5 1.6,8.5 C1,7.5 1,6.2 1,4.9 C1,3.7 1,2.5 1.6,1.5 C2.2,0.5 3.7,1.13686838e-13 4.6,0.8"
                            fill="#E0EBFF"></path>
                        <path
                            d="M3,10.8 C1.8,10.4 1,9.6 0.5,8.6 C0.1,7.6 -1.13686838e-13,6.7 -1.13686838e-13,5.9 C-1.13686838e-13,5.1 -1.13686838e-13,4.4 -1.13686838e-13,3.6 C-1.13686838e-13,2.9 0.3,2.1 0.6,1.5 C0.9,0.9 1.5,0.4 2,0.2 C2.5,0 3,0 3.4,0 C4.2,0.2 4.4,0.7 4.3,0.8 C4.3,0.9 3.9,0.8 3.4,0.8 C2.9,0.8 2.1,1.3 1.8,2.1 C1.4,2.9 1.5,4.3 1.6,5.8 C1.6,6.5 1.8,7.2 2,7.8 C2.2,8.3 2.8,8.8 3.3,9 C3.8,9.1 4.2,9 4.5,8.5 C4.8,8 5,7.4 5.1,6.7 C5.3,5.2 5.4,3.9 5.1,2.9 C4.9,1.9 4.4,1.2 3.9,0.9 C3.5,0.5 3.1,0.4 3.1,0.3 C3.1,0.2 3.5,0 4.2,0.3 C4.9,0.6 5.8,1.3 6.3,2.6 C6.8,3.9 6.8,5.4 6.7,7 C6.7,7.8 6.5,8.8 5.9,9.8 C5.6,10.3 5.1,10.7 4.5,10.9 C3.9,11.2 3.2,11.2 2.6,10.9 L3,10.8 Z"
                            fill="#4E4F6F"></path>
                    </g>
                    <g transform="translate(285.400000, 0.000000)">
                        <path
                            d="M3.4,0.2 C4.6,0.3 5.5,1.4 5.9,2.5 C6.3,3.7 6.2,4.9 6.2,6.1 C6.2,6.8 6.2,7.6 5.9,8.3 C5.6,9 5.2,9.6 4.5,9.9 C3.4,10.3 2.1,9.5 1.5,8.5 C0.9,7.5 0.9,6.2 0.9,4.9 C0.9,3.7 0.9,2.5 1.5,1.5 C2.1,0.5 3.6,1.13686838e-13 4.5,0.8"
                            fill="#E0EBFF"></path>
                        <path
                            d="M3,10.8 C1.8,10.4 1,9.6 0.5,8.6 C0.1,7.6 0,6.7 0,5.9 C0,5.1 0,4.4 0,3.6 C0,2.9 0.3,2.1 0.6,1.5 C0.9,0.9 1.5,0.4 2,0.2 C2.5,0 3,0 3.4,0 C4.2,0.2 4.4,0.7 4.3,0.8 C4.3,0.9 3.9,0.8 3.4,0.8 C2.9,0.8 2.1,1.3 1.8,2.1 C1.4,2.9 1.5,4.3 1.6,5.8 C1.6,6.5 1.8,7.2 2,7.8 C2.2,8.3 2.8,8.8 3.3,9 C3.8,9.1 4.2,9 4.5,8.5 C4.8,8 5,7.4 5.1,6.7 C5.3,5.2 5.4,3.9 5.1,2.9 C4.9,1.9 4.4,1.2 3.9,0.9 C3.5,0.5 3.1,0.4 3.1,0.3 C3.1,0.2 3.5,0 4.2,0.3 C4.9,0.6 5.8,1.3 6.3,2.6 C6.8,3.9 6.8,5.4 6.7,7 C6.7,7.8 6.5,8.8 5.9,9.8 C5.6,10.3 5.1,10.7 4.5,10.9 C3.9,11.2 3.2,11.2 2.6,10.9 L3,10.8 Z"
                            fill="#4E4F6F"></path>
                    </g>
                    <g transform="translate(271.100000, 0.000000)">
                        <path
                            d="M3.5,0.2 C4.7,0.3 5.6,1.4 6,2.5 C6.4,3.6 6.3,4.9 6.3,6.1 C6.3,6.8 6.3,7.6 6,8.3 C5.7,9 5.3,9.6 4.6,9.9 C3.5,10.3 2.2,9.5 1.6,8.5 C1,7.5 1,6.2 1,4.9 C1,3.7 1,2.5 1.6,1.5 C2.2,0.5 3.7,1.13686838e-13 4.6,0.8"
                            fill="#E0EBFF"></path>
                        <path
                            d="M3,10.8 C1.8,10.4 1,9.6 0.5,8.6 C0.1,7.6 -1.13686838e-13,6.7 -1.13686838e-13,5.9 C-1.13686838e-13,5.1 -1.13686838e-13,4.4 -1.13686838e-13,3.6 C-1.13686838e-13,2.9 0.3,2.1 0.6,1.5 C0.9,0.9 1.5,0.4 2,0.2 C2.5,0 3,0 3.4,0 C4.2,0.2 4.4,0.7 4.3,0.8 C4.3,0.9 3.9,0.8 3.4,0.8 C2.9,0.8 2.1,1.3 1.8,2.1 C1.4,2.9 1.5,4.3 1.6,5.8 C1.6,6.5 1.8,7.2 2,7.8 C2.2,8.3 2.8,8.8 3.3,9 C3.8,9.1 4.2,9 4.5,8.5 C4.8,8 5,7.4 5.1,6.7 C5.3,5.2 5.4,3.9 5.1,2.9 C4.9,1.9 4.4,1.2 3.9,0.9 C3.5,0.5 3.1,0.4 3.1,0.3 C3.1,0.2 3.5,0 4.2,0.3 C4.9,0.6 5.8,1.3 6.3,2.6 C6.8,3.9 6.8,5.4 6.7,7 C6.7,7.8 6.5,8.8 5.9,9.8 C5.6,10.3 5.1,10.7 4.5,10.9 C3.9,11.2 3.2,11.2 2.6,10.9 L3,10.8 Z"
                            fill="#4E4F6F"></path>
                    </g>
                    <g transform="translate(256.800000, 0.000000)">
                        <path
                            d="M3.5,0.2 C4.7,0.3 5.6,1.4 6,2.5 C6.4,3.7 6.3,4.9 6.3,6.1 C6.3,6.8 6.3,7.6 6,8.3 C5.7,9 5.3,9.6 4.6,9.9 C3.5,10.3 2.2,9.5 1.6,8.5 C1,7.5 1,6.2 1,4.9 C1,3.7 1,2.5 1.6,1.5 C2.2,0.5 3.7,1.13686838e-13 4.6,0.8"
                            fill="#E0EBFF"></path>
                        <path
                            d="M3,10.8 C1.8,10.4 1,9.6 0.5,8.6 C0.1,7.6 -1.13686838e-13,6.7 -1.13686838e-13,5.9 C-1.13686838e-13,5.1 -1.13686838e-13,4.4 -1.13686838e-13,3.6 C-1.13686838e-13,2.9 0.3,2.1 0.6,1.5 C0.9,0.9 1.5,0.4 2,0.2 C2.5,0 3,0 3.4,0 C4.2,0.2 4.4,0.7 4.3,0.8 C4.3,0.9 3.9,0.8 3.4,0.8 C2.9,0.8 2.1,1.3 1.8,2.1 C1.4,2.9 1.5,4.3 1.6,5.8 C1.6,6.5 1.8,7.2 2,7.8 C2.2,8.3 2.8,8.8 3.3,9 C3.8,9.1 4.2,9 4.5,8.5 C4.8,8 5,7.4 5.1,6.7 C5.3,5.2 5.4,3.9 5.1,2.9 C4.9,1.9 4.4,1.2 3.9,0.9 C3.5,0.5 3.1,0.4 3.1,0.3 C3.1,0.2 3.5,0 4.2,0.3 C4.9,0.6 5.8,1.3 6.3,2.6 C6.8,3.9 6.8,5.4 6.7,7 C6.7,7.8 6.5,8.8 5.9,9.8 C5.6,10.3 5.1,10.7 4.5,10.9 C3.9,11.2 3.2,11.2 2.6,10.9 L3,10.8 Z"
                            fill="#4E4F6F"></path>
                    </g>
                    <g transform="translate(242.600000, 0.000000)">
                        <path
                            d="M3.4,0.2 C4.6,0.3 5.5,1.4 5.9,2.5 C6.3,3.6 6.2,4.9 6.2,6.1 C6.2,6.8 6.2,7.6 5.9,8.3 C5.6,9 5.2,9.6 4.5,9.9 C3.4,10.3 2.1,9.5 1.5,8.5 C0.9,7.5 0.9,6.2 0.9,4.9 C0.9,3.7 0.9,2.5 1.5,1.5 C2.1,0.5 3.6,1.13686838e-13 4.5,0.8"
                            fill="#E0EBFF"></path>
                        <path
                            d="M3,10.8 C1.8,10.4 1,9.6 0.5,8.6 C0.1,7.6 -1.13686838e-13,6.7 -1.13686838e-13,5.9 C-1.13686838e-13,5.1 -1.13686838e-13,4.4 -1.13686838e-13,3.6 C-1.13686838e-13,2.9 0.3,2.1 0.6,1.5 C0.9,0.9 1.5,0.4 2,0.2 C2.5,0 3,0 3.4,0 C4.2,0.2 4.4,0.7 4.3,0.8 C4.3,0.9 3.9,0.8 3.4,0.8 C2.9,0.8 2.1,1.3 1.8,2.1 C1.4,2.9 1.5,4.3 1.6,5.8 C1.6,6.5 1.8,7.2 2,7.8 C2.2,8.3 2.8,8.8 3.3,9 C3.8,9.1 4.2,9 4.5,8.5 C4.8,8 5,7.4 5.1,6.7 C5.3,5.2 5.4,3.9 5.1,2.9 C4.9,1.9 4.4,1.2 3.9,0.9 C3.5,0.5 3.1,0.4 3.1,0.3 C3.1,0.2 3.5,0 4.2,0.3 C4.9,0.6 5.8,1.3 6.3,2.6 C6.8,3.9 6.8,5.4 6.7,7 C6.7,7.8 6.5,8.8 5.9,9.8 C5.6,10.3 5.1,10.7 4.5,10.9 C3.9,11.2 3.2,11.2 2.6,10.9 L3,10.8 Z"
                            fill="#4E4F6F"></path>
                    </g>
                    <g transform="translate(228.300000, 0.000000)">
                        <path
                            d="M3.5,0.2 C4.7,0.3 5.6,1.4 6,2.5 C6.4,3.7 6.3,4.9 6.3,6.1 C6.3,6.8 6.3,7.6 6,8.3 C5.7,9 5.3,9.6 4.6,9.9 C3.5,10.3 2.2,9.5 1.6,8.5 C1,7.5 1,6.2 1,4.9 C1,3.7 1,2.5 1.6,1.5 C2.2,0.5 3.7,1.13686838e-13 4.6,0.8"
                            fill="#E0EBFF"></path>
                        <path
                            d="M3,10.8 C1.8,10.4 1,9.6 0.5,8.6 C0.1,7.6 -1.13686838e-13,6.7 -1.13686838e-13,5.9 C-1.13686838e-13,5.1 -1.13686838e-13,4.4 -1.13686838e-13,3.6 C-1.13686838e-13,2.9 0.3,2.1 0.6,1.5 C0.9,0.9 1.5,0.4 2,0.2 C2.5,0 3,0 3.4,0 C4.2,0.2 4.4,0.7 4.3,0.8 C4.3,0.9 3.9,0.8 3.4,0.8 C2.9,0.8 2.1,1.3 1.8,2.1 C1.4,2.9 1.5,4.3 1.6,5.8 C1.6,6.5 1.8,7.2 2,7.8 C2.2,8.3 2.8,8.8 3.3,9 C3.8,9.1 4.2,9 4.5,8.5 C4.8,8 5,7.4 5.1,6.7 C5.3,5.2 5.4,3.9 5.1,2.9 C4.9,1.9 4.4,1.2 3.9,0.9 C3.5,0.5 3.1,0.4 3.1,0.3 C3.1,0.2 3.5,0 4.2,0.3 C4.9,0.6 5.8,1.3 6.3,2.6 C6.8,3.9 6.8,5.4 6.7,7 C6.7,7.8 6.5,8.8 5.9,9.8 C5.6,10.3 5.1,10.7 4.5,10.9 C3.9,11.2 3.2,11.2 2.6,10.9 L3,10.8 Z"
                            fill="#4E4F6F"></path>
                    </g>
                    <g transform="translate(214.000000, 0.000000)">
                        <path
                            d="M3.5,0.2 C4.7,0.3 5.6,1.4 6,2.5 C6.4,3.7 6.3,4.9 6.3,6.1 C6.3,6.8 6.3,7.6 6,8.3 C5.7,9 5.3,9.6 4.6,9.9 C3.5,10.3 2.2,9.5 1.6,8.5 C1,7.5 1,6.2 1,4.9 C1,3.7 1,2.5 1.6,1.5 C2.2,0.5 3.7,1.13686838e-13 4.6,0.8"
                            fill="#E0EBFF"></path>
                        <path
                            d="M3,10.8 C1.8,10.4 1,9.6 0.5,8.6 C0.1,7.6 0,6.7 0,5.9 C0,5.1 0,4.4 0,3.6 C0,2.9 0.3,2.1 0.6,1.5 C0.9,0.9 1.5,0.4 2,0.2 C2.5,0 3,0 3.4,0 C4.2,0.2 4.4,0.7 4.3,0.8 C4.3,0.9 3.9,0.8 3.4,0.8 C2.9,0.8 2.1,1.3 1.8,2.1 C1.4,2.9 1.5,4.3 1.6,5.8 C1.6,6.5 1.8,7.2 2,7.8 C2.2,8.3 2.8,8.8 3.3,9 C3.8,9.1 4.2,9 4.5,8.5 C4.8,8 5,7.4 5.1,6.7 C5.3,5.2 5.4,3.9 5.1,2.9 C4.9,1.9 4.4,1.2 3.9,0.9 C3.5,0.5 3.1,0.4 3.1,0.3 C3.1,0.2 3.5,0 4.2,0.3 C4.9,0.6 5.8,1.3 6.3,2.6 C6.8,3.9 6.8,5.4 6.7,7 C6.7,7.8 6.5,8.8 5.9,9.8 C5.6,10.3 5.1,10.7 4.5,10.9 C3.9,11.2 3.2,11.2 2.6,10.9 L3,10.8 Z"
                            fill="#4E4F6F"></path>
                    </g>
                    <g transform="translate(199.800000, 0.000000)">
                        <path
                            d="M3.4,0.2 C4.6,0.3 5.5,1.4 5.9,2.5 C6.3,3.7 6.2,4.9 6.2,6.1 C6.2,6.8 6.2,7.6 5.9,8.3 C5.6,9 5.2,9.6 4.5,9.9 C3.4,10.3 2.1,9.5 1.5,8.5 C0.9,7.5 0.9,6.2 0.9,4.9 C0.9,3.7 0.9,2.5 1.5,1.5 C2.1,0.5 3.6,1.13686838e-13 4.5,0.8"
                            fill="#E0EBFF"></path>
                        <path
                            d="M3,10.8 C1.8,10.4 1,9.6 0.5,8.6 C0.1,7.6 -1.13686838e-13,6.7 -1.13686838e-13,5.9 C-1.13686838e-13,5.1 -1.13686838e-13,4.4 -1.13686838e-13,3.6 C-1.13686838e-13,2.9 0.3,2.1 0.6,1.5 C0.9,0.9 1.5,0.4 2,0.2 C2.5,0 3,0 3.4,0 C4.2,0.2 4.4,0.7 4.3,0.8 C4.3,0.9 3.9,0.8 3.4,0.8 C2.9,0.8 2.1,1.3 1.8,2.1 C1.4,2.9 1.5,4.3 1.6,5.8 C1.6,6.5 1.8,7.2 2,7.8 C2.2,8.3 2.8,8.8 3.3,9 C3.8,9.1 4.2,9 4.5,8.5 C4.8,8 5,7.4 5.1,6.7 C5.3,5.2 5.4,3.9 5.1,2.9 C4.9,1.9 4.4,1.2 3.9,0.9 C3.5,0.5 3.1,0.4 3.1,0.3 C3.1,0.2 3.5,0 4.2,0.3 C4.9,0.6 5.8,1.3 6.3,2.6 C6.8,3.9 6.8,5.4 6.7,7 C6.7,7.8 6.5,8.8 5.9,9.8 C5.6,10.3 5.1,10.7 4.5,10.9 C3.9,11.2 3.2,11.2 2.6,10.9 L3,10.8 Z"
                            fill="#4E4F6F"></path>
                    </g>
                    <g transform="translate(185.500000, 0.000000)">
                        <path
                            d="M3.5,0.2 C4.7,0.3 5.6,1.4 6,2.5 C6.4,3.7 6.3,4.9 6.3,6.1 C6.3,6.8 6.3,7.6 6,8.3 C5.7,9 5.3,9.6 4.6,9.9 C3.5,10.3 2.2,9.5 1.6,8.5 C1,7.5 1,6.2 1,4.9 C1,3.7 1,2.5 1.6,1.5 C2.2,0.5 3.7,1.13686838e-13 4.6,0.8"
                            fill="#E0EBFF"></path>
                        <path
                            d="M3,10.8 C1.8,10.4 1,9.6 0.5,8.6 C0.1,7.6 0,6.7 0,5.9 C0,5.1 0,4.4 0,3.6 C0,2.9 0.3,2.1 0.6,1.5 C0.9,0.9 1.5,0.4 2,0.2 C2.5,0 3,0 3.4,0 C4.2,0.2 4.4,0.7 4.3,0.8 C4.3,0.9 3.9,0.8 3.4,0.8 C2.9,0.8 2.1,1.3 1.8,2.1 C1.4,2.9 1.5,4.3 1.6,5.8 C1.6,6.5 1.8,7.2 2,7.8 C2.2,8.3 2.8,8.8 3.3,9 C3.8,9.1 4.2,9 4.5,8.5 C4.8,8 5,7.4 5.1,6.7 C5.3,5.2 5.4,3.9 5.1,2.9 C4.9,1.9 4.4,1.2 3.9,0.9 C3.5,0.5 3.1,0.4 3.1,0.3 C3.1,0.2 3.5,0 4.2,0.3 C4.9,0.6 5.8,1.3 6.3,2.6 C6.8,3.9 6.8,5.4 6.7,7 C6.7,7.8 6.5,8.8 5.9,9.8 C5.6,10.3 5.1,10.7 4.5,10.9 C3.9,11.2 3.2,11.2 2.6,10.9 L3,10.8 Z"
                            fill="#4E4F6F"></path>
                    </g>
                    <g transform="translate(171.200000, 0.000000)">
                        <path
                            d="M3.5,0.2 C4.7,0.3 5.6,1.4 6,2.5 C6.4,3.7 6.3,4.9 6.3,6.1 C6.3,6.8 6.3,7.6 6,8.3 C5.7,9 5.3,9.6 4.6,9.9 C3.5,10.3 2.2,9.5 1.6,8.5 C1,7.5 1,6.2 1,4.9 C1,3.7 1,2.5 1.6,1.5 C2.2,0.5 3.7,1.13686838e-13 4.6,0.8"
                            fill="#E0EBFF"></path>
                        <path
                            d="M3,10.8 C1.8,10.4 1,9.6 0.5,8.6 C0.1,7.6 0,6.7 0,5.9 C0,5.1 0,4.4 0,3.6 C0,2.9 0.3,2.1 0.6,1.5 C0.9,0.9 1.5,0.4 2,0.2 C2.5,0 3,0 3.4,0 C4.2,0.2 4.4,0.7 4.3,0.8 C4.3,0.9 3.9,0.8 3.4,0.8 C2.9,0.8 2.1,1.3 1.8,2.1 C1.4,2.9 1.5,4.3 1.6,5.8 C1.6,6.5 1.8,7.2 2,7.8 C2.2,8.3 2.8,8.8 3.3,9 C3.8,9.1 4.2,9 4.5,8.5 C4.8,8 5,7.4 5.1,6.7 C5.3,5.2 5.4,3.9 5.1,2.9 C4.9,1.9 4.4,1.2 3.9,0.9 C3.5,0.5 3.1,0.4 3.1,0.3 C3.1,0.2 3.5,0 4.2,0.3 C4.9,0.6 5.8,1.3 6.3,2.6 C6.8,3.9 6.8,5.4 6.7,7 C6.7,7.8 6.5,8.8 5.9,9.8 C5.6,10.3 5.1,10.7 4.5,10.9 C3.9,11.2 3.2,11.2 2.6,10.9 L3,10.8 Z"
                            fill="#4E4F6F"></path>
                    </g>
                    <g transform="translate(156.900000, 0.000000)">
                        <path
                            d="M3.5,0.2 C4.7,0.3 5.6,1.4 6,2.5 C6.4,3.7 6.3,4.9 6.3,6.1 C6.3,6.8 6.3,7.6 6,8.3 C5.7,9 5.3,9.6 4.6,9.9 C3.5,10.3 2.2,9.5 1.6,8.5 C1,7.5 1,6.2 1,4.9 C1,3.7 1,2.5 1.6,1.5 C2.2,0.5 3.7,1.13686838e-13 4.6,0.8"
                            fill="#E0EBFF"></path>
                        <path
                            d="M3,10.8 C1.8,10.4 1,9.6 0.5,8.6 C0.1,7.6 0,6.7 0,5.9 C0,5.1 0,4.4 0,3.6 C0,2.9 0.3,2.1 0.6,1.5 C0.9,0.9 1.5,0.4 2,0.2 C2.5,0 3,0 3.4,0 C4.2,0.2 4.4,0.7 4.3,0.8 C4.3,0.9 3.9,0.8 3.4,0.8 C2.9,0.8 2.1,1.3 1.8,2.1 C1.4,2.9 1.5,4.3 1.6,5.8 C1.6,6.5 1.8,7.2 2,7.8 C2.2,8.3 2.8,8.8 3.3,9 C3.8,9.1 4.2,9 4.5,8.5 C4.8,8 5,7.4 5.1,6.7 C5.3,5.2 5.4,3.9 5.1,2.9 C4.9,1.9 4.4,1.2 3.9,0.9 C3.5,0.5 3.1,0.4 3.1,0.3 C3.1,0.2 3.5,0 4.2,0.3 C4.9,0.6 5.8,1.3 6.3,2.6 C6.8,3.9 6.8,5.4 6.7,7 C6.7,7.8 6.5,8.8 5.9,9.8 C5.6,10.3 5.1,10.7 4.5,10.9 C3.9,11.2 3.2,11.2 2.6,10.9 L3,10.8 Z"
                            fill="#4E4F6F"></path>
                    </g>
                    <g transform="translate(142.700000, 0.000000)">
                        <path
                            d="M3.5,0.2 C4.7,0.3 5.6,1.4 6,2.5 C6.4,3.7 6.3,4.9 6.3,6.1 C6.3,6.8 6.3,7.6 6,8.3 C5.7,9 5.3,9.6 4.6,9.9 C3.5,10.3 2.2,9.5 1.6,8.5 C1,7.5 1,6.2 1,4.9 C1,3.7 1,2.5 1.6,1.5 C2.2,0.5 3.7,1.13686838e-13 4.6,0.8"
                            fill="#E0EBFF"></path>
                        <path
                            d="M3,10.8 C1.8,10.4 1,9.6 0.5,8.6 C0.1,7.6 0,6.7 0,5.9 C0,5.1 0,4.4 0,3.6 C0,2.9 0.3,2.1 0.6,1.5 C0.9,0.9 1.5,0.4 2,0.2 C2.5,0 3,0 3.4,0 C4.2,0.2 4.4,0.7 4.3,0.8 C4.3,0.9 3.9,0.8 3.4,0.8 C2.9,0.8 2.1,1.3 1.8,2.1 C1.4,2.9 1.5,4.3 1.6,5.8 C1.6,6.5 1.8,7.2 2,7.8 C2.2,8.3 2.8,8.8 3.3,9 C3.8,9.1 4.2,9 4.5,8.5 C4.8,8 5,7.4 5.1,6.7 C5.3,5.2 5.4,3.9 5.1,2.9 C4.9,1.9 4.4,1.2 3.9,0.9 C3.5,0.5 3.1,0.4 3.1,0.3 C3.1,0.2 3.5,0 4.2,0.3 C4.9,0.6 5.8,1.3 6.3,2.6 C6.8,3.9 6.8,5.4 6.7,7 C6.7,7.8 6.5,8.8 5.9,9.8 C5.6,10.3 5.1,10.7 4.5,10.9 C3.9,11.2 3.2,11.2 2.6,10.9 L3,10.8 Z"
                            fill="#4E4F6F"></path>
                    </g>
                    <g transform="translate(128.400000, 0.000000)">
                        <path
                            d="M3.5,0.2 C4.7,0.3 5.6,1.4 6,2.5 C6.4,3.7 6.3,4.9 6.3,6.1 C6.3,6.8 6.3,7.6 6,8.3 C5.7,9 5.3,9.6 4.6,9.9 C3.5,10.3 2.2,9.5 1.6,8.5 C1,7.5 1,6.2 1,4.9 C1,3.7 1,2.5 1.6,1.5 C2.2,0.5 3.7,1.13686838e-13 4.6,0.8"
                            fill="#E0EBFF"></path>
                        <path
                            d="M3,10.8 C1.8,10.4 1,9.6 0.5,8.6 C0.1,7.6 0,6.7 0,5.9 C0,5.1 0,4.4 0,3.6 C0,2.9 0.3,2.1 0.6,1.5 C0.9,0.9 1.5,0.4 2,0.2 C2.5,0 3,0 3.4,0 C4.2,0.2 4.4,0.7 4.3,0.8 C4.3,0.9 3.9,0.8 3.4,0.8 C2.9,0.8 2.1,1.3 1.8,2.1 C1.4,2.9 1.5,4.3 1.6,5.8 C1.6,6.5 1.8,7.2 2,7.8 C2.2,8.3 2.8,8.8 3.3,9 C3.8,9.1 4.2,9 4.5,8.5 C4.8,8 5,7.4 5.1,6.7 C5.3,5.2 5.4,3.9 5.1,2.9 C4.9,1.9 4.4,1.2 3.9,0.9 C3.5,0.5 3.1,0.4 3.1,0.3 C3.1,0.2 3.5,0 4.2,0.3 C4.9,0.6 5.8,1.3 6.3,2.6 C6.8,3.9 6.8,5.4 6.7,7 C6.7,7.8 6.5,8.8 5.9,9.8 C5.6,10.3 5.1,10.7 4.5,10.9 C3.9,11.2 3.2,11.2 2.6,10.9 L3,10.8 Z"
                            fill="#4E4F6F"></path>
                    </g>
                    <g transform="translate(114.100000, 0.000000)">
                        <path
                            d="M3.5,0.2 C4.7,0.3 5.6,1.4 6,2.5 C6.4,3.7 6.3,4.9 6.3,6.1 C6.3,6.8 6.3,7.6 6,8.3 C5.7,9 5.3,9.6 4.6,9.9 C3.5,10.3 2.2,9.5 1.6,8.5 C1,7.5 1,6.2 1,4.9 C1,3.7 1,2.5 1.6,1.5 C2.2,0.5 3.7,1.13686838e-13 4.6,0.8"
                            fill="#E0EBFF"></path>
                        <path
                            d="M3,10.8 C1.8,10.4 1,9.6 0.5,8.6 C0.1,7.6 -1.13686838e-13,6.7 -1.13686838e-13,5.9 C-1.13686838e-13,5.1 -1.13686838e-13,4.4 -1.13686838e-13,3.6 C-1.13686838e-13,2.9 0.3,2.1 0.6,1.5 C0.9,0.9 1.5,0.4 2,0.2 C2.5,0 3,0 3.4,0 C4.2,0.2 4.4,0.7 4.3,0.8 C4.3,0.9 3.9,0.8 3.4,0.8 C2.9,0.8 2.1,1.3 1.8,2.1 C1.4,2.9 1.5,4.3 1.6,5.8 C1.6,6.5 1.8,7.2 2,7.8 C2.2,8.3 2.8,8.8 3.3,9 C3.8,9.1 4.2,9 4.5,8.5 C4.8,8 5,7.4 5.1,6.7 C5.3,5.2 5.4,3.9 5.1,2.9 C4.9,1.9 4.4,1.2 3.9,0.9 C3.5,0.5 3.1,0.4 3.1,0.3 C3.1,0.2 3.5,0 4.2,0.3 C4.9,0.6 5.8,1.3 6.3,2.6 C6.8,3.9 6.8,5.4 6.7,7 C6.7,7.8 6.5,8.8 5.9,9.8 C5.6,10.3 5.1,10.7 4.5,10.9 C3.9,11.2 3.2,11.2 2.6,10.9 L3,10.8 Z"
                            fill="#4E4F6F"></path>
                    </g>
                    <g transform="translate(99.900000, 0.000000)">
                        <path
                            d="M3.5,0.2 C4.7,0.3 5.6,1.4 6,2.5 C6.4,3.7 6.3,4.9 6.3,6.1 C6.3,6.8 6.3,7.6 6,8.3 C5.7,9 5.3,9.6 4.6,9.9 C3.5,10.3 2.2,9.5 1.6,8.5 C1,7.5 1,6.2 1,4.9 C1,3.7 1,2.5 1.6,1.5 C2.2,0.5 3.7,1.13686838e-13 4.6,0.8"
                            fill="#E0EBFF"></path>
                        <path
                            d="M3,10.8 C1.8,10.4 1,9.6 0.5,8.6 C0.1,7.6 0,6.7 0,5.9 C0,5.1 0,4.4 0,3.6 C0,2.9 0.3,2.1 0.6,1.5 C0.9,0.9 1.5,0.4 2,0.2 C2.5,0 3,0 3.4,0 C4.2,0.2 4.4,0.7 4.3,0.8 C4.3,0.9 3.9,0.8 3.4,0.8 C2.9,0.8 2.1,1.3 1.8,2.1 C1.4,2.9 1.5,4.3 1.6,5.8 C1.6,6.5 1.8,7.2 2,7.8 C2.2,8.3 2.8,8.8 3.3,9 C3.8,9.1 4.2,9 4.5,8.5 C4.8,8 5,7.4 5.1,6.7 C5.3,5.2 5.4,3.9 5.1,2.9 C4.9,1.9 4.4,1.2 3.9,0.9 C3.5,0.5 3.1,0.4 3.1,0.3 C3.1,0.2 3.5,0 4.2,0.3 C4.9,0.6 5.8,1.3 6.3,2.6 C6.8,3.9 6.8,5.4 6.7,7 C6.7,7.8 6.5,8.8 5.9,9.8 C5.6,10.3 5.1,10.7 4.5,10.9 C3.9,11.2 3.2,11.2 2.6,10.9 L3,10.8 Z"
                            fill="#4E4F6F"></path>
                    </g>
                    <g transform="translate(85.600000, 0.000000)">
                        <path
                            d="M3.5,0.2 C4.7,0.3 5.6,1.4 6,2.5 C6.4,3.7 6.3,4.9 6.3,6.1 C6.3,6.8 6.3,7.6 6,8.3 C5.7,9 5.3,9.6 4.6,9.9 C3.5,10.3 2.2,9.5 1.6,8.5 C1,7.5 1,6.2 1,4.9 C1,3.7 1,2.5 1.6,1.5 C2.2,0.5 3.7,1.13686838e-13 4.6,0.8"
                            fill="#E0EBFF"></path>
                        <path
                            d="M3,10.8 C1.8,10.4 1,9.6 0.5,8.6 C0.1,7.6 -1.13686838e-13,6.7 -1.13686838e-13,5.9 C-1.13686838e-13,5.1 -1.13686838e-13,4.4 -1.13686838e-13,3.6 C-1.13686838e-13,2.9 0.3,2.1 0.6,1.5 C0.9,0.9 1.5,0.4 2,0.2 C2.5,0 3,0 3.4,0 C4.2,0.2 4.4,0.7 4.3,0.8 C4.3,0.9 3.9,0.8 3.4,0.8 C2.9,0.8 2.1,1.3 1.8,2.1 C1.4,2.9 1.5,4.3 1.6,5.8 C1.6,6.5 1.8,7.2 2,7.8 C2.2,8.3 2.8,8.8 3.3,9 C3.8,9.1 4.2,9 4.5,8.5 C4.8,8 5,7.4 5.1,6.7 C5.3,5.2 5.4,3.9 5.1,2.9 C4.9,1.9 4.4,1.2 3.9,0.9 C3.5,0.5 3.1,0.4 3.1,0.3 C3.1,0.2 3.5,0 4.2,0.3 C4.9,0.6 5.8,1.3 6.3,2.6 C6.8,3.9 6.8,5.4 6.7,7 C6.7,7.8 6.5,8.8 5.9,9.8 C5.6,10.3 5.1,10.7 4.5,10.9 C3.9,11.2 3.2,11.2 2.6,10.9 L3,10.8 Z"
                            fill="#4E4F6F"></path>
                    </g>
                    <g transform="translate(71.300000, 0.000000)">
                        <path
                            d="M3.5,0.2 C4.7,0.3 5.6,1.4 6,2.5 C6.4,3.7 6.3,4.9 6.3,6.1 C6.3,6.8 6.3,7.6 6,8.3 C5.7,9 5.3,9.6 4.6,9.9 C3.5,10.3 2.2,9.5 1.6,8.5 C1,7.5 1,6.2 1,4.9 C1,3.7 1,2.5 1.6,1.5 C2.2,0.5 3.7,1.13686838e-13 4.6,0.8"
                            fill="#E0EBFF"></path>
                        <path
                            d="M3,10.8 C1.8,10.4 1,9.6 0.5,8.6 C0.1,7.6 -1.13686838e-13,6.7 -1.13686838e-13,5.9 C-1.13686838e-13,5.1 -1.13686838e-13,4.4 -1.13686838e-13,3.6 C-1.13686838e-13,2.9 0.3,2.1 0.6,1.5 C0.9,0.9 1.5,0.4 2,0.2 C2.5,0 3,0 3.4,0 C4.2,0.2 4.4,0.7 4.3,0.8 C4.3,0.9 3.9,0.8 3.4,0.8 C2.9,0.8 2.1,1.3 1.8,2.1 C1.4,2.9 1.5,4.3 1.6,5.8 C1.6,6.5 1.8,7.2 2,7.8 C2.2,8.3 2.8,8.8 3.3,9 C3.8,9.1 4.2,9 4.5,8.5 C4.8,8 5,7.4 5.1,6.7 C5.3,5.2 5.4,3.9 5.1,2.9 C4.9,1.9 4.4,1.2 3.9,0.9 C3.5,0.5 3.1,0.4 3.1,0.3 C3.1,0.2 3.5,0 4.2,0.3 C4.9,0.6 5.8,1.3 6.3,2.6 C6.8,3.9 6.8,5.4 6.7,7 C6.7,7.8 6.5,8.8 5.9,9.8 C5.6,10.3 5.1,10.7 4.5,10.9 C3.9,11.2 3.2,11.2 2.6,10.9 L3,10.8 Z"
                            fill="#4E4F6F"></path>
                    </g>
                    <g transform="translate(57.100000, 0.000000)">
                        <path
                            d="M3.5,0.2 C4.7,0.3 5.6,1.4 6,2.5 C6.4,3.7 6.3,4.9 6.3,6.1 C6.3,6.8 6.3,7.6 6,8.3 C5.7,9 5.3,9.6 4.6,9.9 C3.5,10.3 2.2,9.5 1.6,8.5 C1,7.5 1,6.2 1,4.9 C1,3.7 1,2.5 1.6,1.5 C2.2,0.5 3.7,1.13686838e-13 4.6,0.8"
                            fill="#E0EBFF"></path>
                        <path
                            d="M3,10.8 C1.8,10.4 1,9.6 0.5,8.6 C0.1,7.6 -1.13686838e-13,6.7 -1.13686838e-13,5.9 C-1.13686838e-13,5.1 -1.13686838e-13,4.4 -1.13686838e-13,3.6 C-1.13686838e-13,2.9 0.3,2.1 0.6,1.5 C0.9,0.9 1.5,0.4 2,0.2 C2.5,0 3,0 3.4,0 C4.2,0.2 4.4,0.7 4.3,0.8 C4.3,0.9 3.9,0.8 3.4,0.8 C2.9,0.8 2.1,1.3 1.8,2.1 C1.4,2.9 1.5,4.3 1.6,5.8 C1.6,6.5 1.8,7.2 2,7.8 C2.2,8.3 2.8,8.8 3.3,9 C3.8,9.1 4.2,9 4.5,8.5 C4.8,8 5,7.4 5.1,6.7 C5.3,5.2 5.4,3.9 5.1,2.9 C4.9,1.9 4.4,1.2 3.9,0.9 C3.5,0.5 3.1,0.4 3.1,0.3 C3.1,0.2 3.5,0 4.2,0.3 C4.9,0.6 5.8,1.3 6.3,2.6 C6.8,3.9 6.8,5.4 6.7,7 C6.7,7.8 6.5,8.8 5.9,9.8 C5.6,10.3 5.1,10.7 4.5,10.9 C3.9,11.2 3.2,11.2 2.6,10.9 L3,10.8 Z"
                            fill="#4E4F6F"></path>
                    </g>
                    <g transform="translate(42.800000, 0.000000)">
                        <path
                            d="M3.5,0.2 C4.7,0.3 5.6,1.4 6,2.5 C6.4,3.7 6.3,4.9 6.3,6.1 C6.3,6.8 6.3,7.6 6,8.3 C5.7,9 5.3,9.6 4.6,9.9 C3.5,10.3 2.2,9.5 1.6,8.5 C1,7.5 1,6.2 1,4.9 C1,3.7 1,2.5 1.6,1.5 C2.2,0.5 3.7,1.13686838e-13 4.6,0.8"
                            fill="#E0EBFF"></path>
                        <path
                            d="M3,10.8 C1.8,10.4 1,9.6 0.5,8.6 C0.1,7.6 -1.13686838e-13,6.7 -1.13686838e-13,5.9 C-1.13686838e-13,5.1 -1.13686838e-13,4.4 -1.13686838e-13,3.6 C-1.13686838e-13,2.9 0.3,2.1 0.6,1.5 C0.9,0.9 1.5,0.4 2,0.2 C2.5,0 3,0 3.4,0 C4.2,0.2 4.4,0.7 4.3,0.8 C4.3,0.9 3.9,0.8 3.4,0.8 C2.9,0.8 2.1,1.3 1.8,2.1 C1.4,2.9 1.5,4.3 1.6,5.8 C1.6,6.5 1.8,7.2 2,7.8 C2.2,8.3 2.8,8.8 3.3,9 C3.8,9.1 4.2,9 4.5,8.5 C4.8,8 5,7.4 5.1,6.7 C5.3,5.2 5.4,3.9 5.1,2.9 C4.9,1.9 4.4,1.2 3.9,0.9 C3.5,0.5 3.1,0.4 3.1,0.3 C3.1,0.2 3.5,0 4.2,0.3 C4.9,0.6 5.8,1.3 6.3,2.6 C6.8,3.9 6.8,5.4 6.7,7 C6.7,7.8 6.5,8.8 5.9,9.8 C5.6,10.3 5.1,10.7 4.5,10.9 C3.9,11.2 3.2,11.2 2.6,10.9 L3,10.8 Z"
                            fill="#4E4F6F"></path>
                    </g>
                    <g transform="translate(28.500000, 0.000000)">
                        <path
                            d="M3.5,0.2 C4.7,0.3 5.6,1.4 6,2.5 C6.4,3.7 6.3,4.9 6.3,6.1 C6.3,6.8 6.3,7.6 6,8.3 C5.7,9 5.3,9.6 4.6,9.9 C3.5,10.3 2.2,9.5 1.6,8.5 C1,7.5 1,6.2 1,4.9 C1,3.7 1,2.5 1.6,1.5 C2.2,0.5 3.7,1.13686838e-13 4.6,0.8"
                            fill="#E0EBFF"></path>
                        <path
                            d="M3,10.8 C1.8,10.4 1,9.6 0.5,8.6 C0.1,7.6 0,6.7 0,5.9 C0,5.1 0,4.4 0,3.6 C0,2.9 0.3,2.1 0.6,1.5 C0.9,0.9 1.5,0.4 2,0.2 C2.5,0 3,0 3.4,0 C4.2,0.2 4.4,0.7 4.3,0.8 C4.3,0.9 3.9,0.8 3.4,0.8 C2.9,0.8 2.1,1.3 1.8,2.1 C1.4,2.9 1.5,4.3 1.6,5.8 C1.6,6.5 1.8,7.2 2,7.8 C2.2,8.3 2.8,8.8 3.3,9 C3.8,9.1 4.2,9 4.5,8.5 C4.8,8 5,7.4 5.1,6.7 C5.3,5.2 5.4,3.9 5.1,2.9 C4.9,1.9 4.4,1.2 3.9,0.9 C3.5,0.5 3.1,0.4 3.1,0.3 C3.1,0.2 3.5,0 4.2,0.3 C4.9,0.6 5.8,1.3 6.3,2.6 C6.8,3.9 6.8,5.4 6.7,7 C6.7,7.8 6.5,8.8 5.9,9.8 C5.6,10.3 5.1,10.7 4.5,10.9 C3.9,11.2 3.2,11.2 2.6,10.9 L3,10.8 Z"
                            fill="#4E4F6F"></path>
                    </g>
                    <g transform="translate(14.300000, 0.000000)">
                        <path
                            d="M3.5,0.2 C4.7,0.3 5.6,1.4 6,2.5 C6.4,3.7 6.3,4.9 6.3,6.1 C6.3,6.8 6.3,7.6 6,8.3 C5.7,9 5.3,9.6 4.6,9.9 C3.5,10.3 2.2,9.5 1.6,8.5 C1,7.5 1,6.2 1,4.9 C1,3.7 1,2.5 1.6,1.5 C2.2,0.5 3.7,1.13686838e-13 4.6,0.8"
                            fill="#E0EBFF"></path>
                        <path
                            d="M3,10.8 C1.8,10.4 1,9.6 0.5,8.6 C0.1,7.6 -1.13686838e-13,6.7 -1.13686838e-13,5.9 C-1.13686838e-13,5.1 -1.13686838e-13,4.4 -1.13686838e-13,3.6 C-1.13686838e-13,2.9 0.3,2.1 0.6,1.5 C0.9,0.9 1.5,0.4 2,0.2 C2.5,0 3,0 3.4,0 C4.2,0.2 4.4,0.7 4.3,0.8 C4.3,0.9 3.9,0.8 3.4,0.8 C2.9,0.8 2.1,1.3 1.8,2.1 C1.4,2.9 1.5,4.3 1.6,5.8 C1.6,6.5 1.8,7.2 2,7.8 C2.2,8.3 2.8,8.8 3.3,9 C3.8,9.1 4.2,9 4.5,8.5 C4.8,8 5,7.4 5.1,6.7 C5.3,5.2 5.4,3.9 5.1,2.9 C4.9,1.9 4.4,1.2 3.9,0.9 C3.5,0.5 3.1,0.4 3.1,0.3 C3.1,0.2 3.5,0 4.2,0.3 C4.9,0.6 5.8,1.3 6.3,2.6 C6.8,3.9 6.8,5.4 6.7,7 C6.7,7.8 6.5,8.8 5.9,9.8 C5.6,10.3 5.1,10.7 4.5,10.9 C3.9,11.2 3.2,11.2 2.6,10.9 L3,10.8 Z"
                            fill="#4E4F6F"></path>
                    </g>
                    <g>
                        <path
                            d="M3.5,0.2 C4.7,0.3 5.6,1.4 6,2.5 C6.4,3.7 6.3,4.9 6.3,6.1 C6.3,6.8 6.3,7.6 6,8.3 C5.7,9 5.3,9.6 4.6,9.9 C3.5,10.3 2.2,9.5 1.6,8.5 C1,7.4 1,6.2 1,4.9 C1,3.7 1,2.5 1.6,1.5 C2.2,0.5 3.7,1.13686838e-13 4.6,0.8"
                            fill="#E0EBFF"></path>
                        <path
                            d="M3,10.8 C1.8,10.4 1,9.6 0.5,8.6 C0.1,7.6 0,6.7 0,5.9 C0,5.1 0,4.4 0,3.6 C0,2.9 0.3,2.1 0.6,1.5 C0.9,0.9 1.5,0.4 2,0.2 C2.5,0 3,0 3.4,0 C4.2,0.2 4.4,0.7 4.3,0.8 C4.3,0.9 3.9,0.8 3.4,0.8 C2.9,0.8 2.1,1.3 1.8,2.1 C1.4,2.9 1.5,4.3 1.6,5.8 C1.6,6.5 1.8,7.2 2,7.8 C2.2,8.3 2.8,8.8 3.3,9 C3.8,9.1 4.2,9 4.5,8.5 C4.8,8 5,7.4 5.1,6.7 C5.3,5.2 5.4,3.9 5.1,2.9 C4.9,1.9 4.4,1.2 3.9,0.9 C3.5,0.5 3.1,0.4 3.1,0.3 C3.1,0.2 3.5,0 4.2,0.3 C4.9,0.6 5.8,1.3 6.3,2.6 C6.8,3.9 6.8,5.4 6.7,7 C6.7,7.8 6.5,8.8 5.9,9.8 C5.6,10.3 5.1,10.7 4.5,10.9 C3.9,11.2 3.2,11.2 2.6,10.9 L3,10.8 Z"
                            fill="#4E4F6F"></path>
                    </g>
                </g>
                <path
                    d="M232.9,135.2 C232.9,135.2 214,131.7 205.3,126.4 C176.4,108.7 159.3,77.4 138.5,50.7 C123.8,31.7 104.2,13.7 82,6.5 C93.9,4.7 106.1,4.2 116.5,9.9 C124.5,14.3 130.2,21.8 135.3,29.5 C149.8,51.4 160.4,75.8 176.1,96.9 C191.8,118 212.9,131.9 232.9,135.2 L232.9,135.2 Z"
                    id="Path" fill="#FFFFFF"></path>
                <path
                    d="M798.2,143 C634.6,143.3 471.1,143.6 307.5,143.8 C282.7,143.8 255.4,144.8 231.9,138.2 C387.1,131.5 544.3,130.2 699.7,130 C725.1,130 750.8,130.2 775.7,135.9 C783.4,137.7 790.9,139.9 798.2,143 L798.2,143 Z"
                    id="Path" fill="#FFFFFF"></path>
            </g>
            <path
                d="M93.8,186.2 C124.8,186.2 149.9,187.3 149.9,188.8 C149.9,190.3 124.8,191.4 93.8,191.4 C62.8,191.4 37.7,190.3 37.7,188.8 C37.7,187.3 62.8,186.2 93.8,186.2 Z"
                id="Path" fill="#4E4F6F"></path>
            <path
                d="M56.1,170.1 C87.1,170.1 112.2,171.2 112.2,172.7 C112.2,174.2 87.1,175.3 56.1,175.3 C25.1,175.3 0,174.2 0,172.7 C0,171.2 25.1,170.1 56.1,170.1 Z"
                id="Path" fill="#4E4F6F"></path>
        </g>
    </g>
</svg>