<svg width="168" height="75" viewBox="0 0 168 75" fill="none" xmlns="http://www.w3.org/2000/svg">
<path d="M167.177 72.1506L6.2444 72.5216C2.72033 67.6992 0.865561 60.5892 1.23652 54.5921C1.85477 43.4635 10.7577 33.0149 21.3299 29.429C31.5311 25.9668 44.2054 30.7892 48.4714 40.5577C45.3801 32.1494 48.0386 22.1954 53.912 15.3328C60.0328 8.16098 69.1212 4.08048 78.395 2.34936C84.6394 1.17468 91.1311 0.989199 97.1282 2.96762C103.125 4.94604 108.566 9.33567 110.73 15.2709C112.832 11.9942 115.49 8.90289 119.076 7.29542C122.6 5.68795 127.176 5.8116 130.019 8.53194C131.565 10.0158 132.493 12.1178 133.111 14.1581C135.275 20.8353 135.831 28.007 134.595 34.9315C140.901 33.2622 149.124 32.273 152.648 37.7755C153.946 39.7539 154.255 42.227 154.132 44.5763C153.761 52.6137 149.124 59.7855 144.61 66.5245C150.051 63.866 154.193 60.5274 160.005 62.0112C161.922 62.5058 166.249 66.0298 167.115 67.8228C167.795 69.183 167.609 70.7286 167.239 72.2124L167.177 72.1506Z" fill="#C7E3FF"/>
<path d="M10.9431 32.5821C16.0747 28.8726 22.1336 27.1415 27.5743 27.2652C33.0768 27.3888 37.7755 29.1817 41.2378 31.2838C42.9689 32.3349 44.3909 33.5095 45.5656 34.6224C46.1838 35.1788 46.6166 35.7353 47.1112 36.2299C47.544 36.7863 47.9149 37.2809 48.2859 37.7137C48.9041 38.6411 49.3987 39.383 49.5842 39.9394C49.8315 40.4959 49.8933 40.805 49.8315 40.8668C49.7697 40.8668 49.4606 40.7431 49.0896 40.3104C48.7187 39.8776 48.1004 39.3212 47.3585 38.5174C46.9875 38.1465 46.5548 37.7755 46.0602 37.2809C45.5656 36.8481 45.0709 36.4153 44.4527 35.9826C43.278 35.0552 41.856 34.1278 40.1867 33.2623C36.91 31.5311 32.5203 30.1091 27.6361 30.171C22.7519 30.171 17.4348 31.8403 12.8597 35.117C11.6851 35.9208 10.6958 36.8481 9.64481 37.7755C8.71743 38.7647 7.79004 39.7539 6.9863 40.805C6.18257 41.856 5.50249 42.9689 4.94606 44.0818C4.69875 44.6382 4.45145 45.2564 4.20415 45.8129L3.64771 47.544C2.96763 49.8934 2.72033 52.2427 2.59668 54.4685C2.53485 56.6942 2.59668 58.7344 2.84398 60.651C3.27676 64.4224 4.26597 67.39 5.00788 69.3066C5.19336 69.8012 5.37884 70.234 5.56431 70.605C5.74979 70.9759 5.87344 71.285 5.99709 71.5323C6.2444 72.027 6.30622 72.3979 6.2444 72.4597C6.18257 72.5216 5.87344 72.3361 5.50248 71.9033C5.31701 71.7178 5.00788 71.4087 4.76058 71.0996C4.51328 70.7286 4.20415 70.3577 3.89502 69.863C2.72033 67.9464 1.36017 64.917 0.618257 60.9602C0.185477 58.9817 0 56.756 0 54.4066C0 52.0572 0.185474 49.4606 0.803732 46.8021C0.989209 46.122 1.17469 45.5037 1.36016 44.8236C1.60747 44.1435 1.85477 43.4635 2.1639 42.8452C2.78216 41.4851 3.52407 40.2486 4.38963 39.012C5.25519 37.7755 6.24439 36.6626 7.29543 35.5498C8.40829 34.4987 9.58298 33.4477 10.8813 32.5203L10.9431 32.5821Z" fill="#4E4F6F"/>
<path d="M71.3468 2.4112C74.3145 1.42199 77.3439 0.741912 80.3116 0.370958C81.0535 0.309132 81.7954 0.247292 82.5373 0.12364C83.2792 0.12364 83.9593 0.0618257 84.7012 0C86.1232 0 87.5452 3.77262e-06 88.9053 0.0618295C94.4697 0.556435 99.1684 2.59668 102.569 4.94606C106.031 7.29543 108.195 9.95393 109.37 11.9324C109.679 12.427 109.926 12.8597 110.112 13.2925C110.297 13.6635 110.421 14.0344 110.544 14.3436C110.73 14.9 110.792 15.2091 110.73 15.2709C110.606 15.2709 110.359 15.0855 109.988 14.6527C109.802 14.4054 109.617 14.1581 109.308 13.7871C109.061 13.478 108.69 13.1071 108.38 12.6743C106.958 11.005 104.671 8.77926 101.394 6.86266C98.1174 4.94606 93.7277 3.27676 88.7199 2.96763C83.6501 2.78215 77.9622 3.46224 72.3979 5.31702C66.8335 7.17179 61.8875 10.0776 58.1161 13.4162C54.2829 16.7548 51.5626 20.5261 49.9551 24.0502C49.1514 25.7813 48.595 27.4506 48.2858 28.9344C48.224 29.3054 48.1004 29.6763 48.0385 30.0473C47.9767 30.4183 47.9149 30.7274 47.8531 31.0365C47.7294 31.7166 47.7294 32.273 47.6676 32.8295C47.6057 33.9423 47.5439 34.746 47.5439 35.3643C47.5439 35.9207 47.4821 36.2917 47.3584 36.2917C47.2348 36.2917 47.1111 36.0444 46.9257 35.4261C46.7402 34.8697 46.5547 34.0041 46.4311 32.8295C46.4311 32.273 46.3074 31.5929 46.3692 30.9128C46.3692 30.5419 46.3692 30.1709 46.3692 29.8L46.4929 28.6253C46.6784 27.0178 47.1111 25.163 47.8531 23.1846C49.3369 19.2896 52.0572 15.0236 56.0759 11.2523C60.0945 7.4809 65.3497 4.32779 71.3468 2.28754V2.4112Z" fill="#4E4F6F"/>
<path d="M132.554 10.2631C133.791 11.7469 134.595 13.3543 135.213 14.9618C135.831 16.5693 136.202 18.1767 136.387 19.7224C136.635 21.3299 136.573 22.8137 136.573 24.112C136.573 25.4722 136.388 26.7087 136.264 27.8215C135.707 32.273 134.966 34.9933 134.471 34.9315C134.1 34.9315 134.038 32.1494 134.038 27.7597C134.038 26.6469 134.038 25.4722 133.976 24.1738C133.914 22.8755 133.853 21.5772 133.544 20.2788C133.296 18.9187 132.925 17.4967 132.307 16.1365C131.751 14.7763 131.009 13.4162 130.081 12.3033C129.154 11.1286 128.041 10.263 126.805 9.76844C125.568 9.21201 124.27 9.02654 122.91 8.96472C122.229 8.96472 121.611 8.9647 120.993 9.08836C120.375 9.15018 119.756 9.27384 119.2 9.45931C118.087 9.76844 117.036 10.2012 116.171 10.7577C114.378 11.8087 113.079 12.9834 112.152 13.7253C111.224 14.529 110.668 14.9618 110.483 14.8382C110.297 14.7145 110.483 14.0344 111.163 12.9216C111.843 11.8087 113.017 10.3249 114.872 8.84106C115.8 8.09915 116.974 7.41906 118.334 6.92446C119.014 6.67715 119.756 6.49168 120.498 6.3062C121.24 6.18255 122.044 6.0589 122.848 6.0589C124.455 6.0589 126.248 6.18255 127.979 6.92446C129.71 7.60454 131.256 8.84105 132.492 10.3249L132.554 10.2631Z" fill="#4E4F6F"/>
<path d="M155.368 43.3398C155.925 47.1112 155.368 50.7589 154.255 53.8502C153.699 55.4577 152.957 56.8179 152.215 57.9925C151.473 59.2291 150.669 60.2801 149.927 61.1456C148.444 63.0004 147.145 64.3606 146.218 65.2261C145.29 66.0917 144.672 66.5245 144.487 66.4008C144.301 66.2772 144.61 65.5971 145.229 64.4224C145.847 63.3095 146.898 61.7021 148.134 59.7855C149.309 57.8689 150.669 55.5195 151.473 52.861C152.277 50.0788 152.648 46.9257 152.215 43.7108C152.091 42.907 151.906 42.1651 151.72 41.3614C151.473 40.6195 151.226 39.8776 150.917 39.2593C150.298 37.961 149.433 36.8481 148.444 35.9826C146.465 34.3133 143.93 33.9423 141.766 34.0041C139.603 34.066 137.81 34.4987 136.511 34.7461C135.213 34.9934 134.471 35.0552 134.409 34.8697C134.347 34.6842 134.904 34.1896 136.078 33.6332C137.253 33.0768 139.046 32.273 141.457 31.8402C142.694 31.6548 144.054 31.5929 145.6 31.8402C147.083 32.0875 148.753 32.7058 150.113 33.7569C151.535 34.8079 152.71 36.2299 153.575 37.8992C154.379 39.5685 154.935 41.3614 155.183 43.278L155.368 43.3398Z" fill="#4E4F6F"/>
<path d="M159.078 60.0328C160.932 60.5274 162.664 61.2693 164.086 62.3821C165.508 63.495 166.497 64.917 167.115 66.2771C167.733 67.6373 167.919 68.9357 167.919 69.9867C167.919 71.0377 167.671 71.8415 167.424 72.3361L166.497 72.2124C166.682 71.7797 166.929 71.5323 167.053 71.5323C167.239 71.5323 167.362 71.8415 167.424 72.3361L166.497 72.2124C166.311 71.2232 166.126 69.4303 164.889 67.4519C164.271 66.5245 163.405 65.5353 162.354 64.7934C161.242 64.1133 159.82 63.495 158.336 63.1241C154.564 62.1348 151.04 63.0004 148.691 64.1751C148.073 64.4224 147.578 64.7315 147.083 64.9788C146.836 65.1025 146.589 65.2261 146.403 65.3498C146.218 65.4734 146.032 65.5971 145.847 65.6589C145.167 66.0298 144.672 66.2153 144.549 66.0299C144.363 65.9062 144.549 65.4116 145.043 64.7315C145.167 64.546 145.29 64.3606 145.414 64.1751C145.6 63.9896 145.785 63.8041 145.971 63.5568C146.403 63.1241 146.836 62.6294 147.516 62.1967C148.691 61.2693 150.36 60.4037 152.4 59.9091C154.441 59.4145 156.79 59.4145 159.078 59.9709V60.0328Z" fill="#4E4F6F"/>
<path d="M86.6178 71.2851C131.38 71.2851 167.609 71.9651 167.609 72.8925C167.609 73.8199 131.318 74.5 86.6178 74.5C41.9178 74.5 5.6261 73.8199 5.6261 72.8925C5.6261 71.9651 41.9178 71.2851 86.6178 71.2851Z" fill="#4E4F6F"/>
</svg>
