<?xml version="1.0" encoding="UTF-8"?>
<svg width="548px" height="608px" viewBox="0 0 548 608" version="1.1"
    xmlns="http://www.w3.org/2000/svg" xmlns:xlink="http://www.w3.org/1999/xlink">
    <title>Plant</title>
    <g id="Page-1" stroke="none" stroke-width="1" fill="none" fill-rule="evenodd">
        <g id="Plant" fill-rule="nonzero">
            <path
                d="M361.85,21.22 C361.85,21.22 230.11,196.6 274.58,377.85 C290.52,397.99 399.48,259.97 361.85,21.22 Z"
                id="Path" fill="#028838"></path>
            <path
                d="M224.92,0 C224.92,0 176.12,249.54 281.42,410.27 C302.48,365.93 341.33,203.82 224.92,0 L224.92,0 Z"
                id="Path" fill="#02A445"></path>
            <path
                d="M117.04,89.04 C117.04,89.04 201.05,261.78 173.81,407.88 C282.76,390.55 264.19,376.93 264.19,376.93 C264.19,376.93 245.98,166.4 117.04,89.04 Z"
                id="Path" fill="#028838"></path>
            <path
                d="M292.67,397.97 C292.67,397.97 258.83,325.5 256.66,322.09 C239.59,295.24 155.15,175.96 0,172.43 C61.27,222.88 137.28,253.81 195.36,448.96 C262.73,336.67 292.67,397.97 292.67,397.97 L292.67,397.97 Z"
                id="Path" fill="#02A445"></path>
            <path
                d="M267.28,387.56 C267.28,387.56 285.65,325.5 287.85,322.09 C305.13,295.24 390.63,175.96 547.72,172.43 C462.42,243.96 408.73,253.81 349.92,448.96 C281.7,336.67 267.28,387.56 267.28,387.56 L267.28,387.56 Z"
                id="Path" fill="#02A445"></path>
            <path
                d="M136.21,378.41 L430.85,378.41 L430.85,585.46 C430.85,597.86 420.78,607.93 408.38,607.93 L159.93,607.93 C146.84,607.93 136.21,597.3 136.21,584.21 L136.21,378.41 L136.21,378.41 Z"
                id="Path" fill="#A5CDFF"></path>
        </g>
    </g>
</svg>