<?xml version="1.0" encoding="UTF-8"?>
<svg height="18px" version="1.1" viewBox="0 0 20 18" width="20px"
    xmlns="http://www.w3.org/2000/svg">
    <title>Shape</title>
    <g fill="none" fill-rule="evenodd" id="App" stroke="none" stroke-width="1">
        <g fill="#231F20" fill-rule="nonzero" id="camera-copy"
            transform="translate(0.090000, 0.430000)">
            <path
                d="M17.84,2.06 L15.37,2.06 L14.74,0.6 C14.58,0.23 14.22,0 13.82,0 L6,0 C5.6,0 5.24,0.24 5.08,0.6 L4.45,2.06 L1.98,2.06 C0.89,2.06 0,2.95 0,4.05 L0,15.15 C0,16.25 0.89,17.14 1.99,17.14 L17.84,17.14 C18.93,17.14 19.83,16.25 19.83,15.15 L19.83,4.05 C19.83,2.95 18.94,2.06 17.84,2.06 Z M2,15.15 L2,4.06 L5.11,4.06 C5.51,4.06 5.87,3.82 6.03,3.46 L6.66,2 L13.16,2 L13.79,3.46 C13.95,3.83 14.31,4.06 14.71,4.06 L17.82,4.04 L17.82,15.13 L2,15.13 L2,15.15 Z M9.91,5.31 C7.61,5.31 5.73,7.19 5.73,9.49 C5.73,11.79 7.61,13.67 9.91,13.67 C12.21,13.67 14.09,11.79 14.09,9.49 C14.09,7.19 12.21,5.31 9.91,5.31 Z M9.91,11.67 C8.71,11.67 7.73,10.69 7.73,9.49 C7.73,8.29 8.71,7.31 9.91,7.31 C11.11,7.31 12.09,8.29 12.09,9.49 C12.09,10.69 11.11,11.67 9.91,11.67 Z"
                id="Shape"></path>
        </g>
    </g>
</svg>