<?xml version="1.0" encoding="UTF-8"?>
<svg height="18px" version="1.1" viewBox="0 0 20 18" width="20px"
    xmlns="http://www.w3.org/2000/svg">
    <title>gallery copy</title>
    <g fill="none" fill-rule="evenodd" id="App" stroke="none" stroke-width="1">
        <g fill="#231F20" fill-rule="nonzero" id="gallery-copy"
            transform="translate(0.000000, 0.230000)">
            <path
                d="M16.68,0 L3.31,0 C1.49,0 0,1.49 0,3.32 L0,14.22 C0,16.05 1.49,17.54 3.31,17.54 L16.68,17.54 C18.51,17.54 20,16.05 20,14.23 L20,3.32 C20,1.49 18.51,0.01 16.68,0.01 L16.68,0 Z M2,14.22 L2,3.32 C2,2.6 2.59,2.01 3.31,2.01 L16.68,2.01 C17.41,2.01 18,2.6 18,3.32 L18,10.36 L13.61,7.73 C12.33,6.96 10.73,7.28 9.79,8.49 L4.37,15.54 L3.31,15.54 C2.59,15.54 2,14.95 2,14.23 L2,14.22 Z M16.68,15.53 L6.9,15.53 L11.38,9.7 C11.69,9.29 12.18,9.19 12.58,9.43 L18,12.68 L18,14.21 C18,14.93 17.41,15.52 16.68,15.52 L16.68,15.53 Z M4.2,5.77 C4.2,5.02 4.8,4.42 5.55,4.42 C6.3,4.42 6.9,5.02 6.9,5.77 C6.9,6.52 6.3,7.12 5.55,7.12 C4.8,7.12 4.2,6.52 4.2,5.77 L4.2,5.77 Z"
                id="gallery"></path>
        </g>
    </g>
</svg>